%TF.GenerationSoftware,KiCad,Pcbnew,7.0.1-0*%
%TF.CreationDate,2023-08-11T08:05:26+01:00*%
%TF.ProjectId,ravens-panel-black,72617665-6e73-42d7-9061-6e656c2d626c,rev?*%
%TF.SameCoordinates,Original*%
%TF.FileFunction,Profile,NP*%
%FSLAX46Y46*%
G04 Gerber Fmt 4.6, Leading zero omitted, Abs format (unit mm)*
G04 Created by KiCad (PCBNEW 7.0.1-0) date 2023-08-11 08:05:26*
%MOMM*%
%LPD*%
G01*
G04 APERTURE LIST*
%TA.AperFunction,Profile*%
%ADD10C,0.100000*%
%TD*%
G04 APERTURE END LIST*
D10*
X73342000Y-67206000D02*
X70142000Y-67206000D01*
X82042000Y-68580000D02*
X64262000Y-68580000D01*
X68542000Y-65606000D02*
G75*
G03*
X70142000Y-67206000I1600000J0D01*
G01*
X86566000Y-54584600D02*
G75*
G03*
X86566000Y-54584600I-3000000J0D01*
G01*
X161542000Y-65606000D02*
X161542000Y-65606000D01*
X150799800Y-54610000D02*
G75*
G03*
X150799800Y-54610000I-3500000J0D01*
G01*
X135204200Y-54610000D02*
G75*
G03*
X135204200Y-54610000I-3500000J0D01*
G01*
X119557800Y-54610000D02*
G75*
G03*
X119557800Y-54610000I-3500000J0D01*
G01*
X159942000Y-33556000D02*
X156742000Y-33556000D01*
X64262000Y-68580000D02*
X64262000Y-28956000D01*
X99633800Y-42926000D02*
G75*
G03*
X99633800Y-42926000I-3500000J0D01*
G01*
X159942000Y-67206000D02*
G75*
G03*
X161542000Y-65606000I0J1600000D01*
G01*
X70142000Y-30356000D02*
G75*
G03*
X68542000Y-31956000I0J-1600000D01*
G01*
X73967600Y-54584600D02*
G75*
G03*
X73967600Y-54584600I-3000000J0D01*
G01*
X73342000Y-67206000D02*
G75*
G03*
X74942000Y-65606000I0J1600000D01*
G01*
X155142000Y-65606000D02*
G75*
G03*
X156742000Y-67206000I1600000J0D01*
G01*
X155142000Y-31956000D02*
X155142000Y-31956000D01*
X74942000Y-65606000D02*
X74942000Y-65606000D01*
X165862000Y-68580000D02*
X155702000Y-68580000D01*
X156742000Y-64006000D02*
G75*
G03*
X155142000Y-65606000I0J-1600000D01*
G01*
X162867600Y-42875200D02*
G75*
G03*
X162867600Y-42875200I-3000000J0D01*
G01*
X165862000Y-28956000D02*
X165862000Y-68580000D01*
X159942000Y-33556000D02*
G75*
G03*
X161542000Y-31956000I0J1600000D01*
G01*
X68542000Y-65606000D02*
X68542000Y-65606000D01*
X68542000Y-31956000D02*
X68542000Y-31956000D01*
X156742000Y-64006000D02*
X159942000Y-64006000D01*
X156742000Y-30356000D02*
X159942000Y-30356000D01*
X161542000Y-65606000D02*
G75*
G03*
X159942000Y-64006000I-1600000J0D01*
G01*
X70142000Y-64006000D02*
G75*
G03*
X68542000Y-65606000I0J-1600000D01*
G01*
X74942000Y-65606000D02*
G75*
G03*
X73342000Y-64006000I-1600000J0D01*
G01*
X74942000Y-31956000D02*
X74942000Y-31956000D01*
X130881000Y-42926000D02*
G75*
G03*
X130881000Y-42926000I-3500000J0D01*
G01*
X86566000Y-42900600D02*
G75*
G03*
X86566000Y-42900600I-3000000J0D01*
G01*
X155142000Y-31956000D02*
G75*
G03*
X156742000Y-33556000I1600000J0D01*
G01*
X73342000Y-33556000D02*
X70142000Y-33556000D01*
X103957000Y-54610000D02*
G75*
G03*
X103957000Y-54610000I-3500000J0D01*
G01*
X74942000Y-31956000D02*
G75*
G03*
X73342000Y-30356000I-1600000J0D01*
G01*
X70142000Y-30356000D02*
X73342000Y-30356000D01*
X73967600Y-42900600D02*
G75*
G03*
X73967600Y-42900600I-3000000J0D01*
G01*
X68542000Y-31956000D02*
G75*
G03*
X70142000Y-33556000I1600000J0D01*
G01*
X155142000Y-65606000D02*
X155142000Y-65606000D01*
X73342000Y-33556000D02*
G75*
G03*
X74942000Y-31956000I0J1600000D01*
G01*
X156742000Y-30356000D02*
G75*
G03*
X155142000Y-31956000I0J-1600000D01*
G01*
X155702000Y-68580000D02*
X82042000Y-68580000D01*
X64262000Y-28956000D02*
X165862000Y-28956000D01*
X162867600Y-54584600D02*
G75*
G03*
X162867600Y-54584600I-3000000J0D01*
G01*
X70142000Y-64006000D02*
X73342000Y-64006000D01*
X161542000Y-31956000D02*
G75*
G03*
X159942000Y-30356000I-1600000J0D01*
G01*
X161542000Y-31956000D02*
X161542000Y-31956000D01*
X159942000Y-67206000D02*
X156742000Y-67206000D01*
X115234600Y-42926000D02*
G75*
G03*
X115234600Y-42926000I-3500000J0D01*
G01*
X146476600Y-42926000D02*
G75*
G03*
X146476600Y-42926000I-3500000J0D01*
G01*
M02*
