<?xml version="1.0" standalone="no"?>
 <!DOCTYPE svg PUBLIC "-//W3C//DTD SVG 1.1//EN" 
 "http://www.w3.org/Graphics/SVG/1.1/DTD/svg11.dtd"> 
<svg
  xmlns:svg="http://www.w3.org/2000/svg"
  xmlns="http://www.w3.org/2000/svg"
  xmlns:xlink="http://www.w3.org/1999/xlink"
  version="1.1"
  width="138.6332mm" height="69.5960mm" viewBox="0.0000 0.0000 138.6332 69.5960">
<title>SVG Image created as ravens-brd.svg date 2023/08/08 20:46:34 </title>
  <desc>Image generated by PCBNEW </desc>
<g style="fill:#000000; fill-opacity:1.0000;stroke:#000000; stroke-opacity:1.0000;
stroke-linecap:round; stroke-linejoin:round;"
 transform="translate(0 0) scale(1 1)">
</g>
<g style="fill:#000000; fill-opacity:0.0; 
stroke:#000000; stroke-width:0.0000; stroke-opacity:1; 
stroke-linecap:round; stroke-linejoin:round;">
</g>
<g style="fill:#D0D2CD; fill-opacity:0.0; 
stroke:#D0D2CD; stroke-width:0.0000; stroke-opacity:1; 
stroke-linecap:round; stroke-linejoin:round;">
</g>
<g style="fill:#D0D2CD; fill-opacity:0.0; 
stroke:#D0D2CD; stroke-width:0.1000; stroke-opacity:1; 
stroke-linecap:round; stroke-linejoin:round;">
<path d="M92.5300 5.1368
L95.7300 5.1368
" />
<path d="M90.9300 6.7368 A1.6000 1.6000 0.0 0 0 92.5300 8.3368" />
</g>
<g style="fill:#D0D2CD; fill-opacity:1.0000; 
stroke:#D0D2CD; stroke-width:0.0000; stroke-opacity:1; 
stroke-linecap:round; stroke-linejoin:round;">
<circle cx="97.3300" cy="6.7368" r="0.0500" /> 
<circle cx="90.9300" cy="6.7368" r="0.0500" /> 
</g>
<g style="fill:#D0D2CD; fill-opacity:0.0; 
stroke:#D0D2CD; stroke-width:0.1000; stroke-opacity:1; 
stroke-linecap:round; stroke-linejoin:round;">
<path d="M95.7300 8.3368 A1.6000 1.6000 0.0 0 0 97.3300 6.7368" />
<path d="M97.3300 6.7368 A1.6000 1.6000 0.0 0 0 95.7300 5.1368" />
<path d="M92.5300 5.1368 A1.6000 1.6000 0.0 0 0 90.9300 6.7368" />
<path d="M95.7300 8.3368
L92.5300 8.3368
" />
</g>
<g style="fill:#D0D2CD; fill-opacity:1.0000; 
stroke:#D0D2CD; stroke-width:0.0000; stroke-opacity:1; 
stroke-linecap:round; stroke-linejoin:round;">
<circle cx="90.9300" cy="40.3868" r="0.0500" /> 
</g>
<g style="fill:#D0D2CD; fill-opacity:1.0000; 
stroke:#D0D2CD; stroke-width:0.1000; stroke-opacity:1; 
stroke-linecap:round; stroke-linejoin:round;">
</g>
<g style="fill:#D0D2CD; fill-opacity:0.0; 
stroke:#D0D2CD; stroke-width:0.1000; stroke-opacity:1; 
stroke-linecap:round; stroke-linejoin:round;">
<path d="M92.5300 38.7868
L95.7300 38.7868
" />
<path d="M90.9300 40.3868 A1.6000 1.6000 0.0 0 0 92.5300 41.9868" />
<path d="M92.5300 38.7868 A1.6000 1.6000 0.0 0 0 90.9300 40.3868" />
<path d="M95.7300 41.9868
L92.5300 41.9868
" />
<path d="M97.3300 40.3868 A1.6000 1.6000 0.0 0 0 95.7300 38.7868" />
<path d="M95.7300 41.9868 A1.6000 1.6000 0.0 0 0 97.3300 40.3868" />
</g>
<g style="fill:#D0D2CD; fill-opacity:1.0000; 
stroke:#D0D2CD; stroke-width:0.0000; stroke-opacity:1; 
stroke-linecap:round; stroke-linejoin:round;">
<circle cx="97.3300" cy="40.3868" r="0.0500" /> 
</g>
<g style="fill:#D0D2CD; fill-opacity:1.0000; 
stroke:#D0D2CD; stroke-width:0.1000; stroke-opacity:1; 
stroke-linecap:round; stroke-linejoin:round;">
</g>
<g style="fill:#D0D2CD; fill-opacity:0.0; 
stroke:#D0D2CD; stroke-width:0.1000; stroke-opacity:1; 
stroke-linecap:round; stroke-linejoin:round;">
<path d="M5.9300 38.7868
L9.1300 38.7868
" />
</g>
<g style="fill:#D0D2CD; fill-opacity:1.0000; 
stroke:#D0D2CD; stroke-width:0.0000; stroke-opacity:1; 
stroke-linecap:round; stroke-linejoin:round;">
<circle cx="10.7300" cy="40.3868" r="0.0500" /> 
</g>
<g style="fill:#D0D2CD; fill-opacity:0.0; 
stroke:#D0D2CD; stroke-width:0.1000; stroke-opacity:1; 
stroke-linecap:round; stroke-linejoin:round;">
<path d="M9.1300 41.9868 A1.6000 1.6000 0.0 0 0 10.7300 40.3868" />
<path d="M10.7300 40.3868 A1.6000 1.6000 0.0 0 0 9.1300 38.7868" />
<path d="M9.1300 41.9868
L5.9300 41.9868
" />
<path d="M5.9300 38.7868 A1.6000 1.6000 0.0 0 0 4.3300 40.3868" />
<path d="M4.3300 40.3868 A1.6000 1.6000 0.0 0 0 5.9300 41.9868" />
</g>
<g style="fill:#D0D2CD; fill-opacity:1.0000; 
stroke:#D0D2CD; stroke-width:0.0000; stroke-opacity:1; 
stroke-linecap:round; stroke-linejoin:round;">
<circle cx="4.3300" cy="40.3868" r="0.0500" /> 
</g>
<g style="fill:#D0D2CD; fill-opacity:0.0; 
stroke:#D0D2CD; stroke-width:0.1000; stroke-opacity:1; 
stroke-linecap:round; stroke-linejoin:round;">
<path d="M9.1300 8.3368 A1.6000 1.6000 0.0 0 0 10.7300 6.7368" />
<path d="M10.7300 6.7368 A1.6000 1.6000 0.0 0 0 9.1300 5.1368" />
<path d="M4.3300 6.7368 A1.6000 1.6000 0.0 0 0 5.9300 8.3368" />
<path d="M5.9300 5.1368 A1.6000 1.6000 0.0 0 0 4.3300 6.7368" />
</g>
<g style="fill:#D0D2CD; fill-opacity:1.0000; 
stroke:#D0D2CD; stroke-width:0.0000; stroke-opacity:1; 
stroke-linecap:round; stroke-linejoin:round;">
<circle cx="4.3300" cy="6.7368" r="0.0500" /> 
</g>
<g style="fill:#D0D2CD; fill-opacity:1.0000; 
stroke:#D0D2CD; stroke-width:0.1000; stroke-opacity:1; 
stroke-linecap:round; stroke-linejoin:round;">
</g>
<g style="fill:#D0D2CD; fill-opacity:0.0; 
stroke:#D0D2CD; stroke-width:0.1000; stroke-opacity:1; 
stroke-linecap:round; stroke-linejoin:round;">
<path d="M9.1300 8.3368
L5.9300 8.3368
" />
</g>
<g style="fill:#D0D2CD; fill-opacity:1.0000; 
stroke:#D0D2CD; stroke-width:0.0000; stroke-opacity:1; 
stroke-linecap:round; stroke-linejoin:round;">
<circle cx="10.7300" cy="6.7368" r="0.0500" /> 
</g>
<g style="fill:#D0D2CD; fill-opacity:1.0000; 
stroke:#D0D2CD; stroke-width:0.1000; stroke-opacity:1; 
stroke-linecap:round; stroke-linejoin:round;">
</g>
<g style="fill:#D0D2CD; fill-opacity:0.0; 
stroke:#D0D2CD; stroke-width:0.1000; stroke-opacity:1; 
stroke-linecap:round; stroke-linejoin:round;">
<path d="M5.9300 5.1368
L9.1300 5.1368
" />
<path d="M101.6500 3.7368
L101.6500 43.3608
" />
<path d="M1.3200 45.9008
L10.2100 45.9008
" />
<path d="M101.6500 47.1708 A1.2700 1.2700 0.0 0 0 100.3800 45.9008" />
<path d="M91.4900 45.9008
L100.3800 45.9008
" />
<path d="M101.6500 43.3608
L91.4900 43.3608
" />
<path d="M129.5900 68.7608 A2.5400 2.5400 0.0 0 0 132.1300 66.2208" />
<path d="M0.0500 67.4908
L0.0500 47.1708
" />
<path d="M100.3800 68.7608 A1.2700 1.2700 0.0 0 0 101.6500 67.4908" />
<circle cx="78.7646" cy="17.7068" r="3.5000" /> 
<circle cx="19.3540" cy="29.3654" r="3.0000" /> 
<path d="M83.8700 45.9008
L17.8300 45.9008
" />
<path d="M100.3800 68.7608
L1.3200 68.7608
" />
<path d="M129.5900 68.7608
L106.7300 68.7608
" />
<path d="M101.6500 47.1708
L101.6500 53.5208
" />
<path d="M132.1300 48.4408
L132.1300 66.2208
" />
<path d="M1.3200 45.9008 A1.2700 1.2700 0.0 0 0 0.0500 47.1708" />
<path d="M106.7300 45.9008 A2.5400 2.5400 0.0 0 0 104.1900 48.4408" />
<path d="M106.7300 45.9008
L129.5900 45.9008
" />
<path d="M104.1900 61.1408
L104.1900 66.2208
" />
<circle cx="95.6556" cy="29.3654" r="3.0000" /> 
<path d="M83.8700 43.3608
L17.8300 43.3608
" />
<circle cx="83.0878" cy="29.3908" r="3.5000" /> 
<circle cx="31.9218" cy="17.7068" r="3.5000" /> 
<circle cx="36.2450" cy="29.3908" r="3.5000" /> 
<circle cx="6.7556" cy="17.6814" r="3.0000" /> 
<path d="M101.6500 61.1408
L101.6500 67.4908
" />
<circle cx="67.4922" cy="29.3908" r="3.5000" /> 
<circle cx="51.8458" cy="29.3908" r="3.5000" /> 
<circle cx="47.5226" cy="17.7068" r="3.5000" /> 
<circle cx="63.1690" cy="17.7068" r="3.5000" /> 
<path d="M132.1300 48.4408 A2.5400 2.5400 0.0 0 0 129.5900 45.9008" />
<path d="M0.0500 3.7368
L101.6500 3.7368
" />
<path d="M10.2100 43.3608
L0.0500 43.3608
" />
<circle cx="95.6556" cy="17.6560" r="3.0000" /> 
<path d="M104.1900 48.4408
L104.1900 53.5208
" />
<circle cx="19.3540" cy="17.6814" r="3.0000" /> 
<path d="M0.0500 67.4908 A1.2700 1.2700 0.0 0 0 1.3200 68.7608" />
<path d="M104.1900 66.2208 A2.5400 2.5400 0.0 0 0 106.7300 68.7608" />
<circle cx="6.7556" cy="29.3654" r="3.0000" /> 
<path d="M0.0500 43.3608
L0.0500 3.7368
" />
</g>
<g style="fill:#D0D2CD; fill-opacity:0.0; 
stroke:#D0D2CD; stroke-width:0.1200; stroke-opacity:1; 
stroke-linecap:round; stroke-linejoin:round;">
<path d="M10.2100 45.9008 A1.2700 1.2700 0.0 0 0 10.2100 43.3608" />
<path d="M17.8300 43.3608 A1.2700 1.2700 0.0 0 0 17.8300 45.9008" />
<path d="M83.8700 45.9008 A1.2700 1.2700 0.0 0 0 83.8700 43.3608" />
<path d="M91.4900 43.3608 A1.2700 1.2700 0.0 0 0 91.4900 45.9008" />
<path d="M104.1900 61.1408 A1.2700 1.2700 0.0 0 0 101.6500 61.1408" />
<path d="M101.6500 53.5208 A1.2700 1.2700 0.0 0 0 104.1900 53.5208" />
<g >
</g>
<g >
</g>
<g >
</g>
<g >
</g>
<g >
</g>
<g >
</g>
<g >
</g>
<g >
</g>
<g >
</g>
<g >
</g>
<g >
</g>
<g >
</g>
<g >
</g>
<g >
</g>
<g >
</g>
<g >
</g>
<g >
</g>
<g >
</g>
<g >
</g>
<g >
</g>
<g >
</g>
<g >
</g>
<g >
</g>
<g >
</g>
<g >
</g>
<g >
</g>
<g >
</g>
<g >
</g>
<g >
</g>
<g >
</g>
<g >
</g>
<g >
</g>
<g >
</g>
<g >
</g>
<g >
</g>
<g >
</g>
<g >
</g>
<g >
</g>
<g >
</g>
<g >
</g>
<g >
</g>
<g >
</g>
<g >
</g>
<g >
</g>
<g >
</g>
<g >
</g>
<g >
</g>
<g >
</g>
</g> 
</svg>
