<?xml version="1.0" encoding="UTF-8"?>
<svg width="366px" height="44px" viewBox="0 0 366 44" version="1.1" xmlns="http://www.w3.org/2000/svg" xmlns:xlink="http://www.w3.org/1999/xlink">
    <title>ravens</title>
    <g id="Page-1" stroke="none" stroke-width="1" fill="none" fill-rule="evenodd">
        <g id="Artboard" transform="translate(-833.000000, -713.000000)" fill="#FFFFFF" fill-rule="nonzero">
            <g id="ravens" transform="translate(834.702500, 716.223000)">
                <path d="M-1.13686838e-13,36.777 L22.77,36.777 L26.427,18.009 C26.979,14.835 28.497,13.317 30.981,13.317 C32.982,13.317 33.81,14.559 33.81,15.87 C33.81,16.974 33.672,18.147 32.775,21.735 L55.407,21.735 C56.856,14.904 57.201,12.627 57.201,10.35 C57.201,5.382 54.165,0 44.988,0 C36.156,0 31.119,3.519 25.047,12.144 L23.253,12.144 L29.187,1.587 L6.831,1.587 L-1.13686838e-13,36.777 Z" id="Path"></path>
                <path d="M73.071,38.364 C83.628,38.364 89.01,35.328 93.426,28.014 L95.151,28.014 L90.39,36.777 L111.918,36.777 L115.506,18.492 C118.473,3.174 103.845,0 90.39,0 C64.515,0 61.272,11.178 60.306,14.628 L83.145,14.628 C83.421,13.593 84.456,10.902 88.941,10.902 C91.632,10.902 93.909,11.868 93.219,15.801 L75.072,16.974 C69.414,17.388 64.308,18.63 61.41,21.528 C59.685,23.253 58.719,25.53 58.719,28.497 C58.719,30.912 59.478,33.12 61.203,34.776 C63.411,36.984 67.206,38.364 73.071,38.364 Z M81.903,26.496 C81.903,25.737 82.179,25.116 82.662,24.633 C83.421,23.874 84.525,23.529 86.181,23.322 L91.908,22.839 L91.839,23.046 C91.563,24.219 90.459,28.842 85.215,28.842 C83.904,28.842 83.007,28.497 82.524,28.014 C82.11,27.669 81.903,27.117 81.903,26.496 Z" id="Shape"></path>
                <polygon id="Path" points="129.651 36.777 165.324 36.777 185.955 1.587 162.012 1.587 150.834 23.667 149.109 29.118 147.453 29.118 147.798 23.667 145.452 1.587 123.027 1.587"></polygon>
                <path d="M210.933,38.364 C228.252,38.364 237.222,32.844 240.603,25.53 L218.178,25.53 C216.66,27.186 215.073,28.152 212.175,28.152 C209.691,28.152 207.897,27.462 206.793,25.944 C206.172,25.116 205.827,24.012 205.689,22.701 L240.948,22.701 C241.5,20.217 241.845,18.147 241.845,16.215 C241.845,6.555 232.599,0 215.763,0 C203.481,0 192.51,4.14 187.818,10.833 C185.748,13.869 184.713,17.388 184.713,20.907 C184.713,24.081 185.61,26.979 187.266,29.394 C191.544,35.535 202.032,38.364 210.933,38.364 Z M206.793,15.111 C207.069,14.628 207.276,14.145 207.621,13.662 C209.07,11.454 211.554,10.005 215.418,10.005 C219.351,10.005 221.214,11.73 221.214,13.938 C221.214,14.352 221.145,14.904 221.076,15.111 L206.793,15.111 Z" id="Shape"></path>
                <path d="M244.536,36.777 L267.306,36.777 L270.618,19.803 C271.446,15.525 273.447,13.11 277.035,13.11 C280.416,13.11 281.451,15.318 280.761,18.768 L277.242,36.777 L300.081,36.777 L304.083,16.008 C306.084,5.796 299.874,0 289.11,0 C280.347,0 275.379,3.45 270.687,10.005 L268.962,10.005 L274.137,1.587 L251.367,1.587 L244.536,36.777 Z" id="Path"></path>
                <path d="M332.925,38.364 C343.965,38.364 352.383,36.501 356.523,32.43 C358.455,30.498 359.49,28.014 359.49,24.771 C359.49,19.458 356.109,16.767 346.173,15.111 L335.961,13.524 C332.856,13.041 331.89,12.558 331.89,11.592 C331.89,11.247 332.028,10.902 332.304,10.626 C332.994,9.936 334.926,9.729 336.444,9.729 C339.549,9.729 341.481,10.35 341.481,11.868 C341.481,12.213 341.412,12.489 341.343,12.627 L362.319,12.627 C362.388,12.351 362.457,11.937 362.457,11.316 C362.457,5.106 354.246,0 337.617,0 C326.646,0 318.09,1.863 313.95,5.934 C312.018,7.935 311.121,10.419 311.121,12.972 C311.121,18.009 314.571,21.321 324.162,22.908 L334.098,24.426 C337.479,24.978 338.514,25.53 338.514,26.634 C338.514,27.117 338.307,27.462 338.031,27.738 C337.41,28.359 335.409,28.635 333.822,28.635 C330.717,28.635 329.061,27.876 329.061,26.772 C329.061,26.496 329.13,26.151 329.199,26.013 L308.223,26.013 C308.154,26.22 308.085,26.634 308.085,27.255 C308.085,32.982 315.813,38.364 332.925,38.364 Z" id="Path"></path>
            </g>
        </g>
    </g>
</svg>