<?xml version="1.0" encoding="UTF-8"?>
<!-- Generated by Pixelmator Pro 3.2.3 -->
<svg width="2032" height="793" viewBox="0 0 2032 793" xmlns="http://www.w3.org/2000/svg" xmlns:xlink="http://www.w3.org/1999/xlink">
    <g id="Group">
        <path id="Line" fill="none" stroke="#000000" stroke-width="6" stroke-linecap="round" stroke-linejoin="round" d="M 477 370 L 844 370"/>
        <path id="path1" fill="none" stroke="#000000" stroke-width="6" stroke-linecap="round" stroke-linejoin="round" d="M 386 513 L 477.000366 422.000336"/>
        <path id="Line-copy" fill="none" stroke="#000000" stroke-width="6" stroke-linecap="round" stroke-linejoin="round" d="M 243 388 L 844 388"/>
        <path id="Line-copy-3" fill="none" stroke="#000000" stroke-width="6" stroke-linecap="round" stroke-linejoin="round" d="M 243 404 L 844 404"/>
        <path id="path2" fill="none" stroke="#000000" stroke-width="6" stroke-linecap="round" stroke-linejoin="round" d="M 386 279 L 476.999817 370.000183"/>
        <path id="path3" fill="none" stroke="#000000" stroke-width="6" stroke-linecap="round" stroke-linejoin="round" d="M 134 513 L 243 404"/>
        <path id="Line-copy-2" fill="none" stroke="#000000" stroke-width="6" stroke-linecap="round" stroke-linejoin="round" d="M 477 422 L 844 422"/>
        <path id="Path" fill="none" stroke="#000000" stroke-width="3" stroke-linecap="round" stroke-linejoin="round" d="M 134 279 L 243.000153 387.999847"/>
        <path id="path4" fill="none" stroke="#000000" stroke-width="2" stroke-linecap="round" stroke-linejoin="round" d="M 1644.291992 279.400024 C 1644.291992 318.059875 1612.951782 349.399994 1574.291992 349.399994 C 1535.63208 349.399994 1504.29187 318.059875 1504.29187 279.400024 C 1504.29187 240.740051 1535.63208 209.400024 1574.291992 209.400024 C 1612.951782 209.400024 1644.291992 240.740051 1644.291992 279.400024 Z"/>
        <path id="path5" fill="none" stroke="#000000" stroke-width="2" stroke-linecap="round" stroke-linejoin="round" d="M 446.079956 512.57196 C 446.079956 545.709106 419.217072 572.571899 386.079987 572.571899 C 352.942902 572.571899 326.079987 545.709106 326.079987 512.57196 C 326.079987 479.434845 352.942902 452.571991 386.079987 452.571991 C 419.217072 452.571991 446.079956 479.434845 446.079956 512.57196 Z"/>
        <path id="path6" fill="none" stroke="#000000" stroke-width="2" stroke-linecap="round" stroke-linejoin="round" d="M 1972.111816 512.57196 C 1972.111816 545.709106 1945.249023 572.571899 1912.111938 572.571899 C 1878.974976 572.571899 1852.111938 545.709106 1852.111938 512.57196 C 1852.111938 479.434845 1878.974976 452.571991 1912.111938 452.571991 C 1945.249023 452.571991 1972.111816 479.434845 1972.111816 512.57196 Z"/>
        <path id="path7" fill="none" stroke="#000000" stroke-width="2" stroke-linecap="round" stroke-linejoin="round" d="M 1730.755981 513.079956 C 1730.755981 551.739868 1699.415771 583.079956 1660.755859 583.079956 C 1622.095947 583.079956 1590.755981 551.739868 1590.755981 513.079956 C 1590.755981 474.419983 1622.095947 443.079926 1660.755859 443.079926 C 1699.415771 443.079926 1730.755981 474.419983 1730.755981 513.079956 Z"/>
        <path id="path8" fill="none" stroke="#000000" stroke-width="2" stroke-linecap="round" stroke-linejoin="round" d="M 707.435974 279.400024 C 707.435974 318.059875 676.095886 349.399994 637.435974 349.399994 C 598.776062 349.399994 567.435974 318.059875 567.435974 279.400024 C 567.435974 240.740051 598.776062 209.400024 637.435974 209.400024 C 676.095886 209.400024 707.435974 240.740051 707.435974 279.400024 Z"/>
        <path id="path9" fill="none" stroke="#000000" stroke-width="2" stroke-linecap="round" stroke-linejoin="round" d="M 793.899902 513.079956 C 793.899902 551.739868 762.559937 583.079956 723.899902 583.079956 C 685.240051 583.079956 653.899963 551.739868 653.899963 513.079956 C 653.899963 474.419983 685.240051 443.079926 723.899902 443.079926 C 762.559937 443.079926 793.899902 474.419983 793.899902 513.079956 Z"/>
        <path id="path10" fill="none" stroke="#000000" stroke-width="2" stroke-linecap="round" stroke-linejoin="round" d="M 194.111984 278.891968 C 194.111984 312.029053 167.249084 338.891937 134.112 338.891937 C 100.974915 338.891937 74.111992 312.029053 74.111992 278.891968 C 74.111992 245.754822 100.974915 218.891968 134.112 218.891968 C 167.249084 218.891968 194.111984 245.754822 194.111984 278.891968 Z"/>
        <path id="path11" fill="none" stroke="#000000" stroke-width="2" stroke-linecap="round" stroke-linejoin="round" d="M 1418.843994 513.079956 C 1418.843994 551.739868 1387.503784 583.079956 1348.843994 583.079956 C 1310.184082 583.079956 1278.843872 551.739868 1278.843872 513.079956 C 1278.843872 474.419983 1310.184082 443.079926 1348.843994 443.079926 C 1387.503784 443.079926 1418.843994 474.419983 1418.843994 513.079956 Z"/>
        <path id="path12" fill="none" stroke="#000000" stroke-width="2" stroke-linecap="round" stroke-linejoin="round" d="M 1105.915894 513.079956 C 1105.915894 551.739868 1074.575928 583.079956 1035.915894 583.079956 C 997.256042 583.079956 965.915894 551.739868 965.915894 513.079956 C 965.915894 474.419983 997.256042 443.079926 1035.915894 443.079926 C 1074.575928 443.079926 1105.915894 474.419983 1105.915894 513.079956 Z"/>
        <path id="path13" fill="none" stroke="#000000" stroke-width="2" stroke-linecap="round" stroke-linejoin="round" d="M 1019.451965 279.400024 C 1019.451965 318.059875 988.111877 349.399994 949.451965 349.399994 C 910.791992 349.399994 879.451965 318.059875 879.451965 279.400024 C 879.451965 240.740051 910.791992 209.400024 949.451965 209.400024 C 988.111877 209.400024 1019.451965 240.740051 1019.451965 279.400024 Z"/>
        <path id="path14" fill="none" stroke="#000000" stroke-width="2" stroke-linecap="round" stroke-linejoin="round" d="M 1332.380005 279.400024 C 1332.380005 318.059875 1301.039917 349.399994 1262.380005 349.399994 C 1223.719971 349.399994 1192.379883 318.059875 1192.379883 279.400024 C 1192.379883 240.740051 1223.719971 209.400024 1262.380005 209.400024 C 1301.039917 209.400024 1332.380005 240.740051 1332.380005 279.400024 Z"/>
        <path id="path15" fill="none" stroke="#000000" stroke-width="2" stroke-linecap="round" stroke-linejoin="round" d="M 1972.111816 278.383972 C 1972.111816 311.521027 1945.249023 338.383972 1912.111938 338.383972 C 1878.974976 338.383972 1852.111938 311.521027 1852.111938 278.383972 C 1852.111938 245.246887 1878.974976 218.383972 1912.111938 218.383972 C 1945.249023 218.383972 1972.111816 245.246887 1972.111816 278.383972 Z"/>
        <path id="path16" fill="none" stroke="#000000" stroke-width="2" stroke-linecap="round" stroke-linejoin="round" d="M 446.079956 278.891968 C 446.079956 312.029053 419.217072 338.891937 386.079987 338.891937 C 352.942902 338.891937 326.079987 312.029053 326.079987 278.891968 C 326.079987 245.754822 352.942902 218.891968 386.079987 218.891968 C 419.217072 218.891968 446.079956 245.754822 446.079956 278.891968 Z"/>
        <path id="path17" fill="none" stroke="#000000" stroke-width="2" stroke-linecap="round" stroke-linejoin="round" d="M 194.111984 512.57196 C 194.111984 545.709106 167.249084 572.571899 134.112 572.571899 C 100.974915 572.571899 74.111992 545.709106 74.111992 512.57196 C 74.111992 479.434845 100.974915 452.571991 134.112 452.571991 C 167.249084 452.571991 194.111984 479.434845 194.111984 512.57196 Z"/>
    </g>
    <path id="Rectangle" fill="none" stroke="#000000" stroke-width="2" stroke-linecap="round" stroke-linejoin="round" d="M 0 793 L 2032 793 L 2032 0 L 0 0 Z"/>
</svg>
