<?xml version="1.0" encoding="UTF-8"?>
<svg width="128px" height="128px" viewBox="0 0 128 128" version="1.1" xmlns="http://www.w3.org/2000/svg" xmlns:xlink="http://www.w3.org/1999/xlink">
    <!-- Generator: Sketch 52.4 (67378) - http://www.bohemiancoding.com/sketch -->
    <title>Favicon@1x</title>
    <desc>Created with Sketch.</desc>
    <defs>
        <linearGradient x1="1.82175755%" y1="1.8038972%" x2="101.999998%" y2="100.999999%" id="linearGradient-1">
            <stop stop-color="#5623AE" offset="0.173861994%"></stop>
            <stop stop-color="#BA0C98" offset="100%"></stop>
        </linearGradient>
    </defs>
    <g id="Favicon" stroke="none" stroke-width="1" fill="none" fill-rule="evenodd">
        <path d="M52.16,128 C17.3866667,128 0,110.613333 0,75.84 L0,52.16 C0,17.3866667 17.3866667,0 52.16,0 L75.84,0 C110.613333,0 128,17.3866667 128,52.16 L128,75.84 C128,110.613333 110.613333,128 75.84,128 L52.16,128 Z" id="Path" fill="url(#linearGradient-1)"></path>
        <g id="Icon-silk-inverse" transform="translate(31.000000, 18.000000)" fill="#FFFFFF" fill-rule="nonzero">
            <path d="M1.01370578,87.2968477 C2.12924815,88.7700582 6.10765493,85.4035845 7.31224815,85.1045845 C11.4807905,84.070795 13.0572312,87.6939003 16.2341804,89.6767424 C21.2198244,92.7902161 23.4858075,88.7095319 27.3571126,86.0124792 C31.6098922,83.0503213 33.2874176,86.4918477 37.3921804,86.7835845 C41.2695024,87.060795 42.4740956,82.4995319 45.790638,81.5129529 C49.4104346,80.436795 52.7811295,82.943795 55.0519261,84.7051108 C56.5188583,85.8405845 59.8534515,87.8089003 61.4684007,86.161374 C61.7006549,85.9253213 60.694621,68.8762687 59.6332312,53.5982161 C60.4161721,49.5849979 63.2953081,45.9132948 67.232638,43.7106371 C71.5845367,41.2760575 70.6466549,36.0455845 65.6802651,35.837374 C60.7138753,35.6291634 58.4647397,37.8141634 58.4647397,37.8141634 C58.4647397,37.8141634 58.4599261,38.4569529 58.2974685,36.8711634 C57.9220109,33.1899529 57.5453498,29.491795 56.8858922,25.8469003 C55.4827397,18.0850055 53.3744007,9.91395291 46.8099092,4.92537397 C36.6593159,-2.79415235 20.4051295,-1.30399446 12.5000617,8.44316344 C4.49390917,18.3162161 3.03419731,33.5942687 1.94512951,45.8302687 C0.0846888304,66.7409003 -0.846734898,84.8467424 1.01370578,87.2968477 Z M44.5836538,27.4298911 C44.5272802,28.4311355 43.6747036,29.197169 42.6793708,29.1408748 C41.684038,29.0845806 40.9228611,28.2272763 40.9792348,27.2260319 C41.2799614,21.8848671 42.9936184,17.7335953 47.1773291,17.8796937 C49.6311049,17.9653814 51.1220505,19.8180227 51.9236593,22.5705963 C52.4006949,24.208647 52.6141858,26.2101034 52.5698562,27.4795393 C52.5348578,28.4817612 51.6988144,29.2660181 50.7025009,29.2312261 C49.7061874,29.1964341 48.9268875,28.3557681 48.9618859,27.3535462 C49.0501841,24.8250168 48.0951287,21.5455365 47.0505888,21.5090604 C45.8208195,21.4661159 44.777076,23.9945468 44.5836538,27.4298911 Z M24.6606963,27.8517649 C24.7278986,28.8523167 23.9760512,29.7182254 22.981398,29.7858263 C21.9867449,29.8534271 21.1259409,29.097121 21.0587386,28.0965692 C20.9374511,26.2907622 21.0119821,24.4487432 21.4077498,22.8262652 C22.0451423,20.2132287 23.4893633,18.4114708 25.9227538,18.1477408 C30.2781462,17.675705 32.4808907,22.53464 32.4808907,27.3630347 C32.4808907,28.3658675 31.6727268,29.1788241 30.675806,29.1788241 C29.6788852,29.1788241 28.8707212,28.3658675 28.8707212,27.3630347 C28.8707212,24.4542436 27.5858876,21.6200869 26.3094778,21.7584237 C25.0718479,21.8925576 24.4356272,24.5007899 24.6606963,27.8517649 Z M12.719996,41.667986 C14.0029068,40.0026176 16.9721345,37.5420186 18.7329167,36.7760582 C20.493699,36.0100979 22.1044554,35.3376139 25.6835377,35.3376139 C26.6354218,35.3376139 28.4402109,35.5168678 29.8990693,36.6326439 C31.7514066,38.0493638 32.4729214,40.1870524 32.4729214,41.2898842 C32.4729214,42.392716 31.7209613,44.7896337 30.3703703,46 C29.0197793,47.2103663 27.1539916,48.4817912 25.6835377,49.3905364 C24.2130838,50.2992815 23.6971692,50.8724142 22.5964587,52.2703626 C21.8626517,53.2023282 21.1553351,54.1072616 20.474509,54.9851627 L18.8867492,53.964162 C19.5910065,52.2759929 20.1761957,51.0916796 20.6423168,50.4112223 C21.3414985,49.3905364 22.2963028,47.9763078 23.9899203,46.5550878 C25.6835377,45.1338679 26.2365003,44.7614124 27.0654228,44.1620519 C27.8943452,43.5626913 28.840076,42.3266217 28.840076,41.667986 C28.840076,41.0093503 29.1249008,39.008894 25.1531025,39.008894 C21.1813041,39.008894 20.7888488,39.3193277 18.7329167,40.1565231 C16.6769847,40.9937185 14.7413027,42.2463642 13.9959191,43.0429588 C13.9959191,43.0429588 12.719996,41.667986 12.719996,41.667986 Z" id="Combined-Shape"></path>
        </g>
    </g>
</svg>