<?xml version="1.0" encoding="UTF-8"?>
<svg width="59px" height="76px" viewBox="0 0 59 76" version="1.1" xmlns="http://www.w3.org/2000/svg" xmlns:xlink="http://www.w3.org/1999/xlink">
    <!-- Generator: Sketch 52.4 (67378) - http://www.bohemiancoding.com/sketch -->
    <title>Icon inverse@2x</title>
    <desc>Created with Sketch.</desc>
    <g id="Icon-inverse" stroke="none" stroke-width="1" fill="none" fill-rule="evenodd">
        <path d="M0.842375225,72.1147872 C-0.703624775,70.0907872 0.0703752253,55.1337872 1.61637523,37.8597872 C2.52137523,27.7517872 3.73437523,15.1307872 10.3873752,6.97478719 C16.9563752,-1.07721281 30.4633752,-2.30821281 38.8983752,4.06878719 C44.3533752,8.18978719 46.1053752,14.9397872 47.2713752,21.3517872 C47.8193752,24.3627872 48.1323752,27.4177872 48.4443752,30.4587872 C48.5793752,31.7687872 48.5833752,31.2377872 48.5833752,31.2377872 C48.5833752,31.2377872 50.4523752,29.4327872 54.5793752,29.6047872 C58.7063752,29.7767872 59.5003752,33.1417872 55.8693752,35.1087872 C51.2823752,37.5927872 49.5313752,41.8057872 49.5543752,44.2767872 C50.4363752,56.8977872 51.2723752,70.9817872 51.0793752,71.1767872 C49.7373752,72.5377872 46.9663752,70.9117872 45.7473752,69.9737872 C43.8603752,68.5187872 41.0593752,66.4477872 38.0513752,67.3367872 C35.2953752,68.1517872 34.2943752,71.9197872 31.0723752,71.6907872 C27.6613752,71.4497872 26.2673752,68.6067872 22.7333752,71.0537872 C19.5163752,73.2817872 17.6333752,76.6527872 13.4903752,74.0807872 C10.8503752,72.4427872 9.54037523,69.4497872 6.07637523,70.3037872 C5.07537523,70.5507872 1.76937523,73.3317872 0.842375225,72.1147872 Z M35.5443752,23.2457872 C35.5443752,23.7140777 35.9265235,24.0957872 36.3953752,24.0957872 C36.864166,24.0957872 37.2453752,23.7141393 37.2453752,23.2457872 C37.2453752,20.7026676 38.0005231,19.2457872 38.9153752,19.2457872 C39.8302273,19.2457872 40.5853752,20.7026676 40.5853752,23.2457872 C40.5853752,23.7141393 40.9665845,24.0957872 41.4353752,24.0957872 C41.904166,24.0957872 42.2853752,23.7141393 42.2853752,23.2457872 C42.2853752,19.5907132 40.8574514,17.5467872 38.9143752,17.5467872 C36.9715623,17.5467872 35.5443752,19.5905096 35.5443752,23.2457872 Z M24.9350322,23.918 C24.970725,24.3891577 25.3745694,24.7418659 25.8469451,24.7040195 C26.3148723,24.6672639 26.665695,24.2609561 26.6316955,23.7934634 C26.363422,20.143125 24.7655704,18.2143767 22.7852309,18.355446 C20.8450733,18.4965723 19.6393858,20.6081373 19.9080233,24.2828784 C19.9403915,24.7289954 20.3107098,25.0717872 20.7553679,25.0717872 C20.782654,25.0719613 20.782654,25.0719613 20.8175018,25.0691286 C21.2856558,25.0350811 21.6376339,24.6279423 21.6037048,24.158591 C21.4277043,21.7469089 21.9998223,20.1186957 22.911346,20.0509877 C23.8348216,19.9769538 24.7519151,21.4111005 24.9350322,23.918 Z M11.94619,34.3143031 L10.8130378,35.8333132 L12.3013418,34.6601224 C12.4466239,34.5456004 12.7347573,34.3452652 13.163823,34.0893981 C13.41493,33.9261785 13.7444469,33.746208 14.2034282,33.5183788 C14.3691524,33.4228485 14.5555981,33.3383505 14.8499266,33.2202017 C15.20689,33.0795653 15.3974872,33.0029764 15.5817324,32.9207826 C15.7021916,32.8724129 15.8178429,32.8373472 16.0494366,32.775073 C16.1793684,32.7402659 16.2418725,32.7232094 16.3142769,32.7021731 C16.3550255,32.6902347 16.3550255,32.6902347 16.3834059,32.6812737 C16.4457063,32.6651615 16.4457063,32.6651615 16.5064415,32.647952 C16.5573415,32.6332969 16.6001934,32.6202801 16.6908267,32.5923186 C16.9571633,32.5103155 17.0852311,32.479004 17.258012,32.4646572 C17.3518719,32.4495998 17.3518719,32.4495998 17.4458172,32.4344445 C18.2628789,32.3028212 18.675056,32.260777 19.1728236,32.2875969 C19.2801998,32.2917888 19.3657166,32.2907907 19.5595084,32.285401 C19.5803583,32.2848212 19.5803583,32.2848212 19.6010825,32.2842561 C19.8746743,32.2768703 20.0165466,32.281277 20.1630834,32.3099598 C20.2174037,32.3181994 20.2621185,32.3239397 20.3591797,32.3356549 L20.3775885,32.3378767 C20.5348117,32.3568728 20.6113942,32.3683489 20.6835414,32.3857171 L21.1336798,32.4946163 C21.7877897,32.6970044 22.2910092,33.0144559 22.5316316,33.4125645 C22.8068206,33.8249084 22.8505332,34.3268114 22.6347351,34.7961301 C22.4122402,35.3019653 22.0114539,35.7914883 21.5185444,36.169447 C21.2759684,36.3404294 21.0623659,36.4897438 20.6654234,36.7664148 C20.3716464,36.9825508 20.1007532,37.1812057 19.8591789,37.358351 C19.5383437,37.5607689 19.2491191,37.8090087 18.8740799,38.1809491 C18.8179115,38.2366535 18.4810699,38.5769516 18.3962283,38.6601633 C18.2067279,38.829075 18.0348652,39.0147826 17.8609994,39.2316798 C17.7237057,39.4029535 17.3033093,39.9818433 17.3302107,39.9459938 C17.1990821,40.1267639 17.0704141,40.3048245 16.926248,40.5067679 C16.853256,40.6305068 16.6546522,41.0074602 16.6486364,41.0186592 C16.4347923,41.4399732 16.4347923,41.4399732 16.2920705,41.7209176 C16.1877225,41.9262395 16.1877225,41.9262395 16.1657473,41.9694408 L15.1617697,43.9431695 L16.5805249,42.2429608 C16.6113694,42.2059974 16.6113694,42.2059974 16.7580861,42.0302872 C16.9589263,41.7898289 16.9589263,41.7898289 17.2609975,41.4283927 C17.2533656,41.4375938 17.5082804,41.1196786 17.5879851,41.0295641 C17.5967222,41.0197112 17.5967222,41.0197112 17.5944821,41.0214148 C17.7069347,40.911305 17.8151242,40.8062514 18.0579626,40.5708475 C18.1450611,40.4879213 18.4913084,40.1421121 18.5803452,40.0568629 C18.7898885,39.8562333 18.9717442,39.7020313 19.1699977,39.5639612 C19.2344058,39.5164424 19.3007816,39.4657525 19.3760336,39.4068951 C19.4309486,39.363944 19.7057331,39.1453446 19.7845303,39.0840756 C20.0895661,38.8468937 20.3323456,38.6820614 20.6174203,38.5306262 C20.7871644,38.4296165 21.3885038,38.0685029 21.4918984,38.0067398 C21.5235954,37.9875807 21.9378805,37.7425025 22.0780501,37.6570653 C22.1505199,37.6127298 22.1505199,37.6127298 22.2225522,37.5678687 C22.2974969,37.5209462 22.3661983,37.4767661 22.4352143,37.4306983 C23.2330453,36.8647803 23.8092431,36.2417474 24.154238,35.46748 C24.6091459,34.5565382 24.5343098,33.332006 23.9465495,32.4690536 C23.4273002,31.6906543 22.6331985,31.2075349 21.5774074,30.9002192 L20.9283083,30.7629647 C20.8058996,30.7432599 20.7172761,30.7349817 20.5279751,30.7220436 C20.4334986,30.7155602 20.3951964,30.7126674 20.3527293,30.7087358 C20.1025696,30.6773177 19.9176643,30.6818868 19.5314766,30.7129369 C19.4844726,30.7167177 19.4844726,30.7167177 19.4381199,30.7203396 C19.3171002,30.7296521 19.2301684,30.7344887 19.121547,30.7372526 C19.085858,30.7409685 19.085858,30.7409685 19.0497192,30.7441263 C18.9660105,30.7511279 18.8983319,30.7544674 18.741648,30.7604281 C18.3589738,30.7749863 18.1864938,30.792375 17.9801037,30.8542112 C17.694699,30.9253602 17.5482179,30.9612635 16.9433817,31.108906 C16.5310821,31.216624 16.1522711,31.3620678 15.6319308,31.596034 C15.561547,31.6276814 15.2085787,31.7887151 15.0884258,31.8439489 C14.9732614,31.9112586 14.4934977,32.1834913 14.3730321,32.2543722 C14.083042,32.4249999 13.8702966,32.5661821 13.7004359,32.7061267 C13.3313143,32.9612412 13.0052298,33.2297362 12.7160086,33.5061658 C12.4883294,33.7140468 12.2966123,33.9082789 12.1395246,34.0838284 C12.0435562,34.1910756 11.9795574,34.2695736 11.94619,34.3143031 Z" id="Combined-Shape" fill="#FFFFFF" fill-rule="nonzero"></path>
    </g>
</svg>