<?xml version="1.0" encoding="UTF-8"?>
<svg width="60px" height="77px" viewBox="0 0 60 77" version="1.1" xmlns="http://www.w3.org/2000/svg" xmlns:xlink="http://www.w3.org/1999/xlink">
    <!-- Generator: Sketch 52.4 (67378) - http://www.bohemiancoding.com/sketch -->
    <title>Icon outlines inverse@1x</title>
    <desc>Created with Sketch.</desc>
    <g id="Icon-outlines-inverse" stroke="none" stroke-width="1" fill="none" fill-rule="evenodd">
        <path d="M2.7228932,72.3975786 C3.03074584,72.3316946 3.45947866,72.1483067 4.00513312,71.8520947 C4.19654496,71.7481856 4.39957772,71.6322237 4.63598704,71.4927203 C4.7088852,71.4497036 5.54806465,70.94571 5.77100132,70.8180572 C6.22725359,70.5568087 6.53934574,70.4063072 6.83700653,70.3328584 C9.07080699,69.7821467 10.5747503,70.4088837 12.5226702,72.157804 C12.6988132,72.3159522 13.3019183,72.8703422 13.3103125,72.8779961 C14.0092661,73.5153075 14.4879269,73.9024232 15.0178096,74.2311914 C16.923437,75.4142167 18.1185101,75.2337708 19.9078409,73.8530694 C20.1488506,73.6670991 20.4001538,73.4613268 20.7341714,73.1789687 C20.7746117,73.1447829 21.4246525,72.5914154 21.623569,72.4248061 C22.2032809,71.9392487 22.673868,71.5711605 23.1641048,71.2316369 C25.0502844,69.9256149 26.5828662,69.7860349 28.4067109,70.4669115 C28.5955743,70.5374179 28.7886557,70.6159239 29.0195601,70.7146922 C29.151223,70.7710103 29.6099649,70.9713537 29.6053273,70.9693417 C30.6753627,71.4335762 31.3289798,71.6357706 32.1432703,71.6933034 C33.2587849,71.7725873 33.9405835,71.3377232 35.3637136,69.852487 C35.4125385,69.8015158 35.4125385,69.8015158 35.4617182,69.7501616 C36.8242393,68.327655 37.5651821,67.7334735 38.7679491,67.3777931 C41.6493238,66.5262166 43.9624438,67.563672 47.3572117,70.1812599 C48.7749782,71.2722074 50.353844,71.8955719 51.1070261,71.6332058 C51.1067214,71.5906687 51.1062269,71.5451907 51.1055375,71.496863 C51.0996762,71.0859664 51.0801038,70.4846802 51.0474313,69.7082688 C50.9841704,68.204966 50.8726934,66.065879 50.7216554,63.4440497 C50.4261118,58.3137818 49.9965506,51.639006 49.5544185,45.2860948 C49.5219395,41.7967213 52.0691624,37.5710346 56.3930531,35.2295164 C59.1275994,33.7481469 58.6542784,31.7338073 55.5377346,31.6039198 C53.8224071,31.5324305 52.4254491,31.8157904 51.3207416,32.3239894 C50.8958814,32.5194379 50.5954186,32.7060979 50.4154289,32.8420859 C50.3909004,32.8860409 50.3623134,32.9369595 50.3289899,32.9963146 C49.8047225,33.4023178 49.8047225,33.4023178 49.01757,33.1786188 C48.7113965,32.8901392 48.7113965,32.8901392 48.6545413,32.7546074 C48.5905741,32.5868187 48.5905741,32.5868187 48.5731493,32.5056953 C48.5384513,32.3480233 48.5010009,32.0596567 48.4495972,31.5608493 C48.3355722,30.4494706 48.2859146,29.9706661 48.220667,29.3615638 C47.9207679,26.561931 47.6491893,24.5179548 47.2875102,22.5306996 C45.7483891,14.0668535 43.6933766,9.18901489 39.295308,5.86647759 C31.2241663,-0.235439552 18.3412174,1.0329873 12.1622672,8.60688089 C6.85477131,15.1134097 5.03743171,23.0325981 3.61239412,38.9489296 C1.91298259,57.9370503 1.4985685,70.7083018 2.59804595,72.4513807 C2.59217339,72.4292662 2.62133186,72.4193139 2.7228932,72.3975786 Z M1.62035937,38.7706109 C2.30587059,31.1140944 2.81926677,27.0477157 3.87171063,22.4616157 C5.29825042,16.2453657 7.44223948,11.2291369 10.6125226,7.34264526 C17.4838283,-1.07990815 31.5868761,-2.46846327 40.5011566,4.27088078 C45.4119405,7.98075072 47.6332491,13.2533146 49.2552138,22.1727292 C49.6272831,24.2170737 49.9046299,26.304463 50.20929,29.1485409 C50.256945,29.5934125 50.2962729,29.9686048 50.3579332,30.5666111 C50.3994856,30.5467155 50.4418021,30.5268488 50.4848849,30.5070294 C51.8740287,29.8679811 53.5855177,29.5208216 55.6210158,29.6056545 C60.7618113,29.8199062 61.8702179,34.5370165 57.3455657,36.9881293 C53.6663313,38.9805467 51.5288194,42.526548 51.5519423,45.2070737 C51.9922277,51.507349 52.422307,58.1901768 52.718345,63.3290247 C53.2312488,72.2323914 53.2394084,72.4262929 52.7914348,72.8789062 C51.1660751,74.5272777 48.5292192,73.6066723 46.1367522,71.7657086 C43.2324637,69.5263129 41.3744447,68.6929744 39.3349541,69.2957361 C38.5796408,69.5190962 38.0312452,69.9588691 36.9060569,71.1335942 C36.8570867,71.1847297 36.8570867,71.1847297 36.8077975,71.2361856 C34.9987859,73.1241433 33.9024882,73.823383 32.0018972,73.6883005 C30.9110644,73.6112291 30.0699473,73.351032 28.8093149,72.8041072 C28.8077452,72.8034261 28.3564353,72.6063285 28.2330053,72.5535319 C28.0285206,72.4660646 27.8627637,72.3986685 27.7072254,72.3406031 C26.4749489,71.8805703 25.628888,71.9576254 24.3027314,72.8758782 C23.8709275,73.1749329 23.4446926,73.5083292 22.9077801,73.9580386 C22.7162057,74.1184983 22.0712046,74.6675756 22.0253307,74.7063546 C21.6705622,75.0062543 21.3984837,75.2290377 21.1296478,75.4364796 C18.7317514,77.2867685 16.653329,77.6005926 13.9631566,75.9305169 C13.3056846,75.5225854 12.7451312,75.0692391 11.96277,74.355876 C11.9467078,74.3412304 11.3523176,73.7948514 11.1865177,73.6459896 C9.68075822,72.2940586 8.77251881,71.9155688 7.31594293,72.2746668 C7.25818824,72.288918 7.06168108,72.3836805 6.76480704,72.5536696 C6.56336556,72.6690143 5.7411162,73.16284 5.65240334,73.2151888 C5.39703448,73.3658801 5.17422999,73.4931346 4.95931572,73.6098022 C3.15432283,74.589654 1.91180695,74.8556597 1.04727558,73.7212662 C-0.604766997,71.5563452 -0.220297699,59.3369176 1.62035937,38.7706109 Z" id="Path" fill="#FFFFFF" fill-rule="nonzero"></path>
        <path d="M36.5443752,24.2457872 C36.5443752,20.5905096 37.9715623,18.5467872 39.9143752,18.5467872 C41.8574514,18.5467872 43.2853752,20.5907132 43.2853752,24.2457872 C43.2853752,24.7141393 42.904166,25.0957872 42.4353752,25.0957872 C41.9665845,25.0957872 41.5853752,24.7141393 41.5853752,24.2457872 C41.5853752,21.7026676 40.8302273,20.2457872 39.9153752,20.2457872 C39.0005231,20.2457872 38.2453752,21.7026676 38.2453752,24.2457872 C38.2453752,24.7141393 37.864166,25.0957872 37.3953752,25.0957872 C36.9265235,25.0957872 36.5443752,24.7140777 36.5443752,24.2457872 Z" id="Path" fill="#FFFFFF" fill-rule="nonzero"></path>
        <path d="M25.9350322,24.918 C25.7519151,22.4111005 24.8348216,20.9769538 23.911346,21.0509877 C22.9998223,21.1186957 22.4277043,22.7469089 22.6037048,25.158591 C22.6376339,25.6279423 22.2856558,26.0350811 21.8175018,26.0691286 C21.782654,26.0719613 21.782654,26.0719613 21.7553679,26.0717872 C21.3107098,26.0717872 20.9403915,25.7289954 20.9080233,25.2828784 C20.6393858,21.6081373 21.8450733,19.4965723 23.7852309,19.355446 C25.7655704,19.2143767 27.363422,21.143125 27.6316955,24.7934634 C27.665695,25.2609561 27.3148723,25.6672639 26.8469451,25.7040195 C26.3745694,25.7418659 25.970725,25.3891577 25.9350322,24.918 Z" id="Path" fill="#FFFFFF" fill-rule="nonzero"></path>
        <path d="M16.6935304,33.8792609 L16.0884258,32.8439489 L16.5831758,33.9202035 C16.3974872,34.0029764 16.20689,34.0795653 15.8499266,34.2202017 C15.5555981,34.3383505 15.3691524,34.4228485 15.2034282,34.5183788 C14.7444469,34.746208 14.41493,34.9261785 14.163823,35.0893981 C13.7347573,35.3452652 13.4466239,35.5456004 13.3013418,35.6601224 L11.8130378,36.8333132 L12.94619,35.3143031 C12.9795574,35.2695736 13.0435562,35.1910756 13.1395246,35.0838284 C13.2966123,34.9082789 13.4883294,34.7140468 13.7160086,34.5061658 C14.0052298,34.2297362 14.3313143,33.9612412 14.7004359,33.7061267 C14.7082322,33.6997036 14.7161187,33.6932778 14.724099,33.6868467 L15.2034282,34.5183788 L14.7719347,33.6490987 C14.9293711,33.5273796 15.1223371,33.4018789 15.3730321,33.2543722 C15.4934977,33.1834913 15.9732614,32.9112586 16.0884258,32.8439489 C16.2085787,32.7887151 16.561547,32.6276814 16.6319308,32.596034 C17.1522711,32.3620678 17.5310821,32.216624 17.9433817,32.108906 L18.0368569,32.086087 L18.258012,33.4646572 L18.1414231,32.0605552 C18.5851729,31.9521886 18.7287718,31.9168662 18.9801037,31.8542112 C19.1864938,31.792375 19.3589738,31.7749863 19.741648,31.7604281 C19.8983319,31.7544674 19.9660105,31.7511279 20.0497192,31.7441263 C20.085858,31.7409685 20.085858,31.7409685 20.121547,31.7372526 C20.2301684,31.7344887 20.3171002,31.7296521 20.4381199,31.7203396 C20.4844726,31.7167177 20.4844726,31.7167177 20.5314766,31.7129369 C20.9176643,31.6818868 21.1025696,31.6773177 21.3527293,31.7087358 C21.3951964,31.7126674 21.4334986,31.7155602 21.5279751,31.7220436 C21.7172761,31.7349817 21.8058996,31.7432599 21.9283083,31.7629647 L22.5774074,31.9002192 C23.6331985,32.2075349 24.4273002,32.6906543 24.9465495,33.4690536 C25.5343098,34.332006 25.6091459,35.5565382 25.154238,36.46748 C24.8092431,37.2417474 24.2330453,37.8647803 23.4352143,38.4306983 C23.3661983,38.4767661 23.2974969,38.5209462 23.2225522,38.5678687 C23.1505199,38.6127298 23.1505199,38.6127298 23.0780501,38.6570653 C22.9378805,38.7425025 22.5235954,38.9875807 22.4918984,39.0067398 C22.3885038,39.0685029 21.7871644,39.4296165 21.6174203,39.5306262 C21.3323456,39.6820614 21.0895661,39.8468937 20.7845303,40.0840756 C20.7057331,40.1453446 20.4309486,40.363944 20.3760336,40.4068951 C20.3007816,40.4657525 20.2344058,40.5164424 20.1699977,40.5639612 C19.9717442,40.7020313 19.7898885,40.8562333 19.5803452,41.0568629 C19.5374118,41.0979699 19.4346732,41.199661 19.3300225,41.3032487 L18.5077746,40.7022388 C18.6317105,40.5334378 18.7872258,40.3237122 18.8609994,40.2316798 C19.0348652,40.0147826 19.2067279,39.829075 19.3962283,39.6601633 C19.4810699,39.5769516 19.8179115,39.2366535 19.8740799,39.1809491 C20.2491191,38.8090087 20.5383437,38.5607689 20.8591789,38.358351 C21.1007532,38.1812057 21.3716464,37.9825508 21.6654234,37.7664148 C22.0623659,37.4897438 22.2759684,37.3404294 22.5185444,37.169447 C23.0114539,36.7914883 23.4122402,36.3019653 23.6347351,35.7961301 C23.8505332,35.3268114 23.8068206,34.8249084 23.5316316,34.4125645 C23.3033939,34.0349464 22.838895,33.7298963 22.2334656,33.5267766 L22.5774074,31.9002192 L22.1146559,33.490014 L21.6835414,33.3857171 C21.6113942,33.3683489 21.5348117,33.3568728 21.3775885,33.3378767 L21.3591797,33.3356549 C21.2621185,33.3239397 21.2174037,33.3181994 21.1630834,33.3099598 C21.0165466,33.281277 20.8746743,33.2768703 20.6010825,33.2842561 C20.5803583,33.2848212 20.5803583,33.2848212 20.5595084,33.285401 C20.4336126,33.2889024 20.353413,33.2905504 20.28323,33.290126 L20.121547,31.7372526 L20.16098,33.2869709 C19.6684835,33.2614505 19.2563899,33.3038665 18.4458172,33.4344445 C18.3518719,33.4495998 18.3518719,33.4495998 18.258012,33.4646572 C18.0852311,33.479004 17.9571633,33.5103155 17.6908267,33.5923186 C17.6001934,33.6202801 17.5573415,33.6332969 17.5064415,33.647952 C17.4457063,33.6651615 17.4457063,33.6651615 17.3834059,33.6812737 C17.3550255,33.6902347 17.3550255,33.6902347 17.3142769,33.7021731 C17.2418725,33.7232094 17.1793684,33.7402659 17.0494366,33.775073 C16.8881753,33.8184352 16.7831286,33.8486054 16.6935304,33.8792609 Z M18.6166966,41.9996748 L18.5944821,42.0214148 C18.5967222,42.0197112 18.5967222,42.0197112 18.5879851,42.0295641 C18.5701741,42.0497014 18.5436138,42.081214 18.5131891,42.1179099 L18.0800695,41.6165801 L18.6166966,41.9996748 Z M17.9529298,41.4694177 C18.0864034,41.2827001 18.2072248,41.1155387 18.3302107,40.9459938 C18.3268611,40.9504575 18.3304462,40.9453906 18.339556,40.9327667 L19.1211707,41.5094561 C19.0944416,41.5356623 19.0725617,41.5569477 19.0579626,41.5708475 C18.8697796,41.7532693 18.7624557,41.8574133 18.6713468,41.9462925 L18.0464633,41.5776814 L17.9529298,41.4694177 Z M18.1772517,42.5285969 L17.6567778,42.0032877 C17.6633874,41.9907948 17.6736495,41.9714012 17.6864519,41.9472707 L18.2617016,42.4274716 C18.2301016,42.4653605 18.2023657,42.4985473 18.1772517,42.5285969 Z M17.6239051,42.0673844 C17.4345625,42.4404255 17.4290657,42.4512459 17.2920705,42.7209176 C17.1877225,42.9262395 17.1877225,42.9262395 17.1657473,42.9694408 L16.2641417,44.7419154 L16.3064351,44.7698053 L17.5805249,43.2429608 C17.6113694,43.2059974 17.6113694,43.2059974 17.7580861,43.0302872 C17.9381677,42.8146824 17.9567807,42.7923977 18.1764582,42.5295464 L17.6239051,42.0673844 Z M18.3302107,40.9459938 L19.1037814,41.5264787 C19.0849027,41.5449265 19.0692547,41.5600963 19.0579626,41.5708475 C19.0208009,41.6068715 18.9867924,41.639843 18.9554393,41.6702471 L18.1868194,41.1440305 C18.2348702,41.0775183 18.2823767,41.0119363 18.3302107,40.9459938 Z M17.7580861,43.0302872 C17.6113694,43.2059974 17.6113694,43.2059974 17.5805249,43.2429608 L16.1617697,44.9431695 L17.1657473,42.9694408 C17.1877225,42.9262395 17.1877225,42.9262395 17.2920705,42.7209176 C17.4347923,42.4399732 17.4347923,42.4399732 17.6486364,42.0186592 C17.6501521,42.0158375 17.6638937,41.989797 17.6847717,41.9504379 L18.2609838,42.4283813 C17.9589263,42.7898289 17.9589263,42.7898289 17.7580861,43.0302872 Z M17.926248,41.5067679 C17.9723974,41.4421233 18.0169587,41.379926 18.0605209,41.3193037 L18.5944821,42.0214148 C18.5937637,42.0230475 18.591638,42.0254447 18.5879851,42.0295641 C18.5360365,42.0882974 18.4096595,42.2437994 18.330054,42.3424324 C18.1552999,42.1930095 17.9604311,42.0264484 17.7431482,41.8407629 C17.806626,41.7219465 17.8857607,41.5754037 17.926248,41.5067679 Z M18.5749552,40.610952 C18.6835088,40.4638106 18.8001026,40.3076485 18.8609994,40.2316798 C19.0348652,40.0147826 19.2067279,39.829075 19.3962283,39.6601633 C19.4810699,39.5769516 19.8179115,39.2366535 19.8740799,39.1809491 C20.2491191,38.8090087 20.5383437,38.5607689 20.8591789,38.358351 C21.1007532,38.1812057 21.3716464,37.9825508 21.6654234,37.7664148 C22.0623659,37.4897438 22.2759684,37.3404294 22.5185444,37.169447 C23.0114539,36.7914883 23.4122402,36.3019653 23.6347351,35.7961301 C23.8505332,35.3268114 23.8068206,34.8249084 23.5316316,34.4125645 C23.2910092,34.0144559 22.7877897,33.6970044 22.1336798,33.4946163 L21.6835414,33.3857171 C21.6113942,33.3683489 21.5348117,33.3568728 21.3775885,33.3378767 L21.3591797,33.3356549 C21.2621185,33.3239397 21.2174037,33.3181994 21.1630834,33.3099598 C21.0165466,33.281277 20.8746743,33.2768703 20.6010825,33.2842561 C20.5803583,33.2848212 20.5803583,33.2848212 20.5595084,33.285401 C20.3657166,33.2907907 20.2801998,33.2917888 20.1728236,33.2875969 C19.675056,33.260777 19.2628789,33.3028212 18.4458172,33.4344445 C18.3518719,33.4495998 18.3518719,33.4495998 18.258012,33.4646572 C18.0852311,33.479004 17.9571633,33.5103155 17.6908267,33.5923186 C17.6001934,33.6202801 17.5573415,33.6332969 17.5064415,33.647952 C17.4457063,33.6651615 17.4457063,33.6651615 17.3834059,33.6812737 C17.3550255,33.6902347 17.3550255,33.6902347 17.3142769,33.7021731 C17.2418725,33.7232094 17.1793684,33.7402659 17.0494366,33.775073 C16.8178429,33.8373472 16.7021916,33.8724129 16.5817324,33.9207826 C16.3974872,34.0029764 16.20689,34.0795653 15.8499266,34.2202017 C15.5555981,34.3383505 15.3691524,34.4228485 15.2034282,34.5183788 C14.7444469,34.746208 14.41493,34.9261785 14.163823,35.0893981 C13.7347573,35.3452652 13.4466239,35.5456004 13.3013418,35.6601224 L11.8130378,36.8333132 L12.94619,35.3143031 C12.9795574,35.2695736 13.0435562,35.1910756 13.1395246,35.0838284 C13.2966123,34.9082789 13.4883294,34.7140468 13.7160086,34.5061658 C14.0052298,34.2297362 14.3313143,33.9612412 14.7004359,33.7061267 C14.8702966,33.5661821 15.083042,33.4249999 15.3730321,33.2543722 C15.4934977,33.1834913 15.9732614,32.9112586 16.0884258,32.8439489 C16.2085787,32.7887151 16.561547,32.6276814 16.6319308,32.596034 C17.1522711,32.3620678 17.5310821,32.216624 17.9433817,32.108906 C18.5482179,31.9612635 18.694699,31.9253602 18.9801037,31.8542112 C19.1864938,31.792375 19.3589738,31.7749863 19.741648,31.7604281 C19.8983319,31.7544674 19.9660105,31.7511279 20.0497192,31.7441263 C20.085858,31.7409685 20.085858,31.7409685 20.121547,31.7372526 C20.2301684,31.7344887 20.3171002,31.7296521 20.4381199,31.7203396 C20.4844726,31.7167177 20.4844726,31.7167177 20.5314766,31.7129369 C20.9176643,31.6818868 21.1025696,31.6773177 21.3527293,31.7087358 C21.3951964,31.7126674 21.4334986,31.7155602 21.5279751,31.7220436 C21.7172761,31.7349817 21.8058996,31.7432599 21.9283083,31.7629647 L22.5774074,31.9002192 C23.6331985,32.2075349 24.4273002,32.6906543 24.9465495,33.4690536 C25.5343098,34.332006 25.6091459,35.5565382 25.154238,36.46748 C24.8092431,37.2417474 24.2330453,37.8647803 23.4352143,38.4306983 C23.3661983,38.4767661 23.2974969,38.5209462 23.2225522,38.5678687 C23.1505199,38.6127298 23.1505199,38.6127298 23.0780501,38.6570653 C22.9378805,38.7425025 22.5235954,38.9875807 22.4918984,39.0067398 C22.3885038,39.0685029 21.7871644,39.4296165 21.6174203,39.5306262 C21.3323456,39.6820614 21.0895661,39.8468937 20.7845303,40.0840756 C20.7057331,40.1453446 20.4309486,40.363944 20.3760336,40.4068951 C20.3007816,40.4657525 20.2344058,40.5164424 20.1699977,40.5639612 C19.9717442,40.7020313 19.7898885,40.8562333 19.5803452,41.0568629 C19.5212827,41.1134129 19.3490395,41.2846175 19.214338,41.4176866 L18.5749552,40.610952 Z" id="Path" fill="#FFFFFF" fill-rule="nonzero"></path>
    </g>
</svg>