<?xml version="1.0" encoding="UTF-8"?>
<svg width="59px" height="76px" viewBox="0 0 59 76" version="1.1" xmlns="http://www.w3.org/2000/svg" xmlns:xlink="http://www.w3.org/1999/xlink">
    <!-- Generator: Sketch 52.4 (67378) - http://www.bohemiancoding.com/sketch -->
    <title>Icon silk@2x</title>
    <desc>Created with Sketch.</desc>
    <g id="Icon-silk" stroke="none" stroke-width="1" fill="none" fill-rule="evenodd">
        <path d="M0.842375225,72.1147872 C1.76937523,73.3317872 5.07537523,70.5507872 6.07637523,70.3037872 C9.54037523,69.4497872 10.8503752,72.4427872 13.4903752,74.0807872 C17.6333752,76.6527872 19.5163752,73.2817872 22.7333752,71.0537872 C26.2673752,68.6067872 27.6613752,71.4497872 31.0723752,71.6907872 C34.2943752,71.9197872 35.2953752,68.1517872 38.0513752,67.3367872 C41.0593752,66.4477872 43.8603752,68.5187872 45.7473752,69.9737872 C46.9663752,70.9117872 49.7373752,72.5377872 51.0793752,71.1767872 C51.2723752,70.9817872 50.4363752,56.8977872 49.5543752,44.2767872 C50.2049881,40.96152 52.5975096,37.928374 55.8693752,36.1087872 C59.4857418,34.0976127 58.7063752,29.7767872 54.5793752,29.6047872 C50.4523752,29.4327872 48.5833752,31.2377872 48.5833752,31.2377872 C48.5833752,31.2377872 48.5793752,31.7687872 48.4443752,30.4587872 C48.1323752,27.4177872 47.8193752,24.3627872 47.2713752,21.3517872 C46.1053752,14.9397872 44.3533752,8.18978719 38.8983752,4.06878719 C30.4633752,-2.30821281 16.9563752,-1.07721281 10.3873752,6.97478719 C3.73437523,15.1307872 2.52137523,27.7517872 1.61637523,37.8597872 C0.0703752253,55.1337872 -0.703624775,70.0907872 0.842375225,72.1147872 Z M37.0490601,22.6591014 C37.0023858,23.4862127 36.2940427,24.1188818 35.4669315,24.0722075 C34.6398202,24.0255333 34.0071511,23.3171901 34.0538253,22.4900789 C34.3028106,18.0778319 35.7261158,14.6487883 39.2027205,14.7701941 C41.2417736,14.8413994 42.4810361,16.372108 43.1476272,18.6461265 C43.5443142,19.9993901 43.7220628,21.6528156 43.6854426,22.70148 C43.6565309,23.5294025 42.9619296,24.1771287 42.1340072,24.148217 C41.3060847,24.1193053 40.6583585,23.424704 40.6872702,22.5967815 C40.7602121,20.5079963 39.9660199,17.7986777 39.098022,17.7683665 C38.076101,17.7326803 37.2092031,19.8212209 37.0490601,22.6591014 Z M20.4926913,23.0079797 C20.5485355,23.8345225 19.9237608,24.5498384 19.0972181,24.6056826 C18.2706753,24.6615267 17.5553594,24.0367521 17.4995152,23.2102093 C17.398727,21.7184557 17.4606612,20.1967879 17.7895386,18.85648 C18.3192028,16.6978846 19.5193301,15.2094759 21.5414433,14.991612 C25.160713,14.6016694 26.9911627,18.6155721 26.9911627,22.604246 C26.9911627,23.4326731 26.3195898,24.104246 25.4911627,24.104246 C24.6627356,24.104246 23.9911627,23.4326731 23.9911627,22.604246 C23.9911627,20.2013317 22.923484,17.8600718 21.8628055,17.9743501 C20.8343524,18.0851563 20.305662,20.239783 20.4926913,23.0079797 Z M10.5701375,34.4213797 C11.6362183,33.0456406 14.1036047,31.0129719 15.56679,30.380222 C17.0299752,29.7474722 18.3684911,29.1919419 21.3426581,29.1919419 C22.1336604,29.1919419 23.6334147,29.3400213 24.8457054,30.2617493 C26.3849717,31.4320832 26.9845403,33.1979998 26.9845403,34.1090348 C26.9845403,35.0200698 26.359672,37.0001322 25.23735,38 C24.1150279,38.9998678 22.5645846,40.0501753 21.3426581,40.8008779 C20.1207316,41.5515804 19.6920139,42.0250378 18.7773389,43.1798648 C18.1675556,43.9497494 17.5797855,44.697303 17.0140286,45.4225257 L15.6946226,44.5790904 C16.2798505,43.1845158 16.7661345,42.2061701 17.1534745,41.6440532 C17.7344847,40.8008779 18.5279136,39.6326021 19.9352859,38.4585508 C21.3426581,37.2844995 21.8021622,36.976819 22.4909851,36.481695 C23.179808,35.9865711 23.965697,34.9654701 23.965697,34.4213797 C23.965697,33.8772894 24.2023823,32.2247385 20.9018739,32.2247385 C17.6013654,32.2247385 17.2752405,32.4811838 15.56679,33.1727799 C13.8583394,33.8643761 12.2498149,34.8991704 11.6304117,35.5572268 C11.6304117,35.5572268 10.5701375,34.4213797 10.5701375,34.4213797 Z" id="Combined-Shape" fill="#000000" fill-rule="nonzero"></path>
    </g>
</svg>