<?xml version="1.0" encoding="UTF-8"?>
<svg width="486px" height="80px" viewBox="0 0 486 80" version="1.1" xmlns="http://www.w3.org/2000/svg" xmlns:xlink="http://www.w3.org/1999/xlink">
    <!-- Generator: Sketch 52.4 (67378) - http://www.bohemiancoding.com/sketch -->
    <title>Logo silk@1x</title>
    <desc>Created with Sketch.</desc>
    <g id="Logo-silk" stroke="none" stroke-width="1" fill="none" fill-rule="evenodd">
        <path d="M420,15.8450029 L420,22.2450029 L404.141396,22.2450029 L404.141396,28.0850029 C404.141396,29.4050029 404.901396,30.1250029 406.061396,30.1250029 C407.301396,30.1250029 408.141396,29.3650029 408.141396,28.0850029 L408.141396,25.4050029 L420,25.4050029 L420,31.9585485 C417.928955,35.2221837 412.826585,37.1650029 405.781396,37.1650029 C396.141396,37.1650029 390.901396,34.0050029 390.901396,28.4050029 L390.901396,22.2450029 L386.741396,22.2450029 L386.741396,15.8450029 L390.901396,15.8450029 L390.901396,13.4850029 L404.141396,9.92500294 L404.141396,15.8450029 L420,15.8450029 Z M420,61.0450029 L420,69.2450029 L411.141396,69.2450029 L411.141396,61.0450029 L420,61.0450029 Z M4.34139638,43.4450029 L4.34139638,15.8450029 L17.5413964,15.8450029 L15.4213964,21.1250029 L16.4213964,21.1250029 C18.5413964,17.1650029 21.5413964,14.9250029 26.9413964,14.9250029 C31.5413964,14.9250029 35.1013964,16.5650029 37.0213964,19.3650029 C38.2213964,21.1250029 38.9013964,23.4050029 38.9013964,26.0450029 C38.9013964,28.7250029 38.2213964,30.9650029 37.0213964,32.7250029 C35.1013964,35.5250029 31.5413964,37.1650029 26.9413964,37.1650029 C21.5413964,37.1650029 18.5413964,34.9250029 16.4213964,30.9650029 L15.4213964,30.9650029 L17.5413964,36.2450029 L17.5413964,43.4450029 L4.34139638,43.4450029 Z M17.4613964,26.0450029 C17.4613964,27.0050029 17.7013964,27.8050029 18.1413964,28.4450029 C18.8213964,29.4450029 19.9813964,29.9650029 21.4613964,29.9650029 C22.9813964,29.9650029 24.1413964,29.4450029 24.8213964,28.4450029 C25.2613964,27.8050029 25.5013964,27.0050029 25.5013964,26.0450029 C25.5013964,25.0850029 25.2613964,24.2850029 24.8213964,23.6450029 C24.1413964,22.6450029 22.9813964,22.1250029 21.4613964,22.1250029 C19.9813964,22.1250029 18.8213964,22.6450029 18.1413964,23.6450029 C17.7013964,24.2850029 17.4613964,25.0850029 17.4613964,26.0450029 Z M48.7413964,37.1650029 C45.1413964,37.1650029 42.7413964,36.4450029 41.3813964,35.0850029 C40.3813964,34.0850029 39.8613964,32.8050029 39.8613964,31.2050029 C39.8613964,29.7250029 40.3813964,28.4450029 41.4213964,27.4050029 C42.9013964,25.9250029 45.3813964,24.9650029 48.6613964,24.7250029 L58.7013964,24.0850029 L58.7013964,23.5650029 C58.7013964,21.9250029 57.5813964,21.2450029 55.8213964,21.2450029 C52.9013964,21.2450029 52.7413964,23.1250029 52.7013964,23.4050029 L39.4613964,23.4050029 C39.5813964,22.2050029 40.1413964,14.9250029 55.8613964,14.9250029 C66.7013964,14.9250029 71.9013964,17.7650029 71.9013964,24.2850029 L71.9013964,36.2450029 L59.4213964,36.2450029 L61.3013964,31.0050029 L60.2613964,31.0050029 C58.5413964,35.3250029 55.3013964,37.1650029 48.7413964,37.1650029 Z M53.3413964,30.2050029 C53.3413964,30.6050029 53.4613964,30.9250029 53.7013964,31.1650029 C54.0213964,31.4850029 54.6213964,31.6450029 55.3413964,31.6450029 C58.6213964,31.6450029 58.7013964,29.0050029 58.7013964,28.2850029 L58.7013964,28.1650029 L55.5413964,28.4450029 C54.7013964,28.5250029 54.1413964,28.7650029 53.7413964,29.1650029 C53.4613964,29.4450029 53.3413964,29.8050029 53.3413964,30.2050029 Z M74.5413964,36.2450029 L74.5413964,8.24500294 L87.7413964,8.24500294 L87.7413964,36.2450029 L74.5413964,36.2450029 Z M106.021396,37.1650029 C98.9413964,37.1650029 93.3813964,35.2050029 90.9013964,31.6450029 C89.8613964,30.1250029 89.2613964,28.2450029 89.2613964,26.0450029 C89.2613964,23.8850029 89.8613964,22.0050029 90.9013964,20.5250029 C93.3813964,16.9250029 98.5413964,14.9250029 106.021396,14.9250029 C116.101396,14.9250029 122.301396,18.8850029 122.301396,26.4450029 L122.301396,28.0850029 L101.861396,28.0850029 C101.981396,28.8050029 102.221396,29.4050029 102.541396,29.8850029 C103.221396,30.8050029 104.301396,31.2450029 105.941396,31.2450029 C107.581396,31.2450029 108.701396,30.6850029 109.381396,29.7250029 L122.421396,29.7250029 C121.341396,34.2850029 115.141396,37.1650029 106.021396,37.1650029 Z M101.901396,23.6850029 L109.901396,23.6850029 C109.861396,21.9250029 108.581396,20.7250029 106.021396,20.7250029 C104.261396,20.7250029 103.181396,21.1650029 102.501396,22.1650029 C102.221396,22.6050029 102.021396,23.0850029 101.901396,23.6850029 Z M145.741396,37.1250029 C136.221396,37.1250029 130.781396,34.6050029 130.781396,30.0450029 L130.781396,30.0050029 L142.901396,30.0050029 L142.901396,30.0450029 C142.901396,30.9650029 144.141396,31.4850029 145.901396,31.4850029 C147.061396,31.4850029 147.941396,31.3650029 148.261396,31.0450029 C148.421396,30.8850029 148.501396,30.6850029 148.501396,30.4050029 C148.501396,29.7250029 147.821396,29.4050029 145.901396,29.1250029 L138.501396,28.0850029 C133.581396,27.3650029 131.141396,25.3650029 131.141396,22.0450029 C131.141396,20.6050029 131.661396,19.3650029 132.701396,18.3650029 C134.901396,16.1650029 139.701396,14.9650029 146.261396,14.9650029 C155.621396,14.9650029 161.061396,17.5250029 161.061396,22.2050029 L161.061396,22.2450029 L148.861396,22.2450029 L148.861396,22.2050029 C148.861396,21.1650029 147.501396,20.5650029 145.701396,20.5650029 C144.581396,20.5650029 143.741396,20.6850029 143.421396,21.0450029 C143.261396,21.2050029 143.181396,21.4050029 143.181396,21.6050029 C143.181396,22.2450029 143.741396,22.4850029 145.861396,22.8050029 L152.301396,23.6050029 C158.141396,24.4850029 160.741396,26.2850029 160.741396,29.8850029 C160.741396,31.4850029 160.221396,32.7250029 159.181396,33.7250029 C156.981396,35.9250029 152.221396,37.1250029 145.741396,37.1250029 Z M162.861396,36.2450029 L162.861396,8.24500294 L176.061396,8.24500294 L176.061396,36.2450029 L162.861396,36.2450029 Z M179.101396,36.2450029 L179.101396,15.8450029 L192.301396,15.8450029 L192.301396,36.2450029 L179.101396,36.2450029 Z M178.981396,13.6850029 L178.981396,8.04500294 L192.381396,8.04500294 L192.381396,13.6850029 L178.981396,13.6850029 Z M195.341396,36.2450029 L195.341396,15.8450029 L208.141396,15.8450029 L206.341396,21.1250029 L207.341396,21.1250029 C208.901396,16.8850029 211.821396,14.9250029 215.901396,14.9250029 C219.981396,14.9250029 223.021396,16.8850029 223.301396,21.1250029 L224.301396,21.1250029 C225.941396,16.7650029 229.341396,14.9250029 233.701396,14.9250029 C239.701396,14.9250029 242.941396,17.8450029 242.941396,23.2450029 L242.941396,36.2450029 L229.701396,36.2450029 L229.701396,24.7650029 C229.701396,23.2050029 229.061396,22.5250029 227.861396,22.5250029 C226.581396,22.5250029 225.741396,23.3650029 225.741396,24.9650029 L225.741396,36.2450029 L212.541396,36.2450029 L212.541396,24.7650029 C212.541396,23.2050029 211.901396,22.5250029 210.701396,22.5250029 C209.341396,22.5250029 208.541396,23.3250029 208.541396,24.9650029 L208.541396,36.2450029 L195.341396,36.2450029 Z M268.421396,44.1650029 C258.021396,44.1650029 252.821396,41.4850029 252.461396,36.6450029 L265.461396,36.6450029 C265.621396,37.5650029 266.621396,38.1650029 268.661396,38.1650029 C270.821396,38.1650029 272.101396,37.2450029 272.101396,35.4050029 L272.101396,34.1650029 L274.741396,28.8050029 L273.701396,28.8050029 C272.021396,32.8450029 268.821396,34.9650029 264.141396,34.9650029 C259.581396,34.9650029 255.941396,33.4050029 254.061396,30.7250029 C252.981396,29.1650029 252.421396,27.2450029 252.421396,24.9650029 C252.421396,22.6850029 252.981396,20.7250029 254.061396,19.2050029 C255.941396,16.4850029 259.581396,14.9250029 264.141396,14.9250029 C268.821396,14.9250029 272.021396,17.0450029 273.701396,21.1250029 L274.741396,21.1250029 L272.421396,15.8450029 L285.341396,15.8450029 L285.341396,32.4450029 C285.341396,40.3650029 279.821396,44.1650029 268.421396,44.1650029 Z M265.381396,24.9650029 C265.381396,25.7250029 265.581396,26.4850029 265.981396,27.0850029 C266.621396,27.9650029 267.661396,28.4850029 268.981396,28.4850029 C270.341396,28.4850029 271.381396,27.9650029 272.021396,27.0850029 C272.421396,26.4850029 272.621396,25.7250029 272.621396,24.9650029 C272.621396,24.1650029 272.421396,23.4050029 272.021396,22.8050029 C271.381396,21.9250029 270.341396,21.4050029 268.981396,21.4050029 C267.661396,21.4050029 266.621396,21.9250029 265.981396,22.8050029 C265.581396,23.4050029 265.381396,24.1650029 265.381396,24.9650029 Z M288.341396,36.2450029 L288.341396,8.24500294 L301.541396,8.24500294 L301.541396,15.8450029 L299.421396,21.1250029 L300.421396,21.1250029 C302.181396,17.0850029 305.101396,14.9250029 310.301396,14.9250029 C317.061396,14.9250029 320.541396,17.9250029 320.541396,23.6450029 L320.541396,36.2450029 L307.341396,36.2450029 L307.341396,25.4450029 C307.341396,23.6050029 306.421396,22.5250029 304.661396,22.5250029 C302.581396,22.5250029 301.541396,23.9250029 301.541396,26.4050029 L301.541396,36.2450029 L288.341396,36.2450029 Z M339.061396,37.1650029 C331.421396,37.1650029 325.781396,35.0850029 323.301396,31.4450029 C322.261396,29.9250029 321.661396,28.0850029 321.661396,26.0450029 C321.661396,24.0050029 322.261396,22.2050029 323.301396,20.6850029 C325.781396,17.0450029 331.421396,14.9250029 339.061396,14.9250029 C346.741396,14.9250029 352.381396,17.0450029 354.861396,20.6850029 C355.901396,22.2050029 356.501396,24.0050029 356.501396,26.0450029 C356.501396,28.0850029 355.901396,29.9250029 354.861396,31.4450029 C352.381396,35.0850029 346.741396,37.1650029 339.061396,37.1650029 Z M335.061396,26.0450029 C335.061396,27.0050029 335.261396,27.7650029 335.701396,28.4050029 C336.381396,29.4050029 337.581396,29.9650029 339.061396,29.9650029 C340.581396,29.9650029 341.781396,29.4050029 342.461396,28.4050029 C342.901396,27.7650029 343.101396,27.0050029 343.101396,26.0450029 C343.101396,25.1250029 342.901396,24.3250029 342.461396,23.6850029 C341.781396,22.6850029 340.581396,22.1250029 339.061396,22.1250029 C337.581396,22.1250029 336.381396,22.6850029 335.701396,23.6850029 C335.261396,24.3250029 335.061396,25.1250029 335.061396,26.0450029 Z M371.741396,37.1250029 C362.221396,37.1250029 356.781396,34.6050029 356.781396,30.0450029 L356.781396,30.0050029 L368.901396,30.0050029 L368.901396,30.0450029 C368.901396,30.9650029 370.141396,31.4850029 371.901396,31.4850029 C373.061396,31.4850029 373.941396,31.3650029 374.261396,31.0450029 C374.421396,30.8850029 374.501396,30.6850029 374.501396,30.4050029 C374.501396,29.7250029 373.821396,29.4050029 371.901396,29.1250029 L364.501396,28.0850029 C359.581396,27.3650029 357.141396,25.3650029 357.141396,22.0450029 C357.141396,20.6050029 357.661396,19.3650029 358.701396,18.3650029 C360.901396,16.1650029 365.701396,14.9650029 372.261396,14.9650029 C381.621396,14.9650029 387.061396,17.5250029 387.061396,22.2050029 L387.061396,22.2450029 L374.861396,22.2450029 L374.861396,22.2050029 C374.861396,21.1650029 373.501396,20.5650029 371.701396,20.5650029 C370.581396,20.5650029 369.741396,20.6850029 369.421396,21.0450029 C369.261396,21.2050029 369.181396,21.4050029 369.181396,21.6050029 C369.181396,22.2450029 369.741396,22.4850029 371.861396,22.8050029 L378.301396,23.6050029 C384.141396,24.4850029 386.741396,26.2850029 386.741396,29.8850029 C386.741396,31.4850029 386.221396,32.7250029 385.181396,33.7250029 C382.981396,35.9250029 378.221396,37.1250029 371.741396,37.1250029 Z M49.6213964,70.1250029 C40.1013964,70.1250029 34.6613964,67.6050029 34.6613964,63.0450029 L34.6613964,63.0050029 L46.7813964,63.0050029 L46.7813964,63.0450029 C46.7813964,63.9650029 48.0213964,64.4850029 49.7813964,64.4850029 C50.9413964,64.4850029 51.8213964,64.3650029 52.1413964,64.0450029 C52.3013964,63.8850029 52.3813964,63.6850029 52.3813964,63.4050029 C52.3813964,62.7250029 51.7013964,62.4050029 49.7813964,62.1250029 L42.3813964,61.0850029 C37.4613964,60.3650029 35.0213964,58.3650029 35.0213964,55.0450029 C35.0213964,53.6050029 35.5413964,52.3650029 36.5813964,51.3650029 C38.7813964,49.1650029 43.5813964,47.9650029 50.1413964,47.9650029 C59.5013964,47.9650029 64.9413964,50.5250029 64.9413964,55.2050029 L64.9413964,55.2450029 L52.7413964,55.2450029 L52.7413964,55.2050029 C52.7413964,54.1650029 51.3813964,53.5650029 49.5813964,53.5650029 C48.4613964,53.5650029 47.6213964,53.6850029 47.3013964,54.0450029 C47.1413964,54.2050029 47.0613964,54.4050029 47.0613964,54.6050029 C47.0613964,55.2450029 47.6213964,55.4850029 49.7413964,55.8050029 L56.1813964,56.6050029 C62.0213964,57.4850029 64.6213964,59.2850029 64.6213964,62.8850029 C64.6213964,64.4850029 64.1013964,65.7250029 63.0613964,66.7250029 C60.8613964,68.9250029 56.1013964,70.1250029 49.6213964,70.1250029 Z M78.0613964,77.1650029 C69.7413964,77.1650029 64.0613964,74.8450029 64.0613964,70.2450029 L64.0613964,69.8450029 L76.8613964,69.8450029 L76.8613964,70.0450029 C76.8613964,70.6850029 77.5013964,71.0850029 78.5013964,71.0850029 C79.6613964,71.0850029 80.5013964,70.6050029 80.9013964,69.3250029 L81.5013964,67.4050029 L71.7413964,67.4050029 L64.1013964,48.8450029 L77.6613964,48.8450029 L82.0613964,62.8050029 L82.9013964,62.8050029 L87.1413964,48.8450029 L100.661396,48.8450029 L92.6613964,69.7650029 C90.7413964,74.6050029 86.1813964,77.1650029 78.0613964,77.1650029 Z M101.541396,69.2450029 L101.541396,48.8450029 L114.741396,48.8450029 L112.621396,54.1250029 L113.621396,54.1250029 C115.381396,50.0850029 118.301396,47.9250029 123.501396,47.9250029 C130.261396,47.9250029 133.741396,50.9250029 133.741396,56.6450029 L133.741396,69.2450029 L120.541396,69.2450029 L120.541396,58.4450029 C120.541396,56.6050029 119.621396,55.5250029 117.861396,55.5250029 C115.781396,55.5250029 114.741396,56.9250029 114.741396,59.4050029 L114.741396,69.2450029 L101.541396,69.2450029 Z M152.981396,70.1650029 C143.341396,70.1650029 138.101396,67.0050029 138.101396,61.4050029 L138.101396,55.2450029 L133.941396,55.2450029 L133.941396,48.8450029 L138.101396,48.8450029 L138.101396,46.4850029 L151.341396,42.9250029 L151.341396,48.8450029 L168.221396,48.8450029 L168.221396,55.2450029 L151.341396,55.2450029 L151.341396,61.0850029 C151.341396,62.4050029 152.101396,63.1250029 153.261396,63.1250029 C154.501396,63.1250029 155.341396,62.3650029 155.341396,61.0850029 L155.341396,58.4050029 L168.221396,58.4050029 L168.221396,61.4050029 C168.221396,66.7650029 162.301396,70.1650029 152.981396,70.1650029 Z M169.941396,69.2450029 L169.941396,41.2450029 L183.141396,41.2450029 L183.141396,48.8450029 L181.021396,54.1250029 L182.021396,54.1250029 C183.781396,50.0850029 186.701396,47.9250029 191.901396,47.9250029 C198.661396,47.9250029 202.141396,50.9250029 202.141396,56.6450029 L202.141396,69.2450029 L188.941396,69.2450029 L188.941396,58.4450029 C188.941396,56.6050029 188.021396,55.5250029 186.261396,55.5250029 C184.181396,55.5250029 183.141396,56.9250029 183.141396,59.4050029 L183.141396,69.2450029 L169.941396,69.2450029 Z M220.021396,70.1650029 C212.941396,70.1650029 207.381396,68.2050029 204.901396,64.6450029 C203.861396,63.1250029 203.261396,61.2450029 203.261396,59.0450029 C203.261396,56.8850029 203.861396,55.0050029 204.901396,53.5250029 C207.381396,49.9250029 212.541396,47.9250029 220.021396,47.9250029 C230.101396,47.9250029 236.301396,51.8850029 236.301396,59.4450029 L236.301396,61.0850029 L215.861396,61.0850029 C215.981396,61.8050029 216.221396,62.4050029 216.541396,62.8850029 C217.221396,63.8050029 218.301396,64.2450029 219.941396,64.2450029 C221.581396,64.2450029 222.701396,63.6850029 223.381396,62.7250029 L236.421396,62.7250029 C235.341396,67.2850029 229.141396,70.1650029 220.021396,70.1650029 Z M215.901396,56.6850029 L223.901396,56.6850029 C223.861396,54.9250029 222.581396,53.7250029 220.021396,53.7250029 C218.261396,53.7250029 217.181396,54.1650029 216.501396,55.1650029 C216.221396,55.6050029 216.021396,56.0850029 215.901396,56.6850029 Z M251.621396,70.1250029 C242.101396,70.1250029 236.661396,67.6050029 236.661396,63.0450029 L236.661396,63.0050029 L248.781396,63.0050029 L248.781396,63.0450029 C248.781396,63.9650029 250.021396,64.4850029 251.781396,64.4850029 C252.941396,64.4850029 253.821396,64.3650029 254.141396,64.0450029 C254.301396,63.8850029 254.381396,63.6850029 254.381396,63.4050029 C254.381396,62.7250029 253.701396,62.4050029 251.781396,62.1250029 L244.381396,61.0850029 C239.461396,60.3650029 237.021396,58.3650029 237.021396,55.0450029 C237.021396,53.6050029 237.541396,52.3650029 238.581396,51.3650029 C240.781396,49.1650029 245.581396,47.9650029 252.141396,47.9650029 C261.501396,47.9650029 266.941396,50.5250029 266.941396,55.2050029 L266.941396,55.2450029 L254.741396,55.2450029 L254.741396,55.2050029 C254.741396,54.1650029 253.381396,53.5650029 251.581396,53.5650029 C250.461396,53.5650029 249.621396,53.6850029 249.301396,54.0450029 C249.141396,54.2050029 249.061396,54.4050029 249.061396,54.6050029 C249.061396,55.2450029 249.621396,55.4850029 251.741396,55.8050029 L258.181396,56.6050029 C264.021396,57.4850029 266.621396,59.2850029 266.621396,62.8850029 C266.621396,64.4850029 266.101396,65.7250029 265.061396,66.7250029 C262.861396,68.9250029 258.101396,70.1250029 251.621396,70.1250029 Z M268.741396,69.2450029 L268.741396,48.8450029 L281.941396,48.8450029 L281.941396,69.2450029 L268.741396,69.2450029 Z M268.621396,46.6850029 L268.621396,41.0450029 L282.021396,41.0450029 L282.021396,46.6850029 L268.621396,46.6850029 Z M298.701396,70.1250029 C289.181396,70.1250029 283.741396,67.6050029 283.741396,63.0450029 L283.741396,63.0050029 L295.861396,63.0050029 L295.861396,63.0450029 C295.861396,63.9650029 297.101396,64.4850029 298.861396,64.4850029 C300.021396,64.4850029 300.901396,64.3650029 301.221396,64.0450029 C301.381396,63.8850029 301.461396,63.6850029 301.461396,63.4050029 C301.461396,62.7250029 300.781396,62.4050029 298.861396,62.1250029 L291.461396,61.0850029 C286.541396,60.3650029 284.101396,58.3650029 284.101396,55.0450029 C284.101396,53.6050029 284.621396,52.3650029 285.661396,51.3650029 C287.861396,49.1650029 292.661396,47.9650029 299.221396,47.9650029 C308.581396,47.9650029 314.021396,50.5250029 314.021396,55.2050029 L314.021396,55.2450029 L301.821396,55.2450029 L301.821396,55.2050029 C301.821396,54.1650029 300.461396,53.5650029 298.661396,53.5650029 C297.541396,53.5650029 296.701396,53.6850029 296.381396,54.0450029 C296.221396,54.2050029 296.141396,54.4050029 296.141396,54.6050029 C296.141396,55.2450029 296.701396,55.4850029 298.821396,55.8050029 L305.261396,56.6050029 C311.101396,57.4850029 313.701396,59.2850029 313.701396,62.8850029 C313.701396,64.4850029 313.181396,65.7250029 312.141396,66.7250029 C309.941396,68.9250029 305.181396,70.1250029 298.701396,70.1250029 Z M331.061396,70.1650029 C323.981396,70.1650029 318.421396,68.2050029 315.941396,64.6450029 C314.901396,63.1250029 314.301396,61.2450029 314.301396,59.0450029 C314.301396,56.8850029 314.901396,55.0050029 315.941396,53.5250029 C318.421396,49.9250029 323.581396,47.9250029 331.061396,47.9250029 C341.141396,47.9250029 347.341396,51.8850029 347.341396,59.4450029 L347.341396,61.0850029 L326.901396,61.0850029 C327.021396,61.8050029 327.261396,62.4050029 327.581396,62.8850029 C328.261396,63.8050029 329.341396,64.2450029 330.981396,64.2450029 C332.621396,64.2450029 333.741396,63.6850029 334.421396,62.7250029 L347.461396,62.7250029 C346.381396,67.2850029 340.181396,70.1650029 331.061396,70.1650029 Z M326.941396,56.6850029 L334.941396,56.6850029 C334.901396,54.9250029 333.621396,53.7250029 331.061396,53.7250029 C329.301396,53.7250029 328.221396,54.1650029 327.541396,55.1650029 C327.261396,55.6050029 327.061396,56.0850029 326.941396,56.6850029 Z M348.941396,69.2450029 L348.941396,48.8450029 L361.901396,48.8450029 L359.661396,55.1650029 L360.661396,55.1650029 C363.461396,49.8850029 366.101396,47.9250029 371.381396,47.9250029 C376.781396,47.9250029 379.621396,50.5250029 379.621396,55.4450029 L379.621396,60.5250029 L366.421396,60.5250029 L366.421396,58.2850029 C366.421396,56.5250029 365.701396,55.6450029 364.381396,55.6450029 C362.901396,55.6450029 362.141396,56.7250029 362.141396,58.5650029 L362.141396,69.2450029 L348.941396,69.2450029 Z M394.581396,70.1250029 C385.061396,70.1250029 379.621396,67.6050029 379.621396,63.0450029 L379.621396,63.0050029 L391.741396,63.0050029 L391.741396,63.0450029 C391.741396,63.9650029 392.981396,64.4850029 394.741396,64.4850029 C395.901396,64.4850029 396.781396,64.3650029 397.101396,64.0450029 C397.261396,63.8850029 397.341396,63.6850029 397.341396,63.4050029 C397.341396,62.7250029 396.661396,62.4050029 394.741396,62.1250029 L387.341396,61.0850029 C382.421396,60.3650029 379.981396,58.3650029 379.981396,55.0450029 C379.981396,53.6050029 380.501396,52.3650029 381.541396,51.3650029 C383.741396,49.1650029 388.541396,47.9650029 395.101396,47.9650029 C404.461396,47.9650029 409.901396,50.5250029 409.901396,55.2050029 L409.901396,55.2450029 L397.701396,55.2450029 L397.701396,55.2050029 C397.701396,54.1650029 396.341396,53.5650029 394.541396,53.5650029 C393.421396,53.5650029 392.581396,53.6850029 392.261396,54.0450029 C392.101396,54.2050029 392.021396,54.4050029 392.021396,54.6050029 C392.021396,55.2450029 392.581396,55.4850029 394.701396,55.8050029 L401.141396,56.6050029 C406.981396,57.4850029 409.581396,59.2850029 409.581396,62.8850029 C409.581396,64.4850029 409.061396,65.7250029 408.021396,66.7250029 C405.821396,68.9250029 401.061396,70.1250029 394.581396,70.1250029 Z" id="Combined-Shape" fill="#000000"></path>
        <g id="Icon-silk" transform="translate(452.500000, 41.000000) scale(-1, 1) translate(-452.500000, -41.000000) translate(423.000000, 3.000000)" fill="#000000" fill-rule="nonzero">
            <path d="M0.842375225,72.1147872 C1.76937523,73.3317872 5.07537523,70.5507872 6.07637523,70.3037872 C9.54037523,69.4497872 10.8503752,72.4427872 13.4903752,74.0807872 C17.6333752,76.6527872 19.5163752,73.2817872 22.7333752,71.0537872 C26.2673752,68.6067872 27.6613752,71.4497872 31.0723752,71.6907872 C34.2943752,71.9197872 35.2953752,68.1517872 38.0513752,67.3367872 C41.0593752,66.4477872 43.8603752,68.5187872 45.7473752,69.9737872 C46.9663752,70.9117872 49.7373752,72.5377872 51.0793752,71.1767872 C51.2723752,70.9817872 50.4363752,56.8977872 49.5543752,44.2767872 C50.2049881,40.96152 52.5975096,37.928374 55.8693752,36.1087872 C59.4857418,34.0976127 58.7063752,29.7767872 54.5793752,29.6047872 C50.4523752,29.4327872 48.5833752,31.2377872 48.5833752,31.2377872 C48.5833752,31.2377872 48.5793752,31.7687872 48.4443752,30.4587872 C48.1323752,27.4177872 47.8193752,24.3627872 47.2713752,21.3517872 C46.1053752,14.9397872 44.3533752,8.18978719 38.8983752,4.06878719 C30.4633752,-2.30821281 16.9563752,-1.07721281 10.3873752,6.97478719 C3.73437523,15.1307872 2.52137523,27.7517872 1.61637523,37.8597872 C0.0703752253,55.1337872 -0.703624775,70.0907872 0.842375225,72.1147872 Z M37.0490601,22.6591014 C37.0023858,23.4862127 36.2940427,24.1188818 35.4669315,24.0722075 C34.6398202,24.0255333 34.0071511,23.3171901 34.0538253,22.4900789 C34.3028106,18.0778319 35.7261158,14.6487883 39.2027205,14.7701941 C41.2417736,14.8413994 42.4810361,16.372108 43.1476272,18.6461265 C43.5443142,19.9993901 43.7220628,21.6528156 43.6854426,22.70148 C43.6565309,23.5294025 42.9619296,24.1771287 42.1340072,24.148217 C41.3060847,24.1193053 40.6583585,23.424704 40.6872702,22.5967815 C40.7602121,20.5079963 39.9660199,17.7986777 39.098022,17.7683665 C38.076101,17.7326803 37.2092031,19.8212209 37.0490601,22.6591014 Z M20.4926913,23.0079797 C20.5485355,23.8345225 19.9237608,24.5498384 19.0972181,24.6056826 C18.2706753,24.6615267 17.5553594,24.0367521 17.4995152,23.2102093 C17.398727,21.7184557 17.4606612,20.1967879 17.7895386,18.85648 C18.3192028,16.6978846 19.5193301,15.2094759 21.5414433,14.991612 C25.160713,14.6016694 26.9911627,18.6155721 26.9911627,22.604246 C26.9911627,23.4326731 26.3195898,24.104246 25.4911627,24.104246 C24.6627356,24.104246 23.9911627,23.4326731 23.9911627,22.604246 C23.9911627,20.2013317 22.923484,17.8600718 21.8628055,17.9743501 C20.8343524,18.0851563 20.305662,20.239783 20.4926913,23.0079797 Z M10.5701375,34.4213797 C11.6362183,33.0456406 14.1036047,31.0129719 15.56679,30.380222 C17.0299752,29.7474722 18.3684911,29.1919419 21.3426581,29.1919419 C22.1336604,29.1919419 23.6334147,29.3400213 24.8457054,30.2617493 C26.3849717,31.4320832 26.9845403,33.1979998 26.9845403,34.1090348 C26.9845403,35.0200698 26.359672,37.0001322 25.23735,38 C24.1150279,38.9998678 22.5645846,40.0501753 21.3426581,40.8008779 C20.1207316,41.5515804 19.6920139,42.0250378 18.7773389,43.1798648 C18.1675556,43.9497494 17.5797855,44.697303 17.0140286,45.4225257 L15.6946226,44.5790904 C16.2798505,43.1845158 16.7661345,42.2061701 17.1534745,41.6440532 C17.7344847,40.8008779 18.5279136,39.6326021 19.9352859,38.4585508 C21.3426581,37.2844995 21.8021622,36.976819 22.4909851,36.481695 C23.179808,35.9865711 23.965697,34.9654701 23.965697,34.4213797 C23.965697,33.8772894 24.2023823,32.2247385 20.9018739,32.2247385 C17.6013654,32.2247385 17.2752405,32.4811838 15.56679,33.1727799 C13.8583394,33.8643761 12.2498149,34.8991704 11.6304117,35.5572268 C11.6304117,35.5572268 10.5701375,34.4213797 10.5701375,34.4213797 Z" id="Combined-Shape"></path>
        </g>
    </g>
</svg>