<?xml version="1.0" encoding="UTF-8"?>
<svg width="486px" height="80px" viewBox="0 0 486 80" version="1.1" xmlns="http://www.w3.org/2000/svg" xmlns:xlink="http://www.w3.org/1999/xlink">
    <!-- Generator: Sketch 52.4 (67378) - http://www.bohemiancoding.com/sketch -->
    <title>Logo inverse@1x</title>
    <desc>Created with Sketch.</desc>
    <defs>
        <linearGradient x1="1.82175755%" y1="1.8038972%" x2="101.999998%" y2="100.999999%" id="linearGradient-1">
            <stop stop-color="#5623AE" offset="0%"></stop>
            <stop stop-color="#BA0C98" offset="100%"></stop>
        </linearGradient>
    </defs>
    <g id="Logo-inverse" stroke="none" stroke-width="1" fill="none" fill-rule="evenodd">
        <g id="Wordmark" transform="translate(4.341396, 8.004932)" fill="url(#linearGradient-1)">
            <path d="M416,7.84486201 L416,14.244862 L400.141396,14.244862 L400.141396,20.084862 C400.141396,21.404862 400.901396,22.124862 402.061396,22.124862 C403.301396,22.124862 404.141396,21.364862 404.141396,20.084862 L404.141396,17.404862 L416,17.404862 L416,23.9584076 C413.928955,27.2220428 408.826585,29.164862 401.781396,29.164862 C392.141396,29.164862 386.901396,26.004862 386.901396,20.404862 L386.901396,14.244862 L382.741396,14.244862 L382.741396,7.84486201 L386.901396,7.84486201 L386.901396,5.48486201 L400.141396,1.92486201 L400.141396,7.84486201 L416,7.84486201 Z M416,53.044862 L416,61.244862 L407.141396,61.244862 L407.141396,53.044862 L416,53.044862 Z M0.34139638,35.444862 L0.34139638,7.84486201 L13.5413964,7.84486201 L11.4213964,13.124862 L12.4213964,13.124862 C14.5413964,9.16486201 17.5413964,6.92486201 22.9413964,6.92486201 C27.5413964,6.92486201 31.1013964,8.56486201 33.0213964,11.364862 C34.2213964,13.124862 34.9013964,15.404862 34.9013964,18.044862 C34.9013964,20.724862 34.2213964,22.964862 33.0213964,24.724862 C31.1013964,27.524862 27.5413964,29.164862 22.9413964,29.164862 C17.5413964,29.164862 14.5413964,26.924862 12.4213964,22.964862 L11.4213964,22.964862 L13.5413964,28.244862 L13.5413964,35.444862 L0.34139638,35.444862 Z M13.4613964,18.044862 C13.4613964,19.004862 13.7013964,19.804862 14.1413964,20.444862 C14.8213964,21.444862 15.9813964,21.964862 17.4613964,21.964862 C18.9813964,21.964862 20.1413964,21.444862 20.8213964,20.444862 C21.2613964,19.804862 21.5013964,19.004862 21.5013964,18.044862 C21.5013964,17.084862 21.2613964,16.284862 20.8213964,15.644862 C20.1413964,14.644862 18.9813964,14.124862 17.4613964,14.124862 C15.9813964,14.124862 14.8213964,14.644862 14.1413964,15.644862 C13.7013964,16.284862 13.4613964,17.084862 13.4613964,18.044862 Z M44.7413964,29.164862 C41.1413964,29.164862 38.7413964,28.444862 37.3813964,27.084862 C36.3813964,26.084862 35.8613964,24.804862 35.8613964,23.204862 C35.8613964,21.724862 36.3813964,20.444862 37.4213964,19.404862 C38.9013964,17.924862 41.3813964,16.964862 44.6613964,16.724862 L54.7013964,16.084862 L54.7013964,15.564862 C54.7013964,13.924862 53.5813964,13.244862 51.8213964,13.244862 C48.9013964,13.244862 48.7413964,15.124862 48.7013964,15.404862 L35.4613964,15.404862 C35.5813964,14.204862 36.1413964,6.92486201 51.8613964,6.92486201 C62.7013964,6.92486201 67.9013964,9.76486201 67.9013964,16.284862 L67.9013964,28.244862 L55.4213964,28.244862 L57.3013964,23.004862 L56.2613964,23.004862 C54.5413964,27.324862 51.3013964,29.164862 44.7413964,29.164862 Z M49.3413964,22.204862 C49.3413964,22.604862 49.4613964,22.924862 49.7013964,23.164862 C50.0213964,23.484862 50.6213964,23.644862 51.3413964,23.644862 C54.6213964,23.644862 54.7013964,21.004862 54.7013964,20.284862 L54.7013964,20.164862 L51.5413964,20.444862 C50.7013964,20.524862 50.1413964,20.764862 49.7413964,21.164862 C49.4613964,21.444862 49.3413964,21.804862 49.3413964,22.204862 Z M70.5413964,28.244862 L70.5413964,0.244862008 L83.7413964,0.244862008 L83.7413964,28.244862 L70.5413964,28.244862 Z M102.021396,29.164862 C94.9413964,29.164862 89.3813964,27.204862 86.9013964,23.644862 C85.8613964,22.124862 85.2613964,20.244862 85.2613964,18.044862 C85.2613964,15.884862 85.8613964,14.004862 86.9013964,12.524862 C89.3813964,8.92486201 94.5413964,6.92486201 102.021396,6.92486201 C112.101396,6.92486201 118.301396,10.884862 118.301396,18.444862 L118.301396,20.084862 L97.8613964,20.084862 C97.9813964,20.804862 98.2213964,21.404862 98.5413964,21.884862 C99.2213964,22.804862 100.301396,23.244862 101.941396,23.244862 C103.581396,23.244862 104.701396,22.684862 105.381396,21.724862 L118.421396,21.724862 C117.341396,26.284862 111.141396,29.164862 102.021396,29.164862 Z M97.9013964,15.684862 L105.901396,15.684862 C105.861396,13.924862 104.581396,12.724862 102.021396,12.724862 C100.261396,12.724862 99.1813964,13.164862 98.5013964,14.164862 C98.2213964,14.604862 98.0213964,15.084862 97.9013964,15.684862 Z M141.741396,29.124862 C132.221396,29.124862 126.781396,26.604862 126.781396,22.044862 L126.781396,22.004862 L138.901396,22.004862 L138.901396,22.044862 C138.901396,22.964862 140.141396,23.484862 141.901396,23.484862 C143.061396,23.484862 143.941396,23.364862 144.261396,23.044862 C144.421396,22.884862 144.501396,22.684862 144.501396,22.404862 C144.501396,21.724862 143.821396,21.404862 141.901396,21.124862 L134.501396,20.084862 C129.581396,19.364862 127.141396,17.364862 127.141396,14.044862 C127.141396,12.604862 127.661396,11.364862 128.701396,10.364862 C130.901396,8.16486201 135.701396,6.96486201 142.261396,6.96486201 C151.621396,6.96486201 157.061396,9.52486201 157.061396,14.204862 L157.061396,14.244862 L144.861396,14.244862 L144.861396,14.204862 C144.861396,13.164862 143.501396,12.564862 141.701396,12.564862 C140.581396,12.564862 139.741396,12.684862 139.421396,13.044862 C139.261396,13.204862 139.181396,13.404862 139.181396,13.604862 C139.181396,14.244862 139.741396,14.484862 141.861396,14.804862 L148.301396,15.604862 C154.141396,16.484862 156.741396,18.284862 156.741396,21.884862 C156.741396,23.484862 156.221396,24.724862 155.181396,25.724862 C152.981396,27.924862 148.221396,29.124862 141.741396,29.124862 Z M158.861396,28.244862 L158.861396,0.244862008 L172.061396,0.244862008 L172.061396,28.244862 L158.861396,28.244862 Z M175.101396,28.244862 L175.101396,7.84486201 L188.301396,7.84486201 L188.301396,28.244862 L175.101396,28.244862 Z M174.981396,5.68486201 L174.981396,0.0448620082 L188.381396,0.0448620082 L188.381396,5.68486201 L174.981396,5.68486201 Z M191.341396,28.244862 L191.341396,7.84486201 L204.141396,7.84486201 L202.341396,13.124862 L203.341396,13.124862 C204.901396,8.88486201 207.821396,6.92486201 211.901396,6.92486201 C215.981396,6.92486201 219.021396,8.88486201 219.301396,13.124862 L220.301396,13.124862 C221.941396,8.76486201 225.341396,6.92486201 229.701396,6.92486201 C235.701396,6.92486201 238.941396,9.84486201 238.941396,15.244862 L238.941396,28.244862 L225.701396,28.244862 L225.701396,16.764862 C225.701396,15.204862 225.061396,14.524862 223.861396,14.524862 C222.581396,14.524862 221.741396,15.364862 221.741396,16.964862 L221.741396,28.244862 L208.541396,28.244862 L208.541396,16.764862 C208.541396,15.204862 207.901396,14.524862 206.701396,14.524862 C205.341396,14.524862 204.541396,15.324862 204.541396,16.964862 L204.541396,28.244862 L191.341396,28.244862 Z M264.421396,36.164862 C254.021396,36.164862 248.821396,33.484862 248.461396,28.644862 L261.461396,28.644862 C261.621396,29.564862 262.621396,30.164862 264.661396,30.164862 C266.821396,30.164862 268.101396,29.244862 268.101396,27.404862 L268.101396,26.164862 L270.741396,20.804862 L269.701396,20.804862 C268.021396,24.844862 264.821396,26.964862 260.141396,26.964862 C255.581396,26.964862 251.941396,25.404862 250.061396,22.724862 C248.981396,21.164862 248.421396,19.244862 248.421396,16.964862 C248.421396,14.684862 248.981396,12.724862 250.061396,11.204862 C251.941396,8.48486201 255.581396,6.92486201 260.141396,6.92486201 C264.821396,6.92486201 268.021396,9.04486201 269.701396,13.124862 L270.741396,13.124862 L268.421396,7.84486201 L281.341396,7.84486201 L281.341396,24.444862 C281.341396,32.364862 275.821396,36.164862 264.421396,36.164862 Z M261.381396,16.964862 C261.381396,17.724862 261.581396,18.484862 261.981396,19.084862 C262.621396,19.964862 263.661396,20.484862 264.981396,20.484862 C266.341396,20.484862 267.381396,19.964862 268.021396,19.084862 C268.421396,18.484862 268.621396,17.724862 268.621396,16.964862 C268.621396,16.164862 268.421396,15.404862 268.021396,14.804862 C267.381396,13.924862 266.341396,13.404862 264.981396,13.404862 C263.661396,13.404862 262.621396,13.924862 261.981396,14.804862 C261.581396,15.404862 261.381396,16.164862 261.381396,16.964862 Z M284.341396,28.244862 L284.341396,0.244862008 L297.541396,0.244862008 L297.541396,7.84486201 L295.421396,13.124862 L296.421396,13.124862 C298.181396,9.08486201 301.101396,6.92486201 306.301396,6.92486201 C313.061396,6.92486201 316.541396,9.92486201 316.541396,15.644862 L316.541396,28.244862 L303.341396,28.244862 L303.341396,17.444862 C303.341396,15.604862 302.421396,14.524862 300.661396,14.524862 C298.581396,14.524862 297.541396,15.924862 297.541396,18.404862 L297.541396,28.244862 L284.341396,28.244862 Z M335.061396,29.164862 C327.421396,29.164862 321.781396,27.084862 319.301396,23.444862 C318.261396,21.924862 317.661396,20.084862 317.661396,18.044862 C317.661396,16.004862 318.261396,14.204862 319.301396,12.684862 C321.781396,9.04486201 327.421396,6.92486201 335.061396,6.92486201 C342.741396,6.92486201 348.381396,9.04486201 350.861396,12.684862 C351.901396,14.204862 352.501396,16.004862 352.501396,18.044862 C352.501396,20.084862 351.901396,21.924862 350.861396,23.444862 C348.381396,27.084862 342.741396,29.164862 335.061396,29.164862 Z M331.061396,18.044862 C331.061396,19.004862 331.261396,19.764862 331.701396,20.404862 C332.381396,21.404862 333.581396,21.964862 335.061396,21.964862 C336.581396,21.964862 337.781396,21.404862 338.461396,20.404862 C338.901396,19.764862 339.101396,19.004862 339.101396,18.044862 C339.101396,17.124862 338.901396,16.324862 338.461396,15.684862 C337.781396,14.684862 336.581396,14.124862 335.061396,14.124862 C333.581396,14.124862 332.381396,14.684862 331.701396,15.684862 C331.261396,16.324862 331.061396,17.124862 331.061396,18.044862 Z M367.741396,29.124862 C358.221396,29.124862 352.781396,26.604862 352.781396,22.044862 L352.781396,22.004862 L364.901396,22.004862 L364.901396,22.044862 C364.901396,22.964862 366.141396,23.484862 367.901396,23.484862 C369.061396,23.484862 369.941396,23.364862 370.261396,23.044862 C370.421396,22.884862 370.501396,22.684862 370.501396,22.404862 C370.501396,21.724862 369.821396,21.404862 367.901396,21.124862 L360.501396,20.084862 C355.581396,19.364862 353.141396,17.364862 353.141396,14.044862 C353.141396,12.604862 353.661396,11.364862 354.701396,10.364862 C356.901396,8.16486201 361.701396,6.96486201 368.261396,6.96486201 C377.621396,6.96486201 383.061396,9.52486201 383.061396,14.204862 L383.061396,14.244862 L370.861396,14.244862 L370.861396,14.204862 C370.861396,13.164862 369.501396,12.564862 367.701396,12.564862 C366.581396,12.564862 365.741396,12.684862 365.421396,13.044862 C365.261396,13.204862 365.181396,13.404862 365.181396,13.604862 C365.181396,14.244862 365.741396,14.484862 367.861396,14.804862 L374.301396,15.604862 C380.141396,16.484862 382.741396,18.284862 382.741396,21.884862 C382.741396,23.484862 382.221396,24.724862 381.181396,25.724862 C378.981396,27.924862 374.221396,29.124862 367.741396,29.124862 Z M45.6213964,62.124862 C36.1013964,62.124862 30.6613964,59.604862 30.6613964,55.044862 L30.6613964,55.004862 L42.7813964,55.004862 L42.7813964,55.044862 C42.7813964,55.964862 44.0213964,56.484862 45.7813964,56.484862 C46.9413964,56.484862 47.8213964,56.364862 48.1413964,56.044862 C48.3013964,55.884862 48.3813964,55.684862 48.3813964,55.404862 C48.3813964,54.724862 47.7013964,54.404862 45.7813964,54.124862 L38.3813964,53.084862 C33.4613964,52.364862 31.0213964,50.364862 31.0213964,47.044862 C31.0213964,45.604862 31.5413964,44.364862 32.5813964,43.364862 C34.7813964,41.164862 39.5813964,39.964862 46.1413964,39.964862 C55.5013964,39.964862 60.9413964,42.524862 60.9413964,47.204862 L60.9413964,47.244862 L48.7413964,47.244862 L48.7413964,47.204862 C48.7413964,46.164862 47.3813964,45.564862 45.5813964,45.564862 C44.4613964,45.564862 43.6213964,45.684862 43.3013964,46.044862 C43.1413964,46.204862 43.0613964,46.404862 43.0613964,46.604862 C43.0613964,47.244862 43.6213964,47.484862 45.7413964,47.804862 L52.1813964,48.604862 C58.0213964,49.484862 60.6213964,51.284862 60.6213964,54.884862 C60.6213964,56.484862 60.1013964,57.724862 59.0613964,58.724862 C56.8613964,60.924862 52.1013964,62.124862 45.6213964,62.124862 Z M74.0613964,69.164862 C65.7413964,69.164862 60.0613964,66.844862 60.0613964,62.244862 L60.0613964,61.844862 L72.8613964,61.844862 L72.8613964,62.044862 C72.8613964,62.684862 73.5013964,63.084862 74.5013964,63.084862 C75.6613964,63.084862 76.5013964,62.604862 76.9013964,61.324862 L77.5013964,59.404862 L67.7413964,59.404862 L60.1013964,40.844862 L73.6613964,40.844862 L78.0613964,54.804862 L78.9013964,54.804862 L83.1413964,40.844862 L96.6613964,40.844862 L88.6613964,61.764862 C86.7413964,66.604862 82.1813964,69.164862 74.0613964,69.164862 Z M97.5413964,61.244862 L97.5413964,40.844862 L110.741396,40.844862 L108.621396,46.124862 L109.621396,46.124862 C111.381396,42.084862 114.301396,39.924862 119.501396,39.924862 C126.261396,39.924862 129.741396,42.924862 129.741396,48.644862 L129.741396,61.244862 L116.541396,61.244862 L116.541396,50.444862 C116.541396,48.604862 115.621396,47.524862 113.861396,47.524862 C111.781396,47.524862 110.741396,48.924862 110.741396,51.404862 L110.741396,61.244862 L97.5413964,61.244862 Z M148.981396,62.164862 C139.341396,62.164862 134.101396,59.004862 134.101396,53.404862 L134.101396,47.244862 L129.941396,47.244862 L129.941396,40.844862 L134.101396,40.844862 L134.101396,38.484862 L147.341396,34.924862 L147.341396,40.844862 L164.221396,40.844862 L164.221396,47.244862 L147.341396,47.244862 L147.341396,53.084862 C147.341396,54.404862 148.101396,55.124862 149.261396,55.124862 C150.501396,55.124862 151.341396,54.364862 151.341396,53.084862 L151.341396,50.404862 L164.221396,50.404862 L164.221396,53.404862 C164.221396,58.764862 158.301396,62.164862 148.981396,62.164862 Z M165.941396,61.244862 L165.941396,33.244862 L179.141396,33.244862 L179.141396,40.844862 L177.021396,46.124862 L178.021396,46.124862 C179.781396,42.084862 182.701396,39.924862 187.901396,39.924862 C194.661396,39.924862 198.141396,42.924862 198.141396,48.644862 L198.141396,61.244862 L184.941396,61.244862 L184.941396,50.444862 C184.941396,48.604862 184.021396,47.524862 182.261396,47.524862 C180.181396,47.524862 179.141396,48.924862 179.141396,51.404862 L179.141396,61.244862 L165.941396,61.244862 Z M216.021396,62.164862 C208.941396,62.164862 203.381396,60.204862 200.901396,56.644862 C199.861396,55.124862 199.261396,53.244862 199.261396,51.044862 C199.261396,48.884862 199.861396,47.004862 200.901396,45.524862 C203.381396,41.924862 208.541396,39.924862 216.021396,39.924862 C226.101396,39.924862 232.301396,43.884862 232.301396,51.444862 L232.301396,53.084862 L211.861396,53.084862 C211.981396,53.804862 212.221396,54.404862 212.541396,54.884862 C213.221396,55.804862 214.301396,56.244862 215.941396,56.244862 C217.581396,56.244862 218.701396,55.684862 219.381396,54.724862 L232.421396,54.724862 C231.341396,59.284862 225.141396,62.164862 216.021396,62.164862 Z M211.901396,48.684862 L219.901396,48.684862 C219.861396,46.924862 218.581396,45.724862 216.021396,45.724862 C214.261396,45.724862 213.181396,46.164862 212.501396,47.164862 C212.221396,47.604862 212.021396,48.084862 211.901396,48.684862 Z M247.621396,62.124862 C238.101396,62.124862 232.661396,59.604862 232.661396,55.044862 L232.661396,55.004862 L244.781396,55.004862 L244.781396,55.044862 C244.781396,55.964862 246.021396,56.484862 247.781396,56.484862 C248.941396,56.484862 249.821396,56.364862 250.141396,56.044862 C250.301396,55.884862 250.381396,55.684862 250.381396,55.404862 C250.381396,54.724862 249.701396,54.404862 247.781396,54.124862 L240.381396,53.084862 C235.461396,52.364862 233.021396,50.364862 233.021396,47.044862 C233.021396,45.604862 233.541396,44.364862 234.581396,43.364862 C236.781396,41.164862 241.581396,39.964862 248.141396,39.964862 C257.501396,39.964862 262.941396,42.524862 262.941396,47.204862 L262.941396,47.244862 L250.741396,47.244862 L250.741396,47.204862 C250.741396,46.164862 249.381396,45.564862 247.581396,45.564862 C246.461396,45.564862 245.621396,45.684862 245.301396,46.044862 C245.141396,46.204862 245.061396,46.404862 245.061396,46.604862 C245.061396,47.244862 245.621396,47.484862 247.741396,47.804862 L254.181396,48.604862 C260.021396,49.484862 262.621396,51.284862 262.621396,54.884862 C262.621396,56.484862 262.101396,57.724862 261.061396,58.724862 C258.861396,60.924862 254.101396,62.124862 247.621396,62.124862 Z M264.741396,61.244862 L264.741396,40.844862 L277.941396,40.844862 L277.941396,61.244862 L264.741396,61.244862 Z M264.621396,38.684862 L264.621396,33.044862 L278.021396,33.044862 L278.021396,38.684862 L264.621396,38.684862 Z M294.701396,62.124862 C285.181396,62.124862 279.741396,59.604862 279.741396,55.044862 L279.741396,55.004862 L291.861396,55.004862 L291.861396,55.044862 C291.861396,55.964862 293.101396,56.484862 294.861396,56.484862 C296.021396,56.484862 296.901396,56.364862 297.221396,56.044862 C297.381396,55.884862 297.461396,55.684862 297.461396,55.404862 C297.461396,54.724862 296.781396,54.404862 294.861396,54.124862 L287.461396,53.084862 C282.541396,52.364862 280.101396,50.364862 280.101396,47.044862 C280.101396,45.604862 280.621396,44.364862 281.661396,43.364862 C283.861396,41.164862 288.661396,39.964862 295.221396,39.964862 C304.581396,39.964862 310.021396,42.524862 310.021396,47.204862 L310.021396,47.244862 L297.821396,47.244862 L297.821396,47.204862 C297.821396,46.164862 296.461396,45.564862 294.661396,45.564862 C293.541396,45.564862 292.701396,45.684862 292.381396,46.044862 C292.221396,46.204862 292.141396,46.404862 292.141396,46.604862 C292.141396,47.244862 292.701396,47.484862 294.821396,47.804862 L301.261396,48.604862 C307.101396,49.484862 309.701396,51.284862 309.701396,54.884862 C309.701396,56.484862 309.181396,57.724862 308.141396,58.724862 C305.941396,60.924862 301.181396,62.124862 294.701396,62.124862 Z M327.061396,62.164862 C319.981396,62.164862 314.421396,60.204862 311.941396,56.644862 C310.901396,55.124862 310.301396,53.244862 310.301396,51.044862 C310.301396,48.884862 310.901396,47.004862 311.941396,45.524862 C314.421396,41.924862 319.581396,39.924862 327.061396,39.924862 C337.141396,39.924862 343.341396,43.884862 343.341396,51.444862 L343.341396,53.084862 L322.901396,53.084862 C323.021396,53.804862 323.261396,54.404862 323.581396,54.884862 C324.261396,55.804862 325.341396,56.244862 326.981396,56.244862 C328.621396,56.244862 329.741396,55.684862 330.421396,54.724862 L343.461396,54.724862 C342.381396,59.284862 336.181396,62.164862 327.061396,62.164862 Z M322.941396,48.684862 L330.941396,48.684862 C330.901396,46.924862 329.621396,45.724862 327.061396,45.724862 C325.301396,45.724862 324.221396,46.164862 323.541396,47.164862 C323.261396,47.604862 323.061396,48.084862 322.941396,48.684862 Z M344.941396,61.244862 L344.941396,40.844862 L357.901396,40.844862 L355.661396,47.164862 L356.661396,47.164862 C359.461396,41.884862 362.101396,39.924862 367.381396,39.924862 C372.781396,39.924862 375.621396,42.524862 375.621396,47.444862 L375.621396,52.524862 L362.421396,52.524862 L362.421396,50.284862 C362.421396,48.524862 361.701396,47.644862 360.381396,47.644862 C358.901396,47.644862 358.141396,48.724862 358.141396,50.564862 L358.141396,61.244862 L344.941396,61.244862 Z M390.581396,62.124862 C381.061396,62.124862 375.621396,59.604862 375.621396,55.044862 L375.621396,55.004862 L387.741396,55.004862 L387.741396,55.044862 C387.741396,55.964862 388.981396,56.484862 390.741396,56.484862 C391.901396,56.484862 392.781396,56.364862 393.101396,56.044862 C393.261396,55.884862 393.341396,55.684862 393.341396,55.404862 C393.341396,54.724862 392.661396,54.404862 390.741396,54.124862 L383.341396,53.084862 C378.421396,52.364862 375.981396,50.364862 375.981396,47.044862 C375.981396,45.604862 376.501396,44.364862 377.541396,43.364862 C379.741396,41.164862 384.541396,39.964862 391.101396,39.964862 C400.461396,39.964862 405.901396,42.524862 405.901396,47.204862 L405.901396,47.244862 L393.701396,47.244862 L393.701396,47.204862 C393.701396,46.164862 392.341396,45.564862 390.541396,45.564862 C389.421396,45.564862 388.581396,45.684862 388.261396,46.044862 C388.101396,46.204862 388.021396,46.404862 388.021396,46.604862 C388.021396,47.244862 388.581396,47.484862 390.701396,47.804862 L397.141396,48.604862 C402.981396,49.484862 405.581396,51.284862 405.581396,54.884862 C405.581396,56.484862 405.061396,57.724862 404.021396,58.724862 C401.821396,60.924862 397.061396,62.124862 390.581396,62.124862 Z" id="Combined-Shape"></path>
        </g>
        <g id="Icon-inverse" transform="translate(452.500000, 41.000000) scale(-1, 1) translate(-452.500000, -41.000000) translate(423.000000, 3.000000)" fill="#FFFFFF" fill-rule="nonzero">
            <path d="M0.842375225,72.1147872 C-0.703624775,70.0907872 0.0703752253,55.1337872 1.61637523,37.8597872 C2.52137523,27.7517872 3.73437523,15.1307872 10.3873752,6.97478719 C16.9563752,-1.07721281 30.4633752,-2.30821281 38.8983752,4.06878719 C44.3533752,8.18978719 46.1053752,14.9397872 47.2713752,21.3517872 C47.8193752,24.3627872 48.1323752,27.4177872 48.4443752,30.4587872 C48.5793752,31.7687872 48.5833752,31.2377872 48.5833752,31.2377872 C48.5833752,31.2377872 50.4523752,29.4327872 54.5793752,29.6047872 C58.7063752,29.7767872 59.5003752,33.1417872 55.8693752,35.1087872 C51.2823752,37.5927872 49.5313752,41.8057872 49.5543752,44.2767872 C50.4363752,56.8977872 51.2723752,70.9817872 51.0793752,71.1767872 C49.7373752,72.5377872 46.9663752,70.9117872 45.7473752,69.9737872 C43.8603752,68.5187872 41.0593752,66.4477872 38.0513752,67.3367872 C35.2953752,68.1517872 34.2943752,71.9197872 31.0723752,71.6907872 C27.6613752,71.4497872 26.2673752,68.6067872 22.7333752,71.0537872 C19.5163752,73.2817872 17.6333752,76.6527872 13.4903752,74.0807872 C10.8503752,72.4427872 9.54037523,69.4497872 6.07637523,70.3037872 C5.07537523,70.5507872 1.76937523,73.3317872 0.842375225,72.1147872 Z M35.5443752,23.2457872 C35.5443752,23.7140777 35.9265235,24.0957872 36.3953752,24.0957872 C36.864166,24.0957872 37.2453752,23.7141393 37.2453752,23.2457872 C37.2453752,20.7026676 38.0005231,19.2457872 38.9153752,19.2457872 C39.8302273,19.2457872 40.5853752,20.7026676 40.5853752,23.2457872 C40.5853752,23.7141393 40.9665845,24.0957872 41.4353752,24.0957872 C41.904166,24.0957872 42.2853752,23.7141393 42.2853752,23.2457872 C42.2853752,19.5907132 40.8574514,17.5467872 38.9143752,17.5467872 C36.9715623,17.5467872 35.5443752,19.5905096 35.5443752,23.2457872 Z M24.9350322,23.918 C24.970725,24.3891577 25.3745694,24.7418659 25.8469451,24.7040195 C26.3148723,24.6672639 26.665695,24.2609561 26.6316955,23.7934634 C26.363422,20.143125 24.7655704,18.2143767 22.7852309,18.355446 C20.8450733,18.4965723 19.6393858,20.6081373 19.9080233,24.2828784 C19.9403915,24.7289954 20.3107098,25.0717872 20.7553679,25.0717872 C20.782654,25.0719613 20.782654,25.0719613 20.8175018,25.0691286 C21.2856558,25.0350811 21.6376339,24.6279423 21.6037048,24.158591 C21.4277043,21.7469089 21.9998223,20.1186957 22.911346,20.0509877 C23.8348216,19.9769538 24.7519151,21.4111005 24.9350322,23.918 Z M11.94619,34.3143031 L10.8130378,35.8333132 L12.3013418,34.6601224 C12.4466239,34.5456004 12.7347573,34.3452652 13.163823,34.0893981 C13.41493,33.9261785 13.7444469,33.746208 14.2034282,33.5183788 C14.3691524,33.4228485 14.5555981,33.3383505 14.8499266,33.2202017 C15.20689,33.0795653 15.3974872,33.0029764 15.5817324,32.9207826 C15.7021916,32.8724129 15.8178429,32.8373472 16.0494366,32.775073 C16.1793684,32.7402659 16.2418725,32.7232094 16.3142769,32.7021731 C16.3550255,32.6902347 16.3550255,32.6902347 16.3834059,32.6812737 C16.4457063,32.6651615 16.4457063,32.6651615 16.5064415,32.647952 C16.5573415,32.6332969 16.6001934,32.6202801 16.6908267,32.5923186 C16.9571633,32.5103155 17.0852311,32.479004 17.258012,32.4646572 C17.3518719,32.4495998 17.3518719,32.4495998 17.4458172,32.4344445 C18.2628789,32.3028212 18.675056,32.260777 19.1728236,32.2875969 C19.2801998,32.2917888 19.3657166,32.2907907 19.5595084,32.285401 C19.5803583,32.2848212 19.5803583,32.2848212 19.6010825,32.2842561 C19.8746743,32.2768703 20.0165466,32.281277 20.1630834,32.3099598 C20.2174037,32.3181994 20.2621185,32.3239397 20.3591797,32.3356549 L20.3775885,32.3378767 C20.5348117,32.3568728 20.6113942,32.3683489 20.6835414,32.3857171 L21.1336798,32.4946163 C21.7877897,32.6970044 22.2910092,33.0144559 22.5316316,33.4125645 C22.8068206,33.8249084 22.8505332,34.3268114 22.6347351,34.7961301 C22.4122402,35.3019653 22.0114539,35.7914883 21.5185444,36.169447 C21.2759684,36.3404294 21.0623659,36.4897438 20.6654234,36.7664148 C20.3716464,36.9825508 20.1007532,37.1812057 19.8591789,37.358351 C19.5383437,37.5607689 19.2491191,37.8090087 18.8740799,38.1809491 C18.8179115,38.2366535 18.4810699,38.5769516 18.3962283,38.6601633 C18.2067279,38.829075 18.0348652,39.0147826 17.8609994,39.2316798 C17.7237057,39.4029535 17.3033093,39.9818433 17.3302107,39.9459938 C17.1990821,40.1267639 17.0704141,40.3048245 16.926248,40.5067679 C16.853256,40.6305068 16.6546522,41.0074602 16.6486364,41.0186592 C16.4347923,41.4399732 16.4347923,41.4399732 16.2920705,41.7209176 C16.1877225,41.9262395 16.1877225,41.9262395 16.1657473,41.9694408 L15.1617697,43.9431695 L16.5805249,42.2429608 C16.6113694,42.2059974 16.6113694,42.2059974 16.7580861,42.0302872 C16.9589263,41.7898289 16.9589263,41.7898289 17.2609975,41.4283927 C17.2533656,41.4375938 17.5082804,41.1196786 17.5879851,41.0295641 C17.5967222,41.0197112 17.5967222,41.0197112 17.5944821,41.0214148 C17.7069347,40.911305 17.8151242,40.8062514 18.0579626,40.5708475 C18.1450611,40.4879213 18.4913084,40.1421121 18.5803452,40.0568629 C18.7898885,39.8562333 18.9717442,39.7020313 19.1699977,39.5639612 C19.2344058,39.5164424 19.3007816,39.4657525 19.3760336,39.4068951 C19.4309486,39.363944 19.7057331,39.1453446 19.7845303,39.0840756 C20.0895661,38.8468937 20.3323456,38.6820614 20.6174203,38.5306262 C20.7871644,38.4296165 21.3885038,38.0685029 21.4918984,38.0067398 C21.5235954,37.9875807 21.9378805,37.7425025 22.0780501,37.6570653 C22.1505199,37.6127298 22.1505199,37.6127298 22.2225522,37.5678687 C22.2974969,37.5209462 22.3661983,37.4767661 22.4352143,37.4306983 C23.2330453,36.8647803 23.8092431,36.2417474 24.154238,35.46748 C24.6091459,34.5565382 24.5343098,33.332006 23.9465495,32.4690536 C23.4273002,31.6906543 22.6331985,31.2075349 21.5774074,30.9002192 L20.9283083,30.7629647 C20.8058996,30.7432599 20.7172761,30.7349817 20.5279751,30.7220436 C20.4334986,30.7155602 20.3951964,30.7126674 20.3527293,30.7087358 C20.1025696,30.6773177 19.9176643,30.6818868 19.5314766,30.7129369 C19.4844726,30.7167177 19.4844726,30.7167177 19.4381199,30.7203396 C19.3171002,30.7296521 19.2301684,30.7344887 19.121547,30.7372526 C19.085858,30.7409685 19.085858,30.7409685 19.0497192,30.7441263 C18.9660105,30.7511279 18.8983319,30.7544674 18.741648,30.7604281 C18.3589738,30.7749863 18.1864938,30.792375 17.9801037,30.8542112 C17.694699,30.9253602 17.5482179,30.9612635 16.9433817,31.108906 C16.5310821,31.216624 16.1522711,31.3620678 15.6319308,31.596034 C15.561547,31.6276814 15.2085787,31.7887151 15.0884258,31.8439489 C14.9732614,31.9112586 14.4934977,32.1834913 14.3730321,32.2543722 C14.083042,32.4249999 13.8702966,32.5661821 13.7004359,32.7061267 C13.3313143,32.9612412 13.0052298,33.2297362 12.7160086,33.5061658 C12.4883294,33.7140468 12.2966123,33.9082789 12.1395246,34.0838284 C12.0435562,34.1910756 11.9795574,34.2695736 11.94619,34.3143031 Z" id="Combined-Shape"></path>
        </g>
    </g>
</svg>