<?xml version="1.0" encoding="UTF-8"?>
<svg width="486px" height="80px" viewBox="0 0 486 80" version="1.1" xmlns="http://www.w3.org/2000/svg" xmlns:xlink="http://www.w3.org/1999/xlink">
    <!-- Generator: Sketch 52.4 (67378) - http://www.bohemiancoding.com/sketch -->
    <title>Logo@1x</title>
    <desc>Created with Sketch.</desc>
    <defs>
        <linearGradient x1="1.82175755%" y1="1.8038972%" x2="101.999998%" y2="100.999999%" id="linearGradient-1">
            <stop stop-color="#5623AE" offset="0%"></stop>
            <stop stop-color="#BA0C98" offset="100%"></stop>
        </linearGradient>
    </defs>
    <g id="Logo" stroke="none" stroke-width="1" fill="none" fill-rule="evenodd">
        <g id="Wordmark" transform="translate(4.000000, 8.000000)" fill="url(#linearGradient-1)">
            <path d="M416,7.80493247 L416,14.2049325 L400.141396,14.2049325 L400.141396,20.0449325 C400.141396,21.3649325 400.901396,22.0849325 402.061396,22.0849325 C403.301396,22.0849325 404.141396,21.3249325 404.141396,20.0449325 L404.141396,17.3649325 L416,17.3649325 L416,23.9184781 C413.928955,27.1821132 408.826585,29.1249325 401.781396,29.1249325 C392.141396,29.1249325 386.901396,25.9649325 386.901396,20.3649325 L386.901396,14.2049325 L382.741396,14.2049325 L382.741396,7.80493247 L386.901396,7.80493247 L386.901396,5.44493247 L400.141396,1.88493247 L400.141396,7.80493247 L416,7.80493247 Z M416,53.0049325 L416,61.2049325 L407.141396,61.2049325 L407.141396,53.0049325 L416,53.0049325 Z M0.34139638,35.4049325 L0.34139638,7.80493247 L13.5413964,7.80493247 L11.4213964,13.0849325 L12.4213964,13.0849325 C14.5413964,9.12493247 17.5413964,6.88493247 22.9413964,6.88493247 C27.5413964,6.88493247 31.1013964,8.52493247 33.0213964,11.3249325 C34.2213964,13.0849325 34.9013964,15.3649325 34.9013964,18.0049325 C34.9013964,20.6849325 34.2213964,22.9249325 33.0213964,24.6849325 C31.1013964,27.4849325 27.5413964,29.1249325 22.9413964,29.1249325 C17.5413964,29.1249325 14.5413964,26.8849325 12.4213964,22.9249325 L11.4213964,22.9249325 L13.5413964,28.2049325 L13.5413964,35.4049325 L0.34139638,35.4049325 Z M13.4613964,18.0049325 C13.4613964,18.9649325 13.7013964,19.7649325 14.1413964,20.4049325 C14.8213964,21.4049325 15.9813964,21.9249325 17.4613964,21.9249325 C18.9813964,21.9249325 20.1413964,21.4049325 20.8213964,20.4049325 C21.2613964,19.7649325 21.5013964,18.9649325 21.5013964,18.0049325 C21.5013964,17.0449325 21.2613964,16.2449325 20.8213964,15.6049325 C20.1413964,14.6049325 18.9813964,14.0849325 17.4613964,14.0849325 C15.9813964,14.0849325 14.8213964,14.6049325 14.1413964,15.6049325 C13.7013964,16.2449325 13.4613964,17.0449325 13.4613964,18.0049325 Z M44.7413964,29.1249325 C41.1413964,29.1249325 38.7413964,28.4049325 37.3813964,27.0449325 C36.3813964,26.0449325 35.8613964,24.7649325 35.8613964,23.1649325 C35.8613964,21.6849325 36.3813964,20.4049325 37.4213964,19.3649325 C38.9013964,17.8849325 41.3813964,16.9249325 44.6613964,16.6849325 L54.7013964,16.0449325 L54.7013964,15.5249325 C54.7013964,13.8849325 53.5813964,13.2049325 51.8213964,13.2049325 C48.9013964,13.2049325 48.7413964,15.0849325 48.7013964,15.3649325 L35.4613964,15.3649325 C35.5813964,14.1649325 36.1413964,6.88493247 51.8613964,6.88493247 C62.7013964,6.88493247 67.9013964,9.72493247 67.9013964,16.2449325 L67.9013964,28.2049325 L55.4213964,28.2049325 L57.3013964,22.9649325 L56.2613964,22.9649325 C54.5413964,27.2849325 51.3013964,29.1249325 44.7413964,29.1249325 Z M49.3413964,22.1649325 C49.3413964,22.5649325 49.4613964,22.8849325 49.7013964,23.1249325 C50.0213964,23.4449325 50.6213964,23.6049325 51.3413964,23.6049325 C54.6213964,23.6049325 54.7013964,20.9649325 54.7013964,20.2449325 L54.7013964,20.1249325 L51.5413964,20.4049325 C50.7013964,20.4849325 50.1413964,20.7249325 49.7413964,21.1249325 C49.4613964,21.4049325 49.3413964,21.7649325 49.3413964,22.1649325 Z M70.5413964,28.2049325 L70.5413964,0.204932472 L83.7413964,0.204932472 L83.7413964,28.2049325 L70.5413964,28.2049325 Z M102.021396,29.1249325 C94.9413964,29.1249325 89.3813964,27.1649325 86.9013964,23.6049325 C85.8613964,22.0849325 85.2613964,20.2049325 85.2613964,18.0049325 C85.2613964,15.8449325 85.8613964,13.9649325 86.9013964,12.4849325 C89.3813964,8.88493247 94.5413964,6.88493247 102.021396,6.88493247 C112.101396,6.88493247 118.301396,10.8449325 118.301396,18.4049325 L118.301396,20.0449325 L97.8613964,20.0449325 C97.9813964,20.7649325 98.2213964,21.3649325 98.5413964,21.8449325 C99.2213964,22.7649325 100.301396,23.2049325 101.941396,23.2049325 C103.581396,23.2049325 104.701396,22.6449325 105.381396,21.6849325 L118.421396,21.6849325 C117.341396,26.2449325 111.141396,29.1249325 102.021396,29.1249325 Z M97.9013964,15.6449325 L105.901396,15.6449325 C105.861396,13.8849325 104.581396,12.6849325 102.021396,12.6849325 C100.261396,12.6849325 99.1813964,13.1249325 98.5013964,14.1249325 C98.2213964,14.5649325 98.0213964,15.0449325 97.9013964,15.6449325 Z M141.741396,29.0849325 C132.221396,29.0849325 126.781396,26.5649325 126.781396,22.0049325 L126.781396,21.9649325 L138.901396,21.9649325 L138.901396,22.0049325 C138.901396,22.9249325 140.141396,23.4449325 141.901396,23.4449325 C143.061396,23.4449325 143.941396,23.3249325 144.261396,23.0049325 C144.421396,22.8449325 144.501396,22.6449325 144.501396,22.3649325 C144.501396,21.6849325 143.821396,21.3649325 141.901396,21.0849325 L134.501396,20.0449325 C129.581396,19.3249325 127.141396,17.3249325 127.141396,14.0049325 C127.141396,12.5649325 127.661396,11.3249325 128.701396,10.3249325 C130.901396,8.12493247 135.701396,6.92493247 142.261396,6.92493247 C151.621396,6.92493247 157.061396,9.48493247 157.061396,14.1649325 L157.061396,14.2049325 L144.861396,14.2049325 L144.861396,14.1649325 C144.861396,13.1249325 143.501396,12.5249325 141.701396,12.5249325 C140.581396,12.5249325 139.741396,12.6449325 139.421396,13.0049325 C139.261396,13.1649325 139.181396,13.3649325 139.181396,13.5649325 C139.181396,14.2049325 139.741396,14.4449325 141.861396,14.7649325 L148.301396,15.5649325 C154.141396,16.4449325 156.741396,18.2449325 156.741396,21.8449325 C156.741396,23.4449325 156.221396,24.6849325 155.181396,25.6849325 C152.981396,27.8849325 148.221396,29.0849325 141.741396,29.0849325 Z M158.861396,28.2049325 L158.861396,0.204932472 L172.061396,0.204932472 L172.061396,28.2049325 L158.861396,28.2049325 Z M175.101396,28.2049325 L175.101396,7.80493247 L188.301396,7.80493247 L188.301396,28.2049325 L175.101396,28.2049325 Z M174.981396,5.64493247 L174.981396,0.00493247211 L188.381396,0.00493247211 L188.381396,5.64493247 L174.981396,5.64493247 Z M191.341396,28.2049325 L191.341396,7.80493247 L204.141396,7.80493247 L202.341396,13.0849325 L203.341396,13.0849325 C204.901396,8.84493247 207.821396,6.88493247 211.901396,6.88493247 C215.981396,6.88493247 219.021396,8.84493247 219.301396,13.0849325 L220.301396,13.0849325 C221.941396,8.72493247 225.341396,6.88493247 229.701396,6.88493247 C235.701396,6.88493247 238.941396,9.80493247 238.941396,15.2049325 L238.941396,28.2049325 L225.701396,28.2049325 L225.701396,16.7249325 C225.701396,15.1649325 225.061396,14.4849325 223.861396,14.4849325 C222.581396,14.4849325 221.741396,15.3249325 221.741396,16.9249325 L221.741396,28.2049325 L208.541396,28.2049325 L208.541396,16.7249325 C208.541396,15.1649325 207.901396,14.4849325 206.701396,14.4849325 C205.341396,14.4849325 204.541396,15.2849325 204.541396,16.9249325 L204.541396,28.2049325 L191.341396,28.2049325 Z M264.421396,36.1249325 C254.021396,36.1249325 248.821396,33.4449325 248.461396,28.6049325 L261.461396,28.6049325 C261.621396,29.5249325 262.621396,30.1249325 264.661396,30.1249325 C266.821396,30.1249325 268.101396,29.2049325 268.101396,27.3649325 L268.101396,26.1249325 L270.741396,20.7649325 L269.701396,20.7649325 C268.021396,24.8049325 264.821396,26.9249325 260.141396,26.9249325 C255.581396,26.9249325 251.941396,25.3649325 250.061396,22.6849325 C248.981396,21.1249325 248.421396,19.2049325 248.421396,16.9249325 C248.421396,14.6449325 248.981396,12.6849325 250.061396,11.1649325 C251.941396,8.44493247 255.581396,6.88493247 260.141396,6.88493247 C264.821396,6.88493247 268.021396,9.00493247 269.701396,13.0849325 L270.741396,13.0849325 L268.421396,7.80493247 L281.341396,7.80493247 L281.341396,24.4049325 C281.341396,32.3249325 275.821396,36.1249325 264.421396,36.1249325 Z M261.381396,16.9249325 C261.381396,17.6849325 261.581396,18.4449325 261.981396,19.0449325 C262.621396,19.9249325 263.661396,20.4449325 264.981396,20.4449325 C266.341396,20.4449325 267.381396,19.9249325 268.021396,19.0449325 C268.421396,18.4449325 268.621396,17.6849325 268.621396,16.9249325 C268.621396,16.1249325 268.421396,15.3649325 268.021396,14.7649325 C267.381396,13.8849325 266.341396,13.3649325 264.981396,13.3649325 C263.661396,13.3649325 262.621396,13.8849325 261.981396,14.7649325 C261.581396,15.3649325 261.381396,16.1249325 261.381396,16.9249325 Z M284.341396,28.2049325 L284.341396,0.204932472 L297.541396,0.204932472 L297.541396,7.80493247 L295.421396,13.0849325 L296.421396,13.0849325 C298.181396,9.04493247 301.101396,6.88493247 306.301396,6.88493247 C313.061396,6.88493247 316.541396,9.88493247 316.541396,15.6049325 L316.541396,28.2049325 L303.341396,28.2049325 L303.341396,17.4049325 C303.341396,15.5649325 302.421396,14.4849325 300.661396,14.4849325 C298.581396,14.4849325 297.541396,15.8849325 297.541396,18.3649325 L297.541396,28.2049325 L284.341396,28.2049325 Z M335.061396,29.1249325 C327.421396,29.1249325 321.781396,27.0449325 319.301396,23.4049325 C318.261396,21.8849325 317.661396,20.0449325 317.661396,18.0049325 C317.661396,15.9649325 318.261396,14.1649325 319.301396,12.6449325 C321.781396,9.00493247 327.421396,6.88493247 335.061396,6.88493247 C342.741396,6.88493247 348.381396,9.00493247 350.861396,12.6449325 C351.901396,14.1649325 352.501396,15.9649325 352.501396,18.0049325 C352.501396,20.0449325 351.901396,21.8849325 350.861396,23.4049325 C348.381396,27.0449325 342.741396,29.1249325 335.061396,29.1249325 Z M331.061396,18.0049325 C331.061396,18.9649325 331.261396,19.7249325 331.701396,20.3649325 C332.381396,21.3649325 333.581396,21.9249325 335.061396,21.9249325 C336.581396,21.9249325 337.781396,21.3649325 338.461396,20.3649325 C338.901396,19.7249325 339.101396,18.9649325 339.101396,18.0049325 C339.101396,17.0849325 338.901396,16.2849325 338.461396,15.6449325 C337.781396,14.6449325 336.581396,14.0849325 335.061396,14.0849325 C333.581396,14.0849325 332.381396,14.6449325 331.701396,15.6449325 C331.261396,16.2849325 331.061396,17.0849325 331.061396,18.0049325 Z M367.741396,29.0849325 C358.221396,29.0849325 352.781396,26.5649325 352.781396,22.0049325 L352.781396,21.9649325 L364.901396,21.9649325 L364.901396,22.0049325 C364.901396,22.9249325 366.141396,23.4449325 367.901396,23.4449325 C369.061396,23.4449325 369.941396,23.3249325 370.261396,23.0049325 C370.421396,22.8449325 370.501396,22.6449325 370.501396,22.3649325 C370.501396,21.6849325 369.821396,21.3649325 367.901396,21.0849325 L360.501396,20.0449325 C355.581396,19.3249325 353.141396,17.3249325 353.141396,14.0049325 C353.141396,12.5649325 353.661396,11.3249325 354.701396,10.3249325 C356.901396,8.12493247 361.701396,6.92493247 368.261396,6.92493247 C377.621396,6.92493247 383.061396,9.48493247 383.061396,14.1649325 L383.061396,14.2049325 L370.861396,14.2049325 L370.861396,14.1649325 C370.861396,13.1249325 369.501396,12.5249325 367.701396,12.5249325 C366.581396,12.5249325 365.741396,12.6449325 365.421396,13.0049325 C365.261396,13.1649325 365.181396,13.3649325 365.181396,13.5649325 C365.181396,14.2049325 365.741396,14.4449325 367.861396,14.7649325 L374.301396,15.5649325 C380.141396,16.4449325 382.741396,18.2449325 382.741396,21.8449325 C382.741396,23.4449325 382.221396,24.6849325 381.181396,25.6849325 C378.981396,27.8849325 374.221396,29.0849325 367.741396,29.0849325 Z M45.6213964,62.0849325 C36.1013964,62.0849325 30.6613964,59.5649325 30.6613964,55.0049325 L30.6613964,54.9649325 L42.7813964,54.9649325 L42.7813964,55.0049325 C42.7813964,55.9249325 44.0213964,56.4449325 45.7813964,56.4449325 C46.9413964,56.4449325 47.8213964,56.3249325 48.1413964,56.0049325 C48.3013964,55.8449325 48.3813964,55.6449325 48.3813964,55.3649325 C48.3813964,54.6849325 47.7013964,54.3649325 45.7813964,54.0849325 L38.3813964,53.0449325 C33.4613964,52.3249325 31.0213964,50.3249325 31.0213964,47.0049325 C31.0213964,45.5649325 31.5413964,44.3249325 32.5813964,43.3249325 C34.7813964,41.1249325 39.5813964,39.9249325 46.1413964,39.9249325 C55.5013964,39.9249325 60.9413964,42.4849325 60.9413964,47.1649325 L60.9413964,47.2049325 L48.7413964,47.2049325 L48.7413964,47.1649325 C48.7413964,46.1249325 47.3813964,45.5249325 45.5813964,45.5249325 C44.4613964,45.5249325 43.6213964,45.6449325 43.3013964,46.0049325 C43.1413964,46.1649325 43.0613964,46.3649325 43.0613964,46.5649325 C43.0613964,47.2049325 43.6213964,47.4449325 45.7413964,47.7649325 L52.1813964,48.5649325 C58.0213964,49.4449325 60.6213964,51.2449325 60.6213964,54.8449325 C60.6213964,56.4449325 60.1013964,57.6849325 59.0613964,58.6849325 C56.8613964,60.8849325 52.1013964,62.0849325 45.6213964,62.0849325 Z M74.0613964,69.1249325 C65.7413964,69.1249325 60.0613964,66.8049325 60.0613964,62.2049325 L60.0613964,61.8049325 L72.8613964,61.8049325 L72.8613964,62.0049325 C72.8613964,62.6449325 73.5013964,63.0449325 74.5013964,63.0449325 C75.6613964,63.0449325 76.5013964,62.5649325 76.9013964,61.2849325 L77.5013964,59.3649325 L67.7413964,59.3649325 L60.1013964,40.8049325 L73.6613964,40.8049325 L78.0613964,54.7649325 L78.9013964,54.7649325 L83.1413964,40.8049325 L96.6613964,40.8049325 L88.6613964,61.7249325 C86.7413964,66.5649325 82.1813964,69.1249325 74.0613964,69.1249325 Z M97.5413964,61.2049325 L97.5413964,40.8049325 L110.741396,40.8049325 L108.621396,46.0849325 L109.621396,46.0849325 C111.381396,42.0449325 114.301396,39.8849325 119.501396,39.8849325 C126.261396,39.8849325 129.741396,42.8849325 129.741396,48.6049325 L129.741396,61.2049325 L116.541396,61.2049325 L116.541396,50.4049325 C116.541396,48.5649325 115.621396,47.4849325 113.861396,47.4849325 C111.781396,47.4849325 110.741396,48.8849325 110.741396,51.3649325 L110.741396,61.2049325 L97.5413964,61.2049325 Z M148.981396,62.1249325 C139.341396,62.1249325 134.101396,58.9649325 134.101396,53.3649325 L134.101396,47.2049325 L129.941396,47.2049325 L129.941396,40.8049325 L134.101396,40.8049325 L134.101396,38.4449325 L147.341396,34.8849325 L147.341396,40.8049325 L164.221396,40.8049325 L164.221396,47.2049325 L147.341396,47.2049325 L147.341396,53.0449325 C147.341396,54.3649325 148.101396,55.0849325 149.261396,55.0849325 C150.501396,55.0849325 151.341396,54.3249325 151.341396,53.0449325 L151.341396,50.3649325 L164.221396,50.3649325 L164.221396,53.3649325 C164.221396,58.7249325 158.301396,62.1249325 148.981396,62.1249325 Z M165.941396,61.2049325 L165.941396,33.2049325 L179.141396,33.2049325 L179.141396,40.8049325 L177.021396,46.0849325 L178.021396,46.0849325 C179.781396,42.0449325 182.701396,39.8849325 187.901396,39.8849325 C194.661396,39.8849325 198.141396,42.8849325 198.141396,48.6049325 L198.141396,61.2049325 L184.941396,61.2049325 L184.941396,50.4049325 C184.941396,48.5649325 184.021396,47.4849325 182.261396,47.4849325 C180.181396,47.4849325 179.141396,48.8849325 179.141396,51.3649325 L179.141396,61.2049325 L165.941396,61.2049325 Z M216.021396,62.1249325 C208.941396,62.1249325 203.381396,60.1649325 200.901396,56.6049325 C199.861396,55.0849325 199.261396,53.2049325 199.261396,51.0049325 C199.261396,48.8449325 199.861396,46.9649325 200.901396,45.4849325 C203.381396,41.8849325 208.541396,39.8849325 216.021396,39.8849325 C226.101396,39.8849325 232.301396,43.8449325 232.301396,51.4049325 L232.301396,53.0449325 L211.861396,53.0449325 C211.981396,53.7649325 212.221396,54.3649325 212.541396,54.8449325 C213.221396,55.7649325 214.301396,56.2049325 215.941396,56.2049325 C217.581396,56.2049325 218.701396,55.6449325 219.381396,54.6849325 L232.421396,54.6849325 C231.341396,59.2449325 225.141396,62.1249325 216.021396,62.1249325 Z M211.901396,48.6449325 L219.901396,48.6449325 C219.861396,46.8849325 218.581396,45.6849325 216.021396,45.6849325 C214.261396,45.6849325 213.181396,46.1249325 212.501396,47.1249325 C212.221396,47.5649325 212.021396,48.0449325 211.901396,48.6449325 Z M247.621396,62.0849325 C238.101396,62.0849325 232.661396,59.5649325 232.661396,55.0049325 L232.661396,54.9649325 L244.781396,54.9649325 L244.781396,55.0049325 C244.781396,55.9249325 246.021396,56.4449325 247.781396,56.4449325 C248.941396,56.4449325 249.821396,56.3249325 250.141396,56.0049325 C250.301396,55.8449325 250.381396,55.6449325 250.381396,55.3649325 C250.381396,54.6849325 249.701396,54.3649325 247.781396,54.0849325 L240.381396,53.0449325 C235.461396,52.3249325 233.021396,50.3249325 233.021396,47.0049325 C233.021396,45.5649325 233.541396,44.3249325 234.581396,43.3249325 C236.781396,41.1249325 241.581396,39.9249325 248.141396,39.9249325 C257.501396,39.9249325 262.941396,42.4849325 262.941396,47.1649325 L262.941396,47.2049325 L250.741396,47.2049325 L250.741396,47.1649325 C250.741396,46.1249325 249.381396,45.5249325 247.581396,45.5249325 C246.461396,45.5249325 245.621396,45.6449325 245.301396,46.0049325 C245.141396,46.1649325 245.061396,46.3649325 245.061396,46.5649325 C245.061396,47.2049325 245.621396,47.4449325 247.741396,47.7649325 L254.181396,48.5649325 C260.021396,49.4449325 262.621396,51.2449325 262.621396,54.8449325 C262.621396,56.4449325 262.101396,57.6849325 261.061396,58.6849325 C258.861396,60.8849325 254.101396,62.0849325 247.621396,62.0849325 Z M264.741396,61.2049325 L264.741396,40.8049325 L277.941396,40.8049325 L277.941396,61.2049325 L264.741396,61.2049325 Z M264.621396,38.6449325 L264.621396,33.0049325 L278.021396,33.0049325 L278.021396,38.6449325 L264.621396,38.6449325 Z M294.701396,62.0849325 C285.181396,62.0849325 279.741396,59.5649325 279.741396,55.0049325 L279.741396,54.9649325 L291.861396,54.9649325 L291.861396,55.0049325 C291.861396,55.9249325 293.101396,56.4449325 294.861396,56.4449325 C296.021396,56.4449325 296.901396,56.3249325 297.221396,56.0049325 C297.381396,55.8449325 297.461396,55.6449325 297.461396,55.3649325 C297.461396,54.6849325 296.781396,54.3649325 294.861396,54.0849325 L287.461396,53.0449325 C282.541396,52.3249325 280.101396,50.3249325 280.101396,47.0049325 C280.101396,45.5649325 280.621396,44.3249325 281.661396,43.3249325 C283.861396,41.1249325 288.661396,39.9249325 295.221396,39.9249325 C304.581396,39.9249325 310.021396,42.4849325 310.021396,47.1649325 L310.021396,47.2049325 L297.821396,47.2049325 L297.821396,47.1649325 C297.821396,46.1249325 296.461396,45.5249325 294.661396,45.5249325 C293.541396,45.5249325 292.701396,45.6449325 292.381396,46.0049325 C292.221396,46.1649325 292.141396,46.3649325 292.141396,46.5649325 C292.141396,47.2049325 292.701396,47.4449325 294.821396,47.7649325 L301.261396,48.5649325 C307.101396,49.4449325 309.701396,51.2449325 309.701396,54.8449325 C309.701396,56.4449325 309.181396,57.6849325 308.141396,58.6849325 C305.941396,60.8849325 301.181396,62.0849325 294.701396,62.0849325 Z M327.061396,62.1249325 C319.981396,62.1249325 314.421396,60.1649325 311.941396,56.6049325 C310.901396,55.0849325 310.301396,53.2049325 310.301396,51.0049325 C310.301396,48.8449325 310.901396,46.9649325 311.941396,45.4849325 C314.421396,41.8849325 319.581396,39.8849325 327.061396,39.8849325 C337.141396,39.8849325 343.341396,43.8449325 343.341396,51.4049325 L343.341396,53.0449325 L322.901396,53.0449325 C323.021396,53.7649325 323.261396,54.3649325 323.581396,54.8449325 C324.261396,55.7649325 325.341396,56.2049325 326.981396,56.2049325 C328.621396,56.2049325 329.741396,55.6449325 330.421396,54.6849325 L343.461396,54.6849325 C342.381396,59.2449325 336.181396,62.1249325 327.061396,62.1249325 Z M322.941396,48.6449325 L330.941396,48.6449325 C330.901396,46.8849325 329.621396,45.6849325 327.061396,45.6849325 C325.301396,45.6849325 324.221396,46.1249325 323.541396,47.1249325 C323.261396,47.5649325 323.061396,48.0449325 322.941396,48.6449325 Z M344.941396,61.2049325 L344.941396,40.8049325 L357.901396,40.8049325 L355.661396,47.1249325 L356.661396,47.1249325 C359.461396,41.8449325 362.101396,39.8849325 367.381396,39.8849325 C372.781396,39.8849325 375.621396,42.4849325 375.621396,47.4049325 L375.621396,52.4849325 L362.421396,52.4849325 L362.421396,50.2449325 C362.421396,48.4849325 361.701396,47.6049325 360.381396,47.6049325 C358.901396,47.6049325 358.141396,48.6849325 358.141396,50.5249325 L358.141396,61.2049325 L344.941396,61.2049325 Z M390.581396,62.0849325 C381.061396,62.0849325 375.621396,59.5649325 375.621396,55.0049325 L375.621396,54.9649325 L387.741396,54.9649325 L387.741396,55.0049325 C387.741396,55.9249325 388.981396,56.4449325 390.741396,56.4449325 C391.901396,56.4449325 392.781396,56.3249325 393.101396,56.0049325 C393.261396,55.8449325 393.341396,55.6449325 393.341396,55.3649325 C393.341396,54.6849325 392.661396,54.3649325 390.741396,54.0849325 L383.341396,53.0449325 C378.421396,52.3249325 375.981396,50.3249325 375.981396,47.0049325 C375.981396,45.5649325 376.501396,44.3249325 377.541396,43.3249325 C379.741396,41.1249325 384.541396,39.9249325 391.101396,39.9249325 C400.461396,39.9249325 405.901396,42.4849325 405.901396,47.1649325 L405.901396,47.2049325 L393.701396,47.2049325 L393.701396,47.1649325 C393.701396,46.1249325 392.341396,45.5249325 390.541396,45.5249325 C389.421396,45.5249325 388.581396,45.6449325 388.261396,46.0049325 C388.101396,46.1649325 388.021396,46.3649325 388.021396,46.5649325 C388.021396,47.2049325 388.581396,47.4449325 390.701396,47.7649325 L397.141396,48.5649325 C402.981396,49.4449325 405.581396,51.2449325 405.581396,54.8449325 C405.581396,56.4449325 405.061396,57.6849325 404.021396,58.6849325 C401.821396,60.8849325 397.061396,62.0849325 390.581396,62.0849325 Z" id="Combined-Shape"></path>
        </g>
        <g id="Icon" transform="translate(452.500000, 41.000000) scale(-1, 1) translate(-452.500000, -41.000000) translate(423.000000, 3.000000)" fill-rule="nonzero">
            <path d="M57.3434067,72.1147872 C56.4164067,73.3317872 53.1104067,70.5507872 52.1094067,70.3037872 C48.6454067,69.4497872 47.3354067,72.4427872 44.6954067,74.0807872 C40.5524067,76.6527872 38.6694067,73.2817872 35.4524067,71.0537872 C31.9184067,68.6067872 30.5244067,71.4497872 27.1134067,71.6907872 C23.8914067,71.9197872 22.8904067,68.1517872 20.1344067,67.3367872 C17.1264067,66.4477872 14.3254067,68.5187872 12.4384067,69.9737872 C11.2194067,70.9117872 8.44840666,72.5377872 7.10640666,71.1767872 C6.91340666,70.9817872 7.74940666,56.8977872 8.63140666,44.2767872 C8.65440666,41.8057872 6.90340666,37.5927872 2.31640666,35.1087872 C-1.31459334,33.1417872 -0.520593345,29.7767872 3.60640666,29.6047872 C7.73340666,29.4327872 9.60240666,31.2377872 9.60240666,31.2377872 C9.60240666,31.2377872 9.60640666,31.7687872 9.74140666,30.4587872 C10.0534067,27.4177872 10.3664067,24.3627872 10.9144067,21.3517872 C12.0804067,14.9397872 13.8324067,8.18978719 19.2874067,4.06878719 C27.7224067,-2.30821281 41.2294067,-1.07721281 47.7984067,6.97478719 C54.4514067,15.1307872 55.6644067,27.7517872 56.5694067,37.8597872 C58.1154067,55.1337872 58.8894067,70.0907872 57.3434067,72.1147872 Z" id="Path" fill="#000000" transform="translate(29.092891, 37.503266) scale(-1, 1) translate(-29.092891, -37.503266) "></path>
            <path d="M35.5443752,23.2457872 C35.5443752,19.5905096 36.9715623,17.5467872 38.9143752,17.5467872 C40.8574514,17.5467872 42.2853752,19.5907132 42.2853752,23.2457872 C42.2853752,23.7141393 41.904166,24.0957872 41.4353752,24.0957872 C40.9665845,24.0957872 40.5853752,23.7141393 40.5853752,23.2457872 C40.5853752,20.7026676 39.8302273,19.2457872 38.9153752,19.2457872 C38.0005231,19.2457872 37.2453752,20.7026676 37.2453752,23.2457872 C37.2453752,23.7141393 36.864166,24.0957872 36.3953752,24.0957872 C35.9265235,24.0957872 35.5443752,23.7140777 35.5443752,23.2457872 Z" id="Path" fill="#FFFFFF"></path>
            <path d="M24.9350322,23.918 C24.7519151,21.4111005 23.8348216,19.9769538 22.911346,20.0509877 C21.9998223,20.1186957 21.4277043,21.7469089 21.6037048,24.158591 C21.6376339,24.6279423 21.2856558,25.0350811 20.8175018,25.0691286 C20.782654,25.0719613 20.782654,25.0719613 20.7553679,25.0717872 C20.3107098,25.0717872 19.9403915,24.7289954 19.9080233,24.2828784 C19.6393858,20.6081373 20.8450733,18.4965723 22.7852309,18.355446 C24.7655704,18.2143767 26.363422,20.143125 26.6316955,23.7934634 C26.665695,24.2609561 26.3148723,24.6672639 25.8469451,24.7040195 C25.3745694,24.7418659 24.970725,24.3891577 24.9350322,23.918 Z" id="Path" fill="#FFFFFF"></path>
            <path d="M11.94619,34.3143031 C11.9795574,34.2695736 12.0435562,34.1910756 12.1395246,34.0838284 C12.2966123,33.9082789 12.4883294,33.7140468 12.7160086,33.5061658 C13.0052298,33.2297362 13.3313143,32.9612412 13.7004359,32.7061267 C13.8702966,32.5661821 14.083042,32.4249999 14.3730321,32.2543722 C14.4934977,32.1834913 14.9732614,31.9112586 15.0884258,31.8439489 C15.2085787,31.7887151 15.561547,31.6276814 15.6319308,31.596034 C16.1522711,31.3620678 16.5310821,31.216624 16.9433817,31.108906 C17.5482179,30.9612635 17.694699,30.9253602 17.9801037,30.8542112 C18.1864938,30.792375 18.3589738,30.7749863 18.741648,30.7604281 C18.8983319,30.7544674 18.9660105,30.7511279 19.0497192,30.7441263 C19.085858,30.7409685 19.085858,30.7409685 19.121547,30.7372526 C19.2301684,30.7344887 19.3171002,30.7296521 19.4381199,30.7203396 C19.4844726,30.7167177 19.4844726,30.7167177 19.5314766,30.7129369 C19.9176643,30.6818868 20.1025696,30.6773177 20.3527293,30.7087358 C20.3951964,30.7126674 20.4334986,30.7155602 20.5279751,30.7220436 C20.7172761,30.7349817 20.8058996,30.7432599 20.9283083,30.7629647 L21.5774074,30.9002192 C22.6331985,31.2075349 23.4273002,31.6906543 23.9465495,32.4690536 C24.5343098,33.332006 24.6091459,34.5565382 24.154238,35.46748 C23.8092431,36.2417474 23.2330453,36.8647803 22.4352143,37.4306983 C22.3661983,37.4767661 22.2974969,37.5209462 22.2225522,37.5678687 C22.1505199,37.6127298 22.1505199,37.6127298 22.0780501,37.6570653 C21.9378805,37.7425025 21.5235954,37.9875807 21.4918984,38.0067398 C21.3885038,38.0685029 20.7871644,38.4296165 20.6174203,38.5306262 C20.3323456,38.6820614 20.0895661,38.8468937 19.7845303,39.0840756 C19.7057331,39.1453446 19.4309486,39.363944 19.3760336,39.4068951 C19.3007816,39.4657525 19.2344058,39.5164424 19.1699977,39.5639612 C18.9717442,39.7020313 18.7898885,39.8562333 18.5803452,40.0568629 C18.4913084,40.1421121 18.1450611,40.4879213 18.0579626,40.5708475 C17.8151242,40.8062514 17.7069347,40.911305 17.5944821,41.0214148 C17.5967222,41.0197112 17.5967222,41.0197112 17.5879851,41.0295641 C17.5082804,41.1196786 17.2533656,41.4375938 17.2609975,41.4283927 C16.9589263,41.7898289 16.9589263,41.7898289 16.7580861,42.0302872 C16.6113694,42.2059974 16.6113694,42.2059974 16.5805249,42.2429608 L15.1617697,43.9431695 L16.1657473,41.9694408 C16.1877225,41.9262395 16.1877225,41.9262395 16.2920705,41.7209176 C16.4347923,41.4399732 16.4347923,41.4399732 16.6486364,41.0186592 C16.6546522,41.0074602 16.853256,40.6305068 16.926248,40.5067679 C17.0704141,40.3048245 17.1990821,40.1267639 17.3302107,39.9459938 C17.3033093,39.9818433 17.7237057,39.4029535 17.8609994,39.2316798 C18.0348652,39.0147826 18.2067279,38.829075 18.3962283,38.6601633 C18.4810699,38.5769516 18.8179115,38.2366535 18.8740799,38.1809491 C19.2491191,37.8090087 19.5383437,37.5607689 19.8591789,37.358351 C20.1007532,37.1812057 20.3716464,36.9825508 20.6654234,36.7664148 C21.0623659,36.4897438 21.2759684,36.3404294 21.5185444,36.169447 C22.0114539,35.7914883 22.4122402,35.3019653 22.6347351,34.7961301 C22.8505332,34.3268114 22.8068206,33.8249084 22.5316316,33.4125645 C22.2910092,33.0144559 21.7877897,32.6970044 21.1336798,32.4946163 L20.6835414,32.3857171 C20.6113942,32.3683489 20.5348117,32.3568728 20.3775885,32.3378767 L20.3591797,32.3356549 C20.2621185,32.3239397 20.2174037,32.3181994 20.1630834,32.3099598 C20.0165466,32.281277 19.8746743,32.2768703 19.6010825,32.2842561 C19.5803583,32.2848212 19.5803583,32.2848212 19.5595084,32.285401 C19.3657166,32.2907907 19.2801998,32.2917888 19.1728236,32.2875969 C18.675056,32.260777 18.2628789,32.3028212 17.4458172,32.4344445 C17.3518719,32.4495998 17.3518719,32.4495998 17.258012,32.4646572 C17.0852311,32.479004 16.9571633,32.5103155 16.6908267,32.5923186 C16.6001934,32.6202801 16.5573415,32.6332969 16.5064415,32.647952 C16.4457063,32.6651615 16.4457063,32.6651615 16.3834059,32.6812737 C16.3550255,32.6902347 16.3550255,32.6902347 16.3142769,32.7021731 C16.2418725,32.7232094 16.1793684,32.7402659 16.0494366,32.775073 C15.8178429,32.8373472 15.7021916,32.8724129 15.5817324,32.9207826 C15.3974872,33.0029764 15.20689,33.0795653 14.8499266,33.2202017 C14.5555981,33.3383505 14.3691524,33.4228485 14.2034282,33.5183788 C13.7444469,33.746208 13.41493,33.9261785 13.163823,34.0893981 C12.7347573,34.3452652 12.4466239,34.5456004 12.3013418,34.6601224 L10.8130378,35.8333132 L11.94619,34.3143031 Z" id="Path" fill="#FFFFFF"></path>
        </g>
    </g>
</svg>