<?xml version="1.0" encoding="UTF-8"?>
<svg width="27px" height="15px" viewBox="0 0 27 15" version="1.1" xmlns="http://www.w3.org/2000/svg" xmlns:xlink="http://www.w3.org/1999/xlink">
    <!-- Generator: Sketch 52.4 (67378) - http://www.bohemiancoding.com/sketch -->
    <title>Arrow</title>
    <desc>Created with Sketch.</desc>
    <g id="Arrow" stroke="none" stroke-width="1" fill="none" fill-rule="evenodd">
        <path d="M3.30643132,13.1608779 C4.19879748,12.9393176 4.76991121,12.8285375 5.0197725,12.8285375 C6.48814101,12.8285375 8.69069377,12.8285375 11.6274308,12.8285375 L11.6274308,14.8285375 L0.0898326718,14.8285375 L1.39840873,3.38020216 L3.33470117,3.6200735 C2.99826595,6.47665718 2.72713558,8.66253957 2.52131005,10.1777207 C2.50422897,10.5156267 2.35388505,11.1113869 2.07027828,11.9650011 C2.44269808,11.5936359 2.99930161,10.9050306 3.37347092,10.549358 C10.3885026,3.88110914 17.7036547,0 25.0432709,0 L26.0432709,0 L26.0432709,2 L25.0432709,2 C18.3235405,2 11.4535925,5.64174201 4.78764057,11.9650011 C4.48980818,12.247522 3.60341765,12.8677365 3.30643132,13.1608779 Z" id="Path" fill="#000000" fill-rule="nonzero"></path>
    </g>
</svg>