<?xml version="1.0" standalone="no"?>
 <!DOCTYPE svg PUBLIC "-//W3C//DTD SVG 1.1//EN" 
 "http://www.w3.org/Graphics/SVG/1.1/DTD/svg11.dtd"> 
<svg
  xmlns:svg="http://www.w3.org/2000/svg"
  xmlns="http://www.w3.org/2000/svg"
  xmlns:xlink="http://www.w3.org/1999/xlink"
  version="1.1"
  width="6.662420cm" height="12.951460cm" viewBox="0 0 66624200 129514600">
<title>SVG Picture created as spiders-Edge_Cuts.svg date 2023/01/10 12:13:05 </title>
  <desc>Picture generated by PCBNEW </desc>
<g style="fill:#000000; fill-opacity:1.000000;stroke:#000000; stroke-opacity:1.000000;
stroke-linecap:round; stroke-linejoin:round;"
 transform="translate(0 0) scale(1 1)">
</g>
<g style="fill:#000000; fill-opacity:0.0; 
stroke:#000000; stroke-width:0.000000; stroke-opacity:1; 
stroke-linecap:round; stroke-linejoin:round;">
</g>
<g style="fill:#C8A339; fill-opacity:0.0; 
stroke:#C8A339; stroke-width:0.000000; stroke-opacity:1; 
stroke-linecap:round; stroke-linejoin:round;">
</g>
<g style="fill:#C8A339; fill-opacity:0.0; 
stroke:#C8A339; stroke-width:100000.000000; stroke-opacity:1; 
stroke-linecap:round; stroke-linejoin:round;">
<path d="M50000 129114750
L50000 844750
" />
<path d="M22910000 108194750
L22910000 111242750
" />
<path d="M20370000 108194750
L20370000 129114750
" />
<path d="M45770000 3384750
L45770000 844750
" />
<path d="M43230000 111242750
L43230000 65614750
" />
<path d="M66090000 844750
L66090000 68662750
" />
<path d="M22910000 11004750
L22910000 100574750
" />
<path d="M20370000 129114750
L50000 129114750
" />
<path d="M45770000 11004750
L45770000 57994750
" />
<path d="M43230000 111242750
L22910000 111242750
" />
<path d="M43230000 57994750
L43230000 11004750
" />
<path d="M66090000 68662750
L45770000 68662750
" />
<path d="M22910000 844750
L43230000 844750
" />
<path d="M20370000 844750
L20370000 3384750
" />
<path d="M45770000 65614750
L45770000 68662750
" />
<path d="M20370000 11004750
L20370000 100574750
" />
<path d="M45770000 844750
L66090000 844750
" />
<path d="M50000 844750
L20370000 844750
" />
<path d="M22910000 844750
L22910000 3384750
" />
<path d="M43230000 3384750
L43230000 844750
" />
</g>
<g style="fill:#C8A339; fill-opacity:0.0; 
stroke:#C8A339; stroke-width:120000.000000; stroke-opacity:1; 
stroke-linecap:round; stroke-linejoin:round;">
<path d="M20370000.000000 3384750.000000 A1270000.000000 1270000.000000 0.0 0 0 22910000.000000 3384750.000000" />
<path d="M22910000.000000 11004750.000000 A1270000.000000 1270000.000000 0.0 0 0 20370000.000000 11004750.000000" />
<path d="M20370000.000000 100574750.000000 A1270000.000000 1270000.000000 0.0 0 0 22910000.000000 100574750.000000" />
<path d="M22910000.000000 108194750.000000 A1270000.000000 1270000.000000 0.0 0 0 20370000.000000 108194750.000000" />
<path d="M45770000.000000 65614750.000000 A1270000.000000 1270000.000000 0.0 0 0 43230000.000000 65614750.000000" />
<path d="M43230000.000000 57994750.000000 A1270000.000000 1270000.000000 0.0 0 0 45770000.000000 57994750.000000" />
<path d="M45770000.000000 11004750.000000 A1270000.000000 1270000.000000 0.0 0 0 43230000.000000 11004750.000000" />
<path d="M43230000.000000 3384750.000000 A1270000.000000 1270000.000000 0.0 0 0 45770000.000000 3384750.000000" />
<g >
</g>
<g >
</g>
<g >
</g>
<g >
</g>
<g >
</g>
<g >
</g>
<g >
</g>
<g >
</g>
<g >
</g>
<g >
</g>
<g >
</g>
<g >
</g>
<g >
</g>
<g >
</g>
<g >
</g>
<g >
</g>
<g >
</g>
<g >
</g>
<g >
</g>
<g >
</g>
<g >
</g>
<g >
</g>
<g >
</g>
<g >
</g>
<g >
</g>
<g >
</g>
<g >
</g>
<g >
</g>
<g >
</g>
<g >
</g>
<g >
</g>
<g >
</g>
<g >
</g>
<g >
</g>
<g >
</g>
<g >
</g>
<g >
</g>
<g >
</g>
<g >
</g>
<g >
</g>
<g >
</g>
<g >
</g>
<g >
</g>
<g >
</g>
<g >
</g>
<g >
</g>
<g >
</g>
<g >
</g>
<g >
</g>
<g >
</g>
<g >
</g>
<g >
</g>
<g >
</g>
<g >
</g>
<g >
</g>
<g >
</g>
<g >
</g>
<g >
</g>
<g >
</g>
<g >
</g>
<g >
</g>
<g >
</g>
<g >
</g>
<g >
</g>
<g >
</g>
<g >
</g>
<g >
</g>
<g >
</g>
<g >
</g>
<g >
</g>
<g >
</g>
<g >
</g>
<g >
</g>
<g >
</g>
<g >
</g>
<g >
</g>
<g >
</g>
<g >
</g>
<g >
</g>
<g >
</g>
<g >
</g>
<g >
</g>
<g >
</g>
<g >
</g>
<g >
</g>
<g >
</g>
<g >
</g>
<g >
</g>
<g >
</g>
<g >
</g>
<g >
</g>
<g >
</g>
<g >
</g>
<g >
</g>
<g >
</g>
<g >
</g>
<g >
</g>
<g >
</g>
<g >
</g>
<g >
</g>
<g >
</g>
<g >
</g>
<g >
</g>
<g >
</g>
<g >
</g>
<g >
</g>
<g >
</g>
<g >
</g>
<g >
</g>
<g >
</g>
<g >
</g>
<g >
</g>
<g >
</g>
<g >
</g>
<g >
</g>
<g >
</g>
<g >
</g>
</g> 
</svg>
