<?xml version="1.0" standalone="no"?>
 <!DOCTYPE svg PUBLIC "-//W3C//DTD SVG 1.1//EN" 
 "http://www.w3.org/Graphics/SVG/1.1/DTD/svg11.dtd"> 
<svg
  xmlns:svg="http://www.w3.org/2000/svg"
  xmlns="http://www.w3.org/2000/svg"
  xmlns:xlink="http://www.w3.org/1999/xlink"
  version="1.1"
  width="6.662420cm" height="12.951460cm" viewBox="0 0 66624200 129514600">
<title>SVG Picture created as spiders-F_Silkscreen.svg date 2023/01/10 12:13:05 </title>
  <desc>Picture generated by PCBNEW </desc>
<g style="fill:#000000; fill-opacity:1.000000;stroke:#000000; stroke-opacity:1.000000;
stroke-linecap:round; stroke-linejoin:round;"
 transform="translate(0 0) scale(1 1)">
</g>
<g style="fill:#000000; fill-opacity:0.0; 
stroke:#000000; stroke-width:0.000000; stroke-opacity:1; 
stroke-linecap:round; stroke-linejoin:round;">
</g>
<g style="fill:#81BEBE; fill-opacity:0.0; 
stroke:#81BEBE; stroke-width:0.000000; stroke-opacity:1; 
stroke-linecap:round; stroke-linejoin:round;">
</g>
<g style="fill:#81BEBE; fill-opacity:0.0; 
stroke:#81BEBE; stroke-width:200000.000000; stroke-opacity:1; 
stroke-linecap:round; stroke-linejoin:round;">
<path d="M42650000 45026932
L42650000 34526932
" />
<path d="M39650000 45026932
L42650000 45026932
" />
<path d="M33650000 45026932
L36650000 45026932
" />
<path d="M33650000 45026932
L33650000 34526932
" />
<path d="M33650000 34526932
L36550000 34526932
" />
<path d="M39750000 34526932
L42650000 34526932
" />
</g>
<g style="fill:#81BEBE; fill-opacity:0.0; 
stroke:#81BEBE; stroke-width:120000.000000; stroke-opacity:1; 
stroke-linecap:round; stroke-linejoin:round;">
<path d="M39550000.295555 43026932.531122 A2879150.000000 2879150.000000 0.0 0 0 38150000.000000 37631932.000000" />
<path d="M38150000.000000 37631933.000000 A2879149.000000 2879149.000000 0.0 0 0 36750000.190700 43026931.657305" />
<circle cx="38150000.000000" cy="40526932.000000" r="1800000.000000" /> 
<path d="M40409064 102019750
L39954936 102019750
" />
<path d="M40409064 100549750
L39954936 100549750
" />
<path d="M55930000 31637750
L53730000 31637750
" />
<path d="M55930000 37107750
L59530000 37107750
" />
<path d="M55930000 37107750
L53730000 37107750
" />
<path d="M55930000 31637750
L58130000 31637750
" />
</g>
<g style="fill:#81BEBE; fill-opacity:0.0; 
stroke:#81BEBE; stroke-width:200000.000000; stroke-opacity:1; 
stroke-linecap:round; stroke-linejoin:round;">
<path d="M61914000 11834750
L60614000 11834750
" />
<path d="M60614000 7634750
L61914000 7634750
" />
<path d="M59189000 7734750
L60264000 7734750
" />
<path d="M60614000 11834750
L60614000 7634750
" />
<path d="M61914000 7634750
L61914000 11834750
" />
</g>
<g style="fill:#81BEBE; fill-opacity:0.0; 
stroke:#81BEBE; stroke-width:120000.000000; stroke-opacity:1; 
stroke-linecap:round; stroke-linejoin:round;">
<path d="M57481000 13571686
L57481000 14025814
" />
<path d="M58951000 13571686
L58951000 14025814
" />
<path d="M51639000 18124002
L51639000 17601498
" />
<path d="M53109000 18124002
L53109000 17601498
" />
<path d="M63577000 5897814
L63577000 5443686
" />
<path d="M65047000 5897814
L65047000 5443686
" />
</g>
<g style="fill:#81BEBE; fill-opacity:0.0; 
stroke:#81BEBE; stroke-width:200000.000000; stroke-opacity:1; 
stroke-linecap:round; stroke-linejoin:round;">
<path d="M23490000 60090350
L23490000 49590350
" />
<path d="M23490000 60090350
L26490000 60090350
" />
<path d="M32490000 60090350
L32490000 49590350
" />
<path d="M29490000 60090350
L32490000 60090350
" />
<path d="M29590000 49590350
L32490000 49590350
" />
<path d="M23490000 49590350
L26390000 49590350
" />
</g>
<g style="fill:#81BEBE; fill-opacity:0.0; 
stroke:#81BEBE; stroke-width:120000.000000; stroke-opacity:1; 
stroke-linecap:round; stroke-linejoin:round;">
<path d="M29390000.295555 58090350.531122 A2879150.000000 2879150.000000 0.0 0 0 27990000.000000 52695350.000000" />
<path d="M27990000.000000 52695351.000000 A2879149.000000 2879149.000000 0.0 0 0 26590000.190700 58090349.657305" />
<circle cx="27990000.000000" cy="55590350.000000" r="1800000.000000" /> 
<path d="M53543936 40695750
L53998064 40695750
" />
<path d="M53543936 39225750
L53998064 39225750
" />
<path d="M31038000 75630750
L31038000 76138750
" />
<path d="M31038000 73090750
L31038000 73598750
" />
<path d="M25450000 73090750
L25450000 73598750
" />
<path d="M25450000 75630750
L25450000 76138750
" />
<path d="M26466000 77662750
L30022000 77662750
" />
<path d="M26466000 71566750
L30022000 71566750
" />
<path d="M37803000 81924750
L37803000 80004750
" />
<path d="M35118000 81924750
L37803000 81924750
" />
<path d="M37803000 80004750
L35118000 80004750
" />
<path d="M51839000 53176002
L51839000 52653498
" />
<path d="M50369000 53176002
L50369000 52653498
" />
<path d="M48325000 68727750
L48325000 66127750
" />
<path d="M66165000 68727750
L66165000 63527750
" />
<path d="M45725000 68727750
L45725000 67397750
" />
<path d="M45725000 66127750
L45725000 63527750
" />
<path d="M45725000 63527750
L66165000 63527750
" />
<path d="M48325000 66127750
L45725000 66127750
" />
<path d="M48325000 68727750
L66165000 68727750
" />
<path d="M47055000 68727750
L45725000 68727750
" />
</g>
<g style="fill:#81BEBE; fill-opacity:0.0; 
stroke:#81BEBE; stroke-width:200000.000000; stroke-opacity:1; 
stroke-linecap:round; stroke-linejoin:round;">
<path d="M48521000 7734750
L49596000 7734750
" />
<path d="M51246000 11834750
L49946000 11834750
" />
<path d="M51246000 7634750
L51246000 11834750
" />
<path d="M49946000 7634750
L51246000 7634750
" />
<path d="M49946000 11834750
L49946000 7634750
" />
</g>
<g style="fill:#81BEBE; fill-opacity:0.0; 
stroke:#81BEBE; stroke-width:120000.000000; stroke-opacity:1; 
stroke-linecap:round; stroke-linejoin:round;">
<path d="M55951501 27709750
L53751501 27709750
" />
<path d="M55951501 22239750
L58151501 22239750
" />
<path d="M55951501 22239750
L53751501 22239750
" />
<path d="M55951501 27709750
L59551501 27709750
" />
<path d="M52909000 5881814
L52909000 5427686
" />
<path d="M54379000 5881814
L54379000 5427686
" />
<path d="M40409064 80229750
L39954936 80229750
" />
<path d="M40409064 81699750
L39954936 81699750
" />
<path d="M27897000 80004750
L25212000 80004750
" />
<path d="M27897000 81924750
L27897000 80004750
" />
<path d="M25212000 81924750
L27897000 81924750
" />
</g>
<g style="fill:#81BEBE; fill-opacity:0.0; 
stroke:#81BEBE; stroke-width:200000.000000; stroke-opacity:1; 
stroke-linecap:round; stroke-linejoin:round;">
<path d="M39650000 14917500
L42650000 14917500
" />
<path d="M33650000 4417500
L36550000 4417500
" />
<path d="M33650000 14917500
L33650000 4417500
" />
<path d="M39750000 4417500
L42650000 4417500
" />
<path d="M42650000 14917500
L42650000 4417500
" />
<path d="M33650000 14917500
L36650000 14917500
" />
</g>
<g style="fill:#81BEBE; fill-opacity:0.0; 
stroke:#81BEBE; stroke-width:120000.000000; stroke-opacity:1; 
stroke-linecap:round; stroke-linejoin:round;">
<path d="M38150000.000000 7522501.000000 A2879149.000000 2879149.000000 0.0 0 0 36750000.190700 12917499.657305" />
<path d="M39550000.295555 12917500.531122 A2879150.000000 2879150.000000 0.0 0 0 38150000.000000 7522500.000000" />
<circle cx="38150000.000000" cy="10417500.000000" r="1800000.000000" /> 
<path d="M48325000 3444750
L48325000 784750
" />
<path d="M48325000 784750
L66165000 784750
" />
<path d="M66165000 3444750
L66165000 784750
" />
<path d="M47055000 3444750
L45725000 3444750
" />
<path d="M48325000 3444750
L66165000 3444750
" />
<path d="M45725000 3444750
L45725000 2114750
" />
<path d="M63142000 14025814
L63142000 13571686
" />
<path d="M61672000 14025814
L61672000 13571686
" />
<path d="M28471064 102581750
L28016936 102581750
" />
<path d="M28471064 104051750
L28016936 104051750
" />
<path d="M58339564 49966750
L57885436 49966750
" />
<path d="M58339564 48496750
L57885436 48496750
" />
</g>
<g style="fill:#81BEBE; fill-opacity:0.0; 
stroke:#81BEBE; stroke-width:200000.000000; stroke-opacity:1; 
stroke-linecap:round; stroke-linejoin:round;">
<path d="M23490000 34532732
L26390000 34532732
" />
<path d="M32490000 45032732
L32490000 34532732
" />
<path d="M23490000 45032732
L26490000 45032732
" />
<path d="M29490000 45032732
L32490000 45032732
" />
<path d="M23490000 45032732
L23490000 34532732
" />
<path d="M29590000 34532732
L32490000 34532732
" />
</g>
<g style="fill:#81BEBE; fill-opacity:0.0; 
stroke:#81BEBE; stroke-width:120000.000000; stroke-opacity:1; 
stroke-linecap:round; stroke-linejoin:round;">
<path d="M27990000.000000 37637733.000000 A2879149.000000 2879149.000000 0.0 0 0 26590000.190700 43032731.657305" />
<path d="M29390000.295555 43032732.531122 A2879150.000000 2879150.000000 0.0 0 0 27990000.000000 37637732.000000" />
<circle cx="27990000.000000" cy="40532732.000000" r="1800000.000000" /> 
<path d="M53543936 49966750
L53998064 49966750
" />
<path d="M53543936 48496750
L53998064 48496750
" />
<path d="M58316064 29478750
L57861936 29478750
" />
<path d="M58316064 28008750
L57861936 28008750
" />
<path d="M53543936 20515750
L53998064 20515750
" />
<path d="M53543936 21985750
L53998064 21985750
" />
<path d="M63142000 5897814
L63142000 5443686
" />
<path d="M61672000 5897814
L61672000 5443686
" />
<path d="M31038000 86637416
L31038000 87145416
" />
<path d="M26466000 88669416
L30022000 88669416
" />
<path d="M26466000 82573416
L30022000 82573416
" />
<path d="M31038000 84097416
L31038000 84605416
" />
<path d="M25450000 84097416
L25450000 84605416
" />
<path d="M25450000 86637416
L25450000 87145416
" />
<path d="M37803000 71002750
L37803000 69082750
" />
<path d="M35118000 71002750
L37803000 71002750
" />
<path d="M37803000 69082750
L35118000 69082750
" />
<path d="M30503064 81699750
L30048936 81699750
" />
<path d="M30503064 80229750
L30048936 80229750
" />
<path d="M58316064 29954750
L57861936 29954750
" />
<path d="M58316064 31424750
L57861936 31424750
" />
<path d="M58316064 40695750
L57861936 40695750
" />
<path d="M58316064 39225750
L57861936 39225750
" />
<path d="M53543936 57332750
L53998064 57332750
" />
<path d="M53543936 55862750
L53998064 55862750
" />
<path d="M57227000 9473498
L57227000 9996002
" />
<path d="M58697000 9473498
L58697000 9996002
" />
<path d="M50412002 25236002
L50412002 24713498
" />
<path d="M51882002 25236002
L51882002 24713498
" />
<path d="M61491000 34111498
L61491000 34634002
" />
<path d="M60021000 34111498
L60021000 34634002
" />
</g>
<g style="fill:#81BEBE; fill-opacity:0.0; 
stroke:#81BEBE; stroke-width:200000.000000; stroke-opacity:1; 
stroke-linecap:round; stroke-linejoin:round;">
<path d="M55280000 19962750
L55280000 15762750
" />
<path d="M53855000 15862750
L54930000 15862750
" />
<path d="M56580000 19962750
L55280000 19962750
" />
<path d="M55280000 15762750
L56580000 15762750
" />
<path d="M56580000 15762750
L56580000 19962750
" />
</g>
<g style="fill:#81BEBE; fill-opacity:0.0; 
stroke:#81BEBE; stroke-width:120000.000000; stroke-opacity:1; 
stroke-linecap:round; stroke-linejoin:round;">
<path d="M40409064 91151750
L39954936 91151750
" />
<path d="M40409064 92621750
L39954936 92621750
" />
<path d="M35118000 92846750
L37803000 92846750
" />
<path d="M37803000 90926750
L35118000 90926750
" />
<path d="M37803000 92846750
L37803000 90926750
" />
<path d="M35356000 86637416
L35356000 87145416
" />
<path d="M36372000 82573416
L39928000 82573416
" />
<path d="M40944000 84097416
L40944000 84605416
" />
<path d="M36372000 88669416
L39928000 88669416
" />
<path d="M40944000 86637416
L40944000 87145416
" />
<path d="M35356000 84097416
L35356000 84605416
" />
<path d="M53543936 37320750
L53998064 37320750
" />
<path d="M53543936 38790750
L53998064 38790750
" />
<path d="M58316064 37320750
L57861936 37320750
" />
<path d="M58316064 38790750
L57861936 38790750
" />
<path d="M36372000 104586750
L39928000 104586750
" />
<path d="M36372000 110682750
L39928000 110682750
" />
<path d="M40944000 108650750
L40944000 109158750
" />
<path d="M40944000 106110750
L40944000 106618750
" />
<path d="M35356000 106110750
L35356000 106618750
" />
<path d="M35356000 108650750
L35356000 109158750
" />
<path d="M59386000 14025814
L59386000 13571686
" />
<path d="M60856000 14025814
L60856000 13571686
" />
<path d="M35356000 95104082
L35356000 95612082
" />
<path d="M36372000 93580082
L39928000 93580082
" />
<path d="M36372000 99676082
L39928000 99676082
" />
<path d="M40944000 97644082
L40944000 98152082
" />
<path d="M40944000 95104082
L40944000 95612082
" />
<path d="M35356000 97644082
L35356000 98152082
" />
<path d="M46559000 9457498
L46559000 9980002
" />
<path d="M48029000 9457498
L48029000 9980002
" />
<path d="M59386000 5897814
L59386000 5443686
" />
<path d="M60856000 5897814
L60856000 5443686
" />
<path d="M30784000 106110750
L30784000 106618750
" />
<path d="M25196000 108650750
L25196000 109158750
" />
<path d="M25196000 106110750
L25196000 106618750
" />
<path d="M26212000 104586750
L29768000 104586750
" />
<path d="M26212000 110682750
L29768000 110682750
" />
<path d="M30784000 108650750
L30784000 109158750
" />
<path d="M48718000 5897814
L48718000 5443686
" />
<path d="M50188000 5897814
L50188000 5443686
" />
<path d="M58951000 5897814
L58951000 5443686
" />
<path d="M57481000 5897814
L57481000 5443686
" />
<path d="M58751000 17601498
L58751000 18124002
" />
<path d="M60221000 17601498
L60221000 18124002
" />
<path d="M60021000 52653498
L60021000 53176002
" />
<path d="M61491000 52653498
L61491000 53176002
" />
<path d="M60064002 24754498
L60064002 25277002
" />
<path d="M61534002 24754498
L61534002 25277002
" />
</g>
<g style="fill:#81BEBE; fill-opacity:0.0; 
stroke:#81BEBE; stroke-width:200000.000000; stroke-opacity:1; 
stroke-linecap:round; stroke-linejoin:round;">
<path d="M32490000 14917500
L32490000 4417500
" />
<path d="M29590000 4417500
L32490000 4417500
" />
<path d="M23490000 4417500
L26390000 4417500
" />
<path d="M23490000 14917500
L26490000 14917500
" />
<path d="M29490000 14917500
L32490000 14917500
" />
<path d="M23490000 14917500
L23490000 4417500
" />
</g>
<g style="fill:#81BEBE; fill-opacity:0.0; 
stroke:#81BEBE; stroke-width:120000.000000; stroke-opacity:1; 
stroke-linecap:round; stroke-linejoin:round;">
<path d="M29390000.295555 12917500.531122 A2879150.000000 2879150.000000 0.0 0 0 27990000.000000 7522500.000000" />
<path d="M27990000.000000 7522501.000000 A2879149.000000 2879149.000000 0.0 0 0 26590000.190700 12917499.657305" />
<circle cx="27990000.000000" cy="10417500.000000" r="1800000.000000" /> 
<path d="M27897000 69082750
L25212000 69082750
" />
<path d="M27897000 71002750
L27897000 69082750
" />
<path d="M25212000 71002750
L27897000 71002750
" />
<path d="M58316064 21985750
L57861936 21985750
" />
<path d="M58316064 20515750
L57861936 20515750
" />
<path d="M52909000 13571686
L52909000 14025814
" />
<path d="M54379000 13571686
L54379000 14025814
" />
<path d="M30503064 92621750
L30048936 92621750
" />
<path d="M30503064 91151750
L30048936 91151750
" />
<path d="M48283000 5881814
L48283000 5427686
" />
<path d="M46813000 5881814
L46813000 5427686
" />
<path d="M63577000 13571686
L63577000 14025814
" />
<path d="M65047000 13571686
L65047000 14025814
" />
<path d="M53543936 29954750
L53998064 29954750
" />
<path d="M53543936 31424750
L53998064 31424750
" />
<path d="M40944000 75630750
L40944000 76138750
" />
<path d="M40944000 73090750
L40944000 73598750
" />
<path d="M35356000 75630750
L35356000 76138750
" />
<path d="M36372000 71566750
L39928000 71566750
" />
<path d="M35356000 73090750
L35356000 73598750
" />
<path d="M36372000 77662750
L39928000 77662750
" />
</g>
<g style="fill:#81BEBE; fill-opacity:0.0; 
stroke:#81BEBE; stroke-width:200000.000000; stroke-opacity:1; 
stroke-linecap:round; stroke-linejoin:round;">
<path d="M29590000 19475116
L32490000 19475116
" />
<path d="M23490000 19475116
L26390000 19475116
" />
<path d="M32490000 29975116
L32490000 19475116
" />
<path d="M23490000 29975116
L26490000 29975116
" />
<path d="M23490000 29975116
L23490000 19475116
" />
<path d="M29490000 29975116
L32490000 29975116
" />
</g>
<g style="fill:#81BEBE; fill-opacity:0.0; 
stroke:#81BEBE; stroke-width:120000.000000; stroke-opacity:1; 
stroke-linecap:round; stroke-linejoin:round;">
<path d="M27990000.000000 22580117.000000 A2879149.000000 2879149.000000 0.0 0 0 26590000.190700 27975115.657305" />
<path d="M29390000.295555 27975116.531122 A2879150.000000 2879150.000000 0.0 0 0 27990000.000000 22580116.000000" />
<circle cx="27990000.000000" cy="25475116.000000" r="1800000.000000" /> 
<path d="M52474000 14025814
L52474000 13571686
" />
<path d="M51004000 14025814
L51004000 13571686
" />
<path d="M39835000 104276750
L39835000 102356750
" />
<path d="M37150000 104276750
L39835000 104276750
" />
<path d="M39835000 102356750
L37150000 102356750
" />
<path d="M40409064 70777750
L39954936 70777750
" />
<path d="M40409064 69307750
L39954936 69307750
" />
<path d="M53543936 28008750
L53998064 28008750
" />
<path d="M53543936 29478750
L53998064 29478750
" />
<path d="M58339564 46591750
L57885436 46591750
" />
<path d="M58339564 48061750
L57885436 48061750
" />
<path d="M30503064 69307750
L30048936 69307750
" />
<path d="M30503064 70777750
L30048936 70777750
" />
<path d="M65301000 10123002
L65301000 9600498
" />
<path d="M63831000 10123002
L63831000 9600498
" />
<path d="M55930000 46378750
L53730000 46378750
" />
<path d="M55930000 46378750
L59530000 46378750
" />
<path d="M55930000 40908750
L58130000 40908750
" />
<path d="M55930000 40908750
L53730000 40908750
" />
<path d="M27897000 100324750
L25212000 100324750
" />
<path d="M25212000 102244750
L27897000 102244750
" />
<path d="M27897000 102244750
L27897000 100324750
" />
<path d="M54633000 9980002
L54633000 9457498
" />
<path d="M53163000 9980002
L53163000 9457498
" />
<path d="M55930000 50179750
L53730000 50179750
" />
<path d="M55930000 55649750
L53730000 55649750
" />
<path d="M55930000 55649750
L59530000 55649750
" />
<path d="M55930000 50179750
L58130000 50179750
" />
<path d="M25212000 92846750
L27897000 92846750
" />
<path d="M27897000 92846750
L27897000 90926750
" />
<path d="M27897000 90926750
L25212000 90926750
" />
<path d="M51839000 43905002
L51839000 43382498
" />
<path d="M50369000 43905002
L50369000 43382498
" />
<path d="M53543936 48061750
L53998064 48061750
" />
<path d="M53543936 46591750
L53998064 46591750
" />
<path d="M52474000 5897814
L52474000 5443686
" />
<path d="M51004000 5897814
L51004000 5443686
" />
<path d="M50369000 34634002
L50369000 34111498
" />
<path d="M51839000 34634002
L51839000 34111498
" />
<path d="M46813000 13571686
L46813000 14025814
" />
<path d="M48283000 13571686
L48283000 14025814
" />
</g>
<g style="fill:#81BEBE; fill-opacity:0.0; 
stroke:#81BEBE; stroke-width:200000.000000; stroke-opacity:1; 
stroke-linecap:round; stroke-linejoin:round;">
<path d="M33650000 49581650
L36550000 49581650
" />
<path d="M33650000 60081650
L36650000 60081650
" />
<path d="M39650000 60081650
L42650000 60081650
" />
<path d="M39750000 49581650
L42650000 49581650
" />
<path d="M42650000 60081650
L42650000 49581650
" />
<path d="M33650000 60081650
L33650000 49581650
" />
</g>
<g style="fill:#81BEBE; fill-opacity:0.0; 
stroke:#81BEBE; stroke-width:120000.000000; stroke-opacity:1; 
stroke-linecap:round; stroke-linejoin:round;">
<path d="M38150000.000000 52686651.000000 A2879149.000000 2879149.000000 0.0 0 0 36750000.190700 58081649.657305" />
<path d="M39550000.295555 58081650.531122 A2879150.000000 2879150.000000 0.0 0 0 38150000.000000 52686650.000000" />
<circle cx="38150000.000000" cy="55581650.000000" r="1800000.000000" /> 
<path d="M60021000 43382498
L60021000 43905002
" />
<path d="M61491000 43382498
L61491000 43905002
" />
<path d="M30784000 95104082
L30784000 95612082
" />
<path d="M25196000 95104082
L25196000 95612082
" />
<path d="M26212000 99676082
L29768000 99676082
" />
<path d="M25196000 97644082
L25196000 98152082
" />
<path d="M30784000 97644082
L30784000 98152082
" />
<path d="M26212000 93580082
L29768000 93580082
" />
<path d="M50188000 14025814
L50188000 13571686
" />
<path d="M48718000 14025814
L48718000 13571686
" />
<path d="M58316064 55862750
L57861936 55862750
" />
<path d="M58316064 57332750
L57861936 57332750
" />
</g>
<g style="fill:#81BEBE; fill-opacity:0.0; 
stroke:#81BEBE; stroke-width:200000.000000; stroke-opacity:1; 
stroke-linecap:round; stroke-linejoin:round;">
<path d="M33650000 29972216
L36650000 29972216
" />
<path d="M33650000 29972216
L33650000 19472216
" />
<path d="M42650000 29972216
L42650000 19472216
" />
<path d="M33650000 19472216
L36550000 19472216
" />
<path d="M39650000 29972216
L42650000 29972216
" />
<path d="M39750000 19472216
L42650000 19472216
" />
</g>
<g style="fill:#81BEBE; fill-opacity:0.0; 
stroke:#81BEBE; stroke-width:120000.000000; stroke-opacity:1; 
stroke-linecap:round; stroke-linejoin:round;">
<path d="M38150000.000000 22577217.000000 A2879149.000000 2879149.000000 0.0 0 0 36750000.190700 27972215.657305" />
<path d="M39550000.295555 27972216.531122 A2879150.000000 2879150.000000 0.0 0 0 38150000.000000 22577216.000000" />
<circle cx="38150000.000000" cy="25472216.000000" r="1800000.000000" /> 
<g >
</g>
<g >
</g>
<g >
</g>
<g >
</g>
<g >
</g>
<g >
</g>
<g >
</g>
<g >
</g>
<g >
</g>
<g >
</g>
<g >
</g>
<g >
</g>
<g >
</g>
<g >
</g>
<g >
</g>
<g >
</g>
<g >
</g>
<g >
</g>
<g >
</g>
<g >
</g>
<g >
</g>
<g >
</g>
<g >
</g>
<g >
</g>
<g >
</g>
<g >
</g>
<g >
</g>
<g >
</g>
<g >
</g>
<g >
</g>
<g >
</g>
<g >
</g>
<g >
</g>
<g >
</g>
<g >
</g>
<g >
</g>
<g >
</g>
<g >
</g>
<g >
</g>
<g >
</g>
<g >
</g>
<g >
</g>
<g >
</g>
<g >
</g>
<g >
</g>
<g >
</g>
<g >
</g>
<g >
</g>
<g >
</g>
<g >
</g>
<g >
</g>
<g >
</g>
<g >
</g>
<g >
</g>
<g >
</g>
<g >
</g>
<g >
</g>
<g >
</g>
<g >
</g>
<g >
</g>
<g >
</g>
<g >
</g>
<g >
</g>
<g >
</g>
<g >
</g>
<g >
</g>
<g >
</g>
<g >
</g>
<g >
</g>
<g >
</g>
<g >
</g>
<g >
</g>
<g >
</g>
<g >
</g>
<g >
</g>
<g >
</g>
<g >
</g>
<g >
</g>
<g >
</g>
<g >
</g>
<g >
</g>
<g >
</g>
<g >
</g>
<g >
</g>
<g >
</g>
<g >
</g>
<g >
</g>
<g >
</g>
<g >
</g>
<g >
</g>
<g >
</g>
<g >
</g>
<g >
</g>
<g >
</g>
<g >
</g>
<g >
</g>
<g >
</g>
<g >
</g>
<g >
</g>
<g >
</g>
<g >
</g>
<g >
</g>
<g >
</g>
<g >
</g>
<g >
</g>
<g >
</g>
<g >
</g>
<g >
</g>
<g >
</g>
<g >
</g>
<g >
</g>
<g >
</g>
<g >
</g>
<g >
</g>
<g >
</g>
<g >
</g>
<g >
</g>
</g>
<g style="fill:#000000; fill-opacity:0.0; 
stroke:#000000; stroke-width:120000.000000; stroke-opacity:1; 
stroke-linecap:round; stroke-linejoin:round;">
</g>
<g style="fill:#C8A339; fill-opacity:0.0; 
stroke:#C8A339; stroke-width:120000.000000; stroke-opacity:1; 
stroke-linecap:round; stroke-linejoin:round;">
</g>
<g style="fill:#C8A339; fill-opacity:0.0; 
stroke:#C8A339; stroke-width:100000.000000; stroke-opacity:1; 
stroke-linecap:round; stroke-linejoin:round;">
<path d="M50000 129114750
L50000 844750
" />
<path d="M22910000 108194750
L22910000 111242750
" />
<path d="M20370000 108194750
L20370000 129114750
" />
<path d="M45770000 3384750
L45770000 844750
" />
<path d="M43230000 111242750
L43230000 65614750
" />
<path d="M66090000 844750
L66090000 68662750
" />
<path d="M22910000 11004750
L22910000 100574750
" />
<path d="M20370000 129114750
L50000 129114750
" />
<path d="M45770000 11004750
L45770000 57994750
" />
<path d="M43230000 111242750
L22910000 111242750
" />
<path d="M43230000 57994750
L43230000 11004750
" />
<path d="M66090000 68662750
L45770000 68662750
" />
<path d="M22910000 844750
L43230000 844750
" />
<path d="M20370000 844750
L20370000 3384750
" />
<path d="M45770000 65614750
L45770000 68662750
" />
<path d="M20370000 11004750
L20370000 100574750
" />
<path d="M45770000 844750
L66090000 844750
" />
<path d="M50000 844750
L20370000 844750
" />
<path d="M22910000 844750
L22910000 3384750
" />
<path d="M43230000 3384750
L43230000 844750
" />
</g>
<g style="fill:#C8A339; fill-opacity:0.0; 
stroke:#C8A339; stroke-width:120000.000000; stroke-opacity:1; 
stroke-linecap:round; stroke-linejoin:round;">
<path d="M20370000.000000 3384750.000000 A1270000.000000 1270000.000000 0.0 0 0 22910000.000000 3384750.000000" />
<path d="M22910000.000000 11004750.000000 A1270000.000000 1270000.000000 0.0 0 0 20370000.000000 11004750.000000" />
<path d="M20370000.000000 100574750.000000 A1270000.000000 1270000.000000 0.0 0 0 22910000.000000 100574750.000000" />
<path d="M22910000.000000 108194750.000000 A1270000.000000 1270000.000000 0.0 0 0 20370000.000000 108194750.000000" />
<path d="M45770000.000000 65614750.000000 A1270000.000000 1270000.000000 0.0 0 0 43230000.000000 65614750.000000" />
<path d="M43230000.000000 57994750.000000 A1270000.000000 1270000.000000 0.0 0 0 45770000.000000 57994750.000000" />
<path d="M45770000.000000 11004750.000000 A1270000.000000 1270000.000000 0.0 0 0 43230000.000000 11004750.000000" />
<path d="M43230000.000000 3384750.000000 A1270000.000000 1270000.000000 0.0 0 0 45770000.000000 3384750.000000" />
<g >
</g>
<g >
</g>
<g >
</g>
<g >
</g>
<g >
</g>
<g >
</g>
<g >
</g>
<g >
</g>
<g >
</g>
<g >
</g>
<g >
</g>
<g >
</g>
<g >
</g>
<g >
</g>
<g >
</g>
<g >
</g>
<g >
</g>
<g >
</g>
<g >
</g>
<g >
</g>
<g >
</g>
<g >
</g>
<g >
</g>
<g >
</g>
<g >
</g>
<g >
</g>
<g >
</g>
<g >
</g>
<g >
</g>
<g >
</g>
<g >
</g>
<g >
</g>
<g >
</g>
<g >
</g>
<g >
</g>
<g >
</g>
<g >
</g>
<g >
</g>
<g >
</g>
<g >
</g>
<g >
</g>
<g >
</g>
<g >
</g>
<g >
</g>
<g >
</g>
<g >
</g>
<g >
</g>
<g >
</g>
<g >
</g>
<g >
</g>
<g >
</g>
<g >
</g>
<g >
</g>
<g >
</g>
<g >
</g>
<g >
</g>
<g >
</g>
<g >
</g>
<g >
</g>
<g >
</g>
<g >
</g>
<g >
</g>
<g >
</g>
<g >
</g>
<g >
</g>
<g >
</g>
<g >
</g>
<g >
</g>
<g >
</g>
<g >
</g>
<g >
</g>
<g >
</g>
<g >
</g>
<g >
</g>
<g >
</g>
<g >
</g>
<g >
</g>
<g >
</g>
<g >
</g>
<g >
</g>
<g >
</g>
<g >
</g>
<g >
</g>
<g >
</g>
<g >
</g>
<g >
</g>
<g >
</g>
<g >
</g>
<g >
</g>
<g >
</g>
<g >
</g>
<g >
</g>
<g >
</g>
<g >
</g>
<g >
</g>
<g >
</g>
<g >
</g>
<g >
</g>
<g >
</g>
<g >
</g>
<g >
</g>
<g >
</g>
<g >
</g>
<g >
</g>
<g >
</g>
<g >
</g>
<g >
</g>
<g >
</g>
<g >
</g>
<g >
</g>
<g >
</g>
<g >
</g>
<g >
</g>
<g >
</g>
<g >
</g>
<g >
</g>
<g >
</g>
</g> 
</svg>
