<?xml version="1.0" encoding="UTF-8"?>
<!-- Generated by Pixelmator Pro 3.2.3 -->
<svg width="200" height="1256" viewBox="0 0 200 1256" xmlns="http://www.w3.org/2000/svg" xmlns:xlink="http://www.w3.org/1999/xlink">
    <g id="silkscreen">
        <g id="arrow">
            <path id="Path" fill="#000000" stroke="none" d="M 24.826672 133.160889 C 23.934305 132.939331 23.363192 132.828491 23.113331 132.828491 C 21.644962 132.828491 19.44241 132.828491 16.505672 132.828491 L 16.505672 134.828491 L 28.04327 134.828491 L 26.734694 123.380249 L 24.798401 123.620117 C 25.134836 126.476685 25.405968 128.662598 25.611794 130.177734 C 25.628874 130.515625 25.779219 131.111328 26.062824 131.964966 C 25.690405 131.593628 25.133801 130.905029 24.759632 130.549316 C 17.7446 123.881104 10.429447 120 3.089833 120 L 2.089833 120 L 2.089833 122 L 3.089833 122 C 9.809563 122 16.67951 125.641724 23.345463 131.964966 C 23.643295 132.247559 24.529686 132.867676 24.826672 133.160889 Z"/>
        </g>
        <g id="Group">
            <path id="Ellipse" fill="#000000" fill-rule="evenodd" stroke="none" d="M 50 232 C 50 229.790894 48.209137 228 46 228 C 43.790859 228 42 229.790894 42 232 C 42 234.209167 43.790859 236 46 236 C 48.209137 236 50 234.209167 50 232 Z"/>
            <path id="Shape" fill="#000000" fill-rule="evenodd" stroke="none" d="M 55 236 C 52.790863 236 51 234.209106 51 232 C 51 229.790894 52.790863 228 55 228 C 57.209137 228 59 229.790894 59 232 C 59 234.209106 57.209137 236 55 236 Z M 55 234 C 56.104568 234 57 233.104553 57 232 C 57 230.895386 56.104568 230 55 230 C 53.895432 230 53 230.895386 53 232 C 53 233.104553 53.895432 234 55 234 Z"/>
            <path id="Shape-copy" fill="#000000" fill-rule="evenodd" stroke="none" d="M 46 245 C 43.790863 245 42 243.209106 42 241 C 42 238.790894 43.790863 237 46 237 C 48.209137 237 50 238.790894 50 241 C 50 243.209106 48.209137 245 46 245 Z M 46 243 C 47.104568 243 48 242.104553 48 241 C 48 239.895447 47.104568 239 46 239 C 44.895432 239 44 239.895447 44 241 C 44 242.104553 44.895432 243 46 243 Z"/>
            <path id="Shape-copy-2" fill="#000000" fill-rule="evenodd" stroke="none" d="M 55 245 C 52.790863 245 51 243.209106 51 241 C 51 238.790894 52.790863 237 55 237 C 57.209137 237 59 238.790894 59 241 C 59 243.209106 57.209137 245 55 245 Z M 55 243 C 56.104568 243 57 242.104553 57 241 C 57 239.895447 56.104568 239 55 239 C 53.895432 239 53 239.895447 53 241 C 53 242.104553 53.895432 243 55 243 Z"/>
        </g>
        <g id="g1">
            <path id="path1" fill="#000000" fill-rule="evenodd" stroke="none" d="M 50 380 C 50 377.790833 48.209137 376 46 376 C 43.790859 376 42 377.790833 42 380 C 42 382.209167 43.790859 384 46 384 C 48.209137 384 50 382.209167 50 380 Z"/>
            <path id="Ellipse-copy" fill="#000000" fill-rule="evenodd" stroke="none" d="M 59 380 C 59 377.790833 57.209137 376 55 376 C 52.790859 376 51 377.790833 51 380 C 51 382.209167 52.790859 384 55 384 C 57.209137 384 59 382.209167 59 380 Z"/>
            <path id="path2" fill="#000000" fill-rule="evenodd" stroke="none" d="M 46 393 C 43.790863 393 42 391.209106 42 389 C 42 386.790894 43.790863 385 46 385 C 48.209137 385 50 386.790894 50 389 C 50 391.209106 48.209137 393 46 393 Z M 46 391 C 47.104568 391 48 390.104553 48 389 C 48 387.895447 47.104568 387 46 387 C 44.895432 387 44 387.895447 44 389 C 44 390.104553 44.895432 391 46 391 Z"/>
            <path id="path3" fill="#000000" fill-rule="evenodd" stroke="none" d="M 55 393 C 52.790863 393 51 391.209106 51 389 C 51 386.790894 52.790863 385 55 385 C 57.209137 385 59 386.790894 59 389 C 59 391.209106 57.209137 393 55 393 Z M 55 391 C 56.104568 391 57 390.104553 57 389 C 57 387.895447 56.104568 387 55 387 C 53.895432 387 53 387.895447 53 389 C 53 390.104553 53.895432 391 55 391 Z"/>
        </g>
        <g id="Group-copy-2">
            <path id="path4" fill="#000000" fill-rule="evenodd" stroke="none" d="M 50 527 C 50 524.790833 48.209137 523 46 523 C 43.790859 523 42 524.790833 42 527 C 42 529.209167 43.790859 531 46 531 C 48.209137 531 50 529.209167 50 527 Z"/>
            <path id="path5" fill="#000000" fill-rule="evenodd" stroke="none" d="M 59 527 C 59 524.790833 57.209137 523 55 523 C 52.790859 523 51 524.790833 51 527 C 51 529.209167 52.790859 531 55 531 C 57.209137 531 59 529.209167 59 527 Z"/>
            <path id="Ellipse-copy-3" fill="#000000" fill-rule="evenodd" stroke="none" d="M 50 536 C 50 533.790833 48.209137 532 46 532 C 43.790859 532 42 533.790833 42 536 C 42 538.209167 43.790859 540 46 540 C 48.209137 540 50 538.209167 50 536 Z"/>
            <path id="path6" fill="#000000" fill-rule="evenodd" stroke="none" d="M 55 540 C 52.790863 540 51 538.209106 51 536 C 51 533.790894 52.790863 532 55 532 C 57.209137 532 59 533.790894 59 536 C 59 538.209106 57.209137 540 55 540 Z M 55 538 C 56.104568 538 57 537.104553 57 536 C 57 534.895447 56.104568 534 55 534 C 53.895432 534 53 534.895447 53 536 C 53 537.104553 53.895432 538 55 538 Z"/>
        </g>
        <g id="Group-copy-10">
            <path id="path7" fill="#000000" fill-rule="evenodd" stroke="none" d="M 50 846 C 50 843.790894 48.209137 842 46 842 C 43.790859 842 42 843.790894 42 846 C 42 848.209106 43.790859 850 46 850 C 48.209137 850 50 848.209106 50 846 Z"/>
            <path id="path8" fill="#000000" fill-rule="evenodd" stroke="none" d="M 55 850 C 52.790863 850 51 848.209106 51 846 C 51 843.790894 52.790863 842 55 842 C 57.209137 842 59 843.790894 59 846 C 59 848.209106 57.209137 850 55 850 Z M 55 848 C 56.104568 848 57 847.104553 57 846 C 57 844.895447 56.104568 844 55 844 C 53.895432 844 53 844.895447 53 846 C 53 847.104553 53.895432 848 55 848 Z"/>
            <path id="path9" fill="#000000" fill-rule="evenodd" stroke="none" d="M 46 859 C 43.790863 859 42 857.209106 42 855 C 42 852.790894 43.790863 851 46 851 C 48.209137 851 50 852.790894 50 855 C 50 857.209106 48.209137 859 46 859 Z M 46 857 C 47.104568 857 48 856.104553 48 855 C 48 853.895447 47.104568 853 46 853 C 44.895432 853 44 853.895447 44 855 C 44 856.104553 44.895432 857 46 857 Z"/>
            <path id="path10" fill="#000000" fill-rule="evenodd" stroke="none" d="M 55 859 C 52.790863 859 51 857.209106 51 855 C 51 852.790894 52.790863 851 55 851 C 57.209137 851 59 852.790894 59 855 C 59 857.209106 57.209137 859 55 859 Z M 55 857 C 56.104568 857 57 856.104553 57 855 C 57 853.895447 56.104568 853 55 853 C 53.895432 853 53 853.895447 53 855 C 53 856.104553 53.895432 857 55 857 Z"/>
        </g>
        <g id="Group-copy-9">
            <path id="path11" fill="#000000" fill-rule="evenodd" stroke="none" d="M 50 954 C 50 951.790894 48.209137 950 46 950 C 43.790859 950 42 951.790894 42 954 C 42 956.209106 43.790859 958 46 958 C 48.209137 958 50 956.209106 50 954 Z"/>
            <path id="path12" fill="#000000" fill-rule="evenodd" stroke="none" d="M 59 954 C 59 951.790894 57.209137 950 55 950 C 52.790859 950 51 951.790894 51 954 C 51 956.209106 52.790859 958 55 958 C 57.209137 958 59 956.209106 59 954 Z"/>
            <path id="path13" fill="#000000" fill-rule="evenodd" stroke="none" d="M 46 967 C 43.790863 967 42 965.209106 42 963 C 42 960.790894 43.790863 959 46 959 C 48.209137 959 50 960.790894 50 963 C 50 965.209106 48.209137 967 46 967 Z M 46 965 C 47.104568 965 48 964.104553 48 963 C 48 961.895447 47.104568 961 46 961 C 44.895432 961 44 961.895447 44 963 C 44 964.104553 44.895432 965 46 965 Z"/>
            <path id="path14" fill="#000000" fill-rule="evenodd" stroke="none" d="M 55 967 C 52.790863 967 51 965.209106 51 963 C 51 960.790894 52.790863 959 55 959 C 57.209137 959 59 960.790894 59 963 C 59 965.209106 57.209137 967 55 967 Z M 55 965 C 56.104568 965 57 964.104553 57 963 C 57 961.895447 56.104568 961 55 961 C 53.895432 961 53 961.895447 53 963 C 53 964.104553 53.895432 965 55 965 Z"/>
        </g>
        <g id="Group-copy-8">
            <path id="path15" fill="#000000" fill-rule="evenodd" stroke="none" d="M 50 1061 C 50 1058.790894 48.209137 1057 46 1057 C 43.790859 1057 42 1058.790894 42 1061 C 42 1063.209106 43.790859 1065 46 1065 C 48.209137 1065 50 1063.209106 50 1061 Z"/>
            <path id="path16" fill="#000000" fill-rule="evenodd" stroke="none" d="M 59 1061 C 59 1058.790894 57.209137 1057 55 1057 C 52.790859 1057 51 1058.790894 51 1061 C 51 1063.209106 52.790859 1065 55 1065 C 57.209137 1065 59 1063.209106 59 1061 Z"/>
            <path id="path17" fill="#000000" fill-rule="evenodd" stroke="none" d="M 50 1070 C 50 1067.790894 48.209137 1066 46 1066 C 43.790859 1066 42 1067.790894 42 1070 C 42 1072.209106 43.790859 1074 46 1074 C 48.209137 1074 50 1072.209106 50 1070 Z"/>
            <path id="path18" fill="#000000" fill-rule="evenodd" stroke="none" d="M 55 1074 C 52.790863 1074 51 1072.209106 51 1070 C 51 1067.790894 52.790863 1066 55 1066 C 57.209137 1066 59 1067.790894 59 1070 C 59 1072.209106 57.209137 1074 55 1074 Z M 55 1072 C 56.104568 1072 57 1071.104614 57 1070 C 57 1068.895386 56.104568 1068 55 1068 C 53.895432 1068 53 1068.895386 53 1070 C 53 1071.104614 53.895432 1072 55 1072 Z"/>
        </g>
        <g id="Group-copy-3">
            <path id="path19" fill="#000000" fill-rule="evenodd" stroke="none" d="M 50 677 C 50 674.790833 48.209137 673 46 673 C 43.790859 673 42 674.790833 42 677 C 42 679.209167 43.790859 681 46 681 C 48.209137 681 50 679.209167 50 677 Z"/>
            <path id="path20" fill="#000000" fill-rule="evenodd" stroke="none" d="M 59 677 C 59 674.790833 57.209137 673 55 673 C 52.790859 673 51 674.790833 51 677 C 51 679.209167 52.790859 681 55 681 C 57.209137 681 59 679.209167 59 677 Z"/>
            <path id="path21" fill="#000000" fill-rule="evenodd" stroke="none" d="M 50 686 C 50 683.790833 48.209137 682 46 682 C 43.790859 682 42 683.790833 42 686 C 42 688.209167 43.790859 690 46 690 C 48.209137 690 50 688.209167 50 686 Z"/>
            <path id="Ellipse-copy-2" fill="#000000" fill-rule="evenodd" stroke="none" d="M 59 686 C 59 683.790833 57.209137 682 55 682 C 52.790859 682 51 683.790833 51 686 C 51 688.209167 52.790859 690 55 690 C 57.209137 690 59 688.209167 59 686 Z"/>
        </g>
        <g id="Group-copy-4">
            <path id="Rounded-Rectangle" fill="#000000" fill-rule="evenodd" stroke="none" d="M 150.5 1184 C 146.302353 1184 144.204056 1184.000488 142.580078 1183.232422 C 140.906937 1182.44104 139.558914 1181.093018 138.767578 1179.419922 C 137.999496 1177.795898 138 1175.697632 138 1171.5 C 138 1167.302368 137.999496 1165.204102 138.767578 1163.580078 C 139.558914 1161.906982 140.906937 1160.55896 142.580078 1159.767578 C 144.204056 1158.999512 146.302353 1159 150.5 1159 C 154.697632 1159 156.795944 1158.999512 158.419922 1159.767578 C 160.093063 1160.55896 161.441086 1161.906982 162.232422 1163.580078 C 163.000504 1165.204102 163 1167.302368 163 1171.5 C 163 1175.697632 163.000504 1177.795898 162.232422 1179.419922 C 161.441086 1181.093018 160.093063 1182.44104 158.419922 1183.232422 C 156.795944 1184.000488 154.697632 1184 150.5 1184 Z M 146 1180 C 148.209137 1180 150 1178.209106 150 1176 C 150 1173.790894 148.209137 1172 146 1172 C 143.790863 1172 142 1173.790894 142 1176 C 142 1178.209106 143.790863 1180 146 1180 Z M 155 1180 C 157.209137 1180 159 1178.209106 159 1176 C 159 1173.790894 157.209137 1172 155 1172 C 152.790863 1172 151 1173.790894 151 1176 C 151 1178.209106 152.790863 1180 155 1180 Z M 146 1171 C 148.209137 1171 150 1169.209106 150 1167 C 150 1164.790894 148.209137 1163 146 1163 C 143.790863 1163 142 1164.790894 142 1167 C 142 1169.209106 143.790863 1171 146 1171 Z M 155 1171 C 157.209137 1171 159 1169.209106 159 1167 C 159 1164.790894 157.209137 1163 155 1163 C 152.790863 1163 151 1164.790894 151 1167 C 151 1169.209106 152.790863 1171 155 1171 Z"/>
        </g>
        <g id="Group-copy-7">
            <path id="path22" fill="#000000" fill-rule="evenodd" stroke="none" d="M 149.5 694 C 145.302353 694 143.204056 694.000488 141.580078 693.232422 C 139.906937 692.44104 138.558914 691.093079 137.767578 689.419922 C 136.999496 687.795959 137 685.697632 137 681.5 C 137 677.302368 136.999496 675.204041 137.767578 673.580078 C 138.558914 671.906921 139.906937 670.55896 141.580078 669.767578 C 143.204056 668.999512 145.302353 669 149.5 669 C 153.697632 669 155.795944 668.999512 157.419922 669.767578 C 159.093063 670.55896 160.441086 671.906921 161.232422 673.580078 C 162.000504 675.204041 162 677.302368 162 681.5 C 162 685.697632 162.000504 687.795959 161.232422 689.419922 C 160.441086 691.093079 159.093063 692.44104 157.419922 693.232422 C 155.795944 694.000488 153.697632 694 149.5 694 Z M 145 690 C 147.209137 690 149 688.209167 149 686 C 149 683.790833 147.209137 682 145 682 C 142.790863 682 141 683.790833 141 686 C 141 688.209167 142.790863 690 145 690 Z M 154 690 C 156.209137 690 158 688.209167 158 686 C 158 683.790833 156.209137 682 154 682 C 151.790863 682 150 683.790833 150 686 C 150 688.209167 151.790863 690 154 690 Z M 145 681 C 147.209137 681 149 679.209167 149 677 C 149 674.790833 147.209137 673 145 673 C 142.790863 673 141 674.790833 141 677 C 141 679.209167 142.790863 681 145 681 Z M 154 681 C 156.209137 681 158 679.209167 158 677 C 158 674.790833 156.209137 673 154 673 C 151.790863 673 150 674.790833 150 677 C 150 679.209167 151.790863 681 154 681 Z"/>
        </g>
        <g id="g2">
            <path id="path23" fill="#000000" fill-rule="evenodd" stroke="none" d="M 50 1167 C 50 1164.790894 48.209137 1163 46 1163 C 43.790859 1163 42 1164.790894 42 1167 C 42 1169.209106 43.790859 1171 46 1171 C 48.209137 1171 50 1169.209106 50 1167 Z"/>
            <path id="path24" fill="#000000" fill-rule="evenodd" stroke="none" d="M 59 1167 C 59 1164.790894 57.209137 1163 55 1163 C 52.790859 1163 51 1164.790894 51 1167 C 51 1169.209106 52.790859 1171 55 1171 C 57.209137 1171 59 1169.209106 59 1167 Z"/>
            <path id="path25" fill="#000000" fill-rule="evenodd" stroke="none" d="M 50 1176 C 50 1173.790894 48.209137 1172 46 1172 C 43.790859 1172 42 1173.790894 42 1176 C 42 1178.209106 43.790859 1180 46 1180 C 48.209137 1180 50 1178.209106 50 1176 Z"/>
            <path id="path26" fill="#000000" fill-rule="evenodd" stroke="none" d="M 59 1176 C 59 1173.790894 57.209137 1172 55 1172 C 52.790859 1172 51 1173.790894 51 1176 C 51 1178.209106 52.790859 1180 55 1180 C 57.209137 1180 59 1178.209106 59 1176 Z"/>
        </g>
        <g id="g3">
            <path id="path27" fill="#000000" fill-rule="evenodd" stroke="none" d="M 150.5 863 C 146.302353 863 144.204056 863.000488 142.580078 862.232422 C 140.906937 861.441101 139.558914 860.093018 138.767578 858.419922 C 137.999496 856.795898 138 854.697632 138 850.5 C 138 846.302368 137.999496 844.204102 138.767578 842.580078 C 139.558914 840.906982 140.906937 839.558899 142.580078 838.767578 C 144.204056 837.999512 146.302353 838 150.5 838 C 154.697632 838 156.795944 837.999512 158.419922 838.767578 C 160.093063 839.558899 161.441086 840.906982 162.232422 842.580078 C 163.000504 844.204102 163 846.302368 163 850.5 C 163 854.697632 163.000504 856.795898 162.232422 858.419922 C 161.441086 860.093018 160.093063 861.441101 158.419922 862.232422 C 156.795944 863.000488 154.697632 863 150.5 863 Z M 146 859 C 148.209137 859 150 857.209106 150 855 C 150 852.790894 148.209137 851 146 851 C 143.790863 851 142 852.790894 142 855 C 142 857.209106 143.790863 859 146 859 Z M 155 859 C 157.209137 859 159 857.209106 159 855 C 159 852.790894 157.209137 851 155 851 C 152.790863 851 151 852.790894 151 855 C 151 857.209106 152.790863 859 155 859 Z M 146 857 C 144.895432 857 144 856.104553 144 855 C 144 853.895447 144.895432 853 146 853 C 147.104568 853 148 853.895447 148 855 C 148 856.104553 147.104568 857 146 857 Z M 155 857 C 153.895432 857 153 856.104553 153 855 C 153 853.895447 153.895432 853 155 853 C 156.104568 853 157 853.895447 157 855 C 157 856.104553 156.104568 857 155 857 Z M 146 850 C 148.209137 850 150 848.209106 150 846 C 150 843.790894 148.209137 842 146 842 C 143.790863 842 142 843.790894 142 846 C 142 848.209106 143.790863 850 146 850 Z M 155 850 C 157.209137 850 159 848.209106 159 846 C 159 843.790894 157.209137 842 155 842 C 152.790863 842 151 843.790894 151 846 C 151 848.209106 152.790863 850 155 850 Z M 155 848 C 153.895432 848 153 847.104553 153 846 C 153 844.895447 153.895432 844 155 844 C 156.104568 844 157 844.895447 157 846 C 157 847.104553 156.104568 848 155 848 Z"/>
        </g>
        <g id="Group-copy">
            <path id="path28" fill="#000000" fill-rule="evenodd" stroke="none" d="M 149.5 249 C 145.302353 249 143.204056 249.000488 141.580078 248.232422 C 139.906937 247.44104 138.558914 246.093079 137.767578 244.419922 C 136.999496 242.795959 137 240.697632 137 236.5 C 137 232.302368 136.999496 230.203979 137.767578 228.580078 C 138.558914 226.90686 139.906937 225.55896 141.580078 224.767578 C 143.204056 223.999512 145.302353 224 149.5 224 C 153.697632 224 155.795944 223.999512 157.419922 224.767578 C 159.093063 225.55896 160.441086 226.90686 161.232422 228.580078 C 162.000504 230.203979 162 232.302368 162 236.5 C 162 240.697632 162.000504 242.795959 161.232422 244.419922 C 160.441086 246.093079 159.093063 247.44104 157.419922 248.232422 C 155.795944 249.000488 153.697632 249 149.5 249 Z M 145 245 C 147.209137 245 149 243.209106 149 241 C 149 238.790894 147.209137 237 145 237 C 142.790863 237 141 238.790894 141 241 C 141 243.209106 142.790863 245 145 245 Z M 154 245 C 156.209137 245 158 243.209106 158 241 C 158 238.790894 156.209137 237 154 237 C 151.790863 237 150 238.790894 150 241 C 150 243.209106 151.790863 245 154 245 Z M 145 243 C 143.895432 243 143 242.104553 143 241 C 143 239.895447 143.895432 239 145 239 C 146.104568 239 147 239.895447 147 241 C 147 242.104553 146.104568 243 145 243 Z M 154 243 C 152.895432 243 152 242.104553 152 241 C 152 239.895447 152.895432 239 154 239 C 155.104568 239 156 239.895447 156 241 C 156 242.104553 155.104568 243 154 243 Z M 145 236 C 147.209137 236 149 234.209167 149 232 C 149 229.790894 147.209137 228 145 228 C 142.790863 228 141 229.790894 141 232 C 141 234.209167 142.790863 236 145 236 Z M 154 236 C 156.209137 236 158 234.209106 158 232 C 158 229.790894 156.209137 228 154 228 C 151.790863 228 150 229.790894 150 232 C 150 234.209106 151.790863 236 154 236 Z M 154 234 C 152.895432 234 152 233.104553 152 232 C 152 230.895386 152.895432 230 154 230 C 155.104568 230 156 230.895386 156 232 C 156 233.104553 155.104568 234 154 234 Z"/>
        </g>
        <g id="g4">
            <path id="path29" fill="#000000" fill-rule="evenodd" stroke="none" d="M 150.5 971 C 146.302353 971 144.204056 971.000488 142.580078 970.232422 C 140.906937 969.441101 139.558914 968.093018 138.767578 966.419922 C 137.999496 964.795898 138 962.697632 138 958.5 C 138 954.302368 137.999496 952.204102 138.767578 950.580078 C 139.558914 948.906982 140.906937 947.558899 142.580078 946.767578 C 144.204056 945.999512 146.302353 946 150.5 946 C 154.697632 946 156.795944 945.999512 158.419922 946.767578 C 160.093063 947.558899 161.441086 948.906982 162.232422 950.580078 C 163.000504 952.204102 163 954.302368 163 958.5 C 163 962.697632 163.000504 964.795898 162.232422 966.419922 C 161.441086 968.093018 160.093063 969.441101 158.419922 970.232422 C 156.795944 971.000488 154.697632 971 150.5 971 Z M 146 967 C 148.209137 967 150 965.209106 150 963 C 150 960.790894 148.209137 959 146 959 C 143.790863 959 142 960.790894 142 963 C 142 965.209106 143.790863 967 146 967 Z M 155 967 C 157.209137 967 159 965.209106 159 963 C 159 960.790894 157.209137 959 155 959 C 152.790863 959 151 960.790894 151 963 C 151 965.209106 152.790863 967 155 967 Z M 146 965 C 144.895432 965 144 964.104553 144 963 C 144 961.895447 144.895432 961 146 961 C 147.104568 961 148 961.895447 148 963 C 148 964.104553 147.104568 965 146 965 Z M 155 965 C 153.895432 965 153 964.104553 153 963 C 153 961.895447 153.895432 961 155 961 C 156.104568 961 157 961.895447 157 963 C 157 964.104553 156.104568 965 155 965 Z M 146 958 C 148.209137 958 150 956.209106 150 954 C 150 951.790894 148.209137 950 146 950 C 143.790863 950 142 951.790894 142 954 C 142 956.209106 143.790863 958 146 958 Z M 155 958 C 157.209137 958 159 956.209106 159 954 C 159 951.790894 157.209137 950 155 950 C 152.790863 950 151 951.790894 151 954 C 151 956.209106 152.790863 958 155 958 Z"/>
        </g>
        <g id="Group-copy-5">
            <path id="path30" fill="#000000" fill-rule="evenodd" stroke="none" d="M 149.5 397 C 145.302353 397 143.204056 397.000488 141.580078 396.232422 C 139.906937 395.44104 138.558914 394.093079 137.767578 392.419922 C 136.999496 390.795959 137 388.697632 137 384.5 C 137 380.302368 136.999496 378.204041 137.767578 376.580078 C 138.558914 374.906921 139.906937 373.55896 141.580078 372.767578 C 143.204056 371.999512 145.302353 372 149.5 372 C 153.697632 372 155.795944 371.999512 157.419922 372.767578 C 159.093063 373.55896 160.441086 374.906921 161.232422 376.580078 C 162.000504 378.204041 162 380.302368 162 384.5 C 162 388.697632 162.000504 390.795959 161.232422 392.419922 C 160.441086 394.093079 159.093063 395.44104 157.419922 396.232422 C 155.795944 397.000488 153.697632 397 149.5 397 Z M 145 393 C 147.209137 393 149 391.209106 149 389 C 149 386.790894 147.209137 385 145 385 C 142.790863 385 141 386.790894 141 389 C 141 391.209106 142.790863 393 145 393 Z M 154 393 C 156.209137 393 158 391.209106 158 389 C 158 386.790894 156.209137 385 154 385 C 151.790863 385 150 386.790894 150 389 C 150 391.209106 151.790863 393 154 393 Z M 145 391 C 143.895432 391 143 390.104553 143 389 C 143 387.895447 143.895432 387 145 387 C 146.104568 387 147 387.895447 147 389 C 147 390.104553 146.104568 391 145 391 Z M 154 391 C 152.895432 391 152 390.104553 152 389 C 152 387.895447 152.895432 387 154 387 C 155.104568 387 156 387.895447 156 389 C 156 390.104553 155.104568 391 154 391 Z M 145 384 C 147.209137 384 149 382.209167 149 380 C 149 377.790833 147.209137 376 145 376 C 142.790863 376 141 377.790833 141 380 C 141 382.209167 142.790863 384 145 384 Z M 154 384 C 156.209137 384 158 382.209167 158 380 C 158 377.790833 156.209137 376 154 376 C 151.790863 376 150 377.790833 150 380 C 150 382.209167 151.790863 384 154 384 Z"/>
        </g>
        <g id="g5">
            <path id="path31" fill="#000000" fill-rule="evenodd" stroke="none" d="M 150.5 1078 C 146.302353 1078 144.204056 1078.000488 142.580078 1077.232422 C 140.906937 1076.44104 139.558914 1075.093018 138.767578 1073.419922 C 137.999496 1071.795898 138 1069.697632 138 1065.5 C 138 1061.302368 137.999496 1059.204102 138.767578 1057.580078 C 139.558914 1055.906982 140.906937 1054.55896 142.580078 1053.767578 C 144.204056 1052.999512 146.302353 1053 150.5 1053 C 154.697632 1053 156.795944 1052.999512 158.419922 1053.767578 C 160.093063 1054.55896 161.441086 1055.906982 162.232422 1057.580078 C 163.000504 1059.204102 163 1061.302368 163 1065.5 C 163 1069.697632 163.000504 1071.795898 162.232422 1073.419922 C 161.441086 1075.093018 160.093063 1076.44104 158.419922 1077.232422 C 156.795944 1078.000488 154.697632 1078 150.5 1078 Z M 146 1074 C 148.209137 1074 150 1072.209106 150 1070 C 150 1067.790894 148.209137 1066 146 1066 C 143.790863 1066 142 1067.790894 142 1070 C 142 1072.209106 143.790863 1074 146 1074 Z M 155 1074 C 157.209137 1074 159 1072.209106 159 1070 C 159 1067.790894 157.209137 1066 155 1066 C 152.790863 1066 151 1067.790894 151 1070 C 151 1072.209106 152.790863 1074 155 1074 Z M 155 1072 C 153.895432 1072 153 1071.104614 153 1070 C 153 1068.895386 153.895432 1068 155 1068 C 156.104568 1068 157 1068.895386 157 1070 C 157 1071.104614 156.104568 1072 155 1072 Z M 146 1065 C 148.209137 1065 150 1063.209106 150 1061 C 150 1058.790894 148.209137 1057 146 1057 C 143.790863 1057 142 1058.790894 142 1061 C 142 1063.209106 143.790863 1065 146 1065 Z M 155 1065 C 157.209137 1065 159 1063.209106 159 1061 C 159 1058.790894 157.209137 1057 155 1057 C 152.790863 1057 151 1058.790894 151 1061 C 151 1063.209106 152.790863 1065 155 1065 Z"/>
        </g>
        <g id="Group-copy-6">
            <path id="path32" fill="#000000" fill-rule="evenodd" stroke="none" d="M 149.5 544 C 145.302353 544 143.204056 544.000488 141.580078 543.232422 C 139.906937 542.44104 138.558914 541.093079 137.767578 539.419922 C 136.999496 537.795959 137 535.697632 137 531.5 C 137 527.302368 136.999496 525.204041 137.767578 523.580078 C 138.558914 521.906921 139.906937 520.55896 141.580078 519.767578 C 143.204056 518.999512 145.302353 519 149.5 519 C 153.697632 519 155.795944 518.999512 157.419922 519.767578 C 159.093063 520.55896 160.441086 521.906921 161.232422 523.580078 C 162.000504 525.204041 162 527.302368 162 531.5 C 162 535.697632 162.000504 537.795959 161.232422 539.419922 C 160.441086 541.093079 159.093063 542.44104 157.419922 543.232422 C 155.795944 544.000488 153.697632 544 149.5 544 Z M 145 540 C 147.209137 540 149 538.209167 149 536 C 149 533.790833 147.209137 532 145 532 C 142.790863 532 141 533.790833 141 536 C 141 538.209167 142.790863 540 145 540 Z M 154 540 C 156.209137 540 158 538.209106 158 536 C 158 533.790894 156.209137 532 154 532 C 151.790863 532 150 533.790894 150 536 C 150 538.209106 151.790863 540 154 540 Z M 154 538 C 152.895432 538 152 537.104553 152 536 C 152 534.895447 152.895432 534 154 534 C 155.104568 534 156 534.895447 156 536 C 156 537.104553 155.104568 538 154 538 Z M 145 531 C 147.209137 531 149 529.209167 149 527 C 149 524.790833 147.209137 523 145 523 C 142.790863 523 141 524.790833 141 527 C 141 529.209167 142.790863 531 145 531 Z M 154 531 C 156.209137 531 158 529.209167 158 527 C 158 524.790833 156.209137 523 154 523 C 151.790863 523 150 524.790833 150 527 C 150 529.209167 151.790863 531 154 531 Z"/>
        </g>
        <g id="arrow-copy">
            <path id="path33" fill="#000000" stroke="none" d="M 195.361069 127.66626 C 194.56279 128.122559 194.073318 128.437012 193.89267 128.609619 C 192.830963 129.623901 191.238419 131.145508 189.115021 133.174194 L 190.496628 134.620239 L 198.838837 126.650024 L 189.984146 119.276367 L 188.749832 120.787476 C 190.966415 122.620483 192.67247 124.013672 193.867981 124.967041 C 194.113754 125.199463 194.634003 125.526367 195.428741 125.947754 C 194.902939 125.936523 194.024796 125.82312 193.50856 125.824341 C 183.829941 125.848877 175.85968 128.096069 170.552811 133.16626 L 169.829758 133.857056 L 171.211365 135.303101 L 171.934402 134.612305 C 176.793076 129.970337 184.276077 127.857666 193.463974 127.824829 C 193.874481 127.823364 194.943832 127.659546 195.361069 127.66626 Z"/>
        </g>
    </g>
    <g id="registration">
        <path id="path34" fill="#000000" fill-rule="evenodd" stroke="none" d="M 46 29.5 C 46 36.403564 51.596439 42 58.5 42 L 90.5 42 C 97.403564 42 103 36.403564 103 29.5 C 103 22.596436 97.403564 17 90.5 17 L 58.5 17 C 51.596439 17 46 22.596436 46 29.5 Z"/>
        <path id="Rounded-Rectangle-copy" fill="#000000" fill-rule="evenodd" stroke="none" d="M 46 1226 C 46 1232.903564 51.596439 1238.5 58.5 1238.5 L 90.5 1238.5 C 97.403564 1238.5 103 1232.903564 103 1226 C 103 1219.096436 97.403564 1213.5 90.5 1213.5 L 58.5 1213.5 C 51.596439 1213.5 46 1219.096436 46 1226 Z"/>
    </g>
</svg>
