<?xml version="1.0" encoding="UTF-8"?>
<svg width="59px" height="76px" viewBox="0 0 59 76" version="1.1" xmlns="http://www.w3.org/2000/svg" xmlns:xlink="http://www.w3.org/1999/xlink">
    <!-- Generator: Sketch 52.6 (67491) - http://www.bohemiancoding.com/sketch -->
    <title>Icon outlines</title>
    <desc>Created with Sketch.</desc>
    <g id="Icon-outlines" stroke="none" stroke-width="1" fill="none" fill-rule="evenodd">
        <path d="M55.0753829,37.9935517 C53.6595459,22.1799828 51.8563859,14.3225831 46.6361277,7.92300009 C40.6302172,0.561211163 28.0522931,-0.677183624 20.1915787,5.2656468 C15.9220463,8.49108093 13.9086078,13.2702382 12.3901644,21.6203741 C12.031116,23.5931751 11.7609794,25.6262981 11.4622706,28.4148196 C11.3971294,29.0229291 11.3475221,29.501249 11.2335045,30.612553 C11.1801215,31.1305665 11.1412042,31.4302281 11.1009482,31.6131563 C11.0784352,31.7196647 11.0784352,31.7196647 10.9853976,31.9637519 C10.9014489,32.1644702 10.9014489,32.1644702 10.4433666,32.5960991 C9.26374151,32.9312342 9.26374151,32.9312342 8.47830256,32.3230343 C8.45245882,32.2770142 8.42852364,32.2343927 8.40635558,32.1948638 C8.25224344,32.0867084 8.00303654,31.9378417 7.65607615,31.7782294 C6.62247769,31.3027427 5.30415243,31.0353328 3.66886758,31.1034862 C1.05838672,31.2122826 0.743837146,32.5509295 3.03069242,33.789774 C7.51591173,36.2186566 10.1655623,40.6142646 10.1277572,44.3813574 C9.68815052,50.6719203 9.25871895,57.344683 8.96329884,62.4728059 C8.81239661,65.0922793 8.70104135,67.22903 8.63790841,68.7292908 C8.6126145,69.3303633 8.5952315,69.8253923 8.58604244,70.2064558 C9.22963046,70.1498532 10.4350857,69.6226299 11.5224721,68.7859051 C15.0408431,66.0730117 17.4677383,64.9845272 20.559775,65.8983638 C21.8742145,66.2870678 22.6632941,66.9198515 24.0851484,68.4043035 C24.1343804,68.4557123 24.1343804,68.4557123 24.1830892,68.5065623 C25.5097489,69.8911181 26.0879228,70.2598884 27.0076895,70.1945172 C27.7523232,70.141906 28.3590653,69.9542122 29.3814515,69.5106503 C29.375262,69.5133356 29.835862,69.3121808 29.9695831,69.2549823 C30.2070924,69.1533888 30.4070049,69.0721053 30.6041996,68.9984886 C32.5759364,68.262401 34.2801484,68.4176123 36.3064409,69.8206507 C36.8111788,70.1702174 37.2928539,70.5469786 37.8832657,71.041498 C38.0840176,71.2096447 38.7353184,71.7640847 38.7744003,71.7971222 C39.1032301,72.075095 39.3493396,72.2766144 39.5833927,72.4572169 C41.2205821,73.7205214 42.1948179,73.8676227 43.9045787,72.8061927 C44.4022944,72.4973827 44.860482,72.1268246 45.5385837,71.5085261 C45.5450609,71.5026201 46.1503447,70.9462275 46.3290736,70.7857576 C48.3875335,68.93759 50.0404028,68.2487911 52.4687582,68.8474677 C52.8261468,68.9356545 53.1671352,69.1000908 53.663232,69.3841541 C53.8915425,69.5148839 54.7349544,70.0214195 54.8038989,70.0621031 C55.0355683,70.1988096 55.2336582,70.3119483 55.4191944,70.4126678 C55.7823721,70.6098211 56.0857731,70.7514635 56.3208293,70.8356899 C57.1191556,68.2750034 56.6622185,55.7238223 55.0753829,37.9935517 Z M8.26045564,30.7088848 C8.3026604,30.6066641 8.32220659,30.5593229 8.4014152,30.4712809 C9.21434398,30.8630129 9.60240666,31.2377872 9.60240666,31.2377872 C9.60240666,31.2377872 9.60640666,31.7687872 9.74140666,30.4587872 C9.76161997,30.2617722 9.78183748,30.0646984 9.80212281,29.8675817 C10.1079448,29.8663304 10.2987894,30.0140512 10.749239,30.3627161 C11.0922979,30.9729366 11.0922979,30.9729366 11.0885266,31.0835196 C11.0991736,31.1616753 11.0991736,31.1616753 11.100915,31.1883388 C11.1018986,31.2064956 11.102195,31.2119669 11.1022984,31.2177631 L11.0976183,30.5964819 L10.6444324,30.1588143 C10.4558472,29.9766868 10.1869005,29.7657468 9.83519535,29.5468538 C10.1183029,26.8077141 10.4211629,24.0619275 10.9144067,21.3517872 C12.0804067,14.9397872 13.8324067,8.18978719 19.2874067,4.06878719 C27.7224067,-2.30821281 41.2294067,-1.07721281 47.7984067,6.97478719 C54.4514067,15.1307872 55.6644067,27.7517872 56.5694067,37.8597872 C58.1154067,55.1337872 58.8894067,70.0907872 57.3434067,72.1147872 C56.4164067,73.3317872 53.1104067,70.5507872 52.1094067,70.3037872 C48.6454067,69.4497872 47.3354067,72.4427872 44.6954067,74.0807872 C40.5524067,76.6527872 38.6694067,73.2817872 35.4524067,71.0537872 C31.9184067,68.6067872 30.5244067,71.4497872 27.1134067,71.6907872 C23.8914067,71.9197872 22.8904067,68.1517872 20.1344067,67.3367872 C17.1264067,66.4477872 14.3254067,68.5187872 12.4384067,69.9737872 C11.2194067,70.9117872 8.44840666,72.5377872 7.10640666,71.1767872 C6.91340666,70.9817872 7.74940666,56.8977872 8.63140666,44.2767872 C8.65440666,41.8057872 6.90340666,37.5927872 2.31640666,35.1087872 C-1.31459334,33.1417872 -0.520593345,29.7767872 3.60640666,29.6047872 C5.73233188,29.5161855 7.25908585,29.9521904 8.23984144,30.3958357 C8.20565379,30.7198766 8.18050853,30.9156571 8.17237025,30.9615815 C8.17945953,30.9215674 8.18469754,30.9078132 8.26045564,30.7088848 Z" id="Path" fill="#000000" fill-rule="nonzero" transform="translate(29.092891, 37.503266) scale(-1, 1) translate(-29.092891, -37.503266) "></path>
        <path d="M42.0353752,23.2457872 C42.0353752,19.2227872 40.3543752,17.7967872 38.9153752,17.7967872 C37.4763752,17.7967872 35.7943752,19.2227872 35.7943752,23.2457872 C35.7943752,23.5757872 36.0633752,23.8457872 36.3943752,23.8457872 C36.7253752,23.8457872 36.9943752,23.5757872 36.9943752,23.2457872 C36.9943752,20.3097872 37.9583752,18.9957872 38.9143752,18.9957872 C39.8703752,18.9957872 40.8343752,20.3097872 40.8343752,23.2457872 C40.8343752,23.5757872 41.1033752,23.8457872 41.4343752,23.8457872 C41.7653752,23.8457872 42.0353752,23.5757872 42.0353752,23.2457872 Z" id="Path" stroke="#000000" fill="#000000" fill-rule="nonzero" transform="translate(38.914875, 20.821287) scale(-1, 1) translate(-38.914875, -20.821287) "></path>
        <path d="M21.3203364,23.8997872 C21.5333364,20.9837872 22.6653364,19.7257872 23.6133364,19.8017872 C24.7173364,19.8837872 25.3353364,21.6417872 25.1503364,24.1767872 C25.1263364,24.5087872 25.3753364,24.7957872 25.7053364,24.8197872 C25.7203364,24.8217872 25.7353364,24.8217872 25.7493364,24.8217872 C26.0613364,24.8217872 26.3243364,24.5817872 26.3473364,24.2647872 C26.6403364,20.2567872 25.1723364,18.7117872 23.7013364,18.6047872 C22.2273364,18.4997872 20.4173364,19.7977872 20.1223364,23.8117872 C20.0983364,24.1417872 20.3463364,24.4287872 20.6773364,24.4547872 C21.0143364,24.4817872 21.2953364,24.2297872 21.3203364,23.8997872 Z" id="Path" stroke="#000000" fill="#000000" fill-rule="nonzero" transform="translate(23.252856, 21.710374) scale(-1, 1) translate(-23.252856, -21.710374) "></path>
        <path d="M24.1150279,34.4637872 C24.1150279,34.4637872 23.8830279,34.1527872 23.3770279,33.6907872 C23.1300279,33.4547872 22.8140279,33.1847872 22.4190279,32.9117872 C22.0460279,32.6067872 21.5620279,32.3607872 21.0470279,32.0597872 C20.5090279,31.8197872 19.9210279,31.5247872 19.2550279,31.3507872 C18.9190279,31.2687872 18.5740279,31.1847872 18.2210279,31.0967872 C17.8690279,30.9917872 17.4900279,31.0267872 17.1130279,30.9857872 C16.7270279,30.9797872 16.3620279,30.9037872 15.9400279,30.9567872 C15.7510279,30.9747872 15.5780279,30.9767872 15.3730279,31.0097872 L14.7360279,31.1447872 C13.9340279,31.3787872 13.0700279,31.7877872 12.5230279,32.6077872 C11.9720279,33.4167872 11.9270279,34.5467872 12.3310279,35.3557872 C12.7020279,36.1877872 13.3380279,36.7777872 13.9710279,37.2267872 C14.2760279,37.4297872 14.6740279,37.6567872 14.8990279,37.7927872 C15.1970279,37.9707872 15.4880279,38.1467872 15.7720279,38.3157872 C16.3720279,38.6337872 16.7900279,39.0307872 17.2400279,39.3627872 C17.6970279,39.6807872 18.0420279,40.0717872 18.3760279,40.3897872 C18.5430279,40.5517872 18.6980279,40.7017872 18.8420279,40.8427872 C18.9750279,40.9907872 19.0860279,41.1397872 19.1930279,41.2687872 C19.6260279,41.7867872 19.8730279,42.0827872 19.8730279,42.0827872 C19.8730279,42.0827872 19.6970279,41.7367872 19.3900279,41.1317872 C19.3080279,40.9837872 19.2250279,40.8117872 19.1200279,40.6337872 C18.9990279,40.4657872 18.8690279,40.2857872 18.7290279,40.0927872 C18.4420279,39.7097872 18.1500279,39.2487872 17.6990279,38.8467872 C17.2730279,38.4307872 16.8190279,37.9167872 16.2690279,37.5697872 C16.0020279,37.3747872 15.7280279,37.1737872 15.4480279,36.9677872 C15.1710279,36.7747872 14.8870279,36.5767872 14.5990279,36.3737872 C14.0770279,35.9737872 13.6430279,35.4537872 13.3980279,34.8967872 C13.1400279,34.3357872 13.2090279,33.7427872 13.5220279,33.2737872 C13.8190279,32.7817872 14.4270279,32.4497872 15.0540279,32.2557872 L15.5190279,32.1427872 C15.6810279,32.1037872 15.8830279,32.0897872 16.0610279,32.0627872 C16.3750279,32.0007872 16.7460279,32.0507872 17.0790279,32.0377872 C17.7650279,32.0007872 18.4170279,32.1177872 19.0430279,32.2177872 C19.3620279,32.2427872 19.6480279,32.3657872 19.9390279,32.4387872 C20.2250279,32.5267872 20.5140279,32.5847872 20.7730279,32.6887872 C21.2830279,32.9157872 21.7840279,33.0717872 22.1830279,33.3017872 C22.5970279,33.5067872 22.9540279,33.6977872 23.2340279,33.8797872 C23.8080279,34.2217872 24.1150279,34.4637872 24.1150279,34.4637872 Z" id="Path" stroke="#000000" fill="#000000" fill-rule="nonzero" transform="translate(18.089202, 36.510447) scale(-1, 1) translate(-18.089202, -36.510447) "></path>
    </g>
</svg>