<?xml version="1.0" encoding="UTF-8"?>
<svg width="344px" height="76px" viewBox="0 0 344 76" version="1.1" xmlns="http://www.w3.org/2000/svg" xmlns:xlink="http://www.w3.org/1999/xlink">
    <!-- Generator: Sketch 52.4 (67378) - http://www.bohemiancoding.com/sketch -->
    <title>Logo inverse</title>
    <desc>Created with Sketch.</desc>
    <g id="Logo-inverse" stroke="none" stroke-width="1" fill="none" fill-rule="evenodd">
        <g id="Icon-inverse" fill="#FFFFFF" fill-rule="nonzero">
            <path d="M57.3434067,72.1147872 C56.4164067,73.3317872 53.1104067,70.5507872 52.1094067,70.3037872 C48.6454067,69.4497872 47.3354067,72.4427872 44.6954067,74.0807872 C40.5524067,76.6527872 38.6694067,73.2817872 35.4524067,71.0537872 C31.9184067,68.6067872 30.5244067,71.4497872 27.1134067,71.6907872 C23.8914067,71.9197872 22.8904067,68.1517872 20.1344067,67.3367872 C17.1264067,66.4477872 14.3254067,68.5187872 12.4384067,69.9737872 C11.2194067,70.9117872 8.44840666,72.5377872 7.10640666,71.1767872 C6.91340666,70.9817872 7.74940666,56.8977872 8.63140666,44.2767872 C8.65440666,41.8057872 6.90340666,37.5927872 2.31640666,35.1087872 C-1.31459334,33.1417872 -0.520593345,29.7767872 3.60640666,29.6047872 C7.73340666,29.4327872 9.60240666,31.2377872 9.60240666,31.2377872 C9.60240666,31.2377872 9.60640666,31.7687872 9.74140666,30.4587872 C10.0534067,27.4177872 10.3664067,24.3627872 10.9144067,21.3517872 C12.0804067,14.9397872 13.8324067,8.18978719 19.2874067,4.06878719 C27.7224067,-2.30821281 41.2294067,-1.07721281 47.7984067,6.97478719 C54.4514067,15.1307872 55.6644067,27.7517872 56.5694067,37.8597872 C58.1154067,55.1337872 58.8894067,70.0907872 57.3434067,72.1147872 Z M22.3914067,23.2457872 C22.3914067,19.2227872 20.7104067,17.7967872 19.2714067,17.7967872 C17.8324067,17.7967872 16.1504067,19.2227872 16.1504067,23.2457872 C16.1504067,23.5757872 16.4194067,23.8457872 16.7504067,23.8457872 C17.0814067,23.8457872 17.3504067,23.5757872 17.3504067,23.2457872 C17.3504067,20.3097872 18.3144067,18.9957872 19.2704067,18.9957872 C20.2264067,18.9957872 21.1904067,20.3097872 21.1904067,23.2457872 C21.1904067,23.5757872 21.4594067,23.8457872 21.7904067,23.8457872 C22.1214067,23.8457872 22.3914067,23.5757872 22.3914067,23.2457872 Z M33.0004067,23.8997872 C33.2134067,20.9837872 34.3454067,19.7257872 35.2934067,19.8017872 C36.3974067,19.8837872 37.0154067,21.6417872 36.8304067,24.1767872 C36.8064067,24.5087872 37.0554067,24.7957872 37.3854067,24.8197872 C37.4004067,24.8217872 37.4154067,24.8217872 37.4294067,24.8217872 C37.7414067,24.8217872 38.0044067,24.5817872 38.0274067,24.2647872 C38.3204067,20.2567872 36.8524067,18.7117872 35.3814067,18.6047872 C33.9074067,18.4997872 32.0974067,19.7977872 31.8024067,23.8117872 C31.7784067,24.1417872 32.0264067,24.4287872 32.3574067,24.4547872 C32.6944067,24.4817872 32.9754067,24.2297872 33.0004067,23.8997872 Z M46.1224067,34.4637872 C46.1224067,34.4637872 45.8904067,34.1527872 45.3844067,33.6907872 C45.1374067,33.4547872 44.8214067,33.1847872 44.4264067,32.9117872 C44.0534067,32.6067872 43.5694067,32.3607872 43.0544067,32.0597872 C42.5164067,31.8197872 41.9284067,31.5247872 41.2624067,31.3507872 C40.9264067,31.2687872 40.5814067,31.1847872 40.2284067,31.0967872 C39.8764067,30.9917872 39.4974067,31.0267872 39.1204067,30.9857872 C38.7344067,30.9797872 38.3694067,30.9037872 37.9474067,30.9567872 C37.7584067,30.9747872 37.5854067,30.9767872 37.3804067,31.0097872 L36.7434067,31.1447872 C35.9414067,31.3787872 35.0774067,31.7877872 34.5304067,32.6077872 C33.9794067,33.4167872 33.9344067,34.5467872 34.3384067,35.3557872 C34.7094067,36.1877872 35.3454067,36.7777872 35.9784067,37.2267872 C36.2834067,37.4297872 36.6814067,37.6567872 36.9064067,37.7927872 C37.2044067,37.9707872 37.4954067,38.1467872 37.7794067,38.3157872 C38.3794067,38.6337872 38.7974067,39.0307872 39.2474067,39.3627872 C39.7044067,39.6807872 40.0494067,40.0717872 40.3834067,40.3897872 C40.5504067,40.5517872 40.7054067,40.7017872 40.8494067,40.8427872 C40.9824067,40.9907872 41.0934067,41.1397872 41.2004067,41.2687872 C41.6334067,41.7867872 41.8804067,42.0827872 41.8804067,42.0827872 C41.8804067,42.0827872 41.7044067,41.7367872 41.3974067,41.1317872 C41.3154067,40.9837872 41.2324067,40.8117872 41.1274067,40.6337872 C41.0064067,40.4657872 40.8764067,40.2857872 40.7364067,40.0927872 C40.4494067,39.7097872 40.1574067,39.2487872 39.7064067,38.8467872 C39.2804067,38.4307872 38.8264067,37.9167872 38.2764067,37.5697872 C38.0094067,37.3747872 37.7354067,37.1737872 37.4554067,36.9677872 C37.1784067,36.7747872 36.8944067,36.5767872 36.6064067,36.3737872 C36.0844067,35.9737872 35.6504067,35.4537872 35.4054067,34.8967872 C35.1474067,34.3357872 35.2164067,33.7427872 35.5294067,33.2737872 C35.8264067,32.7817872 36.4344067,32.4497872 37.0614067,32.2557872 L37.5264067,32.1427872 C37.6884067,32.1037872 37.8904067,32.0897872 38.0684067,32.0627872 C38.3824067,32.0007872 38.7534067,32.0507872 39.0864067,32.0377872 C39.7724067,32.0007872 40.4244067,32.1177872 41.0504067,32.2177872 C41.3694067,32.2427872 41.6554067,32.3657872 41.9464067,32.4387872 C42.2324067,32.5267872 42.5214067,32.5847872 42.7804067,32.6887872 C43.2904067,32.9157872 43.7914067,33.0717872 44.1904067,33.3017872 C44.6044067,33.5067872 44.9614067,33.6977872 45.2414067,33.8797872 C45.8154067,34.2217872 46.1224067,34.4637872 46.1224067,34.4637872 Z" id="Shape" transform="translate(29.092891, 37.503266) scale(-1, 1) translate(-29.092891, -37.503266) "></path>
        </g>
        <text id="pale-slim-ghost-synt" font-family="NeueMachina-Regular, Neue Machina" font-size="34" font-weight="normal" line-spacing="34" fill="#FFFFFF">
            <tspan x="70" y="36">pale slim ghost</tspan>
            <tspan x="70" y="70">synthesisers</tspan>
        </text>
    </g>
</svg>