<?xml version="1.0" encoding="UTF-8"?>
<svg width="919px" height="140px" viewBox="0 0 919 140" version="1.1" xmlns="http://www.w3.org/2000/svg" xmlns:xlink="http://www.w3.org/1999/xlink">
    <title>black keys</title>
    <g id="Page-1" stroke="none" stroke-width="1" fill="none" fill-rule="evenodd">
        <g id="Group-2" transform="translate(0.236206, 0.227417)">
            <path d="M911.795288,1.5 C913.037929,1.5 914.162929,2.00367966 914.977269,2.81801948 C915.791608,3.63235931 916.295288,4.75735931 916.295288,6 L916.295288,6 L916.295288,133.181152 C916.295288,134.423793 915.791608,135.548793 914.977269,136.363133 C914.162929,137.177472 913.037929,137.681152 911.795288,137.681152 L911.795288,137.681152 L898,137.681152 C896.757359,137.681152 895.632359,137.177472 894.818019,136.363133 C894.00368,135.548793 893.5,134.423793 893.5,133.181152 L893.5,133.181152 L893.5,6 C893.5,4.75735931 894.00368,3.63235931 894.818019,2.81801948 C895.632359,2.00367966 896.757359,1.5 898,1.5 L898,1.5 Z" id="Path-copy-7" stroke="#000000" stroke-width="3"></path>
            <path d="M835.795288,1.5 C837.037929,1.5 838.162929,2.00367966 838.977269,2.81801948 C839.791608,3.63235931 840.295288,4.75735931 840.295288,6 L840.295288,6 L840.295288,133.181152 C840.295288,134.423793 839.791608,135.548793 838.977269,136.363133 C838.162929,137.177472 837.037929,137.681152 835.795288,137.681152 L835.795288,137.681152 L822,137.681152 C820.757359,137.681152 819.632359,137.177472 818.818019,136.363133 C818.00368,135.548793 817.5,134.423793 817.5,133.181152 L817.5,133.181152 L817.5,6 C817.5,4.75735931 818.00368,3.63235931 818.818019,2.81801948 C819.632359,2.00367966 820.757359,1.5 822,1.5 L822,1.5 Z" id="Path-copy-8" stroke="#000000" stroke-width="3"></path>
            <path d="M690.795288,1.5 C692.037929,1.5 693.162929,2.00367966 693.977269,2.81801948 C694.791608,3.63235931 695.295288,4.75735931 695.295288,6 L695.295288,6 L695.295288,133.181152 C695.295288,134.423793 694.791608,135.548793 693.977269,136.363133 C693.162929,137.177472 692.037929,137.681152 690.795288,137.681152 L690.795288,137.681152 L677,137.681152 C675.757359,137.681152 674.632359,137.177472 673.818019,136.363133 C673.00368,135.548793 672.5,134.423793 672.5,133.181152 L672.5,133.181152 L672.5,6 C672.5,4.75735931 673.00368,3.63235931 673.818019,2.81801948 C674.632359,2.00367966 675.757359,1.5 677,1.5 L677,1.5 Z" id="Path-copy-10" stroke="#000000" stroke-width="3"></path>
            <path d="M614.795288,1.5 C616.037929,1.5 617.162929,2.00367966 617.977269,2.81801948 C618.791608,3.63235931 619.295288,4.75735931 619.295288,6 L619.295288,6 L619.295288,133.181152 C619.295288,134.423793 618.791608,135.548793 617.977269,136.363133 C617.162929,137.177472 616.037929,137.681152 614.795288,137.681152 L614.795288,137.681152 L601,137.681152 C599.757359,137.681152 598.632359,137.177472 597.818019,136.363133 C597.00368,135.548793 596.5,134.423793 596.5,133.181152 L596.5,133.181152 L596.5,6 C596.5,4.75735931 597.00368,3.63235931 597.818019,2.81801948 C598.632359,2.00367966 599.757359,1.5 601,1.5 L601,1.5 Z" id="Path-copy-9" stroke="#000000" stroke-width="3"></path>
            <path d="M538.795288,1.5 C540.037929,1.5 541.162929,2.00367966 541.977269,2.81801948 C542.791608,3.63235931 543.295288,4.75735931 543.295288,6 L543.295288,6 L543.295288,133.181152 C543.295288,134.423793 542.791608,135.548793 541.977269,136.363133 C541.162929,137.177472 540.037929,137.681152 538.795288,137.681152 L538.795288,137.681152 L525,137.681152 C523.757359,137.681152 522.632359,137.177472 521.818019,136.363133 C521.00368,135.548793 520.5,134.423793 520.5,133.181152 L520.5,133.181152 L520.5,6 C520.5,4.75735931 521.00368,3.63235931 521.818019,2.81801948 C522.632359,2.00367966 523.757359,1.5 525,1.5 L525,1.5 Z" id="Path-copy-11" stroke="#000000" stroke-width="3"></path>
            <path d="M392.795288,1.5 C394.037929,1.5 395.162929,2.00367966 395.977269,2.81801948 C396.791608,3.63235931 397.295288,4.75735931 397.295288,6 L397.295288,6 L397.295288,133.181152 C397.295288,134.423793 396.791608,135.548793 395.977269,136.363133 C395.162929,137.177472 394.037929,137.681152 392.795288,137.681152 L392.795288,137.681152 L379,137.681152 C377.757359,137.681152 376.632359,137.177472 375.818019,136.363133 C375.00368,135.548793 374.5,134.423793 374.5,133.181152 L374.5,133.181152 L374.5,6 C374.5,4.75735931 375.00368,3.63235931 375.818019,2.81801948 C376.632359,2.00367966 377.757359,1.5 379,1.5 L379,1.5 Z" id="Path-copy-16" stroke="#000000" stroke-width="3"></path>
            <path d="M316.795288,1.5 C318.037929,1.5 319.162929,2.00367966 319.977269,2.81801948 C320.791608,3.63235931 321.295288,4.75735931 321.295288,6 L321.295288,6 L321.295288,133.181152 C321.295288,134.423793 320.791608,135.548793 319.977269,136.363133 C319.162929,137.177472 318.037929,137.681152 316.795288,137.681152 L316.795288,137.681152 L303,137.681152 C301.757359,137.681152 300.632359,137.177472 299.818019,136.363133 C299.00368,135.548793 298.5,134.423793 298.5,133.181152 L298.5,133.181152 L298.5,6 C298.5,4.75735931 299.00368,3.63235931 299.818019,2.81801948 C300.632359,2.00367966 301.757359,1.5 303,1.5 L303,1.5 Z" id="Path-copy-15" stroke="#000000" stroke-width="3"></path>
            <path d="M171.795288,1.5 C173.037929,1.5 174.162929,2.00367966 174.977269,2.81801948 C175.791608,3.63235931 176.295288,4.75735931 176.295288,6 L176.295288,6 L176.295288,133.181152 C176.295288,134.423793 175.791608,135.548793 174.977269,136.363133 C174.162929,137.177472 173.037929,137.681152 171.795288,137.681152 L171.795288,137.681152 L158,137.681152 C156.757359,137.681152 155.632359,137.177472 154.818019,136.363133 C154.00368,135.548793 153.5,134.423793 153.5,133.181152 L153.5,133.181152 L153.5,6 C153.5,4.75735931 154.00368,3.63235931 154.818019,2.81801948 C155.632359,2.00367966 156.757359,1.5 158,1.5 L158,1.5 Z" id="Path-copy-14" stroke="#000000" stroke-width="3"></path>
            <path d="M95.795288,1.5 C97.0379287,1.5 98.1629287,2.00367966 98.9772685,2.81801948 C99.7916083,3.63235931 100.295288,4.75735931 100.295288,6 L100.295288,6 L100.295288,133.181152 C100.295288,134.423793 99.7916083,135.548793 98.9772685,136.363133 C98.1629287,137.177472 97.0379287,137.681152 95.795288,137.681152 L95.795288,137.681152 L82,137.681152 C80.7573593,137.681152 79.6323593,137.177472 78.8180195,136.363133 C78.0036797,135.548793 77.5,134.423793 77.5,133.181152 L77.5,133.181152 L77.5,6 C77.5,4.75735931 78.0036797,3.63235931 78.8180195,2.81801948 C79.6323593,2.00367966 80.7573593,1.5 82,1.5 L82,1.5 Z" id="Path-copy-13" stroke="#000000" stroke-width="3"></path>
            <path d="M19.795288,1.5 C21.0379287,1.5 22.1629287,2.00367966 22.9772685,2.81801948 C23.7916083,3.63235931 24.295288,4.75735931 24.295288,6 L24.295288,6 L24.295288,133.181152 C24.295288,134.423793 23.7916083,135.548793 22.9772685,136.363133 C22.1629287,137.177472 21.0379287,137.681152 19.795288,137.681152 L19.795288,137.681152 L6,137.681152 C4.75735931,137.681152 3.63235931,137.177472 2.81801948,136.363133 C2.00367966,135.548793 1.5,134.423793 1.5,133.181152 L1.5,133.181152 L1.5,6 C1.5,4.75735931 2.00367966,3.63235931 2.81801948,2.81801948 C3.63235931,2.00367966 4.75735931,1.5 6,1.5 L6,1.5 Z" id="Path-copy-12" stroke="#000000" stroke-width="3"></path>
            <path d="M380.763794,133.772583 L380.763794,137.771583 L384.763794,137.772583 L384.763794,138.953583 L379.063004,138.953735 C377.723787,138.953735 376.487048,138.514976 375.488693,137.773364 L378.763794,137.772583 L378.763794,133.772583 L380.763794,133.772583 Z M396.274221,133.772583 L397.763794,135.262156 L394.252794,138.772583 L394.266693,138.787512 C393.814975,138.896175 393.343356,138.953735 392.858292,138.953735 L391.092794,138.953583 L391.273794,138.772583 L387.763794,135.262156 L389.253367,133.772583 L392.763794,137.282583 L396.274221,133.772583 Z M383.274221,120.772583 L384.763794,122.262156 L381.252794,125.772583 L384.763794,129.28301 L383.274221,130.772583 L379.762794,127.261583 L376.253367,130.772583 L374.763794,129.28301 L378.273794,125.772583 L374.763794,122.262156 L376.253367,120.772583 L379.763794,124.282583 L383.274221,120.772583 Z M393.763794,120.772583 L393.763794,124.771583 L397.763794,124.772583 L397.763794,126.772583 L393.763794,126.772583 L393.763794,130.772583 L391.763794,130.772583 L391.763794,126.772583 L387.763794,126.772583 L387.763794,124.772583 L391.763794,124.772583 L391.763794,120.772583 L393.763794,120.772583 Z M396.274221,107.772583 L397.763794,109.262156 L394.252794,112.772583 L397.763794,116.28301 L396.274221,117.772583 L392.762794,114.261583 L389.253367,117.772583 L387.763794,116.28301 L391.273794,112.772583 L387.763794,109.262156 L389.253367,107.772583 L392.763794,111.282583 L396.274221,107.772583 Z M380.763794,107.772583 L380.763794,111.771583 L384.763794,111.772583 L384.763794,113.772583 L380.763794,113.772583 L380.763794,117.772583 L378.763794,117.772583 L378.763794,113.772583 L374.763794,113.772583 L374.763794,111.772583 L378.763794,111.772583 L378.763794,107.772583 L380.763794,107.772583 Z M383.274221,94.772583 L384.763794,96.262156 L381.252794,99.772583 L384.763794,103.28301 L383.274221,104.772583 L379.762794,101.261583 L376.253367,104.772583 L374.763794,103.28301 L378.273794,99.772583 L374.763794,96.262156 L376.253367,94.772583 L379.763794,98.282583 L383.274221,94.772583 Z M393.763794,94.772583 L393.763794,98.771583 L397.763794,98.772583 L397.763794,100.772583 L393.763794,100.772583 L393.763794,104.772583 L391.763794,104.772583 L391.763794,100.772583 L387.763794,100.772583 L387.763794,98.772583 L391.763794,98.772583 L391.763794,94.772583 L393.763794,94.772583 Z M396.274221,81.772583 L397.763794,83.262156 L394.252794,86.772583 L397.763794,90.28301 L396.274221,91.772583 L392.762794,88.261583 L389.253367,91.772583 L387.763794,90.28301 L391.273794,86.772583 L387.763794,83.262156 L389.253367,81.772583 L392.763794,85.282583 L396.274221,81.772583 Z M380.763794,81.772583 L380.763794,85.771583 L384.763794,85.772583 L384.763794,87.772583 L380.763794,87.772583 L380.763794,91.772583 L378.763794,91.772583 L378.763794,87.772583 L374.763794,87.772583 L374.763794,85.772583 L378.763794,85.772583 L378.763794,81.772583 L380.763794,81.772583 Z M383.274221,68.772583 L384.763794,70.262156 L381.252794,73.772583 L384.763794,77.28301 L383.274221,78.772583 L379.762794,75.261583 L376.253367,78.772583 L374.763794,77.28301 L378.273794,73.772583 L374.763794,70.262156 L376.253367,68.772583 L379.763794,72.282583 L383.274221,68.772583 Z M393.763794,68.772583 L393.763794,72.771583 L397.763794,72.772583 L397.763794,74.772583 L393.763794,74.772583 L393.763794,78.772583 L391.763794,78.772583 L391.763794,74.772583 L387.763794,74.772583 L387.763794,72.772583 L391.763794,72.772583 L391.763794,68.772583 L393.763794,68.772583 Z M396.274221,55.772583 L397.763794,57.262156 L394.252794,60.772583 L397.763794,64.28301 L396.274221,65.772583 L392.762794,62.261583 L389.253367,65.772583 L387.763794,64.28301 L391.273794,60.772583 L387.763794,57.262156 L389.253367,55.772583 L392.763794,59.282583 L396.274221,55.772583 Z M380.763794,55.772583 L380.763794,59.771583 L384.763794,59.772583 L384.763794,61.772583 L380.763794,61.772583 L380.763794,65.772583 L378.763794,65.772583 L378.763794,61.772583 L374.763794,61.772583 L374.763794,59.772583 L378.763794,59.772583 L378.763794,55.772583 L380.763794,55.772583 Z M393.763794,42.772583 L393.763794,46.771583 L397.763794,46.772583 L397.763794,48.772583 L393.763794,48.772583 L393.763794,52.772583 L391.763794,52.772583 L391.763794,48.772583 L387.763794,48.772583 L387.763794,46.772583 L391.763794,46.772583 L391.763794,42.772583 L393.763794,42.772583 Z M383.274221,42.772583 L384.763794,44.262156 L381.252794,47.772583 L384.763794,51.28301 L383.274221,52.772583 L379.762794,49.261583 L376.253367,52.772583 L374.763794,51.28301 L378.273794,47.772583 L374.763794,44.262156 L376.253367,42.772583 L379.763794,46.282583 L383.274221,42.772583 Z M396.274221,29.772583 L397.763794,31.262156 L394.252794,34.772583 L397.763794,38.28301 L396.274221,39.772583 L392.762794,36.261583 L389.253367,39.772583 L387.763794,38.28301 L391.273794,34.772583 L387.763794,31.262156 L389.253367,29.772583 L392.763794,33.282583 L396.274221,29.772583 Z M380.763794,29.772583 L380.763794,33.771583 L384.763794,33.772583 L384.763794,35.772583 L380.763794,35.772583 L380.763794,39.772583 L378.763794,39.772583 L378.763794,35.772583 L374.763794,35.772583 L374.763794,33.772583 L378.763794,33.772583 L378.763794,29.772583 L380.763794,29.772583 Z M383.274221,16.772583 L384.763794,18.262156 L381.252794,21.772583 L384.763794,25.28301 L383.274221,26.772583 L379.762794,23.261583 L376.253367,26.772583 L374.763794,25.28301 L378.273794,21.772583 L374.763794,18.262156 L376.253367,16.772583 L379.763794,20.282583 L383.274221,16.772583 Z M393.763794,16.772583 L393.763794,20.771583 L397.763794,20.772583 L397.763794,22.772583 L393.763794,22.772583 L393.763794,26.772583 L391.763794,26.772583 L391.763794,22.772583 L387.763794,22.772583 L387.763794,20.772583 L391.763794,20.772583 L391.763794,16.772583 L393.763794,16.772583 Z M396.274221,3.772583 L397.763794,5.26215599 L394.252794,8.772583 L397.763794,12.28301 L396.274221,13.772583 L392.762794,10.261583 L389.253367,13.772583 L387.763794,12.28301 L391.273794,8.772583 L387.763794,5.26215599 L389.253367,3.772583 L392.763794,7.282583 L396.274221,3.772583 Z M380.763794,3.772583 L380.763794,7.771583 L384.763794,7.772583 L384.763794,9.772583 L380.763794,9.772583 L380.763794,13.772583 L378.763794,13.772583 L378.763794,9.772583 L374.763794,9.772583 L374.763794,7.772583 L378.763794,7.772583 L378.763794,3.772583 L380.763794,3.772583 Z" id="Combined-Shape" fill="#000000"></path>
            <path d="M304.763794,133.772583 L304.763794,137.771583 L308.763794,137.772583 L308.763794,138.953583 L303.063004,138.953735 C301.723787,138.953735 300.487048,138.514976 299.488693,137.773364 L302.763794,137.772583 L302.763794,133.772583 L304.763794,133.772583 Z M320.274221,133.772583 L321.763794,135.262156 L318.252794,138.772583 L318.266693,138.787512 C317.814975,138.896175 317.343356,138.953735 316.858292,138.953735 L315.092794,138.953583 L315.273794,138.772583 L311.763794,135.262156 L313.253367,133.772583 L316.763794,137.282583 L320.274221,133.772583 Z M307.274221,120.772583 L308.763794,122.262156 L305.252794,125.772583 L308.763794,129.28301 L307.274221,130.772583 L303.762794,127.261583 L300.253367,130.772583 L298.763794,129.28301 L302.273794,125.772583 L298.763794,122.262156 L300.253367,120.772583 L303.763794,124.282583 L307.274221,120.772583 Z M317.763794,120.772583 L317.763794,124.771583 L321.763794,124.772583 L321.763794,126.772583 L317.763794,126.772583 L317.763794,130.772583 L315.763794,130.772583 L315.763794,126.772583 L311.763794,126.772583 L311.763794,124.772583 L315.763794,124.772583 L315.763794,120.772583 L317.763794,120.772583 Z M320.274221,107.772583 L321.763794,109.262156 L318.252794,112.772583 L321.763794,116.28301 L320.274221,117.772583 L316.762794,114.261583 L313.253367,117.772583 L311.763794,116.28301 L315.273794,112.772583 L311.763794,109.262156 L313.253367,107.772583 L316.763794,111.282583 L320.274221,107.772583 Z M304.763794,107.772583 L304.763794,111.771583 L308.763794,111.772583 L308.763794,113.772583 L304.763794,113.772583 L304.763794,117.772583 L302.763794,117.772583 L302.763794,113.772583 L298.763794,113.772583 L298.763794,111.772583 L302.763794,111.772583 L302.763794,107.772583 L304.763794,107.772583 Z M307.274221,94.772583 L308.763794,96.262156 L305.252794,99.772583 L308.763794,103.28301 L307.274221,104.772583 L303.762794,101.261583 L300.253367,104.772583 L298.763794,103.28301 L302.273794,99.772583 L298.763794,96.262156 L300.253367,94.772583 L303.763794,98.282583 L307.274221,94.772583 Z M317.763794,94.772583 L317.763794,98.771583 L321.763794,98.772583 L321.763794,100.772583 L317.763794,100.772583 L317.763794,104.772583 L315.763794,104.772583 L315.763794,100.772583 L311.763794,100.772583 L311.763794,98.772583 L315.763794,98.772583 L315.763794,94.772583 L317.763794,94.772583 Z M320.274221,81.772583 L321.763794,83.262156 L318.252794,86.772583 L321.763794,90.28301 L320.274221,91.772583 L316.762794,88.261583 L313.253367,91.772583 L311.763794,90.28301 L315.273794,86.772583 L311.763794,83.262156 L313.253367,81.772583 L316.763794,85.282583 L320.274221,81.772583 Z M304.763794,81.772583 L304.763794,85.771583 L308.763794,85.772583 L308.763794,87.772583 L304.763794,87.772583 L304.763794,91.772583 L302.763794,91.772583 L302.763794,87.772583 L298.763794,87.772583 L298.763794,85.772583 L302.763794,85.772583 L302.763794,81.772583 L304.763794,81.772583 Z M307.274221,68.772583 L308.763794,70.262156 L305.252794,73.772583 L308.763794,77.28301 L307.274221,78.772583 L303.762794,75.261583 L300.253367,78.772583 L298.763794,77.28301 L302.273794,73.772583 L298.763794,70.262156 L300.253367,68.772583 L303.763794,72.282583 L307.274221,68.772583 Z M317.763794,68.772583 L317.763794,72.771583 L321.763794,72.772583 L321.763794,74.772583 L317.763794,74.772583 L317.763794,78.772583 L315.763794,78.772583 L315.763794,74.772583 L311.763794,74.772583 L311.763794,72.772583 L315.763794,72.772583 L315.763794,68.772583 L317.763794,68.772583 Z M320.274221,55.772583 L321.763794,57.262156 L318.252794,60.772583 L321.763794,64.28301 L320.274221,65.772583 L316.762794,62.261583 L313.253367,65.772583 L311.763794,64.28301 L315.273794,60.772583 L311.763794,57.262156 L313.253367,55.772583 L316.763794,59.282583 L320.274221,55.772583 Z M304.763794,55.772583 L304.763794,59.771583 L308.763794,59.772583 L308.763794,61.772583 L304.763794,61.772583 L304.763794,65.772583 L302.763794,65.772583 L302.763794,61.772583 L298.763794,61.772583 L298.763794,59.772583 L302.763794,59.772583 L302.763794,55.772583 L304.763794,55.772583 Z M317.763794,42.772583 L317.763794,46.771583 L321.763794,46.772583 L321.763794,48.772583 L317.763794,48.772583 L317.763794,52.772583 L315.763794,52.772583 L315.763794,48.772583 L311.763794,48.772583 L311.763794,46.772583 L315.763794,46.772583 L315.763794,42.772583 L317.763794,42.772583 Z M307.274221,42.772583 L308.763794,44.262156 L305.252794,47.772583 L308.763794,51.28301 L307.274221,52.772583 L303.762794,49.261583 L300.253367,52.772583 L298.763794,51.28301 L302.273794,47.772583 L298.763794,44.262156 L300.253367,42.772583 L303.763794,46.282583 L307.274221,42.772583 Z M320.274221,29.772583 L321.763794,31.262156 L318.252794,34.772583 L321.763794,38.28301 L320.274221,39.772583 L316.762794,36.261583 L313.253367,39.772583 L311.763794,38.28301 L315.273794,34.772583 L311.763794,31.262156 L313.253367,29.772583 L316.763794,33.282583 L320.274221,29.772583 Z M304.763794,29.772583 L304.763794,33.771583 L308.763794,33.772583 L308.763794,35.772583 L304.763794,35.772583 L304.763794,39.772583 L302.763794,39.772583 L302.763794,35.772583 L298.763794,35.772583 L298.763794,33.772583 L302.763794,33.772583 L302.763794,29.772583 L304.763794,29.772583 Z M307.274221,16.772583 L308.763794,18.262156 L305.252794,21.772583 L308.763794,25.28301 L307.274221,26.772583 L303.762794,23.261583 L300.253367,26.772583 L298.763794,25.28301 L302.273794,21.772583 L298.763794,18.262156 L300.253367,16.772583 L303.763794,20.282583 L307.274221,16.772583 Z M317.763794,16.772583 L317.763794,20.771583 L321.763794,20.772583 L321.763794,22.772583 L317.763794,22.772583 L317.763794,26.772583 L315.763794,26.772583 L315.763794,22.772583 L311.763794,22.772583 L311.763794,20.772583 L315.763794,20.772583 L315.763794,16.772583 L317.763794,16.772583 Z M320.274221,3.772583 L321.763794,5.26215599 L318.252794,8.772583 L321.763794,12.28301 L320.274221,13.772583 L316.762794,10.261583 L313.253367,13.772583 L311.763794,12.28301 L315.273794,8.772583 L311.763794,5.26215599 L313.253367,3.772583 L316.763794,7.282583 L320.274221,3.772583 Z M304.763794,3.772583 L304.763794,7.771583 L308.763794,7.772583 L308.763794,9.772583 L304.763794,9.772583 L304.763794,13.772583 L302.763794,13.772583 L302.763794,9.772583 L298.763794,9.772583 L298.763794,7.772583 L302.763794,7.772583 L302.763794,3.772583 L304.763794,3.772583 Z" id="Combined-Shape" fill="#000000"></path>
            <path d="M10.274221,133.772583 L11.763794,135.262156 L8.252794,138.772583 L8.433794,138.953583 L6.063004,138.953735 C5.7565278,138.953735 5.45541848,138.930757 5.16130486,138.886429 L5.273794,138.772583 L1.763794,135.262156 L3.25336699,133.772583 L6.763794,137.282583 L10.274221,133.772583 Z M20.763794,133.772583 L20.763794,137.771583 L23.4326027,137.773364 C22.4342477,138.514976 21.1975087,138.953735 19.858292,138.953735 L14.763794,138.953583 L14.763794,137.772583 L18.763794,137.772583 L18.763794,133.772583 L20.763794,133.772583 Z M23.274221,120.772583 L24.763794,122.262156 L21.252794,125.772583 L24.763794,129.28301 L23.274221,130.772583 L19.762794,127.261583 L16.253367,130.772583 L14.763794,129.28301 L18.273794,125.772583 L14.763794,122.262156 L16.253367,120.772583 L19.763794,124.282583 L23.274221,120.772583 Z M7.763794,120.772583 L7.763794,124.771583 L11.763794,124.772583 L11.763794,126.772583 L7.763794,126.772583 L7.763794,130.772583 L5.763794,130.772583 L5.763794,126.772583 L1.763794,126.772583 L1.763794,124.772583 L5.763794,124.772583 L5.763794,120.772583 L7.763794,120.772583 Z M20.763794,107.772583 L20.763794,111.771583 L24.763794,111.772583 L24.763794,113.772583 L20.763794,113.772583 L20.763794,117.772583 L18.763794,117.772583 L18.763794,113.772583 L14.763794,113.772583 L14.763794,111.772583 L18.763794,111.772583 L18.763794,107.772583 L20.763794,107.772583 Z M10.274221,107.772583 L11.763794,109.262156 L8.252794,112.772583 L11.763794,116.28301 L10.274221,117.772583 L6.762794,114.261583 L3.25336699,117.772583 L1.763794,116.28301 L5.273794,112.772583 L1.763794,109.262156 L3.25336699,107.772583 L6.763794,111.282583 L10.274221,107.772583 Z M23.274221,94.772583 L24.763794,96.262156 L21.252794,99.772583 L24.763794,103.28301 L23.274221,104.772583 L19.762794,101.261583 L16.253367,104.772583 L14.763794,103.28301 L18.273794,99.772583 L14.763794,96.262156 L16.253367,94.772583 L19.763794,98.282583 L23.274221,94.772583 Z M7.763794,94.772583 L7.763794,98.771583 L11.763794,98.772583 L11.763794,100.772583 L7.763794,100.772583 L7.763794,104.772583 L5.763794,104.772583 L5.763794,100.772583 L1.763794,100.772583 L1.763794,98.772583 L5.763794,98.772583 L5.763794,94.772583 L7.763794,94.772583 Z M20.763794,81.772583 L20.763794,85.771583 L24.763794,85.772583 L24.763794,87.772583 L20.763794,87.772583 L20.763794,91.772583 L18.763794,91.772583 L18.763794,87.772583 L14.763794,87.772583 L14.763794,85.772583 L18.763794,85.772583 L18.763794,81.772583 L20.763794,81.772583 Z M10.274221,81.772583 L11.763794,83.262156 L8.252794,86.772583 L11.763794,90.28301 L10.274221,91.772583 L6.762794,88.261583 L3.25336699,91.772583 L1.763794,90.28301 L5.273794,86.772583 L1.763794,83.262156 L3.25336699,81.772583 L6.763794,85.282583 L10.274221,81.772583 Z M23.274221,68.772583 L24.763794,70.262156 L21.252794,73.772583 L24.763794,77.28301 L23.274221,78.772583 L19.762794,75.261583 L16.253367,78.772583 L14.763794,77.28301 L18.273794,73.772583 L14.763794,70.262156 L16.253367,68.772583 L19.763794,72.282583 L23.274221,68.772583 Z M7.763794,68.772583 L7.763794,72.771583 L11.763794,72.772583 L11.763794,74.772583 L7.763794,74.772583 L7.763794,78.772583 L5.763794,78.772583 L5.763794,74.772583 L1.763794,74.772583 L1.763794,72.772583 L5.763794,72.772583 L5.763794,68.772583 L7.763794,68.772583 Z M20.763794,55.772583 L20.763794,59.771583 L24.763794,59.772583 L24.763794,61.772583 L20.763794,61.772583 L20.763794,65.772583 L18.763794,65.772583 L18.763794,61.772583 L14.763794,61.772583 L14.763794,59.772583 L18.763794,59.772583 L18.763794,55.772583 L20.763794,55.772583 Z M10.274221,55.772583 L11.763794,57.262156 L8.252794,60.772583 L11.763794,64.28301 L10.274221,65.772583 L6.762794,62.261583 L3.25336699,65.772583 L1.763794,64.28301 L5.273794,60.772583 L1.763794,57.262156 L3.25336699,55.772583 L6.763794,59.282583 L10.274221,55.772583 Z M7.763794,42.772583 L7.763794,46.771583 L11.763794,46.772583 L11.763794,48.772583 L7.763794,48.772583 L7.763794,52.772583 L5.763794,52.772583 L5.763794,48.772583 L1.763794,48.772583 L1.763794,46.772583 L5.763794,46.772583 L5.763794,42.772583 L7.763794,42.772583 Z M23.274221,42.772583 L24.763794,44.262156 L21.252794,47.772583 L24.763794,51.28301 L23.274221,52.772583 L19.762794,49.261583 L16.253367,52.772583 L14.763794,51.28301 L18.273794,47.772583 L14.763794,44.262156 L16.253367,42.772583 L19.763794,46.282583 L23.274221,42.772583 Z M20.763794,29.772583 L20.763794,33.771583 L24.763794,33.772583 L24.763794,35.772583 L20.763794,35.772583 L20.763794,39.772583 L18.763794,39.772583 L18.763794,35.772583 L14.763794,35.772583 L14.763794,33.772583 L18.763794,33.772583 L18.763794,29.772583 L20.763794,29.772583 Z M10.274221,29.772583 L11.763794,31.262156 L8.252794,34.772583 L11.763794,38.28301 L10.274221,39.772583 L6.762794,36.261583 L3.25336699,39.772583 L1.763794,38.28301 L5.273794,34.772583 L1.763794,31.262156 L3.25336699,29.772583 L6.763794,33.282583 L10.274221,29.772583 Z M23.274221,16.772583 L24.763794,18.262156 L21.252794,21.772583 L24.763794,25.28301 L23.274221,26.772583 L19.762794,23.261583 L16.253367,26.772583 L14.763794,25.28301 L18.273794,21.772583 L14.763794,18.262156 L16.253367,16.772583 L19.763794,20.282583 L23.274221,16.772583 Z M7.763794,16.772583 L7.763794,20.771583 L11.763794,20.772583 L11.763794,22.772583 L7.763794,22.772583 L7.763794,26.772583 L5.763794,26.772583 L5.763794,22.772583 L1.763794,22.772583 L1.763794,20.772583 L5.763794,20.772583 L5.763794,16.772583 L7.763794,16.772583 Z M20.763794,3.772583 L20.763794,7.771583 L24.763794,7.772583 L24.763794,9.772583 L20.763794,9.772583 L20.763794,13.772583 L18.763794,13.772583 L18.763794,9.772583 L14.763794,9.772583 L14.763794,7.772583 L18.763794,7.772583 L18.763794,3.772583 L20.763794,3.772583 Z M10.274221,3.772583 L11.763794,5.26215599 L8.252794,8.772583 L11.763794,12.28301 L10.274221,13.772583 L6.762794,10.261583 L3.25336699,13.772583 L1.763794,12.28301 L5.273794,8.772583 L1.763794,5.26215599 L3.25336699,3.772583 L6.763794,7.282583 L10.274221,3.772583 Z" id="Combined-Shape" fill="#000000"></path>
            <path d="M86.274221,133.772583 L87.763794,135.262156 L84.252794,138.772583 L84.433794,138.953583 L82.063004,138.953735 C81.7565278,138.953735 81.4554185,138.930757 81.1613049,138.886429 L81.273794,138.772583 L77.763794,135.262156 L79.253367,133.772583 L82.763794,137.282583 L86.274221,133.772583 Z M96.763794,133.772583 L96.763794,137.771583 L99.4326027,137.773364 C98.4342477,138.514976 97.1975087,138.953735 95.858292,138.953735 L90.763794,138.953583 L90.763794,137.772583 L94.763794,137.772583 L94.763794,133.772583 L96.763794,133.772583 Z M99.274221,120.772583 L100.763794,122.262156 L97.252794,125.772583 L100.763794,129.28301 L99.274221,130.772583 L95.762794,127.261583 L92.253367,130.772583 L90.763794,129.28301 L94.273794,125.772583 L90.763794,122.262156 L92.253367,120.772583 L95.763794,124.282583 L99.274221,120.772583 Z M83.763794,120.772583 L83.763794,124.771583 L87.763794,124.772583 L87.763794,126.772583 L83.763794,126.772583 L83.763794,130.772583 L81.763794,130.772583 L81.763794,126.772583 L77.763794,126.772583 L77.763794,124.772583 L81.763794,124.772583 L81.763794,120.772583 L83.763794,120.772583 Z M96.763794,107.772583 L96.763794,111.771583 L100.763794,111.772583 L100.763794,113.772583 L96.763794,113.772583 L96.763794,117.772583 L94.763794,117.772583 L94.763794,113.772583 L90.763794,113.772583 L90.763794,111.772583 L94.763794,111.772583 L94.763794,107.772583 L96.763794,107.772583 Z M86.274221,107.772583 L87.763794,109.262156 L84.252794,112.772583 L87.763794,116.28301 L86.274221,117.772583 L82.762794,114.261583 L79.253367,117.772583 L77.763794,116.28301 L81.273794,112.772583 L77.763794,109.262156 L79.253367,107.772583 L82.763794,111.282583 L86.274221,107.772583 Z M99.274221,94.772583 L100.763794,96.262156 L97.252794,99.772583 L100.763794,103.28301 L99.274221,104.772583 L95.762794,101.261583 L92.253367,104.772583 L90.763794,103.28301 L94.273794,99.772583 L90.763794,96.262156 L92.253367,94.772583 L95.763794,98.282583 L99.274221,94.772583 Z M83.763794,94.772583 L83.763794,98.771583 L87.763794,98.772583 L87.763794,100.772583 L83.763794,100.772583 L83.763794,104.772583 L81.763794,104.772583 L81.763794,100.772583 L77.763794,100.772583 L77.763794,98.772583 L81.763794,98.772583 L81.763794,94.772583 L83.763794,94.772583 Z M96.763794,81.772583 L96.763794,85.771583 L100.763794,85.772583 L100.763794,87.772583 L96.763794,87.772583 L96.763794,91.772583 L94.763794,91.772583 L94.763794,87.772583 L90.763794,87.772583 L90.763794,85.772583 L94.763794,85.772583 L94.763794,81.772583 L96.763794,81.772583 Z M86.274221,81.772583 L87.763794,83.262156 L84.252794,86.772583 L87.763794,90.28301 L86.274221,91.772583 L82.762794,88.261583 L79.253367,91.772583 L77.763794,90.28301 L81.273794,86.772583 L77.763794,83.262156 L79.253367,81.772583 L82.763794,85.282583 L86.274221,81.772583 Z M99.274221,68.772583 L100.763794,70.262156 L97.252794,73.772583 L100.763794,77.28301 L99.274221,78.772583 L95.762794,75.261583 L92.253367,78.772583 L90.763794,77.28301 L94.273794,73.772583 L90.763794,70.262156 L92.253367,68.772583 L95.763794,72.282583 L99.274221,68.772583 Z M83.763794,68.772583 L83.763794,72.771583 L87.763794,72.772583 L87.763794,74.772583 L83.763794,74.772583 L83.763794,78.772583 L81.763794,78.772583 L81.763794,74.772583 L77.763794,74.772583 L77.763794,72.772583 L81.763794,72.772583 L81.763794,68.772583 L83.763794,68.772583 Z M96.763794,55.772583 L96.763794,59.771583 L100.763794,59.772583 L100.763794,61.772583 L96.763794,61.772583 L96.763794,65.772583 L94.763794,65.772583 L94.763794,61.772583 L90.763794,61.772583 L90.763794,59.772583 L94.763794,59.772583 L94.763794,55.772583 L96.763794,55.772583 Z M86.274221,55.772583 L87.763794,57.262156 L84.252794,60.772583 L87.763794,64.28301 L86.274221,65.772583 L82.762794,62.261583 L79.253367,65.772583 L77.763794,64.28301 L81.273794,60.772583 L77.763794,57.262156 L79.253367,55.772583 L82.763794,59.282583 L86.274221,55.772583 Z M83.763794,42.772583 L83.763794,46.771583 L87.763794,46.772583 L87.763794,48.772583 L83.763794,48.772583 L83.763794,52.772583 L81.763794,52.772583 L81.763794,48.772583 L77.763794,48.772583 L77.763794,46.772583 L81.763794,46.772583 L81.763794,42.772583 L83.763794,42.772583 Z M99.274221,42.772583 L100.763794,44.262156 L97.252794,47.772583 L100.763794,51.28301 L99.274221,52.772583 L95.762794,49.261583 L92.253367,52.772583 L90.763794,51.28301 L94.273794,47.772583 L90.763794,44.262156 L92.253367,42.772583 L95.763794,46.282583 L99.274221,42.772583 Z M96.763794,29.772583 L96.763794,33.771583 L100.763794,33.772583 L100.763794,35.772583 L96.763794,35.772583 L96.763794,39.772583 L94.763794,39.772583 L94.763794,35.772583 L90.763794,35.772583 L90.763794,33.772583 L94.763794,33.772583 L94.763794,29.772583 L96.763794,29.772583 Z M86.274221,29.772583 L87.763794,31.262156 L84.252794,34.772583 L87.763794,38.28301 L86.274221,39.772583 L82.762794,36.261583 L79.253367,39.772583 L77.763794,38.28301 L81.273794,34.772583 L77.763794,31.262156 L79.253367,29.772583 L82.763794,33.282583 L86.274221,29.772583 Z M99.274221,16.772583 L100.763794,18.262156 L97.252794,21.772583 L100.763794,25.28301 L99.274221,26.772583 L95.762794,23.261583 L92.253367,26.772583 L90.763794,25.28301 L94.273794,21.772583 L90.763794,18.262156 L92.253367,16.772583 L95.763794,20.282583 L99.274221,16.772583 Z M83.763794,16.772583 L83.763794,20.771583 L87.763794,20.772583 L87.763794,22.772583 L83.763794,22.772583 L83.763794,26.772583 L81.763794,26.772583 L81.763794,22.772583 L77.763794,22.772583 L77.763794,20.772583 L81.763794,20.772583 L81.763794,16.772583 L83.763794,16.772583 Z M96.763794,3.772583 L96.763794,7.771583 L100.763794,7.772583 L100.763794,9.772583 L96.763794,9.772583 L96.763794,13.772583 L94.763794,13.772583 L94.763794,9.772583 L90.763794,9.772583 L90.763794,7.772583 L94.763794,7.772583 L94.763794,3.772583 L96.763794,3.772583 Z M86.274221,3.772583 L87.763794,5.26215599 L84.252794,8.772583 L87.763794,12.28301 L86.274221,13.772583 L82.762794,10.261583 L79.253367,13.772583 L77.763794,12.28301 L81.273794,8.772583 L77.763794,5.26215599 L79.253367,3.772583 L82.763794,7.282583 L86.274221,3.772583 Z" id="Combined-Shape" fill="#000000"></path>
            <path d="M162.274221,133.772583 L163.763794,135.262156 L160.252794,138.772583 L160.433794,138.953583 L158.063004,138.953735 C157.756528,138.953735 157.455418,138.930757 157.161305,138.886429 L157.273794,138.772583 L153.763794,135.262156 L155.253367,133.772583 L158.763794,137.282583 L162.274221,133.772583 Z M172.763794,133.772583 L172.763794,137.771583 L175.432603,137.773364 C174.434248,138.514976 173.197509,138.953735 171.858292,138.953735 L166.763794,138.953583 L166.763794,137.772583 L170.763794,137.772583 L170.763794,133.772583 L172.763794,133.772583 Z M175.274221,120.772583 L176.763794,122.262156 L173.252794,125.772583 L176.763794,129.28301 L175.274221,130.772583 L171.762794,127.261583 L168.253367,130.772583 L166.763794,129.28301 L170.273794,125.772583 L166.763794,122.262156 L168.253367,120.772583 L171.763794,124.282583 L175.274221,120.772583 Z M159.763794,120.772583 L159.763794,124.771583 L163.763794,124.772583 L163.763794,126.772583 L159.763794,126.772583 L159.763794,130.772583 L157.763794,130.772583 L157.763794,126.772583 L153.763794,126.772583 L153.763794,124.772583 L157.763794,124.772583 L157.763794,120.772583 L159.763794,120.772583 Z M172.763794,107.772583 L172.763794,111.771583 L176.763794,111.772583 L176.763794,113.772583 L172.763794,113.772583 L172.763794,117.772583 L170.763794,117.772583 L170.763794,113.772583 L166.763794,113.772583 L166.763794,111.772583 L170.763794,111.772583 L170.763794,107.772583 L172.763794,107.772583 Z M162.274221,107.772583 L163.763794,109.262156 L160.252794,112.772583 L163.763794,116.28301 L162.274221,117.772583 L158.762794,114.261583 L155.253367,117.772583 L153.763794,116.28301 L157.273794,112.772583 L153.763794,109.262156 L155.253367,107.772583 L158.763794,111.282583 L162.274221,107.772583 Z M175.274221,94.772583 L176.763794,96.262156 L173.252794,99.772583 L176.763794,103.28301 L175.274221,104.772583 L171.762794,101.261583 L168.253367,104.772583 L166.763794,103.28301 L170.273794,99.772583 L166.763794,96.262156 L168.253367,94.772583 L171.763794,98.282583 L175.274221,94.772583 Z M159.763794,94.772583 L159.763794,98.771583 L163.763794,98.772583 L163.763794,100.772583 L159.763794,100.772583 L159.763794,104.772583 L157.763794,104.772583 L157.763794,100.772583 L153.763794,100.772583 L153.763794,98.772583 L157.763794,98.772583 L157.763794,94.772583 L159.763794,94.772583 Z M172.763794,81.772583 L172.763794,85.771583 L176.763794,85.772583 L176.763794,87.772583 L172.763794,87.772583 L172.763794,91.772583 L170.763794,91.772583 L170.763794,87.772583 L166.763794,87.772583 L166.763794,85.772583 L170.763794,85.772583 L170.763794,81.772583 L172.763794,81.772583 Z M162.274221,81.772583 L163.763794,83.262156 L160.252794,86.772583 L163.763794,90.28301 L162.274221,91.772583 L158.762794,88.261583 L155.253367,91.772583 L153.763794,90.28301 L157.273794,86.772583 L153.763794,83.262156 L155.253367,81.772583 L158.763794,85.282583 L162.274221,81.772583 Z M175.274221,68.772583 L176.763794,70.262156 L173.252794,73.772583 L176.763794,77.28301 L175.274221,78.772583 L171.762794,75.261583 L168.253367,78.772583 L166.763794,77.28301 L170.273794,73.772583 L166.763794,70.262156 L168.253367,68.772583 L171.763794,72.282583 L175.274221,68.772583 Z M159.763794,68.772583 L159.763794,72.771583 L163.763794,72.772583 L163.763794,74.772583 L159.763794,74.772583 L159.763794,78.772583 L157.763794,78.772583 L157.763794,74.772583 L153.763794,74.772583 L153.763794,72.772583 L157.763794,72.772583 L157.763794,68.772583 L159.763794,68.772583 Z M172.763794,55.772583 L172.763794,59.771583 L176.763794,59.772583 L176.763794,61.772583 L172.763794,61.772583 L172.763794,65.772583 L170.763794,65.772583 L170.763794,61.772583 L166.763794,61.772583 L166.763794,59.772583 L170.763794,59.772583 L170.763794,55.772583 L172.763794,55.772583 Z M162.274221,55.772583 L163.763794,57.262156 L160.252794,60.772583 L163.763794,64.28301 L162.274221,65.772583 L158.762794,62.261583 L155.253367,65.772583 L153.763794,64.28301 L157.273794,60.772583 L153.763794,57.262156 L155.253367,55.772583 L158.763794,59.282583 L162.274221,55.772583 Z M159.763794,42.772583 L159.763794,46.771583 L163.763794,46.772583 L163.763794,48.772583 L159.763794,48.772583 L159.763794,52.772583 L157.763794,52.772583 L157.763794,48.772583 L153.763794,48.772583 L153.763794,46.772583 L157.763794,46.772583 L157.763794,42.772583 L159.763794,42.772583 Z M175.274221,42.772583 L176.763794,44.262156 L173.252794,47.772583 L176.763794,51.28301 L175.274221,52.772583 L171.762794,49.261583 L168.253367,52.772583 L166.763794,51.28301 L170.273794,47.772583 L166.763794,44.262156 L168.253367,42.772583 L171.763794,46.282583 L175.274221,42.772583 Z M172.763794,29.772583 L172.763794,33.771583 L176.763794,33.772583 L176.763794,35.772583 L172.763794,35.772583 L172.763794,39.772583 L170.763794,39.772583 L170.763794,35.772583 L166.763794,35.772583 L166.763794,33.772583 L170.763794,33.772583 L170.763794,29.772583 L172.763794,29.772583 Z M162.274221,29.772583 L163.763794,31.262156 L160.252794,34.772583 L163.763794,38.28301 L162.274221,39.772583 L158.762794,36.261583 L155.253367,39.772583 L153.763794,38.28301 L157.273794,34.772583 L153.763794,31.262156 L155.253367,29.772583 L158.763794,33.282583 L162.274221,29.772583 Z M175.274221,16.772583 L176.763794,18.262156 L173.252794,21.772583 L176.763794,25.28301 L175.274221,26.772583 L171.762794,23.261583 L168.253367,26.772583 L166.763794,25.28301 L170.273794,21.772583 L166.763794,18.262156 L168.253367,16.772583 L171.763794,20.282583 L175.274221,16.772583 Z M159.763794,16.772583 L159.763794,20.771583 L163.763794,20.772583 L163.763794,22.772583 L159.763794,22.772583 L159.763794,26.772583 L157.763794,26.772583 L157.763794,22.772583 L153.763794,22.772583 L153.763794,20.772583 L157.763794,20.772583 L157.763794,16.772583 L159.763794,16.772583 Z M172.763794,3.772583 L172.763794,7.771583 L176.763794,7.772583 L176.763794,9.772583 L172.763794,9.772583 L172.763794,13.772583 L170.763794,13.772583 L170.763794,9.772583 L166.763794,9.772583 L166.763794,7.772583 L170.763794,7.772583 L170.763794,3.772583 L172.763794,3.772583 Z M162.274221,3.772583 L163.763794,5.26215599 L160.252794,8.772583 L163.763794,12.28301 L162.274221,13.772583 L158.762794,10.261583 L155.253367,13.772583 L153.763794,12.28301 L157.273794,8.772583 L153.763794,5.26215599 L155.253367,3.772583 L158.763794,7.282583 L162.274221,3.772583 Z" id="Combined-Shape" fill="#000000"></path>
            <path d="M898.763794,133.772583 L898.763794,137.771583 L902.763794,137.772583 L902.763794,138.953583 L897.063004,138.953735 C895.723787,138.953735 894.487048,138.514976 893.488693,137.773364 L896.763794,137.772583 L896.763794,133.772583 L898.763794,133.772583 Z M914.274221,133.772583 L915.763794,135.262156 L912.252794,138.772583 L912.266693,138.787512 C911.814975,138.896175 911.343356,138.953735 910.858292,138.953735 L909.092794,138.953583 L909.273794,138.772583 L905.763794,135.262156 L907.253367,133.772583 L910.763794,137.282583 L914.274221,133.772583 Z M901.274221,120.772583 L902.763794,122.262156 L899.252794,125.772583 L902.763794,129.28301 L901.274221,130.772583 L897.762794,127.261583 L894.253367,130.772583 L892.763794,129.28301 L896.273794,125.772583 L892.763794,122.262156 L894.253367,120.772583 L897.763794,124.282583 L901.274221,120.772583 Z M911.763794,120.772583 L911.763794,124.771583 L915.763794,124.772583 L915.763794,126.772583 L911.763794,126.772583 L911.763794,130.772583 L909.763794,130.772583 L909.763794,126.772583 L905.763794,126.772583 L905.763794,124.772583 L909.763794,124.772583 L909.763794,120.772583 L911.763794,120.772583 Z M914.274221,107.772583 L915.763794,109.262156 L912.252794,112.772583 L915.763794,116.28301 L914.274221,117.772583 L910.762794,114.261583 L907.253367,117.772583 L905.763794,116.28301 L909.273794,112.772583 L905.763794,109.262156 L907.253367,107.772583 L910.763794,111.282583 L914.274221,107.772583 Z M898.763794,107.772583 L898.763794,111.771583 L902.763794,111.772583 L902.763794,113.772583 L898.763794,113.772583 L898.763794,117.772583 L896.763794,117.772583 L896.763794,113.772583 L892.763794,113.772583 L892.763794,111.772583 L896.763794,111.772583 L896.763794,107.772583 L898.763794,107.772583 Z M901.274221,94.772583 L902.763794,96.262156 L899.252794,99.772583 L902.763794,103.28301 L901.274221,104.772583 L897.762794,101.261583 L894.253367,104.772583 L892.763794,103.28301 L896.273794,99.772583 L892.763794,96.262156 L894.253367,94.772583 L897.763794,98.282583 L901.274221,94.772583 Z M911.763794,94.772583 L911.763794,98.771583 L915.763794,98.772583 L915.763794,100.772583 L911.763794,100.772583 L911.763794,104.772583 L909.763794,104.772583 L909.763794,100.772583 L905.763794,100.772583 L905.763794,98.772583 L909.763794,98.772583 L909.763794,94.772583 L911.763794,94.772583 Z M914.274221,81.772583 L915.763794,83.262156 L912.252794,86.772583 L915.763794,90.28301 L914.274221,91.772583 L910.762794,88.261583 L907.253367,91.772583 L905.763794,90.28301 L909.273794,86.772583 L905.763794,83.262156 L907.253367,81.772583 L910.763794,85.282583 L914.274221,81.772583 Z M898.763794,81.772583 L898.763794,85.771583 L902.763794,85.772583 L902.763794,87.772583 L898.763794,87.772583 L898.763794,91.772583 L896.763794,91.772583 L896.763794,87.772583 L892.763794,87.772583 L892.763794,85.772583 L896.763794,85.772583 L896.763794,81.772583 L898.763794,81.772583 Z M901.274221,68.772583 L902.763794,70.262156 L899.252794,73.772583 L902.763794,77.28301 L901.274221,78.772583 L897.762794,75.261583 L894.253367,78.772583 L892.763794,77.28301 L896.273794,73.772583 L892.763794,70.262156 L894.253367,68.772583 L897.763794,72.282583 L901.274221,68.772583 Z M911.763794,68.772583 L911.763794,72.771583 L915.763794,72.772583 L915.763794,74.772583 L911.763794,74.772583 L911.763794,78.772583 L909.763794,78.772583 L909.763794,74.772583 L905.763794,74.772583 L905.763794,72.772583 L909.763794,72.772583 L909.763794,68.772583 L911.763794,68.772583 Z M914.274221,55.772583 L915.763794,57.262156 L912.252794,60.772583 L915.763794,64.28301 L914.274221,65.772583 L910.762794,62.261583 L907.253367,65.772583 L905.763794,64.28301 L909.273794,60.772583 L905.763794,57.262156 L907.253367,55.772583 L910.763794,59.282583 L914.274221,55.772583 Z M898.763794,55.772583 L898.763794,59.771583 L902.763794,59.772583 L902.763794,61.772583 L898.763794,61.772583 L898.763794,65.772583 L896.763794,65.772583 L896.763794,61.772583 L892.763794,61.772583 L892.763794,59.772583 L896.763794,59.772583 L896.763794,55.772583 L898.763794,55.772583 Z M911.763794,42.772583 L911.763794,46.771583 L915.763794,46.772583 L915.763794,48.772583 L911.763794,48.772583 L911.763794,52.772583 L909.763794,52.772583 L909.763794,48.772583 L905.763794,48.772583 L905.763794,46.772583 L909.763794,46.772583 L909.763794,42.772583 L911.763794,42.772583 Z M901.274221,42.772583 L902.763794,44.262156 L899.252794,47.772583 L902.763794,51.28301 L901.274221,52.772583 L897.762794,49.261583 L894.253367,52.772583 L892.763794,51.28301 L896.273794,47.772583 L892.763794,44.262156 L894.253367,42.772583 L897.763794,46.282583 L901.274221,42.772583 Z M914.274221,29.772583 L915.763794,31.262156 L912.252794,34.772583 L915.763794,38.28301 L914.274221,39.772583 L910.762794,36.261583 L907.253367,39.772583 L905.763794,38.28301 L909.273794,34.772583 L905.763794,31.262156 L907.253367,29.772583 L910.763794,33.282583 L914.274221,29.772583 Z M898.763794,29.772583 L898.763794,33.771583 L902.763794,33.772583 L902.763794,35.772583 L898.763794,35.772583 L898.763794,39.772583 L896.763794,39.772583 L896.763794,35.772583 L892.763794,35.772583 L892.763794,33.772583 L896.763794,33.772583 L896.763794,29.772583 L898.763794,29.772583 Z M901.274221,16.772583 L902.763794,18.262156 L899.252794,21.772583 L902.763794,25.28301 L901.274221,26.772583 L897.762794,23.261583 L894.253367,26.772583 L892.763794,25.28301 L896.273794,21.772583 L892.763794,18.262156 L894.253367,16.772583 L897.763794,20.282583 L901.274221,16.772583 Z M911.763794,16.772583 L911.763794,20.771583 L915.763794,20.772583 L915.763794,22.772583 L911.763794,22.772583 L911.763794,26.772583 L909.763794,26.772583 L909.763794,22.772583 L905.763794,22.772583 L905.763794,20.772583 L909.763794,20.772583 L909.763794,16.772583 L911.763794,16.772583 Z M914.274221,3.772583 L915.763794,5.26215599 L912.252794,8.772583 L915.763794,12.28301 L914.274221,13.772583 L910.762794,10.261583 L907.253367,13.772583 L905.763794,12.28301 L909.273794,8.772583 L905.763794,5.26215599 L907.253367,3.772583 L910.763794,7.282583 L914.274221,3.772583 Z M898.763794,3.772583 L898.763794,7.771583 L902.763794,7.772583 L902.763794,9.772583 L898.763794,9.772583 L898.763794,13.772583 L896.763794,13.772583 L896.763794,9.772583 L892.763794,9.772583 L892.763794,7.772583 L896.763794,7.772583 L896.763794,3.772583 L898.763794,3.772583 Z" id="Combined-Shape" fill="#000000"></path>
            <path d="M822.763794,133.772583 L822.763794,137.771583 L826.763794,137.772583 L826.763794,138.953583 L821.063004,138.953735 C819.723787,138.953735 818.487048,138.514976 817.488693,137.773364 L820.763794,137.772583 L820.763794,133.772583 L822.763794,133.772583 Z M838.274221,133.772583 L839.763794,135.262156 L836.252794,138.772583 L836.266693,138.787512 C835.814975,138.896175 835.343356,138.953735 834.858292,138.953735 L833.092794,138.953583 L833.273794,138.772583 L829.763794,135.262156 L831.253367,133.772583 L834.763794,137.282583 L838.274221,133.772583 Z M825.274221,120.772583 L826.763794,122.262156 L823.252794,125.772583 L826.763794,129.28301 L825.274221,130.772583 L821.762794,127.261583 L818.253367,130.772583 L816.763794,129.28301 L820.273794,125.772583 L816.763794,122.262156 L818.253367,120.772583 L821.763794,124.282583 L825.274221,120.772583 Z M835.763794,120.772583 L835.763794,124.771583 L839.763794,124.772583 L839.763794,126.772583 L835.763794,126.772583 L835.763794,130.772583 L833.763794,130.772583 L833.763794,126.772583 L829.763794,126.772583 L829.763794,124.772583 L833.763794,124.772583 L833.763794,120.772583 L835.763794,120.772583 Z M838.274221,107.772583 L839.763794,109.262156 L836.252794,112.772583 L839.763794,116.28301 L838.274221,117.772583 L834.762794,114.261583 L831.253367,117.772583 L829.763794,116.28301 L833.273794,112.772583 L829.763794,109.262156 L831.253367,107.772583 L834.763794,111.282583 L838.274221,107.772583 Z M822.763794,107.772583 L822.763794,111.771583 L826.763794,111.772583 L826.763794,113.772583 L822.763794,113.772583 L822.763794,117.772583 L820.763794,117.772583 L820.763794,113.772583 L816.763794,113.772583 L816.763794,111.772583 L820.763794,111.772583 L820.763794,107.772583 L822.763794,107.772583 Z M825.274221,94.772583 L826.763794,96.262156 L823.252794,99.772583 L826.763794,103.28301 L825.274221,104.772583 L821.762794,101.261583 L818.253367,104.772583 L816.763794,103.28301 L820.273794,99.772583 L816.763794,96.262156 L818.253367,94.772583 L821.763794,98.282583 L825.274221,94.772583 Z M835.763794,94.772583 L835.763794,98.771583 L839.763794,98.772583 L839.763794,100.772583 L835.763794,100.772583 L835.763794,104.772583 L833.763794,104.772583 L833.763794,100.772583 L829.763794,100.772583 L829.763794,98.772583 L833.763794,98.772583 L833.763794,94.772583 L835.763794,94.772583 Z M838.274221,81.772583 L839.763794,83.262156 L836.252794,86.772583 L839.763794,90.28301 L838.274221,91.772583 L834.762794,88.261583 L831.253367,91.772583 L829.763794,90.28301 L833.273794,86.772583 L829.763794,83.262156 L831.253367,81.772583 L834.763794,85.282583 L838.274221,81.772583 Z M822.763794,81.772583 L822.763794,85.771583 L826.763794,85.772583 L826.763794,87.772583 L822.763794,87.772583 L822.763794,91.772583 L820.763794,91.772583 L820.763794,87.772583 L816.763794,87.772583 L816.763794,85.772583 L820.763794,85.772583 L820.763794,81.772583 L822.763794,81.772583 Z M825.274221,68.772583 L826.763794,70.262156 L823.252794,73.772583 L826.763794,77.28301 L825.274221,78.772583 L821.762794,75.261583 L818.253367,78.772583 L816.763794,77.28301 L820.273794,73.772583 L816.763794,70.262156 L818.253367,68.772583 L821.763794,72.282583 L825.274221,68.772583 Z M835.763794,68.772583 L835.763794,72.771583 L839.763794,72.772583 L839.763794,74.772583 L835.763794,74.772583 L835.763794,78.772583 L833.763794,78.772583 L833.763794,74.772583 L829.763794,74.772583 L829.763794,72.772583 L833.763794,72.772583 L833.763794,68.772583 L835.763794,68.772583 Z M838.274221,55.772583 L839.763794,57.262156 L836.252794,60.772583 L839.763794,64.28301 L838.274221,65.772583 L834.762794,62.261583 L831.253367,65.772583 L829.763794,64.28301 L833.273794,60.772583 L829.763794,57.262156 L831.253367,55.772583 L834.763794,59.282583 L838.274221,55.772583 Z M822.763794,55.772583 L822.763794,59.771583 L826.763794,59.772583 L826.763794,61.772583 L822.763794,61.772583 L822.763794,65.772583 L820.763794,65.772583 L820.763794,61.772583 L816.763794,61.772583 L816.763794,59.772583 L820.763794,59.772583 L820.763794,55.772583 L822.763794,55.772583 Z M835.763794,42.772583 L835.763794,46.771583 L839.763794,46.772583 L839.763794,48.772583 L835.763794,48.772583 L835.763794,52.772583 L833.763794,52.772583 L833.763794,48.772583 L829.763794,48.772583 L829.763794,46.772583 L833.763794,46.772583 L833.763794,42.772583 L835.763794,42.772583 Z M825.274221,42.772583 L826.763794,44.262156 L823.252794,47.772583 L826.763794,51.28301 L825.274221,52.772583 L821.762794,49.261583 L818.253367,52.772583 L816.763794,51.28301 L820.273794,47.772583 L816.763794,44.262156 L818.253367,42.772583 L821.763794,46.282583 L825.274221,42.772583 Z M838.274221,29.772583 L839.763794,31.262156 L836.252794,34.772583 L839.763794,38.28301 L838.274221,39.772583 L834.762794,36.261583 L831.253367,39.772583 L829.763794,38.28301 L833.273794,34.772583 L829.763794,31.262156 L831.253367,29.772583 L834.763794,33.282583 L838.274221,29.772583 Z M822.763794,29.772583 L822.763794,33.771583 L826.763794,33.772583 L826.763794,35.772583 L822.763794,35.772583 L822.763794,39.772583 L820.763794,39.772583 L820.763794,35.772583 L816.763794,35.772583 L816.763794,33.772583 L820.763794,33.772583 L820.763794,29.772583 L822.763794,29.772583 Z M825.274221,16.772583 L826.763794,18.262156 L823.252794,21.772583 L826.763794,25.28301 L825.274221,26.772583 L821.762794,23.261583 L818.253367,26.772583 L816.763794,25.28301 L820.273794,21.772583 L816.763794,18.262156 L818.253367,16.772583 L821.763794,20.282583 L825.274221,16.772583 Z M835.763794,16.772583 L835.763794,20.771583 L839.763794,20.772583 L839.763794,22.772583 L835.763794,22.772583 L835.763794,26.772583 L833.763794,26.772583 L833.763794,22.772583 L829.763794,22.772583 L829.763794,20.772583 L833.763794,20.772583 L833.763794,16.772583 L835.763794,16.772583 Z M838.274221,3.772583 L839.763794,5.26215599 L836.252794,8.772583 L839.763794,12.28301 L838.274221,13.772583 L834.762794,10.261583 L831.253367,13.772583 L829.763794,12.28301 L833.273794,8.772583 L829.763794,5.26215599 L831.253367,3.772583 L834.763794,7.282583 L838.274221,3.772583 Z M822.763794,3.772583 L822.763794,7.771583 L826.763794,7.772583 L826.763794,9.772583 L822.763794,9.772583 L822.763794,13.772583 L820.763794,13.772583 L820.763794,9.772583 L816.763794,9.772583 L816.763794,7.772583 L820.763794,7.772583 L820.763794,3.772583 L822.763794,3.772583 Z" id="Combined-Shape" fill="#000000"></path>
            <path d="M528.274221,133.772583 L529.763794,135.262156 L526.252794,138.772583 L526.433794,138.953583 L524.063004,138.953735 C523.756528,138.953735 523.455418,138.930757 523.161305,138.886429 L523.273794,138.772583 L519.763794,135.262156 L521.253367,133.772583 L524.763794,137.282583 L528.274221,133.772583 Z M538.763794,133.772583 L538.763794,137.771583 L541.432603,137.773364 C540.434248,138.514976 539.197509,138.953735 537.858292,138.953735 L532.763794,138.953583 L532.763794,137.772583 L536.763794,137.772583 L536.763794,133.772583 L538.763794,133.772583 Z M541.274221,120.772583 L542.763794,122.262156 L539.252794,125.772583 L542.763794,129.28301 L541.274221,130.772583 L537.762794,127.261583 L534.253367,130.772583 L532.763794,129.28301 L536.273794,125.772583 L532.763794,122.262156 L534.253367,120.772583 L537.763794,124.282583 L541.274221,120.772583 Z M525.763794,120.772583 L525.763794,124.771583 L529.763794,124.772583 L529.763794,126.772583 L525.763794,126.772583 L525.763794,130.772583 L523.763794,130.772583 L523.763794,126.772583 L519.763794,126.772583 L519.763794,124.772583 L523.763794,124.772583 L523.763794,120.772583 L525.763794,120.772583 Z M538.763794,107.772583 L538.763794,111.771583 L542.763794,111.772583 L542.763794,113.772583 L538.763794,113.772583 L538.763794,117.772583 L536.763794,117.772583 L536.763794,113.772583 L532.763794,113.772583 L532.763794,111.772583 L536.763794,111.772583 L536.763794,107.772583 L538.763794,107.772583 Z M528.274221,107.772583 L529.763794,109.262156 L526.252794,112.772583 L529.763794,116.28301 L528.274221,117.772583 L524.762794,114.261583 L521.253367,117.772583 L519.763794,116.28301 L523.273794,112.772583 L519.763794,109.262156 L521.253367,107.772583 L524.763794,111.282583 L528.274221,107.772583 Z M541.274221,94.772583 L542.763794,96.262156 L539.252794,99.772583 L542.763794,103.28301 L541.274221,104.772583 L537.762794,101.261583 L534.253367,104.772583 L532.763794,103.28301 L536.273794,99.772583 L532.763794,96.262156 L534.253367,94.772583 L537.763794,98.282583 L541.274221,94.772583 Z M525.763794,94.772583 L525.763794,98.771583 L529.763794,98.772583 L529.763794,100.772583 L525.763794,100.772583 L525.763794,104.772583 L523.763794,104.772583 L523.763794,100.772583 L519.763794,100.772583 L519.763794,98.772583 L523.763794,98.772583 L523.763794,94.772583 L525.763794,94.772583 Z M538.763794,81.772583 L538.763794,85.771583 L542.763794,85.772583 L542.763794,87.772583 L538.763794,87.772583 L538.763794,91.772583 L536.763794,91.772583 L536.763794,87.772583 L532.763794,87.772583 L532.763794,85.772583 L536.763794,85.772583 L536.763794,81.772583 L538.763794,81.772583 Z M528.274221,81.772583 L529.763794,83.262156 L526.252794,86.772583 L529.763794,90.28301 L528.274221,91.772583 L524.762794,88.261583 L521.253367,91.772583 L519.763794,90.28301 L523.273794,86.772583 L519.763794,83.262156 L521.253367,81.772583 L524.763794,85.282583 L528.274221,81.772583 Z M541.274221,68.772583 L542.763794,70.262156 L539.252794,73.772583 L542.763794,77.28301 L541.274221,78.772583 L537.762794,75.261583 L534.253367,78.772583 L532.763794,77.28301 L536.273794,73.772583 L532.763794,70.262156 L534.253367,68.772583 L537.763794,72.282583 L541.274221,68.772583 Z M525.763794,68.772583 L525.763794,72.771583 L529.763794,72.772583 L529.763794,74.772583 L525.763794,74.772583 L525.763794,78.772583 L523.763794,78.772583 L523.763794,74.772583 L519.763794,74.772583 L519.763794,72.772583 L523.763794,72.772583 L523.763794,68.772583 L525.763794,68.772583 Z M538.763794,55.772583 L538.763794,59.771583 L542.763794,59.772583 L542.763794,61.772583 L538.763794,61.772583 L538.763794,65.772583 L536.763794,65.772583 L536.763794,61.772583 L532.763794,61.772583 L532.763794,59.772583 L536.763794,59.772583 L536.763794,55.772583 L538.763794,55.772583 Z M528.274221,55.772583 L529.763794,57.262156 L526.252794,60.772583 L529.763794,64.28301 L528.274221,65.772583 L524.762794,62.261583 L521.253367,65.772583 L519.763794,64.28301 L523.273794,60.772583 L519.763794,57.262156 L521.253367,55.772583 L524.763794,59.282583 L528.274221,55.772583 Z M525.763794,42.772583 L525.763794,46.771583 L529.763794,46.772583 L529.763794,48.772583 L525.763794,48.772583 L525.763794,52.772583 L523.763794,52.772583 L523.763794,48.772583 L519.763794,48.772583 L519.763794,46.772583 L523.763794,46.772583 L523.763794,42.772583 L525.763794,42.772583 Z M541.274221,42.772583 L542.763794,44.262156 L539.252794,47.772583 L542.763794,51.28301 L541.274221,52.772583 L537.762794,49.261583 L534.253367,52.772583 L532.763794,51.28301 L536.273794,47.772583 L532.763794,44.262156 L534.253367,42.772583 L537.763794,46.282583 L541.274221,42.772583 Z M538.763794,29.772583 L538.763794,33.771583 L542.763794,33.772583 L542.763794,35.772583 L538.763794,35.772583 L538.763794,39.772583 L536.763794,39.772583 L536.763794,35.772583 L532.763794,35.772583 L532.763794,33.772583 L536.763794,33.772583 L536.763794,29.772583 L538.763794,29.772583 Z M528.274221,29.772583 L529.763794,31.262156 L526.252794,34.772583 L529.763794,38.28301 L528.274221,39.772583 L524.762794,36.261583 L521.253367,39.772583 L519.763794,38.28301 L523.273794,34.772583 L519.763794,31.262156 L521.253367,29.772583 L524.763794,33.282583 L528.274221,29.772583 Z M541.274221,16.772583 L542.763794,18.262156 L539.252794,21.772583 L542.763794,25.28301 L541.274221,26.772583 L537.762794,23.261583 L534.253367,26.772583 L532.763794,25.28301 L536.273794,21.772583 L532.763794,18.262156 L534.253367,16.772583 L537.763794,20.282583 L541.274221,16.772583 Z M525.763794,16.772583 L525.763794,20.771583 L529.763794,20.772583 L529.763794,22.772583 L525.763794,22.772583 L525.763794,26.772583 L523.763794,26.772583 L523.763794,22.772583 L519.763794,22.772583 L519.763794,20.772583 L523.763794,20.772583 L523.763794,16.772583 L525.763794,16.772583 Z M538.763794,3.772583 L538.763794,7.771583 L542.763794,7.772583 L542.763794,9.772583 L538.763794,9.772583 L538.763794,13.772583 L536.763794,13.772583 L536.763794,9.772583 L532.763794,9.772583 L532.763794,7.772583 L536.763794,7.772583 L536.763794,3.772583 L538.763794,3.772583 Z M528.274221,3.772583 L529.763794,5.26215599 L526.252794,8.772583 L529.763794,12.28301 L528.274221,13.772583 L524.762794,10.261583 L521.253367,13.772583 L519.763794,12.28301 L523.273794,8.772583 L519.763794,5.26215599 L521.253367,3.772583 L524.763794,7.282583 L528.274221,3.772583 Z" id="Combined-Shape" fill="#000000"></path>
            <path d="M604.274221,133.772583 L605.763794,135.262156 L602.252794,138.772583 L602.433794,138.953583 L600.063004,138.953735 C599.756528,138.953735 599.455418,138.930757 599.161305,138.886429 L599.273794,138.772583 L595.763794,135.262156 L597.253367,133.772583 L600.763794,137.282583 L604.274221,133.772583 Z M614.763794,133.772583 L614.763794,137.771583 L617.432603,137.773364 C616.434248,138.514976 615.197509,138.953735 613.858292,138.953735 L608.763794,138.953583 L608.763794,137.772583 L612.763794,137.772583 L612.763794,133.772583 L614.763794,133.772583 Z M617.274221,120.772583 L618.763794,122.262156 L615.252794,125.772583 L618.763794,129.28301 L617.274221,130.772583 L613.762794,127.261583 L610.253367,130.772583 L608.763794,129.28301 L612.273794,125.772583 L608.763794,122.262156 L610.253367,120.772583 L613.763794,124.282583 L617.274221,120.772583 Z M601.763794,120.772583 L601.763794,124.771583 L605.763794,124.772583 L605.763794,126.772583 L601.763794,126.772583 L601.763794,130.772583 L599.763794,130.772583 L599.763794,126.772583 L595.763794,126.772583 L595.763794,124.772583 L599.763794,124.772583 L599.763794,120.772583 L601.763794,120.772583 Z M614.763794,107.772583 L614.763794,111.771583 L618.763794,111.772583 L618.763794,113.772583 L614.763794,113.772583 L614.763794,117.772583 L612.763794,117.772583 L612.763794,113.772583 L608.763794,113.772583 L608.763794,111.772583 L612.763794,111.772583 L612.763794,107.772583 L614.763794,107.772583 Z M604.274221,107.772583 L605.763794,109.262156 L602.252794,112.772583 L605.763794,116.28301 L604.274221,117.772583 L600.762794,114.261583 L597.253367,117.772583 L595.763794,116.28301 L599.273794,112.772583 L595.763794,109.262156 L597.253367,107.772583 L600.763794,111.282583 L604.274221,107.772583 Z M617.274221,94.772583 L618.763794,96.262156 L615.252794,99.772583 L618.763794,103.28301 L617.274221,104.772583 L613.762794,101.261583 L610.253367,104.772583 L608.763794,103.28301 L612.273794,99.772583 L608.763794,96.262156 L610.253367,94.772583 L613.763794,98.282583 L617.274221,94.772583 Z M601.763794,94.772583 L601.763794,98.771583 L605.763794,98.772583 L605.763794,100.772583 L601.763794,100.772583 L601.763794,104.772583 L599.763794,104.772583 L599.763794,100.772583 L595.763794,100.772583 L595.763794,98.772583 L599.763794,98.772583 L599.763794,94.772583 L601.763794,94.772583 Z M614.763794,81.772583 L614.763794,85.771583 L618.763794,85.772583 L618.763794,87.772583 L614.763794,87.772583 L614.763794,91.772583 L612.763794,91.772583 L612.763794,87.772583 L608.763794,87.772583 L608.763794,85.772583 L612.763794,85.772583 L612.763794,81.772583 L614.763794,81.772583 Z M604.274221,81.772583 L605.763794,83.262156 L602.252794,86.772583 L605.763794,90.28301 L604.274221,91.772583 L600.762794,88.261583 L597.253367,91.772583 L595.763794,90.28301 L599.273794,86.772583 L595.763794,83.262156 L597.253367,81.772583 L600.763794,85.282583 L604.274221,81.772583 Z M617.274221,68.772583 L618.763794,70.262156 L615.252794,73.772583 L618.763794,77.28301 L617.274221,78.772583 L613.762794,75.261583 L610.253367,78.772583 L608.763794,77.28301 L612.273794,73.772583 L608.763794,70.262156 L610.253367,68.772583 L613.763794,72.282583 L617.274221,68.772583 Z M601.763794,68.772583 L601.763794,72.771583 L605.763794,72.772583 L605.763794,74.772583 L601.763794,74.772583 L601.763794,78.772583 L599.763794,78.772583 L599.763794,74.772583 L595.763794,74.772583 L595.763794,72.772583 L599.763794,72.772583 L599.763794,68.772583 L601.763794,68.772583 Z M614.763794,55.772583 L614.763794,59.771583 L618.763794,59.772583 L618.763794,61.772583 L614.763794,61.772583 L614.763794,65.772583 L612.763794,65.772583 L612.763794,61.772583 L608.763794,61.772583 L608.763794,59.772583 L612.763794,59.772583 L612.763794,55.772583 L614.763794,55.772583 Z M604.274221,55.772583 L605.763794,57.262156 L602.252794,60.772583 L605.763794,64.28301 L604.274221,65.772583 L600.762794,62.261583 L597.253367,65.772583 L595.763794,64.28301 L599.273794,60.772583 L595.763794,57.262156 L597.253367,55.772583 L600.763794,59.282583 L604.274221,55.772583 Z M601.763794,42.772583 L601.763794,46.771583 L605.763794,46.772583 L605.763794,48.772583 L601.763794,48.772583 L601.763794,52.772583 L599.763794,52.772583 L599.763794,48.772583 L595.763794,48.772583 L595.763794,46.772583 L599.763794,46.772583 L599.763794,42.772583 L601.763794,42.772583 Z M617.274221,42.772583 L618.763794,44.262156 L615.252794,47.772583 L618.763794,51.28301 L617.274221,52.772583 L613.762794,49.261583 L610.253367,52.772583 L608.763794,51.28301 L612.273794,47.772583 L608.763794,44.262156 L610.253367,42.772583 L613.763794,46.282583 L617.274221,42.772583 Z M614.763794,29.772583 L614.763794,33.771583 L618.763794,33.772583 L618.763794,35.772583 L614.763794,35.772583 L614.763794,39.772583 L612.763794,39.772583 L612.763794,35.772583 L608.763794,35.772583 L608.763794,33.772583 L612.763794,33.772583 L612.763794,29.772583 L614.763794,29.772583 Z M604.274221,29.772583 L605.763794,31.262156 L602.252794,34.772583 L605.763794,38.28301 L604.274221,39.772583 L600.762794,36.261583 L597.253367,39.772583 L595.763794,38.28301 L599.273794,34.772583 L595.763794,31.262156 L597.253367,29.772583 L600.763794,33.282583 L604.274221,29.772583 Z M617.274221,16.772583 L618.763794,18.262156 L615.252794,21.772583 L618.763794,25.28301 L617.274221,26.772583 L613.762794,23.261583 L610.253367,26.772583 L608.763794,25.28301 L612.273794,21.772583 L608.763794,18.262156 L610.253367,16.772583 L613.763794,20.282583 L617.274221,16.772583 Z M601.763794,16.772583 L601.763794,20.771583 L605.763794,20.772583 L605.763794,22.772583 L601.763794,22.772583 L601.763794,26.772583 L599.763794,26.772583 L599.763794,22.772583 L595.763794,22.772583 L595.763794,20.772583 L599.763794,20.772583 L599.763794,16.772583 L601.763794,16.772583 Z M614.763794,3.772583 L614.763794,7.771583 L618.763794,7.772583 L618.763794,9.772583 L614.763794,9.772583 L614.763794,13.772583 L612.763794,13.772583 L612.763794,9.772583 L608.763794,9.772583 L608.763794,7.772583 L612.763794,7.772583 L612.763794,3.772583 L614.763794,3.772583 Z M604.274221,3.772583 L605.763794,5.26215599 L602.252794,8.772583 L605.763794,12.28301 L604.274221,13.772583 L600.762794,10.261583 L597.253367,13.772583 L595.763794,12.28301 L599.273794,8.772583 L595.763794,5.26215599 L597.253367,3.772583 L600.763794,7.282583 L604.274221,3.772583 Z" id="Combined-Shape" fill="#000000"></path>
            <path d="M680.274221,133.772583 L681.763794,135.262156 L678.252794,138.772583 L678.433794,138.953583 L676.063004,138.953735 C675.756528,138.953735 675.455418,138.930757 675.161305,138.886429 L675.273794,138.772583 L671.763794,135.262156 L673.253367,133.772583 L676.763794,137.282583 L680.274221,133.772583 Z M690.763794,133.772583 L690.763794,137.771583 L693.432603,137.773364 C692.434248,138.514976 691.197509,138.953735 689.858292,138.953735 L684.763794,138.953583 L684.763794,137.772583 L688.763794,137.772583 L688.763794,133.772583 L690.763794,133.772583 Z M693.274221,120.772583 L694.763794,122.262156 L691.252794,125.772583 L694.763794,129.28301 L693.274221,130.772583 L689.762794,127.261583 L686.253367,130.772583 L684.763794,129.28301 L688.273794,125.772583 L684.763794,122.262156 L686.253367,120.772583 L689.763794,124.282583 L693.274221,120.772583 Z M677.763794,120.772583 L677.763794,124.771583 L681.763794,124.772583 L681.763794,126.772583 L677.763794,126.772583 L677.763794,130.772583 L675.763794,130.772583 L675.763794,126.772583 L671.763794,126.772583 L671.763794,124.772583 L675.763794,124.772583 L675.763794,120.772583 L677.763794,120.772583 Z M690.763794,107.772583 L690.763794,111.771583 L694.763794,111.772583 L694.763794,113.772583 L690.763794,113.772583 L690.763794,117.772583 L688.763794,117.772583 L688.763794,113.772583 L684.763794,113.772583 L684.763794,111.772583 L688.763794,111.772583 L688.763794,107.772583 L690.763794,107.772583 Z M680.274221,107.772583 L681.763794,109.262156 L678.252794,112.772583 L681.763794,116.28301 L680.274221,117.772583 L676.762794,114.261583 L673.253367,117.772583 L671.763794,116.28301 L675.273794,112.772583 L671.763794,109.262156 L673.253367,107.772583 L676.763794,111.282583 L680.274221,107.772583 Z M693.274221,94.772583 L694.763794,96.262156 L691.252794,99.772583 L694.763794,103.28301 L693.274221,104.772583 L689.762794,101.261583 L686.253367,104.772583 L684.763794,103.28301 L688.273794,99.772583 L684.763794,96.262156 L686.253367,94.772583 L689.763794,98.282583 L693.274221,94.772583 Z M677.763794,94.772583 L677.763794,98.771583 L681.763794,98.772583 L681.763794,100.772583 L677.763794,100.772583 L677.763794,104.772583 L675.763794,104.772583 L675.763794,100.772583 L671.763794,100.772583 L671.763794,98.772583 L675.763794,98.772583 L675.763794,94.772583 L677.763794,94.772583 Z M690.763794,81.772583 L690.763794,85.771583 L694.763794,85.772583 L694.763794,87.772583 L690.763794,87.772583 L690.763794,91.772583 L688.763794,91.772583 L688.763794,87.772583 L684.763794,87.772583 L684.763794,85.772583 L688.763794,85.772583 L688.763794,81.772583 L690.763794,81.772583 Z M680.274221,81.772583 L681.763794,83.262156 L678.252794,86.772583 L681.763794,90.28301 L680.274221,91.772583 L676.762794,88.261583 L673.253367,91.772583 L671.763794,90.28301 L675.273794,86.772583 L671.763794,83.262156 L673.253367,81.772583 L676.763794,85.282583 L680.274221,81.772583 Z M693.274221,68.772583 L694.763794,70.262156 L691.252794,73.772583 L694.763794,77.28301 L693.274221,78.772583 L689.762794,75.261583 L686.253367,78.772583 L684.763794,77.28301 L688.273794,73.772583 L684.763794,70.262156 L686.253367,68.772583 L689.763794,72.282583 L693.274221,68.772583 Z M677.763794,68.772583 L677.763794,72.771583 L681.763794,72.772583 L681.763794,74.772583 L677.763794,74.772583 L677.763794,78.772583 L675.763794,78.772583 L675.763794,74.772583 L671.763794,74.772583 L671.763794,72.772583 L675.763794,72.772583 L675.763794,68.772583 L677.763794,68.772583 Z M690.763794,55.772583 L690.763794,59.771583 L694.763794,59.772583 L694.763794,61.772583 L690.763794,61.772583 L690.763794,65.772583 L688.763794,65.772583 L688.763794,61.772583 L684.763794,61.772583 L684.763794,59.772583 L688.763794,59.772583 L688.763794,55.772583 L690.763794,55.772583 Z M680.274221,55.772583 L681.763794,57.262156 L678.252794,60.772583 L681.763794,64.28301 L680.274221,65.772583 L676.762794,62.261583 L673.253367,65.772583 L671.763794,64.28301 L675.273794,60.772583 L671.763794,57.262156 L673.253367,55.772583 L676.763794,59.282583 L680.274221,55.772583 Z M677.763794,42.772583 L677.763794,46.771583 L681.763794,46.772583 L681.763794,48.772583 L677.763794,48.772583 L677.763794,52.772583 L675.763794,52.772583 L675.763794,48.772583 L671.763794,48.772583 L671.763794,46.772583 L675.763794,46.772583 L675.763794,42.772583 L677.763794,42.772583 Z M693.274221,42.772583 L694.763794,44.262156 L691.252794,47.772583 L694.763794,51.28301 L693.274221,52.772583 L689.762794,49.261583 L686.253367,52.772583 L684.763794,51.28301 L688.273794,47.772583 L684.763794,44.262156 L686.253367,42.772583 L689.763794,46.282583 L693.274221,42.772583 Z M690.763794,29.772583 L690.763794,33.771583 L694.763794,33.772583 L694.763794,35.772583 L690.763794,35.772583 L690.763794,39.772583 L688.763794,39.772583 L688.763794,35.772583 L684.763794,35.772583 L684.763794,33.772583 L688.763794,33.772583 L688.763794,29.772583 L690.763794,29.772583 Z M680.274221,29.772583 L681.763794,31.262156 L678.252794,34.772583 L681.763794,38.28301 L680.274221,39.772583 L676.762794,36.261583 L673.253367,39.772583 L671.763794,38.28301 L675.273794,34.772583 L671.763794,31.262156 L673.253367,29.772583 L676.763794,33.282583 L680.274221,29.772583 Z M693.274221,16.772583 L694.763794,18.262156 L691.252794,21.772583 L694.763794,25.28301 L693.274221,26.772583 L689.762794,23.261583 L686.253367,26.772583 L684.763794,25.28301 L688.273794,21.772583 L684.763794,18.262156 L686.253367,16.772583 L689.763794,20.282583 L693.274221,16.772583 Z M677.763794,16.772583 L677.763794,20.771583 L681.763794,20.772583 L681.763794,22.772583 L677.763794,22.772583 L677.763794,26.772583 L675.763794,26.772583 L675.763794,22.772583 L671.763794,22.772583 L671.763794,20.772583 L675.763794,20.772583 L675.763794,16.772583 L677.763794,16.772583 Z M690.763794,3.772583 L690.763794,7.771583 L694.763794,7.772583 L694.763794,9.772583 L690.763794,9.772583 L690.763794,13.772583 L688.763794,13.772583 L688.763794,9.772583 L684.763794,9.772583 L684.763794,7.772583 L688.763794,7.772583 L688.763794,3.772583 L690.763794,3.772583 Z M680.274221,3.772583 L681.763794,5.26215599 L678.252794,8.772583 L681.763794,12.28301 L680.274221,13.772583 L676.762794,10.261583 L673.253367,13.772583 L671.763794,12.28301 L675.273794,8.772583 L671.763794,5.26215599 L673.253367,3.772583 L676.763794,7.282583 L680.274221,3.772583 Z" id="Combined-Shape" fill="#000000"></path>
        </g>
    </g>
</svg>