<?xml version="1.0" encoding="UTF-8"?>
<svg width="384px" height="38px" viewBox="0 0 384 38" version="1.1" xmlns="http://www.w3.org/2000/svg" xmlns:xlink="http://www.w3.org/1999/xlink">
    <title>soldermask</title>
    <g id="Page-1" stroke="none" stroke-width="1" fill="none" fill-rule="evenodd">
        <g id="soldermask" fill="#000000" fill-rule="nonzero">
            <path d="M365.176471,0 C375.572419,0 384,8.50658975 384,19 C384,29.4934102 375.572419,38 365.176471,38 L101.647059,38 C91.2511106,38 82.8235294,29.4934102 82.8235294,19 C82.8235294,8.50658975 91.2511106,0 101.647059,0 L365.176471,0 Z M365.176471,3.8 L101.647059,3.8 C93.3303002,3.8 86.5882353,10.6052718 86.5882353,19 C86.5882353,27.3947282 93.3303002,34.2 101.647059,34.2 L365.176471,34.2 C373.493229,34.2 380.235294,27.3947282 380.235294,19 C380.235294,10.6052718 373.493229,3.8 365.176471,3.8 Z" id="Rectangle"></path>
            <g id="Group">
                <path d="M26.3529412,0 C30.5113205,0 33.8823529,3.4026359 33.8823529,7.6 L33.8823529,30.4 C33.8823529,34.5973641 30.5113205,38 26.3529412,38 L18.7783244,38 C7.49939329,38 0,30.4 0,19 C0,7.6 7.51959928,0 18.7783244,0 L26.3529412,0 Z M26.3529412,3.8 L18.7783244,3.8 C9.59759884,3.8 3.76470588,9.69989364 3.76470588,19 C3.76470588,28.3080611 9.58525883,34.2 18.7783244,34.2 L26.3529412,34.2 C28.4321308,34.2 30.1176471,32.498682 30.1176471,30.4 L30.1176471,7.6 C30.1176471,5.50131795 28.4321308,3.8 26.3529412,3.8 Z" id="Rectangle"></path>
                <path d="M23.5294118,17.1 C24.5690066,17.1 25.4117647,17.950659 25.4117647,19 C25.4117647,20.049341 24.5690066,20.9 23.5294118,20.9 L12.2352941,20.9 C11.1956993,20.9 10.3529412,20.049341 10.3529412,19 C10.3529412,17.950659 11.1956993,17.1 12.2352941,17.1 L23.5294118,17.1 Z" id="Line-2"></path>
            </g>
            <g id="Group-2" transform="translate(41.411765, 0.000000)">
                <path d="M7.52941176,0 C3.37103247,0 0,3.4026359 0,7.6 L0,30.4 C0,34.5973641 3.37103247,38 7.52941176,38 L15.1040285,38 C26.3829596,38 33.8823529,30.4 33.8823529,19 C33.8823529,7.6 26.3627537,0 15.1040285,0 L7.52941176,0 Z M7.52941176,3.8 L15.1040285,3.8 C24.2847541,3.8 30.1176471,9.69989364 30.1176471,19 C30.1176471,28.3080611 24.2970941,34.2 15.1040285,34.2 L7.52941176,34.2 C5.45022212,34.2 3.76470588,32.498682 3.76470588,30.4 L3.76470588,7.6 C3.76470588,5.50131795 5.45022212,3.8 7.52941176,3.8 Z" id="Shape"></path>
                <path d="M16,11.4 C17.0395948,11.4 17.8823529,12.250659 17.8823529,13.3 L17.8823529,17.1 L21.6470588,17.1 C22.6866536,17.1 23.5294118,17.950659 23.5294118,19 C23.5294118,20.049341 22.6866536,20.9 21.6470588,20.9 L17.8823529,20.9 L17.8823529,24.7 C17.8823529,25.749341 17.0395948,26.6 16,26.6 C14.9604052,26.6 14.1176471,25.749341 14.1176471,24.7 L14.1176471,20.9 L10.3529412,20.9 C9.31334635,20.9 8.47058824,20.049341 8.47058824,19 C8.47058824,17.950659 9.31334635,17.1 10.3529412,17.1 L14.1176471,17.1 L14.1176471,13.3 C14.1176471,12.250659 14.9604052,11.4 16,11.4 Z" id="Path"></path>
            </g>
        </g>
    </g>
</svg>