<?xml version="1.0" standalone="no"?>
 <!DOCTYPE svg PUBLIC "-//W3C//DTD SVG 1.1//EN" 
 "http://www.w3.org/Graphics/SVG/1.1/DTD/svg11.dtd"> 
<svg
  xmlns:svg="http://www.w3.org/2000/svg"
  xmlns="http://www.w3.org/2000/svg"
  xmlns:xlink="http://www.w3.org/1999/xlink"
  version="1.1"
  width="302.1584mm" height="257.3782mm" viewBox="0.0000 0.0000 302.1584 257.3782">
<title>SVG Image created as zebras-brd.svg date 2023/05/21 13:40:06 </title>
  <desc>Image generated by PCBNEW </desc>
<g style="fill:#000000; fill-opacity:1.0000;stroke:#000000; stroke-opacity:1.0000;
stroke-linecap:round; stroke-linejoin:round;"
 transform="translate(0 0) scale(1 1)">
</g>
<g style="fill:#000000; fill-opacity:0.0; 
stroke:#000000; stroke-width:0.0000; stroke-opacity:1; 
stroke-linecap:round; stroke-linejoin:round;">
</g>
<g style="fill:#E8B2A7; fill-opacity:0.0; 
stroke:#E8B2A7; stroke-width:0.0000; stroke-opacity:1; 
stroke-linecap:round; stroke-linejoin:round;">
</g>
<g style="fill:#E8B2A7; fill-opacity:0.0; 
stroke:#E8B2A7; stroke-width:0.1000; stroke-opacity:1; 
stroke-linecap:round; stroke-linejoin:round;">
<path d="M163.5708 181.6395 A1.5000 1.5000 0.0 0 0 160.5708 181.6395" />
<path d="M104.7708 181.6395 A1.5000 1.5000 0.0 0 0 101.7708 181.6395" />
<path d="M241.9708 181.6395 A1.5000 1.5000 0.0 0 0 238.9708 181.6395" />
<path d="M281.1708 201.5709
L281.1708 235.6395
" />
<path d="M143.9708 201.5709
L143.9708 235.6395
" />
<path d="M183.1708 201.5709
L183.1708 235.6395
" />
<path d="M160.5708 235.6395 A1.5000 1.5000 0.0 0 0 163.5708 235.6395" />
<path d="M140.9708 235.6395
L140.9708 201.5709
" />
<path d="M160.5708 235.6395
L160.5708 181.6395
" />
<path d="M124.3708 201.5709 A1.5000 1.5000 0.0 0 0 121.3708 201.5709" />
<path d="M121.3708 235.6395
L121.3708 201.5709
" />
<path d="M65.5708 201.5709 A1.5000 1.5000 0.0 0 0 62.5708 201.5709" />
<path d="M199.7708 235.6395
L199.7708 201.5709
" />
<path d="M238.9708 235.6395 A1.5000 1.5000 0.0 0 0 241.9708 235.6395" />
<path d="M62.5708 235.6395
L62.5708 201.5709
" />
<path d="M199.7708 235.6395 A1.5000 1.5000 0.0 0 0 202.7708 235.6395" />
<path d="M222.3708 201.5709
L222.3708 235.6395
" />
<path d="M101.7708 235.6395 A1.5000 1.5000 0.0 0 0 104.7708 235.6395" />
<path d="M202.7708 201.5709
L202.7708 235.6395
" />
<path d="M104.7708 181.6395
L104.7708 235.6395
" />
<path d="M281.1708 201.5709 A1.5000 1.5000 0.0 0 0 278.1708 201.5709" />
<path d="M45.9708 201.5709 A1.5000 1.5000 0.0 0 0 42.9708 201.5709" />
<path d="M180.1708 235.6395 A1.5000 1.5000 0.0 0 0 183.1708 235.6395" />
<path d="M101.7708 235.6395
L101.7708 181.6395
" />
<path d="M238.9708 235.6395
L238.9708 181.6395
" />
<path d="M258.5708 235.6395 A1.5000 1.5000 0.0 0 0 261.5708 235.6395" />
<path d="M65.5708 201.5709
L65.5708 235.6395
" />
<path d="M261.5708 201.5709 A1.5000 1.5000 0.0 0 0 258.5708 201.5709" />
<path d="M124.3708 201.5709
L124.3708 235.6395
" />
<path d="M180.1708 235.6395
L180.1708 201.5709
" />
<path d="M85.1708 201.5709 A1.5000 1.5000 0.0 0 0 82.1708 201.5709" />
<path d="M62.5708 235.6395 A1.5000 1.5000 0.0 0 0 65.5708 235.6395" />
<path d="M241.9708 181.6395
L241.9708 235.6395
" />
<path d="M278.1708 235.6395 A1.5000 1.5000 0.0 0 0 281.1708 235.6395" />
<path d="M82.1708 235.6395 A1.5000 1.5000 0.0 0 0 85.1708 235.6395" />
<path d="M219.3708 235.6395
L219.3708 201.5709
" />
<path d="M219.3708 235.6395 A1.5000 1.5000 0.0 0 0 222.3708 235.6395" />
<path d="M261.5708 201.5709
L261.5708 235.6395
" />
<path d="M143.9708 201.5709 A1.5000 1.5000 0.0 0 0 140.9708 201.5709" />
<path d="M278.1708 235.6395
L278.1708 201.5709
" />
<path d="M45.9708 201.5709
L45.9708 235.6395
" />
<path d="M42.9708 235.6395
L42.9708 201.5709
" />
<path d="M85.1708 201.5709
L85.1708 235.6395
" />
<path d="M163.5708 181.6395
L163.5708 235.6395
" />
<path d="M183.1708 201.5709 A1.5000 1.5000 0.0 0 0 180.1708 201.5709" />
<path d="M121.3708 235.6395 A1.5000 1.5000 0.0 0 0 124.3708 235.6395" />
<path d="M82.1708 235.6395
L82.1708 201.5709
" />
<path d="M222.3708 201.5709 A1.5000 1.5000 0.0 0 0 219.3708 201.5709" />
<path d="M258.5708 235.6395
L258.5708 201.5709
" />
<path d="M42.9708 235.6395 A1.5000 1.5000 0.0 0 0 45.9708 235.6395" />
<path d="M140.9708 235.6395 A1.5000 1.5000 0.0 0 0 143.9708 235.6395" />
<path d="M202.7708 201.5709 A1.5000 1.5000 0.0 0 0 199.7708 201.5709" />
<g >
</g>
<g >
</g>
<g >
</g>
<g >
</g>
<g >
</g>
<g >
</g>
<g >
</g>
<g >
</g>
<g >
</g>
<g >
</g>
<g >
</g>
<g >
</g>
<g >
</g>
<g >
</g>
<g >
</g>
<g >
</g>
<g >
</g>
<g >
</g>
<g >
</g>
<g >
</g>
<g >
</g>
<g >
</g>
<g >
</g>
<g >
</g>
<g >
</g>
<g >
</g>
<g >
</g>
<g >
</g>
<g >
</g>
<g >
</g>
<g >
</g>
<g >
</g>
<g >
</g>
<g >
</g>
<g >
</g>
<g >
</g>
<g >
</g>
<g >
</g>
<g >
</g>
<g >
</g>
<g >
</g>
<g >
</g>
<g >
</g>
<g >
</g>
</g> 
</svg>
