<?xml version="1.0" standalone="no"?>
 <!DOCTYPE svg PUBLIC "-//W3C//DTD SVG 1.1//EN" 
 "http://www.w3.org/Graphics/SVG/1.1/DTD/svg11.dtd"> 
<svg
  xmlns:svg="http://www.w3.org/2000/svg"
  xmlns="http://www.w3.org/2000/svg"
  xmlns:xlink="http://www.w3.org/1999/xlink"
  version="1.1"
  width="280.0858mm" height="213.0298mm" viewBox="0.0000 0.0000 280.0858 213.0298">
<title>SVG Image created as zebras-Edge_Cuts.svg date 2023/05/15 21:01:23 </title>
  <desc>Image generated by PCBNEW </desc>
<g style="fill:#000000; fill-opacity:1.0000;stroke:#000000; stroke-opacity:1.0000;
stroke-linecap:round; stroke-linejoin:round;"
 transform="translate(0 0) scale(1 1)">
</g>
<g style="fill:#000000; fill-opacity:0.0; 
stroke:#000000; stroke-width:0.0000; stroke-opacity:1; 
stroke-linecap:round; stroke-linejoin:round;">
</g>
<g style="fill:#D0D2CD; fill-opacity:0.0; 
stroke:#D0D2CD; stroke-width:0.0000; stroke-opacity:1; 
stroke-linecap:round; stroke-linejoin:round;">
</g>
<g style="fill:#D0D2CD; fill-opacity:0.0; 
stroke:#D0D2CD; stroke-width:0.1000; stroke-opacity:1; 
stroke-linecap:round; stroke-linejoin:round;">
<path d="M0.0500 35.0500 A5.0000 5.0000 0.0 0 0 5.0500 40.0500" />
<path d="M275.0500 40.0500 A5.0000 5.0000 0.0 0 0 280.0500 35.0500" />
<path d="M280.0500 5.0500 A5.0000 5.0000 0.0 0 0 275.0500 0.0500" />
<path d="M5.0500 0.0500 A5.0000 5.0000 0.0 0 0 0.0500 5.0500" />
<path d="M219.9500 130.4855 A1.5000 1.5000 0.0 0 0 216.9500 130.4855" />
<path d="M141.5500 130.4855 A1.5000 1.5000 0.0 0 0 138.5500 130.4855" />
<path d="M82.7500 130.4855 A1.5000 1.5000 0.0 0 0 79.7500 130.4855" />
<path d="M5.0500 43.5500 A5.0000 5.0000 0.0 0 0 0.0500 48.5500" />
<path d="M0.0500 58.5500 A5.0000 5.0000 0.0 0 0 5.0500 63.5500" />
<path d="M275.0500 63.5500 A5.0000 5.0000 0.0 0 0 280.0500 58.5500" />
<path d="M280.0500 48.5500 A5.0000 5.0000 0.0 0 0 275.0500 43.5500" />
<path d="M0.0500 207.9855 A5.0000 5.0000 0.0 0 0 5.0500 212.9855" />
<path d="M275.0500 212.9855 A5.0000 5.0000 0.0 0 0 280.0500 207.9855" />
<path d="M280.0500 122.9855 A5.0000 5.0000 0.0 0 0 275.0500 117.9855" />
<path d="M5.0500 117.9855 A5.0000 5.0000 0.0 0 0 0.0500 122.9855" />
<path d="M280.0500 48.5500
L280.0500 58.5500
" />
<path d="M260.8500 103.4500
L254.8500 103.4500
" />
<path d="M252.8500 101.4500
L252.8500 65.5500
" />
<path d="M180.7500 169.9170 A1.5000 1.5000 0.0 0 0 177.7500 169.9170" />
<path d="M118.9500 203.9855 A1.5000 1.5000 0.0 0 0 121.9500 203.9855" />
<path d="M280.0500 122.9855
L280.0500 207.9855
" />
<path d="M20.9500 203.9855 A1.5000 1.5000 0.0 0 0 23.9500 203.9855" />
<path d="M5.0500 43.5500
L275.0500 43.5500
" />
<path d="M275.0500 40.0500
L5.0500 40.0500
" />
<path d="M236.5500 203.9855
L236.5500 169.9170
" />
<path d="M164.0500 65.5500
L164.0500 101.4500
" />
<path d="M115.6500 101.4500 A2.0000 2.0000 0.0 0 0 117.6500 103.4500" />
<path d="M244.6500 63.5500 A2.0000 2.0000 0.0 0 0 242.6500 65.5500" />
<path d="M200.3500 169.9170 A1.5000 1.5000 0.0 0 0 197.3500 169.9170" />
<path d="M262.8500 65.5500
L262.8500 101.4500
" />
<path d="M37.0500 65.5500 A2.0000 2.0000 0.0 0 0 35.0500 63.5500" />
<path d="M113.6500 63.5500
L107.4500 63.5500
" />
<path d="M95.4500 65.5500 A2.0000 2.0000 0.0 0 0 93.4500 63.5500" />
<path d="M123.6500 103.4500
L117.6500 103.4500
" />
<path d="M103.4500 103.4500 A2.0000 2.0000 0.0 0 0 105.4500 101.4500" />
<path d="M69.2500 63.5500 A2.0000 2.0000 0.0 0 0 67.2500 65.5500" />
<path d="M172.2500 63.5500
L166.0500 63.5500
" />
<path d="M60.1500 203.9855
L60.1500 169.9170
" />
<path d="M99.3500 203.9855 A1.5000 1.5000 0.0 0 0 102.3500 203.9855" />
<path d="M28.8500 63.5500 A2.0000 2.0000 0.0 0 0 26.8500 65.5500" />
<path d="M264.8500 63.5500 A2.0000 2.0000 0.0 0 0 262.8500 65.5500" />
<path d="M186.2500 63.5500 A2.0000 2.0000 0.0 0 0 184.2500 65.5500" />
<path d="M161.1500 169.9170 A1.5000 1.5000 0.0 0 0 158.1500 169.9170" />
<path d="M107.4500 63.5500 A2.0000 2.0000 0.0 0 0 105.4500 65.5500" />
<path d="M141.5500 130.4855
L141.5500 203.9855
" />
<path d="M63.1500 169.9170
L63.1500 203.9855
" />
<path d="M95.4500 101.4500 A2.0000 2.0000 0.0 0 0 97.4500 103.4500" />
<path d="M37.0500 101.4500
L37.0500 65.5500
" />
<path d="M20.9500 203.9855
L20.9500 169.9170
" />
<path d="M202.4500 103.4500
L196.4500 103.4500
" />
<path d="M0.0500 35.0500
L0.0500 5.0500
" />
<path d="M275.0500 212.9855
L5.0500 212.9855
" />
<path d="M23.9500 169.9170
L23.9500 203.9855
" />
<path d="M47.0500 65.5500
L47.0500 101.4500
" />
<path d="M256.1500 203.9855
L256.1500 169.9170
" />
<path d="M121.9500 169.9170 A1.5000 1.5000 0.0 0 0 118.9500 169.9170" />
<path d="M162.0500 103.4500
L156.0500 103.4500
" />
<path d="M239.5500 169.9170
L239.5500 203.9855
" />
<path d="M197.3500 203.9855 A1.5000 1.5000 0.0 0 0 200.3500 203.9855" />
<path d="M95.4500 101.4500
L95.4500 65.5500
" />
<path d="M57.2500 65.5500 A2.0000 2.0000 0.0 0 0 55.2500 63.5500" />
<path d="M275.0500 63.5500
L264.8500 63.5500
" />
<path d="M154.0500 101.4500 A2.0000 2.0000 0.0 0 0 156.0500 103.4500" />
<path d="M197.3500 203.9855
L197.3500 169.9170
" />
<path d="M5.0500 0.0500
L275.0500 0.0500
" />
<path d="M60.1500 203.9855 A1.5000 1.5000 0.0 0 0 63.1500 203.9855" />
<path d="M182.2500 103.4500 A2.0000 2.0000 0.0 0 0 184.2500 101.4500" />
<path d="M123.6500 103.4500 A2.0000 2.0000 0.0 0 0 125.6500 101.4500" />
<path d="M256.1500 203.9855 A1.5000 1.5000 0.0 0 0 259.1500 203.9855" />
<path d="M162.0500 103.4500 A2.0000 2.0000 0.0 0 0 164.0500 101.4500" />
<path d="M232.6500 101.4500 A2.0000 2.0000 0.0 0 0 234.6500 103.4500" />
<path d="M125.6500 65.5500
L125.6500 101.4500
" />
<path d="M232.6500 65.5500 A2.0000 2.0000 0.0 0 0 230.6500 63.5500" />
<path d="M219.9500 130.4855
L219.9500 203.9855
" />
<path d="M40.5500 203.9855 A1.5000 1.5000 0.0 0 0 43.5500 203.9855" />
<path d="M16.8500 101.4500
L16.8500 65.5500
" />
<path d="M63.1500 169.9170 A1.5000 1.5000 0.0 0 0 60.1500 169.9170" />
<path d="M158.1500 203.9855
L158.1500 169.9170
" />
<path d="M102.3500 169.9170
L102.3500 203.9855
" />
<path d="M239.5500 169.9170 A1.5000 1.5000 0.0 0 0 236.5500 169.9170" />
<path d="M16.8500 101.4500 A2.0000 2.0000 0.0 0 0 18.8500 103.4500" />
<path d="M93.4500 63.5500
L69.2500 63.5500
" />
<path d="M43.5500 169.9170
L43.5500 203.9855
" />
<path d="M236.5500 203.9855 A1.5000 1.5000 0.0 0 0 239.5500 203.9855" />
<path d="M5.0500 117.9855
L275.0500 117.9855
" />
<path d="M26.8500 65.5500
L26.8500 101.4500
" />
<path d="M216.9500 203.9855
L216.9500 130.4855
" />
<path d="M79.7500 203.9855
L79.7500 130.4855
" />
<path d="M65.2500 103.4500 A2.0000 2.0000 0.0 0 0 67.2500 101.4500" />
<path d="M158.1500 203.9855 A1.5000 1.5000 0.0 0 0 161.1500 203.9855" />
<path d="M115.6500 101.4500
L115.6500 65.5500
" />
<path d="M23.9500 169.9170 A1.5000 1.5000 0.0 0 0 20.9500 169.9170" />
<path d="M194.4500 101.4500 A2.0000 2.0000 0.0 0 0 196.4500 103.4500" />
<path d="M259.1500 169.9170 A1.5000 1.5000 0.0 0 0 256.1500 169.9170" />
<path d="M115.6500 65.5500 A2.0000 2.0000 0.0 0 0 113.6500 63.5500" />
<path d="M37.0500 101.4500 A2.0000 2.0000 0.0 0 0 39.0500 103.4500" />
<path d="M127.6500 63.5500 A2.0000 2.0000 0.0 0 0 125.6500 65.5500" />
<path d="M82.7500 130.4855
L82.7500 203.9855
" />
<path d="M230.6500 63.5500
L206.4500 63.5500
" />
<path d="M192.4500 63.5500
L186.2500 63.5500
" />
<path d="M180.7500 169.9170
L180.7500 203.9855
" />
<path d="M49.0500 63.5500 A2.0000 2.0000 0.0 0 0 47.0500 65.5500" />
<path d="M79.7500 203.9855 A1.5000 1.5000 0.0 0 0 82.7500 203.9855" />
<path d="M67.2500 65.5500
L67.2500 101.4500
" />
<path d="M200.3500 169.9170
L200.3500 203.9855
" />
<path d="M177.7500 203.9855 A1.5000 1.5000 0.0 0 0 180.7500 203.9855" />
<path d="M35.0500 63.5500
L28.8500 63.5500
" />
<path d="M280.0500 5.0500
L280.0500 35.0500
" />
<path d="M40.5500 203.9855
L40.5500 169.9170
" />
<path d="M45.0500 103.4500 A2.0000 2.0000 0.0 0 0 47.0500 101.4500" />
<path d="M216.9500 203.9855 A1.5000 1.5000 0.0 0 0 219.9500 203.9855" />
<path d="M177.7500 203.9855
L177.7500 169.9170
" />
<path d="M43.5500 169.9170 A1.5000 1.5000 0.0 0 0 40.5500 169.9170" />
<path d="M250.8500 63.5500
L244.6500 63.5500
" />
<path d="M55.2500 63.5500
L49.0500 63.5500
" />
<path d="M242.6500 65.5500
L242.6500 101.4500
" />
<path d="M194.4500 65.5500 A2.0000 2.0000 0.0 0 0 192.4500 63.5500" />
<path d="M99.3500 203.9855
L99.3500 169.9170
" />
<path d="M57.2500 101.4500 A2.0000 2.0000 0.0 0 0 59.2500 103.4500" />
<path d="M154.0500 65.5500 A2.0000 2.0000 0.0 0 0 152.0500 63.5500" />
<path d="M65.2500 103.4500
L59.2500 103.4500
" />
<path d="M45.0500 103.4500
L39.0500 103.4500
" />
<path d="M174.2500 101.4500
L174.2500 65.5500
" />
<path d="M103.4500 103.4500
L97.4500 103.4500
" />
<path d="M105.4500 65.5500
L105.4500 101.4500
" />
<path d="M194.4500 101.4500
L194.4500 65.5500
" />
<path d="M24.8500 103.4500
L18.8500 103.4500
" />
<path d="M204.4500 65.5500
L204.4500 101.4500
" />
<path d="M102.3500 169.9170 A1.5000 1.5000 0.0 0 0 99.3500 169.9170" />
<path d="M16.8500 65.5500 A2.0000 2.0000 0.0 0 0 14.8500 63.5500" />
<path d="M154.0500 101.4500
L154.0500 65.5500
" />
<path d="M138.5500 203.9855
L138.5500 130.4855
" />
<path d="M118.9500 203.9855
L118.9500 169.9170
" />
<path d="M240.6500 103.4500
L234.6500 103.4500
" />
<path d="M152.0500 63.5500
L127.6500 63.5500
" />
<path d="M14.8500 63.5500
L5.0500 63.5500
" />
<path d="M0.0500 58.5500
L0.0500 48.5500
" />
<path d="M0.0500 207.9855
L0.0500 122.9855
" />
<path d="M202.4500 103.4500 A2.0000 2.0000 0.0 0 0 204.4500 101.4500" />
<path d="M260.8500 103.4500 A2.0000 2.0000 0.0 0 0 262.8500 101.4500" />
<path d="M138.5500 203.9855 A1.5000 1.5000 0.0 0 0 141.5500 203.9855" />
<path d="M174.2500 101.4500 A2.0000 2.0000 0.0 0 0 176.2500 103.4500" />
<path d="M240.6500 103.4500 A2.0000 2.0000 0.0 0 0 242.6500 101.4500" />
<path d="M252.8500 101.4500 A2.0000 2.0000 0.0 0 0 254.8500 103.4500" />
<path d="M161.1500 169.9170
L161.1500 203.9855
" />
<path d="M166.0500 63.5500 A2.0000 2.0000 0.0 0 0 164.0500 65.5500" />
<path d="M174.2500 65.5500 A2.0000 2.0000 0.0 0 0 172.2500 63.5500" />
<path d="M206.4500 63.5500 A2.0000 2.0000 0.0 0 0 204.4500 65.5500" />
<path d="M24.8500 103.4500 A2.0000 2.0000 0.0 0 0 26.8500 101.4500" />
<path d="M184.2500 65.5500
L184.2500 101.4500
" />
<path d="M57.2500 101.4500
L57.2500 65.5500
" />
<path d="M182.2500 103.4500
L176.2500 103.4500
" />
<path d="M232.6500 101.4500
L232.6500 65.5500
" />
<path d="M121.9500 169.9170
L121.9500 203.9855
" />
<path d="M252.8500 65.5500 A2.0000 2.0000 0.0 0 0 250.8500 63.5500" />
<path d="M259.1500 169.9170
L259.1500 203.9855
" />
<g >
</g>
<g >
</g>
<g >
</g>
<g >
</g>
<g >
</g>
<g >
</g>
<g >
</g>
<g >
</g>
<g >
</g>
<g >
</g>
<g >
</g>
<g >
</g>
<g >
</g>
<g >
</g>
<g >
</g>
<g >
</g>
<g >
</g>
<g >
</g>
<g >
</g>
<g >
</g>
<g >
</g>
<g >
</g>
<g >
</g>
<g >
</g>
<g >
</g>
<g >
</g>
<g >
</g>
<g >
</g>
<g >
</g>
<g >
</g>
</g> 
</svg>
