<?xml version="1.0" standalone="no"?>
 <!DOCTYPE svg PUBLIC "-//W3C//DTD SVG 1.1//EN" 
 "http://www.w3.org/Graphics/SVG/1.1/DTD/svg11.dtd"> 
<svg
  xmlns:svg="http://www.w3.org/2000/svg"
  xmlns="http://www.w3.org/2000/svg"
  xmlns:xlink="http://www.w3.org/1999/xlink"
  version="1.1"
  width="419.9890mm" height="594.0044mm" viewBox="0.0000 0.0000 419.9890 594.0044">
<title>SVG Image created as zebras-User_Drawings.svg date 2023/05/12 16:03:57 </title>
  <desc>Image generated by PCBNEW </desc>
<g style="fill:#000000; fill-opacity:1.0000;stroke:#000000; stroke-opacity:1.0000;
stroke-linecap:round; stroke-linejoin:round;"
 transform="translate(0 0) scale(1 1)">
</g>
<g style="fill:#000000; fill-opacity:0.0; 
stroke:#000000; stroke-width:0.0000; stroke-opacity:1; 
stroke-linecap:round; stroke-linejoin:round;">
</g>
<g style="fill:#C2C2C2; fill-opacity:0.0; 
stroke:#C2C2C2; stroke-width:0.0000; stroke-opacity:1; 
stroke-linecap:round; stroke-linejoin:round;">
</g>
<g style="fill:#C2C2C2; fill-opacity:0.0; 
stroke:#C2C2C2; stroke-width:0.1500; stroke-opacity:1; 
stroke-linecap:round; stroke-linejoin:round;">
<path style="fill:#C2C2C2; fill-opacity:0.0; 
stroke:#C2C2C2; stroke-width:0.1500; stroke-opacity:1; 
stroke-linecap:round; stroke-linejoin:round;fill:none"
d="M 65.6000,314.4000
79.6000,314.4000
79.6000,394.4000
65.6000,394.4000
Z" /> 
<path style="fill:#C2C2C2; fill-opacity:0.0; 
stroke:#C2C2C2; stroke-width:0.1500; stroke-opacity:1; 
stroke-linecap:round; stroke-linejoin:round;fill:none"
d="M 85.2000,314.4000
99.2000,314.4000
99.2000,394.4000
85.2000,394.4000
Z" /> 
<path style="fill:#C2C2C2; fill-opacity:0.0; 
stroke:#C2C2C2; stroke-width:0.1500; stroke-opacity:1; 
stroke-linecap:round; stroke-linejoin:round;fill:none"
d="M 183.2000,314.4000
197.2000,314.4000
197.2000,394.4000
183.2000,394.4000
Z" /> 
<path style="fill:#C2C2C2; fill-opacity:0.0; 
stroke:#C2C2C2; stroke-width:0.1500; stroke-opacity:1; 
stroke-linecap:round; stroke-linejoin:round;fill:none"
d="M 261.6000,314.4000
275.6000,314.4000
275.6000,394.4000
261.6000,394.4000
Z" /> 
<path style="fill:#C2C2C2; fill-opacity:0.0; 
stroke:#C2C2C2; stroke-width:0.1500; stroke-opacity:1; 
stroke-linecap:round; stroke-linejoin:round;fill:none"
d="M 300.8000,314.4000
314.8000,314.4000
314.8000,394.4000
300.8000,394.4000
Z" /> 
<path style="fill:#C2C2C2; fill-opacity:0.0; 
stroke:#C2C2C2; stroke-width:0.1500; stroke-opacity:1; 
stroke-linecap:round; stroke-linejoin:round;fill:none"
d="M 281.2000,314.4000
295.2000,314.4000
295.2000,394.4000
281.2000,394.4000
Z" /> 
<path style="fill:#C2C2C2; fill-opacity:0.0; 
stroke:#C2C2C2; stroke-width:0.1500; stroke-opacity:1; 
stroke-linecap:round; stroke-linejoin:round;fill:none"
d="M 242.0000,314.4000
256.0000,314.4000
256.0000,394.4000
242.0000,394.4000
Z" /> 
<path style="fill:#C2C2C2; fill-opacity:0.0; 
stroke:#C2C2C2; stroke-width:0.1500; stroke-opacity:1; 
stroke-linecap:round; stroke-linejoin:round;fill:none"
d="M 222.4000,314.4000
236.4000,314.4000
236.4000,394.4000
222.4000,394.4000
Z" /> 
<path style="fill:#C2C2C2; fill-opacity:0.0; 
stroke:#C2C2C2; stroke-width:0.1500; stroke-opacity:1; 
stroke-linecap:round; stroke-linejoin:round;fill:none"
d="M 144.0000,314.4000
158.0000,314.4000
158.0000,394.4000
144.0000,394.4000
Z" /> 
<path style="fill:#C2C2C2; fill-opacity:0.0; 
stroke:#C2C2C2; stroke-width:0.1500; stroke-opacity:1; 
stroke-linecap:round; stroke-linejoin:round;fill:none"
d="M 320.4000,314.4000
334.4000,314.4000
334.4000,394.4000
320.4000,394.4000
Z" /> 
<path style="fill:#C2C2C2; fill-opacity:0.0; 
stroke:#C2C2C2; stroke-width:0.1500; stroke-opacity:1; 
stroke-linecap:round; stroke-linejoin:round;fill:none"
d="M 124.4000,314.4000
138.4000,314.4000
138.4000,394.4000
124.4000,394.4000
Z" /> 
<path style="fill:#C2C2C2; fill-opacity:0.0; 
stroke:#C2C2C2; stroke-width:0.1500; stroke-opacity:1; 
stroke-linecap:round; stroke-linejoin:round;fill:none"
d="M 104.8000,314.4000
118.8000,314.4000
118.8000,394.4000
104.8000,394.4000
Z" /> 
<path style="fill:#C2C2C2; fill-opacity:0.0; 
stroke:#C2C2C2; stroke-width:0.1500; stroke-opacity:1; 
stroke-linecap:round; stroke-linejoin:round;fill:none"
d="M 163.6000,314.4000
177.6000,314.4000
177.6000,394.4000
163.6000,394.4000
Z" /> 
<path style="fill:#C2C2C2; fill-opacity:0.0; 
stroke:#C2C2C2; stroke-width:0.1500; stroke-opacity:1; 
stroke-linecap:round; stroke-linejoin:round;fill:none"
d="M 202.8000,314.4000
216.8000,314.4000
216.8000,394.4000
202.8000,394.4000
Z" /> 
<path style="fill:#C2C2C2; fill-opacity:0.0; 
stroke:#C2C2C2; stroke-width:0.1500; stroke-opacity:1; 
stroke-linecap:round; stroke-linejoin:round;fill:none"
d="M 254.4000,314.4000
264.4000,314.4000
264.4000,354.4000
254.4000,354.4000
Z" /> 
<path style="fill:#C2C2C2; fill-opacity:0.0; 
stroke:#C2C2C2; stroke-width:0.1500; stroke-opacity:1; 
stroke-linecap:round; stroke-linejoin:round;fill:none"
d="M 214.0000,314.4000
224.0000,314.4000
224.0000,354.4000
214.0000,354.4000
Z" /> 
<path style="fill:#C2C2C2; fill-opacity:0.0; 
stroke:#C2C2C2; stroke-width:0.1500; stroke-opacity:1; 
stroke-linecap:round; stroke-linejoin:round;fill:none"
d="M 234.2000,314.4000
244.2000,314.4000
244.2000,354.4000
234.2000,354.4000
Z" /> 
<path style="fill:#C2C2C2; fill-opacity:0.0; 
stroke:#C2C2C2; stroke-width:0.1500; stroke-opacity:1; 
stroke-linecap:round; stroke-linejoin:round;fill:none"
d="M 76.8000,314.4000
86.8000,314.4000
86.8000,354.4000
76.8000,354.4000
Z" /> 
<path style="fill:#C2C2C2; fill-opacity:0.0; 
stroke:#C2C2C2; stroke-width:0.1500; stroke-opacity:1; 
stroke-linecap:round; stroke-linejoin:round;fill:none"
d="M 312.8000,314.4000
322.8000,314.4000
322.8000,354.4000
312.8000,354.4000
Z" /> 
<path style="fill:#C2C2C2; fill-opacity:0.0; 
stroke:#C2C2C2; stroke-width:0.1500; stroke-opacity:1; 
stroke-linecap:round; stroke-linejoin:round;fill:none"
d="M 117.2000,314.4000
127.2000,314.4000
127.2000,354.4000
117.2000,354.4000
Z" /> 
<path style="fill:#C2C2C2; fill-opacity:0.0; 
stroke:#C2C2C2; stroke-width:0.1500; stroke-opacity:1; 
stroke-linecap:round; stroke-linejoin:round;fill:none"
d="M 97.0000,314.4000
107.0000,314.4000
107.0000,354.4000
97.0000,354.4000
Z" /> 
<path style="fill:#C2C2C2; fill-opacity:0.0; 
stroke:#C2C2C2; stroke-width:0.1500; stroke-opacity:1; 
stroke-linecap:round; stroke-linejoin:round;fill:none"
d="M 175.6000,314.4000
185.6000,314.4000
185.6000,354.4000
175.6000,354.4000
Z" /> 
<path style="fill:#C2C2C2; fill-opacity:0.0; 
stroke:#C2C2C2; stroke-width:0.1500; stroke-opacity:1; 
stroke-linecap:round; stroke-linejoin:round;fill:none"
d="M 155.4000,314.4000
165.4000,314.4000
165.4000,354.4000
155.4000,354.4000
Z" /> 
<path style="fill:#C2C2C2; fill-opacity:0.0; 
stroke:#C2C2C2; stroke-width:0.1500; stroke-opacity:1; 
stroke-linecap:round; stroke-linejoin:round;fill:none"
d="M 292.6000,314.4000
302.6000,314.4000
302.6000,354.4000
292.6000,354.4000
Z" /> 
</g>
<g style="fill:#C2C2C2; fill-opacity:1.0000; 
stroke:#C2C2C2; stroke-width:0.0000; stroke-opacity:1; 
stroke-linecap:round; stroke-linejoin:round;">
<circle cx="74.3650" cy="62.4170" r="0.2540" /> 
<g >
</g>
<g >
</g>
<g >
</g>
<g >
</g>
<g >
</g>
<g >
</g>
<g >
</g>
<g >
</g>
<g >
</g>
<g >
</g>
<g >
</g>
<g >
</g>
<g >
</g>
<g >
</g>
<g >
</g>
<g >
</g>
</g>
<g style="fill:#000000; fill-opacity:1.0000; 
stroke:#000000; stroke-width:0.0000; stroke-opacity:1; 
stroke-linecap:round; stroke-linejoin:round;">
</g>
<g style="fill:#D0D2CD; fill-opacity:1.0000; 
stroke:#D0D2CD; stroke-width:0.0000; stroke-opacity:1; 
stroke-linecap:round; stroke-linejoin:round;">
</g>
<g style="fill:#D0D2CD; fill-opacity:0.0; 
stroke:#D0D2CD; stroke-width:0.1000; stroke-opacity:1; 
stroke-linecap:round; stroke-linejoin:round;">
<path d="M276.9000 392.9000 A1.5000 1.5000 0.0 0 0 279.9000 392.9000" />
<path d="M279.9000 315.9000
L279.9000 392.9000
" />
<path d="M276.9000 392.9000
L276.9000 315.9000
" />
<path d="M279.9000 315.9000 A1.5000 1.5000 0.0 0 0 276.9000 315.9000" />
<path d="M201.5000 315.9000 A1.5000 1.5000 0.0 0 0 198.5000 315.9000" />
<path d="M198.5000 392.9000
L198.5000 315.9000
" />
<path d="M201.5000 315.9000
L201.5000 392.9000
" />
<path d="M198.5000 392.9000 A1.5000 1.5000 0.0 0 0 201.5000 392.9000" />
<path d="M142.7000 315.9000
L142.7000 392.9000
" />
<path d="M139.7000 392.9000 A1.5000 1.5000 0.0 0 0 142.7000 392.9000" />
<path d="M139.7000 392.9000
L139.7000 315.9000
" />
<path d="M142.7000 315.9000 A1.5000 1.5000 0.0 0 0 139.7000 315.9000" />
<path d="M319.1000 356.9000
L319.1000 392.9000
" />
<path d="M316.1000 392.9000 A1.5000 1.5000 0.0 0 0 319.1000 392.9000" />
<path d="M319.1000 356.9000 A1.5000 1.5000 0.0 0 0 316.1000 356.9000" />
<path d="M316.1000 392.9000
L316.1000 356.9000
" />
<path d="M299.5000 356.9000
L299.5000 392.9000
" />
<path d="M296.5000 392.9000 A1.5000 1.5000 0.0 0 0 299.5000 392.9000" />
<path d="M299.5000 356.9000 A1.5000 1.5000 0.0 0 0 296.5000 356.9000" />
<path d="M296.5000 392.9000
L296.5000 356.9000
" />
<path d="M260.3000 356.9000
L260.3000 392.9000
" />
<path d="M257.3000 392.9000 A1.5000 1.5000 0.0 0 0 260.3000 392.9000" />
<path d="M260.3000 356.9000 A1.5000 1.5000 0.0 0 0 257.3000 356.9000" />
<path d="M257.3000 392.9000
L257.3000 356.9000
" />
<path d="M240.7000 356.9000
L240.7000 392.9000
" />
<path d="M237.7000 392.9000 A1.5000 1.5000 0.0 0 0 240.7000 392.9000" />
<path d="M240.7000 356.9000 A1.5000 1.5000 0.0 0 0 237.7000 356.9000" />
<path d="M237.7000 392.9000
L237.7000 356.9000
" />
<path d="M221.1000 356.9000
L221.1000 392.9000
" />
<path d="M218.1000 392.9000 A1.5000 1.5000 0.0 0 0 221.1000 392.9000" />
<path d="M221.1000 356.9000 A1.5000 1.5000 0.0 0 0 218.1000 356.9000" />
<path d="M218.1000 392.9000
L218.1000 356.9000
" />
<path d="M181.9000 356.9000
L181.9000 392.9000
" />
<path d="M178.9000 392.9000 A1.5000 1.5000 0.0 0 0 181.9000 392.9000" />
<path d="M181.9000 356.9000 A1.5000 1.5000 0.0 0 0 178.9000 356.9000" />
<path d="M178.9000 392.9000
L178.9000 356.9000
" />
<path d="M162.3000 356.9000
L162.3000 392.9000
" />
<path d="M159.3000 392.9000 A1.5000 1.5000 0.0 0 0 162.3000 392.9000" />
<path d="M162.3000 356.9000 A1.5000 1.5000 0.0 0 0 159.3000 356.9000" />
<path d="M159.3000 392.9000
L159.3000 356.9000
" />
<path d="M123.1000 356.9000 A1.5000 1.5000 0.0 0 0 120.1000 356.9000" />
<path d="M120.1000 392.9000
L120.1000 356.9000
" />
<path d="M120.1000 392.9000 A1.5000 1.5000 0.0 0 0 123.1000 392.9000" />
<path d="M123.1000 356.9000
L123.1000 392.9000
" />
<path d="M103.5000 356.9000
L103.5000 392.9000
" />
<path d="M100.5000 392.9000
L100.5000 356.9000
" />
<path d="M100.5000 392.9000 A1.5000 1.5000 0.0 0 0 103.5000 392.9000" />
<path d="M103.5000 356.9000 A1.5000 1.5000 0.0 0 0 100.5000 356.9000" />
<path d="M80.9000 392.9000
L80.9000 356.9000
" />
<path d="M83.9000 356.9000
L83.9000 392.9000
" />
<path d="M80.9000 392.9000 A1.5000 1.5000 0.0 0 0 83.9000 392.9000" />
<path d="M83.9000 356.9000 A1.5000 1.5000 0.0 0 0 80.9000 356.9000" />
<path d="M214.0000 238.4000 A2.0000 2.0000 0.0 0 0 216.0000 240.4000" />
<path d="M222.0000 240.4000 A2.0000 2.0000 0.0 0 0 224.0000 238.4000" />
<path d="M242.2000 240.4000 A2.0000 2.0000 0.0 0 0 244.2000 238.4000" />
<path d="M262.4000 240.4000
L256.4000 240.4000
" />
<path d="M262.4000 240.4000 A2.0000 2.0000 0.0 0 0 264.4000 238.4000" />
<path d="M254.4000 238.4000
L254.4000 202.4000
" />
<path d="M264.4000 202.4000
L264.4000 238.4000
" />
<path d="M254.4000 238.4000 A2.0000 2.0000 0.0 0 0 256.4000 240.4000" />
<path d="M214.0000 238.4000
L214.0000 202.4000
" />
<path d="M222.0000 240.4000
L216.0000 240.4000
" />
<path d="M234.2000 238.4000
L234.2000 202.4000
" />
<path d="M244.2000 202.4000
L244.2000 238.4000
" />
<path d="M224.0000 202.4000
L224.0000 238.4000
" />
<path d="M234.2000 238.4000 A2.0000 2.0000 0.0 0 0 236.2000 240.4000" />
<path d="M242.2000 240.4000
L236.2000 240.4000
" />
<path d="M125.2000 240.4000 A2.0000 2.0000 0.0 0 0 127.2000 238.4000" />
<path d="M117.2000 238.4000
L117.2000 202.4000
" />
<path d="M127.2000 202.4000
L127.2000 238.4000
" />
<path d="M117.2000 238.4000 A2.0000 2.0000 0.0 0 0 119.2000 240.4000" />
<path d="M125.2000 240.4000
L119.2000 240.4000
" />
<path d="M76.8000 238.4000
L76.8000 202.4000
" />
<path d="M84.8000 240.4000
L78.8000 240.4000
" />
<path d="M86.8000 202.4000
L86.8000 238.4000
" />
<path d="M97.0000 238.4000
L97.0000 202.4000
" />
<path d="M105.0000 240.4000
L99.0000 240.4000
" />
<path d="M107.0000 202.4000
L107.0000 238.4000
" />
<path d="M97.0000 238.4000 A2.0000 2.0000 0.0 0 0 99.0000 240.4000" />
<path d="M76.8000 238.4000 A2.0000 2.0000 0.0 0 0 78.8000 240.4000" />
<path d="M84.8000 240.4000 A2.0000 2.0000 0.0 0 0 86.8000 238.4000" />
<path d="M105.0000 240.4000 A2.0000 2.0000 0.0 0 0 107.0000 238.4000" />
<path d="M155.4000 238.4000
L155.4000 202.4000
" />
<path d="M163.4000 240.4000
L157.4000 240.4000
" />
<path d="M165.4000 202.4000
L165.4000 238.4000
" />
<path d="M175.6000 238.4000
L175.6000 202.4000
" />
<path d="M183.6000 240.4000
L177.6000 240.4000
" />
<path d="M185.6000 202.4000
L185.6000 238.4000
" />
<path d="M175.6000 238.4000 A2.0000 2.0000 0.0 0 0 177.6000 240.4000" />
<path d="M155.4000 238.4000 A2.0000 2.0000 0.0 0 0 157.4000 240.4000" />
<path d="M163.4000 240.4000 A2.0000 2.0000 0.0 0 0 165.4000 238.4000" />
<path d="M183.6000 240.4000 A2.0000 2.0000 0.0 0 0 185.6000 238.4000" />
<path d="M312.8000 238.4000 A2.0000 2.0000 0.0 0 0 314.8000 240.4000" />
<path d="M292.6000 238.4000 A2.0000 2.0000 0.0 0 0 294.6000 240.4000" />
<path d="M300.6000 240.4000 A2.0000 2.0000 0.0 0 0 302.6000 238.4000" />
<path d="M320.8000 240.4000 A2.0000 2.0000 0.0 0 0 322.8000 238.4000" />
<path d="M312.8000 202.4000 A2.0000 2.0000 0.0 0 0 310.8000 200.4000" />
<path d="M292.6000 202.4000 A2.0000 2.0000 0.0 0 0 290.6000 200.4000" />
<path d="M254.4000 202.4000 A2.0000 2.0000 0.0 0 0 252.4000 200.4000" />
<path d="M234.2000 202.4000 A2.0000 2.0000 0.0 0 0 232.2000 200.4000" />
<path d="M214.0000 202.4000 A2.0000 2.0000 0.0 0 0 212.0000 200.4000" />
<path d="M175.6000 202.4000 A2.0000 2.0000 0.0 0 0 173.6000 200.4000" />
<path d="M155.4000 202.4000 A2.0000 2.0000 0.0 0 0 153.4000 200.4000" />
<path d="M117.2000 202.4000 A2.0000 2.0000 0.0 0 0 115.2000 200.4000" />
<path d="M97.0000 202.4000 A2.0000 2.0000 0.0 0 0 95.0000 200.4000" />
<path d="M76.8000 202.4000 A2.0000 2.0000 0.0 0 0 74.8000 200.4000" />
<path d="M88.8000 200.4000 A2.0000 2.0000 0.0 0 0 86.8000 202.4000" />
<path d="M109.0000 200.4000 A2.0000 2.0000 0.0 0 0 107.0000 202.4000" />
<path d="M129.2000 200.4000 A2.0000 2.0000 0.0 0 0 127.2000 202.4000" />
<path d="M167.4000 200.4000 A2.0000 2.0000 0.0 0 0 165.4000 202.4000" />
<path d="M187.6000 200.4000 A2.0000 2.0000 0.0 0 0 185.6000 202.4000" />
<path d="M226.0000 200.4000 A2.0000 2.0000 0.0 0 0 224.0000 202.4000" />
<path d="M246.2000 200.4000 A2.0000 2.0000 0.0 0 0 244.2000 202.4000" />
<path d="M266.4000 200.4000 A2.0000 2.0000 0.0 0 0 264.4000 202.4000" />
<path d="M304.6000 200.4000 A2.0000 2.0000 0.0 0 0 302.6000 202.4000" />
<path d="M324.8000 200.4000 A2.0000 2.0000 0.0 0 0 322.8000 202.4000" />
<path d="M340.0000 171.6000 A5.6000 5.6000 0.0 0 0 334.4000 166.0000" />
<path d="M334.4000 200.4000 A5.6000 5.6000 0.0 0 0 340.0000 194.8000" />
<path d="M60.0000 194.8000 A5.6000 5.6000 0.0 0 0 65.6000 200.4000" />
<path d="M65.6000 166.0000 A5.6000 5.6000 0.0 0 0 60.0000 171.6000" />
<path d="M334.4000 400.0000 A5.6000 5.6000 0.0 0 0 340.0000 394.4000" />
<path d="M340.0000 285.6000 A5.6000 5.6000 0.0 0 0 334.4000 280.0000" />
<path d="M65.6000 280.0000 A5.6000 5.6000 0.0 0 0 60.0000 285.6000" />
<path d="M60.0000 394.4000
L60.0000 285.6000
" />
<path d="M334.4000 400.0000
L65.6000 400.0000
" />
<path d="M340.0000 285.6000
L340.0000 394.4000
" />
<path d="M65.6000 280.0000
L334.4000 280.0000
" />
<path d="M60.0000 394.4000 A5.6000 5.6000 0.0 0 0 65.6000 400.0000" />
<path d="M74.8000 200.4000
L65.6000 200.4000
" />
<path d="M95.0000 200.4000
L88.8000 200.4000
" />
<path d="M115.2000 200.4000
L109.0000 200.4000
" />
<path d="M153.4000 200.4000
L129.2000 200.4000
" />
<path d="M173.6000 200.4000
L167.4000 200.4000
" />
<path d="M212.0000 200.4000
L187.6000 200.4000
" />
<path d="M232.2000 200.4000
L226.0000 200.4000
" />
<path d="M252.4000 200.4000
L246.2000 200.4000
" />
<path d="M290.6000 200.4000
L266.4000 200.4000
" />
<path d="M310.8000 200.4000
L304.6000 200.4000
" />
<path d="M334.4000 200.4000
L324.8000 200.4000
" />
<path d="M312.8000 238.4000
L312.8000 202.4000
" />
<path d="M320.8000 240.4000
L314.8000 240.4000
" />
<path d="M322.8000 202.4000
L322.8000 238.4000
" />
<path d="M292.6000 238.4000
L292.6000 202.4000
" />
<path d="M300.6000 240.4000
L294.6000 240.4000
" />
<path d="M302.6000 202.4000
L302.6000 238.4000
" />
<path d="M60.0000 194.8000
L60.0000 171.6000
" />
<path d="M340.0000 171.6000
L340.0000 194.8000
" />
<path d="M65.6000 166.0000
L334.4000 166.0000
" />
<g >
</g>
<g >
</g>
<g >
</g>
<g >
</g>
<g >
</g>
<g >
</g>
<g >
</g>
<g >
</g>
<g >
</g>
<g >
</g>
<g >
</g>
<g >
</g>
<g >
</g>
<g >
</g>
<g >
</g>
<g >
</g>
</g> 
</svg>
