<?xml version="1.0" encoding="UTF-8"?>
<svg width="376.470588px" height="30.4px" viewBox="0 0 376.470588 30.4" version="1.1" xmlns="http://www.w3.org/2000/svg" xmlns:xlink="http://www.w3.org/1999/xlink">
    <title>zone</title>
    <g id="Page-1" stroke="none" stroke-width="1" fill="none" fill-rule="evenodd">
        <g id="zone" transform="translate(0.000000, 0.000000)" fill="#000000">
            <path d="M45.1764706,0 L52.7510873,0 C61.9318129,0 67.7647059,5.89989364 67.7647059,15.2 C67.7647059,24.5080611 61.9441529,30.4 52.7510873,30.4 L45.1764706,30.4 C43.0972809,30.4 41.4117647,28.698682 41.4117647,26.6 L41.4117647,3.8 C41.4117647,1.70131795 43.0972809,0 45.1764706,0 Z" id="Path" fill-rule="nonzero"></path>
            <path d="M22.5882353,0 L15.0136185,0 C5.83289296,0 -1.42108547e-14,5.89989364 -1.42108547e-14,15.2 C-1.42108547e-14,24.5080611 5.82055294,30.4 15.0136185,30.4 L22.5882353,30.4 C24.6674249,30.4 26.3529412,28.698682 26.3529412,26.6 L26.3529412,3.8 C26.3529412,1.70131795 24.6674249,0 22.5882353,0 Z" id="Path" fill-rule="nonzero"></path>
            <path d="M361.411765,-7.10542736e-15 C369.728523,-7.10542736e-15 376.470588,6.8052718 376.470588,15.2 C376.470588,23.3832187 370.063983,30.0560663 362.037318,30.3871232 L274.235294,24.2 L362.235294,18.24 L274.235294,12.2 L362.235294,6.08 L274.235294,-7.10542736e-15 L361.411765,-7.10542736e-15 Z" id="Path" fill-rule="nonzero"></path>
            <path d="M96.8026925,0.03846575 L185.235294,6.08 L96.2352941,12.16 L185.235294,18.24 L96.2352941,24.32 L185.235294,30.4 L97.8823529,30.4 C89.5655944,30.4 82.8235294,23.5947282 82.8235294,15.2 C82.8235294,7.17170563 88.9898518,0.597135112 96.8026925,0.03846575 Z" id="Path" fill-rule="nonzero"></path>
            <polygon id="Path-2-Copy" points="96.2352941 0 185.235294 6.08 96.2352941 12.16 185.235294 18.24 96.2352941 24.32 185.235294 30.4 273.235294 30.4 185.235294 24.2 273.235294 18.24 185.235294 12.2 273.235294 6.08 185.235294 3.27515792e-15"></polygon>
            <polygon id="Path-2-Copy-2" points="185.235294 0 274.235294 6.08 185.235294 12.16 274.235294 18.24 185.235294 24.32 274.235294 30.4 362.235294 30.4 274.235294 24.2 362.235294 18.24 274.235294 12.2 362.235294 6.08 274.235294 3.27515792e-15"></polygon>
        </g>
    </g>
</svg>