<?xml version="1.0" encoding="UTF-8"?>
<svg width="181.92px" height="21.12px" viewBox="0 0 181.92 21.12" version="1.1" xmlns="http://www.w3.org/2000/svg" xmlns:xlink="http://www.w3.org/1999/xlink">
    <title>elephants</title>
    <g id="Page-1" stroke="none" stroke-width="1" fill="none" fill-rule="evenodd">
        <g id="Artboard" transform="translate(-10.600000, -833.200000)" fill="#000000" fill-rule="nonzero">
            <g id="elephants" transform="translate(10.600000, 833.200000)">
                <path d="M9.12,17.352 C15.144,17.352 18.264,15.432 19.44,12.888 L11.64,12.888 C11.112,13.464 10.56,13.8 9.552,13.8 C8.688,13.8 8.064,13.56 7.68,13.032 C7.464,12.744 7.344,12.36 7.296,11.904 L19.56,11.904 C19.752,11.04 19.872,10.32 19.872,9.648 C19.872,6.288 16.656,4.008 10.8,4.008 C6.528,4.008 2.712,5.448 1.08,7.776 C0.36,8.832 0,10.056 0,11.28 C0,12.384 0.312,13.392 0.888,14.232 C2.376,16.368 6.024,17.352 9.12,17.352 Z M7.68,9.264 C7.776,9.096 7.848,8.928 7.968,8.76 C8.472,7.992 9.336,7.488 10.68,7.488 C12.048,7.488 12.696,8.088 12.696,8.856 C12.696,9 12.672,9.192 12.648,9.264 L7.68,9.264 Z" id="Shape"></path>
                <polygon id="Path" points="20.784 16.8 28.704 16.8 31.968 0 24.048 0"></polygon>
                <path d="M41.136,17.352 C47.16,17.352 50.28,15.432 51.456,12.888 L43.656,12.888 C43.128,13.464 42.576,13.8 41.568,13.8 C40.704,13.8 40.08,13.56 39.696,13.032 C39.48,12.744 39.36,12.36 39.312,11.904 L51.576,11.904 C51.768,11.04 51.888,10.32 51.888,9.648 C51.888,6.288 48.672,4.008 42.816,4.008 C38.544,4.008 34.728,5.448 33.096,7.776 C32.376,8.832 32.016,10.056 32.016,11.28 C32.016,12.384 32.328,13.392 32.904,14.232 C34.392,16.368 38.04,17.352 41.136,17.352 Z M39.696,9.264 C39.792,9.096 39.864,8.928 39.984,8.76 C40.488,7.992 41.352,7.488 42.696,7.488 C44.064,7.488 44.712,8.088 44.712,8.856 C44.712,9 44.688,9.192 44.664,9.264 L39.696,9.264 Z" id="Shape"></path>
                <path d="M51.984,21.12 L59.904,21.12 L60.744,16.8 L60.312,13.392 L60.912,13.392 C61.704,15.96 63.576,17.352 66.624,17.352 C69.648,17.352 72.024,16.248 73.32,14.352 C74.28,12.984 74.688,11.136 74.688,9.6 C74.688,8.4 74.424,7.2 73.776,6.264 C72.816,4.896 70.968,4.008 68.472,4.008 C65.376,4.008 63.672,5.184 61.992,7.488 L61.368,7.488 L63.12,4.56 L55.2,4.56 L51.984,21.12 Z M61.848,11.112 C61.848,10.56 61.992,9.888 62.352,9.384 C62.784,8.736 63.528,8.328 64.512,8.328 C65.328,8.328 65.976,8.616 66.336,9.12 C66.552,9.432 66.648,9.816 66.648,10.272 C66.648,10.824 66.504,11.472 66.144,11.976 C65.712,12.624 64.968,13.032 63.96,13.032 C63.168,13.032 62.52,12.744 62.16,12.24 C61.944,11.928 61.848,11.544 61.848,11.112 Z" id="Shape"></path>
                <path d="M75.744,16.8 L83.664,16.8 L84.816,10.896 C85.104,9.408 85.8,8.568 87.048,8.568 C88.224,8.568 88.584,9.336 88.344,10.536 L87.12,16.8 L95.064,16.8 L96.456,9.576 C97.152,6.024 94.992,4.008 91.248,4.008 C88.2,4.008 86.472,5.208 84.84,7.488 L84.24,7.488 L86.04,4.56 L86.928,0 L78.984,0 L75.744,16.8 Z" id="Path"></path>
                <path d="M103.056,17.352 C106.728,17.352 108.6,16.296 110.136,13.752 L110.736,13.752 L109.08,16.8 L116.568,16.8 L117.816,10.44 C118.848,5.112 113.76,4.008 109.08,4.008 C100.08,4.008 98.952,7.896 98.616,9.096 L106.56,9.096 C106.656,8.736 107.016,7.8 108.576,7.8 C109.512,7.8 110.304,8.136 110.064,9.504 L103.752,9.912 C101.784,10.056 100.008,10.488 99,11.496 C98.4,12.096 98.064,12.888 98.064,13.92 C98.064,14.76 98.328,15.528 98.928,16.104 C99.696,16.872 101.016,17.352 103.056,17.352 Z M106.128,13.224 C106.128,12.96 106.224,12.744 106.392,12.576 C106.656,12.312 107.04,12.192 107.616,12.12 L109.608,11.952 L109.584,12.024 C109.488,12.432 109.104,14.04 107.28,14.04 C106.824,14.04 106.512,13.92 106.344,13.752 C106.2,13.632 106.128,13.44 106.128,13.224 Z" id="Shape"></path>
                <path d="M119.376,16.8 L127.296,16.8 L128.448,10.896 C128.736,9.408 129.432,8.568 130.68,8.568 C131.856,8.568 132.216,9.336 131.976,10.536 L130.752,16.8 L138.696,16.8 L140.088,9.576 C140.784,6.024 138.624,4.008 134.88,4.008 C131.832,4.008 130.104,5.208 128.472,7.488 L127.872,7.488 L129.672,4.56 L121.752,4.56 L119.376,16.8 Z" id="Path"></path>
                <path d="M152.16,17.352 C157.848,17.352 161.064,15.336 161.688,12.096 L162.024,10.296 L154.416,10.296 L154.104,11.904 C153.936,12.672 153.456,13.128 152.616,13.128 C151.608,13.128 151.488,12.48 151.608,11.808 L152.28,8.4 L162.408,8.4 L163.152,4.56 L153.024,4.56 L153.72,1.008 L145.368,3.144 L145.104,4.56 L142.584,4.56 L141.84,8.4 L144.36,8.4 L143.784,11.328 C142.944,15.672 146.568,17.352 152.16,17.352 Z" id="Path"></path>
                <path d="M171.648,17.352 C175.488,17.352 178.416,16.704 179.856,15.288 C180.528,14.616 180.888,13.752 180.888,12.624 C180.888,10.776 179.712,9.84 176.256,9.264 L172.704,8.712 C171.624,8.544 171.288,8.376 171.288,8.04 C171.288,7.92 171.336,7.8 171.432,7.704 C171.672,7.464 172.344,7.392 172.872,7.392 C173.952,7.392 174.624,7.608 174.624,8.136 C174.624,8.256 174.6,8.352 174.576,8.4 L181.872,8.4 C181.896,8.304 181.92,8.16 181.92,7.944 C181.92,5.784 179.064,4.008 173.28,4.008 C169.464,4.008 166.488,4.656 165.048,6.072 C164.376,6.768 164.064,7.632 164.064,8.52 C164.064,10.272 165.264,11.424 168.6,11.976 L172.056,12.504 C173.232,12.696 173.592,12.888 173.592,13.272 C173.592,13.44 173.52,13.56 173.424,13.656 C173.208,13.872 172.512,13.968 171.96,13.968 C170.88,13.968 170.304,13.704 170.304,13.32 C170.304,13.224 170.328,13.104 170.352,13.056 L163.056,13.056 C163.032,13.128 163.008,13.272 163.008,13.488 C163.008,15.48 165.696,17.352 171.648,17.352 Z" id="Path"></path>
            </g>
        </g>
    </g>
</svg>